# Exported from Blender by blender_stonefish_plugin
# Vertices: 24, Faces: 44

v -0.153280 -0.306560 -0.005774
v 0.153280 -0.306560 -0.005774
v -0.153280 0.306560 -0.005774
v 0.153280 0.306560 -0.005774
v -0.152859 -0.305719 0.143355
v 0.152859 -0.305719 0.143355
v -0.152859 0.305719 0.143355
v 0.152859 0.305719 0.143355
v -0.304800 -0.457200 0.142400
v 0.304800 -0.457200 0.142400
v -0.304800 0.457200 0.142400
v 0.304800 0.457200 0.142400
v -0.152400 -0.304800 0.000000
v 0.152400 -0.304800 0.000000
v -0.152400 0.304800 0.000000
v 0.152400 0.304800 0.000000
v -0.152400 -0.304800 0.152400
v 0.152400 -0.304800 0.152400
v -0.152400 0.304800 0.152400
v 0.152400 0.304800 0.152400
v -0.304800 -0.457200 0.152400
v 0.304800 -0.457200 0.152400
v -0.304800 0.457200 0.152400
v 0.304800 0.457200 0.152400

vt 0.853130 0.546369
vt 0.905631 0.547286
vt 0.898406 0.638181
vt 0.814068 0.299695
vt 0.780798 0.332863
vt 0.713859 0.332863
vt 0.814248 0.689600
vt 0.845905 0.637264
vt 0.898406 0.638181
vt 0.937287 0.494951
vt 0.905631 0.547286
vt 0.853130 0.546369
vt 0.814248 0.509626
vt 0.853130 0.546369
vt 0.845905 0.637264
vt 0.937287 0.674925
vt 0.898406 0.638181
vt 0.905631 0.547286
vt 0.680590 0.299694
vt 0.713859 0.332863
vt 0.713859 0.466741
vt 0.814068 0.499910
vt 0.780798 0.466742
vt 0.780798 0.332863
vt 0.680590 0.499910
vt 0.713859 0.466741
vt 0.780798 0.466742
vt 0.499411 -0.000648
vt 0.499411 0.992599
vt 0.002788 0.992599
vt 0.713959 0.666937
vt 0.780697 0.666937
vt 0.814067 0.700306
vt 0.814248 0.299694
vt 0.937711 0.314391
vt 0.898165 0.351963
vt 0.937711 0.494770
vt 0.814248 0.480074
vt 0.853794 0.442501
vt 0.937711 0.314391
vt 0.937711 0.494770
vt 0.905502 0.441428
vt 0.814248 0.480074
vt 0.814248 0.299694
vt 0.846457 0.353037
vt 0.680590 0.500091
vt 0.713959 0.533460
vt 0.713959 0.666937
vt 0.814067 0.700306
vt 0.780697 0.666937
vt 0.780697 0.533460
vt 0.780697 0.533460
vt 0.713959 0.533460
vt 0.680590 0.500091
vt 0.678137 0.302885
vt 0.680409 0.299694
vt 0.680409 0.496608
vt 0.677679 0.494442
vt 0.680409 0.496608
vt 0.537273 0.511472
vt 0.539545 0.508282
vt 0.537273 0.511472
vt 0.537273 0.314559
vt 0.540004 0.316725
vt 0.537273 0.314559
vt 0.680409 0.299694
vt 0.845905 0.637264
vt 0.853130 0.546369
vt 0.898406 0.638181
vt 0.680590 0.299694
vt 0.814068 0.299695
vt 0.713859 0.332863
vt 0.937287 0.674925
vt 0.814248 0.689600
vt 0.898406 0.638181
vt 0.814248 0.509626
vt 0.937287 0.494951
vt 0.853130 0.546369
vt 0.814248 0.689600
vt 0.814248 0.509626
vt 0.845905 0.637264
vt 0.937287 0.494951
vt 0.937287 0.674925
vt 0.905631 0.547286
vt 0.680590 0.499910
vt 0.680590 0.299694
vt 0.713859 0.466741
vt 0.814068 0.299695
vt 0.814068 0.499910
vt 0.780798 0.332863
vt 0.814068 0.499910
vt 0.680590 0.499910
vt 0.780798 0.466742
vt 0.002788 -0.000648
vt 0.499411 -0.000648
vt 0.002788 0.992599
vt 0.680590 0.700306
vt 0.713959 0.666937
vt 0.814067 0.700306
vt 0.846457 0.353037
vt 0.814248 0.299694
vt 0.898165 0.351963
vt 0.905502 0.441428
vt 0.937711 0.494770
vt 0.853794 0.442501
vt 0.898165 0.351963
vt 0.937711 0.314391
vt 0.905502 0.441428
vt 0.853794 0.442501
vt 0.814248 0.480074
vt 0.846457 0.353037
vt 0.680590 0.700306
vt 0.680590 0.500091
vt 0.713959 0.666937
vt 0.814067 0.500091
vt 0.814067 0.700306
vt 0.780697 0.533460
vt 0.814067 0.500091
vt 0.780697 0.533460
vt 0.680590 0.500091
vt 0.677679 0.494442
vt 0.678137 0.302885
vt 0.680409 0.496608
vt 0.539545 0.508282
vt 0.677679 0.494442
vt 0.537273 0.511472
vt 0.540004 0.316725
vt 0.539545 0.508282
vt 0.537273 0.314559
vt 0.678137 0.302885
vt 0.540004 0.316725
vt 0.680409 0.299694

vn 0.000000 0.000000 -1.000000
vn 0.000000 0.006304 -0.999980
vn 0.000000 0.999984 0.005639
vn 0.000000 -0.999984 0.005639
vn 0.999996 0.000000 0.002823
vn -0.999996 0.000000 0.002823
vn -0.006285 0.000000 -0.999980
vn 0.006285 0.000000 -0.999980
vn 0.000000 -0.006304 -0.999980
vn 0.000000 0.000000 1.000000
vn 0.000000 0.000000 1.000000
vn 0.000000 -1.000000 0.000000
vn 0.000000 1.000000 0.000000
vn -1.000000 0.000000 0.000000
vn 1.000000 0.000000 0.000000
vn 0.000000 0.000000 1.000000
vn 0.000000 0.000000 1.000000
vn 0.000000 0.000000 1.000000
vn -1.000000 0.000000 -0.000000
vn 0.000000 -1.000000 0.000000
vn 1.000000 0.000000 0.000000
vn 0.000000 1.000000 0.000000
vn -0.000000 -0.000000 -1.000000
vn 0.000000 0.006304 -0.999980
vn -0.000000 0.999984 0.005639
vn 0.000000 -0.999984 0.005639
vn 0.999996 0.000000 0.002823
vn -0.999996 0.000000 0.002823
vn -0.006285 -0.000000 -0.999980
vn 0.006285 0.000000 -0.999980
vn 0.000000 -0.006304 -0.999980
vn 0.000000 0.000000 1.000000
vn 0.000000 0.000000 1.000000
vn 0.000000 -1.000000 0.000000
vn 0.000000 1.000000 0.000000
vn -1.000000 -0.000000 -0.000000
vn 1.000000 -0.000000 0.000000
vn 0.000000 -0.000000 1.000000
vn 0.000000 0.000000 1.000000
vn -0.000000 0.000000 1.000000
vn -1.000000 0.000000 0.000000
vn -0.000000 -1.000000 -0.000000
vn 1.000000 0.000000 0.000000
vn -0.000000 1.000000 0.000000

f 2/1/1 1/2/1 3/3/1
f 9/4/2 5/5/2 6/6/2
f 8/7/3 4/8/3 3/9/3
f 5/10/4 1/11/4 2/12/4
f 6/13/5 2/14/5 4/15/5
f 7/16/6 3/17/6 1/18/6
f 10/19/7 6/20/7 8/21/7
f 11/22/8 7/23/8 5/24/8
f 12/25/9 8/26/9 7/27/9
f 15/28/10 13/29/10 14/30/10
f 18/31/11 17/32/11 21/33/11
f 15/34/12 16/35/12 20/36/12
f 14/37/13 13/38/13 17/39/13
f 16/40/14 14/41/14 18/42/14
f 13/43/15 15/44/15 19/45/15
f 24/46/16 20/47/16 18/48/16
f 21/49/17 17/50/17 19/51/17
f 19/52/18 20/53/18 24/54/18
f 23/55/19 11/56/19 9/57/19
f 21/58/20 9/59/20 10/60/20
f 22/61/21 10/62/21 12/63/21
f 24/64/22 12/65/22 11/66/22
f 4/67/23 2/68/23 3/69/23
f 10/70/24 9/71/24 6/72/24
f 7/73/25 8/74/25 3/75/25
f 6/76/26 5/77/26 2/78/26
f 8/79/27 6/80/27 4/81/27
f 5/82/28 7/83/28 1/84/28
f 12/85/29 10/86/29 8/87/29
f 9/88/30 11/89/30 5/90/30
f 11/91/31 12/92/31 7/93/31
f 16/94/32 15/95/32 14/96/32
f 22/97/33 18/98/33 21/99/33
f 19/100/34 15/101/34 20/102/34
f 18/103/35 14/104/35 17/105/35
f 20/106/36 16/107/36 18/108/36
f 17/109/37 13/110/37 19/111/37
f 22/112/38 24/113/38 18/114/38
f 23/115/39 21/116/39 19/117/39
f 23/118/40 19/119/40 24/120/40
f 21/121/41 23/122/41 9/123/41
f 22/124/42 21/125/42 10/126/42
f 24/127/43 22/128/43 12/129/43
f 23/130/44 24/131/44 11/132/44
