# Exported from Blender by blender_stonefish_plugin
# Vertices: 32, Faces: 18

v 0.000000 0.025400 0.450000
v 0.000000 0.025400 -0.450000
v 0.009720 0.023467 0.450000
v 0.009720 0.023467 -0.450000
v 0.017961 0.017961 0.450000
v 0.017961 0.017961 -0.450000
v 0.023467 0.009720 0.450000
v 0.023467 0.009720 -0.450000
v 0.025400 0.000000 0.450000
v 0.025400 0.000000 -0.450000
v 0.023467 -0.009720 0.450000
v 0.023467 -0.009720 -0.450000
v 0.017961 -0.017961 0.450000
v 0.017961 -0.017961 -0.450000
v 0.009720 -0.023467 0.450000
v 0.009720 -0.023467 -0.450000
v 0.000000 -0.025400 0.450000
v 0.000000 -0.025400 -0.450000
v -0.009720 -0.023467 0.450000
v -0.009720 -0.023467 -0.450000
v -0.017961 -0.017961 0.450000
v -0.017961 -0.017961 -0.450000
v -0.023467 -0.009720 0.450000
v -0.023467 -0.009720 -0.450000
v -0.025400 0.000000 0.450000
v -0.025400 0.000000 -0.450000
v -0.023467 0.009720 0.450000
v -0.023467 0.009720 -0.450000
v -0.017961 0.017961 0.450000
v -0.017961 0.017961 -0.450000
v -0.009720 0.023467 0.450000
v -0.009720 0.023467 -0.450000

vn 0.195090 0.980785 0.000000
vn 0.555570 0.831470 0.000000
vn 0.831470 0.555570 0.000000
vn 0.980785 0.195090 0.000000
vn 0.980785 -0.195090 0.000000
vn 0.831470 -0.555570 0.000000
vn 0.555570 -0.831470 0.000000
vn 0.195090 -0.980785 0.000000
vn -0.195090 -0.980785 -0.000000
vn -0.555570 -0.831470 -0.000000
vn -0.831470 -0.555570 -0.000000
vn -0.980785 -0.195090 -0.000000
vn -0.980785 0.195090 0.000000
vn -0.831470 0.555570 0.000000
vn 0.000000 0.000000 -1.000000
vn -0.555570 0.831470 0.000000
vn -0.195090 0.980785 0.000000
vn 0.000000 0.000000 1.000000

f 3//1 4//1 2//1 1//1
f 5//2 6//2 4//2 3//2
f 7//3 8//3 6//3 5//3
f 9//4 10//4 8//4 7//4
f 11//5 12//5 10//5 9//5
f 13//6 14//6 12//6 11//6
f 15//7 16//7 14//7 13//7
f 17//8 18//8 16//8 15//8
f 19//9 20//9 18//9 17//9
f 21//10 22//10 20//10 19//10
f 23//11 24//11 22//11 21//11
f 25//12 26//12 24//12 23//12
f 27//13 28//13 26//13 25//13
f 29//14 30//14 28//14 27//14
f 6//15 8//15 10//15 12//15 14//15 16//15 18//15 20//15 22//15 24//15 26//15 28//15 30//15 32//15 2//15 4//15
f 31//16 32//16 30//16 29//16
f 1//17 2//17 32//17 31//17
f 31//18 29//18 27//18 25//18 23//18 21//18 19//18 17//18 15//18 13//18 11//18 9//18 7//18 5//18 3//18 1//18
