# Exported from Blender by blender_stonefish_plugin
# Vertices: 8, Faces: 6

v -3.100000 26.189999 -1.375000
v -3.100000 26.189999 -4.325000
v -3.100000 26.209999 -1.375000
v -3.100000 26.209999 -4.325000
v 3.100000 26.189999 -1.375000
v 3.100000 26.189999 -4.325000
v 3.100000 26.209999 -1.375000
v 3.100000 26.209999 -4.325000

vt 13.342500 0.687500
vt 13.342500 2.162500
vt 13.332500 2.162500
vt 13.332500 0.687500
vt 1.550000 0.687500
vt 1.550000 2.162500
vt -1.550000 2.162500
vt -1.550000 0.687500
vt 13.332500 0.687500
vt 13.332500 2.162500
vt 13.342500 2.162500
vt 13.342500 0.687500
vt -1.550000 0.687500
vt -1.550000 2.162500
vt 1.550000 2.162500
vt 1.550000 0.687500
vt -1.550000 13.332500
vt 1.550000 13.332500
vt 1.550000 13.342500
vt -1.550000 13.342500
vt 1.550000 13.332500
vt -1.550000 13.332500
vt -1.550000 13.342500
vt 1.550000 13.342500

vn -1.000000 0.000000 -0.000000
vn 0.000000 1.000000 0.000000
vn 1.000000 0.000000 0.000000
vn 0.000000 -1.000000 0.000000
vn 0.000000 0.000000 1.000000
vn 0.000000 0.000000 -1.000000

f 3/1/1 4/2/1 2/3/1 1/4/1
f 7/5/2 8/6/2 4/7/2 3/8/2
f 5/9/3 6/10/3 8/11/3 7/12/3
f 1/13/4 2/14/4 6/15/4 5/16/4
f 1/17/5 5/18/5 7/19/5 3/20/5
f 6/21/6 2/22/6 4/23/6 8/24/6
