# Exported from Blender by blender_stonefish_plugin
# Vertices: 32, Faces: 24

v 5.940000 -4.350000 -0.130000
v 5.940000 -4.350000 -0.220000
v 5.940000 24.350000 -0.130000
v 5.940000 24.350000 -0.220000
v 6.300000 -4.350000 -0.130000
v 6.300000 -4.350000 -0.220000
v 6.300000 24.350000 -0.130000
v 6.300000 24.350000 -0.220000
v -6.300000 -4.350000 -0.130000
v -6.300000 -4.350000 -0.220000
v -6.300000 24.350000 -0.130000
v -6.300000 24.350000 -0.220000
v -5.940000 -4.350000 -0.130000
v -5.940000 -4.350000 -0.220000
v -5.940000 24.350000 -0.130000
v -5.940000 24.350000 -0.220000
v -6.040000 23.969999 -0.130000
v -6.040000 23.969999 -0.220000
v -6.040000 24.330000 -0.130000
v -6.040000 24.330000 -0.220000
v 6.040000 23.969999 -0.130000
v 6.040000 23.969999 -0.220000
v 6.040000 24.330000 -0.130000
v 6.040000 24.330000 -0.220000
v -6.040000 -4.330000 -0.130000
v -6.040000 -4.330000 -0.220000
v -6.040000 -3.970000 -0.130000
v -6.040000 -3.970000 -0.220000
v 6.040000 -4.330000 -0.130000
v 6.040000 -4.330000 -0.220000
v 6.040000 -3.970000 -0.130000
v 6.040000 -3.970000 -0.220000

vt 30.437500 0.162500
vt 30.437500 0.275000
vt -5.437500 0.275000
vt -5.437500 0.162500
vt 7.875000 0.162500
vt 7.875000 0.275000
vt 7.425000 0.275000
vt 7.425000 0.162500
vt -5.437500 0.162500
vt -5.437500 0.275000
vt 30.437500 0.275000
vt 30.437500 0.162500
vt 7.425000 0.162500
vt 7.425000 0.275000
vt 7.875000 0.275000
vt 7.875000 0.162500
vt 7.425000 -5.437500
vt 7.875000 -5.437500
vt 7.875000 30.437500
vt 7.425000 30.437500
vt 7.875000 -5.437500
vt 7.425000 -5.437500
vt 7.425000 30.437500
vt 7.875000 30.437500
vt 30.437500 0.162500
vt 30.437500 0.275000
vt -5.437500 0.275000
vt -5.437500 0.162500
vt -7.425000 0.162500
vt -7.425000 0.275000
vt -7.875000 0.275000
vt -7.875000 0.162500
vt -5.437500 0.162500
vt -5.437500 0.275000
vt 30.437500 0.275000
vt 30.437500 0.162500
vt -7.875000 0.162500
vt -7.875000 0.275000
vt -7.425000 0.275000
vt -7.425000 0.162500
vt -7.875000 -5.437500
vt -7.425000 -5.437500
vt -7.425000 30.437500
vt -7.875000 30.437500
vt -7.425000 -5.437500
vt -7.875000 -5.437500
vt -7.875000 30.437500
vt -7.425000 30.437500
vt 30.412500 0.162500
vt 30.412500 0.275000
vt 29.962500 0.275000
vt 29.962500 0.162500
vt 7.550000 0.162500
vt 7.550000 0.275000
vt -7.550000 0.275000
vt -7.550000 0.162500
vt 29.962500 0.162500
vt 29.962500 0.275000
vt 30.412500 0.275000
vt 30.412500 0.162500
vt -7.550000 0.162500
vt -7.550000 0.275000
vt 7.550000 0.275000
vt 7.550000 0.162500
vt -7.550000 29.962500
vt 7.550000 29.962500
vt 7.550000 30.412500
vt -7.550000 30.412500
vt 7.550000 29.962500
vt -7.550000 29.962500
vt -7.550000 30.412500
vt 7.550000 30.412500
vt -4.962500 0.162500
vt -4.962500 0.275000
vt -5.412500 0.275000
vt -5.412500 0.162500
vt 7.550000 0.162500
vt 7.550000 0.275000
vt -7.550000 0.275000
vt -7.550000 0.162500
vt -5.412500 0.162500
vt -5.412500 0.275000
vt -4.962500 0.275000
vt -4.962500 0.162500
vt -7.550000 0.162500
vt -7.550000 0.275000
vt 7.550000 0.275000
vt 7.550000 0.162500
vt -7.550000 -5.412500
vt 7.550000 -5.412500
vt 7.550000 -4.962500
vt -7.550000 -4.962500
vt 7.550000 -5.412500
vt -7.550000 -5.412500
vt -7.550000 -4.962500
vt 7.550000 -4.962500

vn -1.000000 0.000000 -0.000000
vn 0.000000 1.000000 0.000000
vn 1.000000 0.000000 0.000000
vn 0.000000 -1.000000 0.000000
vn 0.000000 0.000000 1.000000
vn 0.000000 0.000000 -1.000000
vn -1.000000 0.000000 -0.000000
vn 0.000000 1.000000 0.000000
vn 1.000000 0.000000 0.000000
vn 0.000000 -1.000000 0.000000
vn 0.000000 0.000000 1.000000
vn 0.000000 0.000000 -1.000000
vn -1.000000 0.000000 -0.000000
vn 0.000000 1.000000 0.000000
vn 1.000000 0.000000 0.000000
vn 0.000000 -1.000000 0.000000
vn 0.000000 0.000000 1.000000
vn 0.000000 0.000000 -1.000000
vn -1.000000 0.000000 -0.000000
vn 0.000000 1.000000 0.000000
vn 1.000000 0.000000 0.000000
vn 0.000000 -1.000000 0.000000
vn 0.000000 0.000000 1.000000
vn 0.000000 0.000000 -1.000000

f 3/1/1 4/2/1 2/3/1 1/4/1
f 7/5/2 8/6/2 4/7/2 3/8/2
f 5/9/3 6/10/3 8/11/3 7/12/3
f 1/13/4 2/14/4 6/15/4 5/16/4
f 1/17/5 5/18/5 7/19/5 3/20/5
f 6/21/6 2/22/6 4/23/6 8/24/6
f 11/25/7 12/26/7 10/27/7 9/28/7
f 15/29/8 16/30/8 12/31/8 11/32/8
f 13/33/9 14/34/9 16/35/9 15/36/9
f 9/37/10 10/38/10 14/39/10 13/40/10
f 9/41/11 13/42/11 15/43/11 11/44/11
f 14/45/12 10/46/12 12/47/12 16/48/12
f 19/49/13 20/50/13 18/51/13 17/52/13
f 23/53/14 24/54/14 20/55/14 19/56/14
f 21/57/15 22/58/15 24/59/15 23/60/15
f 17/61/16 18/62/16 22/63/16 21/64/16
f 17/65/17 21/66/17 23/67/17 19/68/17
f 22/69/18 18/70/18 20/71/18 24/72/18
f 27/73/19 28/74/19 26/75/19 25/76/19
f 31/77/20 32/78/20 28/79/20 27/80/20
f 29/81/21 30/82/21 32/83/21 31/84/21
f 25/85/22 26/86/22 30/87/22 29/88/22
f 25/89/23 29/90/23 31/91/23 27/92/23
f 30/93/24 26/94/24 28/95/24 32/96/24
