# Exported from Blender by blender_stonefish_plugin
# Vertices: 120, Faces: 90

v -9.000000 26.074999 -0.000000
v -9.000000 26.074999 -6.800000
v -9.000000 26.324999 -0.000000
v -9.000000 26.324999 -6.800000
v -3.200000 26.074999 -0.000000
v -3.200000 26.074999 -6.800000
v -3.200000 26.324999 -0.000000
v -3.200000 26.324999 -6.800000
v 3.200000 26.074999 -0.000000
v 3.200000 26.074999 -6.800000
v 3.200000 26.324999 -0.000000
v 3.200000 26.324999 -6.800000
v 9.000000 26.074999 -0.000000
v 9.000000 26.074999 -6.800000
v 9.000000 26.324999 -0.000000
v 9.000000 26.324999 -6.800000
v -3.200000 26.074999 -0.000000
v -3.200000 26.074999 -1.300000
v -3.200000 26.324999 -0.000000
v -3.200000 26.324999 -1.300000
v 3.200000 26.074999 -0.000000
v 3.200000 26.074999 -1.300000
v 3.200000 26.324999 -0.000000
v 3.200000 26.324999 -1.300000
v -3.200000 26.074999 -4.400000
v -3.200000 26.074999 -6.800000
v -3.200000 26.324999 -4.400000
v -3.200000 26.324999 -6.800000
v 3.200000 26.074999 -4.400000
v 3.200000 26.074999 -6.800000
v 3.200000 26.324999 -4.400000
v 3.200000 26.324999 -6.800000
v -8.400000 -0.110000 -5.640000
v -8.400000 -0.110000 -5.960000
v -8.400000 0.110000 -5.640000
v -8.400000 0.110000 -5.960000
v 8.400000 -0.110000 -5.640000
v 8.400000 -0.110000 -5.960000
v 8.400000 0.110000 -5.640000
v 8.400000 0.110000 -5.960000
v -8.400000 7.890000 -5.640000
v -8.400000 7.890000 -5.960000
v -8.400000 8.110000 -5.640000
v -8.400000 8.110000 -5.960000
v 8.400000 7.890000 -5.640000
v 8.400000 7.890000 -5.960000
v 8.400000 8.110000 -5.640000
v 8.400000 8.110000 -5.960000
v -8.400000 15.890000 -5.640000
v -8.400000 15.890000 -5.960000
v -8.400000 16.110001 -5.640000
v -8.400000 16.110001 -5.960000
v 8.400000 15.890000 -5.640000
v 8.400000 15.890000 -5.960000
v 8.400000 16.110001 -5.640000
v 8.400000 16.110001 -5.960000
v -8.400000 23.889999 -5.640000
v -8.400000 23.889999 -5.960000
v -8.400000 24.110001 -5.640000
v -8.400000 24.110001 -5.960000
v 8.400000 23.889999 -5.640000
v 8.400000 23.889999 -5.960000
v 8.400000 24.110001 -5.640000
v 8.400000 24.110001 -5.960000
v 3.400000 -4.000000 -5.990000
v 3.400000 -4.000000 -6.250000
v 3.400000 26.200001 -5.990000
v 3.400000 26.200001 -6.250000
v 3.600000 -4.000000 -5.990000
v 3.600000 -4.000000 -6.250000
v 3.600000 26.200001 -5.990000
v 3.600000 26.200001 -6.250000
v -3.600000 -4.000000 -5.990000
v -3.600000 -4.000000 -6.250000
v -3.600000 26.200001 -5.990000
v -3.600000 26.200001 -6.250000
v -3.400000 -4.000000 -5.990000
v -3.400000 -4.000000 -6.250000
v -3.400000 26.200001 -5.990000
v -3.400000 26.200001 -6.250000
v -2.900000 -5.590000 -0.440000
v -2.900000 -5.590000 -0.500000
v -2.900000 -5.170000 -0.440000
v -2.900000 -5.170000 -0.500000
v -1.500000 -5.590000 -0.440000
v -1.500000 -5.590000 -0.500000
v -1.500000 -5.170000 -0.440000
v -1.500000 -5.170000 -0.500000
v -2.780000 -5.550000 -0.020000
v -2.780000 -5.550000 -0.460000
v -2.780000 -5.490000 -0.020000
v -2.780000 -5.490000 -0.460000
v -2.720000 -5.550000 -0.020000
v -2.720000 -5.550000 -0.460000
v -2.720000 -5.490000 -0.020000
v -2.720000 -5.490000 -0.460000
v -1.680000 -5.550000 -0.020000
v -1.680000 -5.550000 -0.460000
v -1.680000 -5.490000 -0.020000
v -1.680000 -5.490000 -0.460000
v -1.620000 -5.550000 -0.020000
v -1.620000 -5.550000 -0.460000
v -1.620000 -5.490000 -0.020000
v -1.620000 -5.490000 -0.460000
v -2.780000 -5.270000 -0.020000
v -2.780000 -5.270000 -0.460000
v -2.780000 -5.210000 -0.020000
v -2.780000 -5.210000 -0.460000
v -2.720000 -5.270000 -0.020000
v -2.720000 -5.270000 -0.460000
v -2.720000 -5.210000 -0.020000
v -2.720000 -5.210000 -0.460000
v -1.680000 -5.270000 -0.020000
v -1.680000 -5.270000 -0.460000
v -1.680000 -5.210000 -0.020000
v -1.680000 -5.210000 -0.460000
v -1.620000 -5.270000 -0.020000
v -1.620000 -5.270000 -0.460000
v -1.620000 -5.210000 -0.020000
v -1.620000 -5.210000 -0.460000

vt 13.400000 0.000000
vt 13.400000 3.400000
vt 13.275000 3.400000
vt 13.275000 0.000000
vt -1.600000 0.000000
vt -1.600000 3.400000
vt -4.500000 3.400000
vt -4.500000 0.000000
vt 13.275000 0.000000
vt 13.275000 3.400000
vt 13.400000 3.400000
vt 13.400000 0.000000
vt -4.500000 0.000000
vt -4.500000 3.400000
vt -1.600000 3.400000
vt -1.600000 0.000000
vt -4.500000 13.275000
vt -1.600000 13.275000
vt -1.600000 13.400000
vt -4.500000 13.400000
vt -1.600000 13.275000
vt -4.500000 13.275000
vt -4.500000 13.400000
vt -1.600000 13.400000
vt 13.400000 0.000000
vt 13.400000 3.400000
vt 13.275000 3.400000
vt 13.275000 0.000000
vt 4.500000 0.000000
vt 4.500000 3.400000
vt 1.600000 3.400000
vt 1.600000 0.000000
vt 13.275000 0.000000
vt 13.275000 3.400000
vt 13.400000 3.400000
vt 13.400000 0.000000
vt 1.600000 0.000000
vt 1.600000 3.400000
vt 4.500000 3.400000
vt 4.500000 0.000000
vt 1.600000 13.275000
vt 4.500000 13.275000
vt 4.500000 13.400000
vt 1.600000 13.400000
vt 4.500000 13.275000
vt 1.600000 13.275000
vt 1.600000 13.400000
vt 4.500000 13.400000
vt 13.400000 0.000000
vt 13.400000 0.650000
vt 13.275000 0.650000
vt 13.275000 0.000000
vt 1.600000 0.000000
vt 1.600000 0.650000
vt -1.600000 0.650000
vt -1.600000 0.000000
vt 13.275000 0.000000
vt 13.275000 0.650000
vt 13.400000 0.650000
vt 13.400000 0.000000
vt -1.600000 0.000000
vt -1.600000 0.650000
vt 1.600000 0.650000
vt 1.600000 0.000000
vt -1.600000 13.275000
vt 1.600000 13.275000
vt 1.600000 13.400000
vt -1.600000 13.400000
vt 1.600000 13.275000
vt -1.600000 13.275000
vt -1.600000 13.400000
vt 1.600000 13.400000
vt 13.400000 2.200000
vt 13.400000 3.400000
vt 13.275000 3.400000
vt 13.275000 2.200000
vt 1.600000 2.200000
vt 1.600000 3.400000
vt -1.600000 3.400000
vt -1.600000 2.200000
vt 13.275000 2.200000
vt 13.275000 3.400000
vt 13.400000 3.400000
vt 13.400000 2.200000
vt -1.600000 2.200000
vt -1.600000 3.400000
vt 1.600000 3.400000
vt 1.600000 2.200000
vt -1.600000 13.275000
vt 1.600000 13.275000
vt 1.600000 13.400000
vt -1.600000 13.400000
vt 1.600000 13.275000
vt -1.600000 13.275000
vt -1.600000 13.400000
vt 1.600000 13.400000
vt 0.055000 2.820000
vt 0.055000 2.980000
vt -0.055000 2.980000
vt -0.055000 2.820000
vt 4.200000 2.820000
vt 4.200000 2.980000
vt -4.200000 2.980000
vt -4.200000 2.820000
vt -0.055000 2.820000
vt -0.055000 2.980000
vt 0.055000 2.980000
vt 0.055000 2.820000
vt -4.200000 2.820000
vt -4.200000 2.980000
vt 4.200000 2.980000
vt 4.200000 2.820000
vt -4.200000 -0.055000
vt 4.200000 -0.055000
vt 4.200000 0.055000
vt -4.200000 0.055000
vt 4.200000 -0.055000
vt -4.200000 -0.055000
vt -4.200000 0.055000
vt 4.200000 0.055000
vt 4.055000 2.820000
vt 4.055000 2.980000
vt 3.945000 2.980000
vt 3.945000 2.820000
vt 4.200000 2.820000
vt 4.200000 2.980000
vt -4.200000 2.980000
vt -4.200000 2.820000
vt 3.945000 2.820000
vt 3.945000 2.980000
vt 4.055000 2.980000
vt 4.055000 2.820000
vt -4.200000 2.820000
vt -4.200000 2.980000
vt 4.200000 2.980000
vt 4.200000 2.820000
vt -4.200000 3.945000
vt 4.200000 3.945000
vt 4.200000 4.055000
vt -4.200000 4.055000
vt 4.200000 3.945000
vt -4.200000 3.945000
vt -4.200000 4.055000
vt 4.200000 4.055000
vt 8.055000 2.820000
vt 8.055000 2.980000
vt 7.945000 2.980000
vt 7.945000 2.820000
vt 4.200000 2.820000
vt 4.200000 2.980000
vt -4.200000 2.980000
vt -4.200000 2.820000
vt 7.945000 2.820000
vt 7.945000 2.980000
vt 8.055000 2.980000
vt 8.055000 2.820000
vt -4.200000 2.820000
vt -4.200000 2.980000
vt 4.200000 2.980000
vt 4.200000 2.820000
vt -4.200000 7.945000
vt 4.200000 7.945000
vt 4.200000 8.055000
vt -4.200000 8.055000
vt 4.200000 7.945000
vt -4.200000 7.945000
vt -4.200000 8.055000
vt 4.200000 8.055000
vt 12.055000 2.820000
vt 12.055000 2.980000
vt 11.945000 2.980000
vt 11.945000 2.820000
vt 4.200000 2.820000
vt 4.200000 2.980000
vt -4.200000 2.980000
vt -4.200000 2.820000
vt 11.945000 2.820000
vt 11.945000 2.980000
vt 12.055000 2.980000
vt 12.055000 2.820000
vt -4.200000 2.820000
vt -4.200000 2.980000
vt 4.200000 2.980000
vt 4.200000 2.820000
vt -4.200000 11.945000
vt 4.200000 11.945000
vt 4.200000 12.055000
vt -4.200000 12.055000
vt 4.200000 11.945000
vt -4.200000 11.945000
vt -4.200000 12.055000
vt 4.200000 12.055000
vt 12.000000 2.995000
vt 12.000000 3.125000
vt -2.000000 3.125000
vt -2.000000 2.995000
vt 1.800000 2.995000
vt 1.800000 3.125000
vt 1.700000 3.125000
vt 1.700000 2.995000
vt -2.000000 2.995000
vt -2.000000 3.125000
vt 12.000000 3.125000
vt 12.000000 2.995000
vt 1.700000 2.995000
vt 1.700000 3.125000
vt 1.800000 3.125000
vt 1.800000 2.995000
vt 1.700000 -2.000000
vt 1.800000 -2.000000
vt 1.800000 12.000000
vt 1.700000 12.000000
vt 1.800000 -2.000000
vt 1.700000 -2.000000
vt 1.700000 12.000000
vt 1.800000 12.000000
vt 12.000000 2.995000
vt 12.000000 3.125000
vt -2.000000 3.125000
vt -2.000000 2.995000
vt -1.700000 2.995000
vt -1.700000 3.125000
vt -1.800000 3.125000
vt -1.800000 2.995000
vt -2.000000 2.995000
vt -2.000000 3.125000
vt 12.000000 3.125000
vt 12.000000 2.995000
vt -1.800000 2.995000
vt -1.800000 3.125000
vt -1.700000 3.125000
vt -1.700000 2.995000
vt -1.800000 -2.000000
vt -1.700000 -2.000000
vt -1.700000 12.000000
vt -1.800000 12.000000
vt -1.700000 -2.000000
vt -1.800000 -2.000000
vt -1.800000 12.000000
vt -1.700000 12.000000
vt -2.585000 0.220000
vt -2.585000 0.250000
vt -2.795000 0.250000
vt -2.795000 0.220000
vt -0.750000 0.220000
vt -0.750000 0.250000
vt -1.450000 0.250000
vt -1.450000 0.220000
vt -2.795000 0.220000
vt -2.795000 0.250000
vt -2.585000 0.250000
vt -2.585000 0.220000
vt -1.450000 0.220000
vt -1.450000 0.250000
vt -0.750000 0.250000
vt -0.750000 0.220000
vt -1.450000 -2.795000
vt -0.750000 -2.795000
vt -0.750000 -2.585000
vt -1.450000 -2.585000
vt -0.750000 -2.795000
vt -1.450000 -2.795000
vt -1.450000 -2.585000
vt -0.750000 -2.585000
vt -2.745000 0.010000
vt -2.745000 0.230000
vt -2.775000 0.230000
vt -2.775000 0.010000
vt -1.360000 0.010000
vt -1.360000 0.230000
vt -1.390000 0.230000
vt -1.390000 0.010000
vt -2.775000 0.010000
vt -2.775000 0.230000
vt -2.745000 0.230000
vt -2.745000 0.010000
vt -1.390000 0.010000
vt -1.390000 0.230000
vt -1.360000 0.230000
vt -1.360000 0.010000
vt -1.390000 -2.775000
vt -1.360000 -2.775000
vt -1.360000 -2.745000
vt -1.390000 -2.745000
vt -1.360000 -2.775000
vt -1.390000 -2.775000
vt -1.390000 -2.745000
vt -1.360000 -2.745000
vt -2.745000 0.010000
vt -2.745000 0.230000
vt -2.775000 0.230000
vt -2.775000 0.010000
vt -0.810000 0.010000
vt -0.810000 0.230000
vt -0.840000 0.230000
vt -0.840000 0.010000
vt -2.775000 0.010000
vt -2.775000 0.230000
vt -2.745000 0.230000
vt -2.745000 0.010000
vt -0.840000 0.010000
vt -0.840000 0.230000
vt -0.810000 0.230000
vt -0.810000 0.010000
vt -0.840000 -2.775000
vt -0.810000 -2.775000
vt -0.810000 -2.745000
vt -0.840000 -2.745000
vt -0.810000 -2.775000
vt -0.840000 -2.775000
vt -0.840000 -2.745000
vt -0.810000 -2.745000
vt -2.605000 0.010000
vt -2.605000 0.230000
vt -2.635000 0.230000
vt -2.635000 0.010000
vt -1.360000 0.010000
vt -1.360000 0.230000
vt -1.390000 0.230000
vt -1.390000 0.010000
vt -2.635000 0.010000
vt -2.635000 0.230000
vt -2.605000 0.230000
vt -2.605000 0.010000
vt -1.390000 0.010000
vt -1.390000 0.230000
vt -1.360000 0.230000
vt -1.360000 0.010000
vt -1.390000 -2.635000
vt -1.360000 -2.635000
vt -1.360000 -2.605000
vt -1.390000 -2.605000
vt -1.360000 -2.635000
vt -1.390000 -2.635000
vt -1.390000 -2.605000
vt -1.360000 -2.605000
vt -2.605000 0.010000
vt -2.605000 0.230000
vt -2.635000 0.230000
vt -2.635000 0.010000
vt -0.810000 0.010000
vt -0.810000 0.230000
vt -0.840000 0.230000
vt -0.840000 0.010000
vt -2.635000 0.010000
vt -2.635000 0.230000
vt -2.605000 0.230000
vt -2.605000 0.010000
vt -0.840000 0.010000
vt -0.840000 0.230000
vt -0.810000 0.230000
vt -0.810000 0.010000
vt -0.840000 -2.635000
vt -0.810000 -2.635000
vt -0.810000 -2.605000
vt -0.840000 -2.605000
vt -0.810000 -2.635000
vt -0.840000 -2.635000
vt -0.840000 -2.605000
vt -0.810000 -2.605000

vn -1.000000 0.000000 -0.000000
vn 0.000000 1.000000 0.000000
vn 1.000000 0.000000 0.000000
vn 0.000000 -1.000000 0.000000
vn 0.000000 0.000000 1.000000
vn 0.000000 0.000000 -1.000000
vn -1.000000 0.000000 -0.000000
vn 0.000000 1.000000 0.000000
vn 1.000000 0.000000 0.000000
vn 0.000000 -1.000000 0.000000
vn 0.000000 0.000000 1.000000
vn 0.000000 0.000000 -1.000000
vn -1.000000 0.000000 -0.000000
vn 0.000000 1.000000 0.000000
vn 1.000000 0.000000 0.000000
vn 0.000000 -1.000000 0.000000
vn 0.000000 0.000000 1.000000
vn 0.000000 0.000000 -1.000000
vn -1.000000 0.000000 -0.000000
vn 0.000000 1.000000 0.000000
vn 1.000000 0.000000 0.000000
vn 0.000000 -1.000000 0.000000
vn 0.000000 0.000000 1.000000
vn 0.000000 0.000000 -1.000000
vn -1.000000 0.000000 -0.000000
vn 0.000000 1.000000 0.000000
vn 1.000000 0.000000 0.000000
vn 0.000000 -1.000000 0.000000
vn 0.000000 0.000000 1.000000
vn 0.000000 0.000000 -1.000000
vn -1.000000 0.000000 -0.000000
vn 0.000000 1.000000 0.000000
vn 1.000000 0.000000 0.000000
vn 0.000000 -1.000000 0.000000
vn 0.000000 0.000000 1.000000
vn 0.000000 0.000000 -1.000000
vn -1.000000 0.000000 -0.000000
vn 0.000000 1.000000 0.000000
vn 1.000000 0.000000 0.000000
vn 0.000000 -1.000000 0.000000
vn 0.000000 0.000000 1.000000
vn 0.000000 0.000000 -1.000000
vn -1.000000 0.000000 -0.000000
vn 0.000000 1.000000 0.000000
vn 1.000000 0.000000 0.000000
vn 0.000000 -1.000000 0.000000
vn 0.000000 0.000000 1.000000
vn 0.000000 0.000000 -1.000000
vn -1.000000 0.000000 -0.000000
vn 0.000000 1.000000 0.000000
vn 1.000000 0.000000 0.000000
vn 0.000000 -1.000000 0.000000
vn 0.000000 0.000000 1.000000
vn 0.000000 0.000000 -1.000000
vn -1.000000 0.000000 -0.000000
vn 0.000000 1.000000 0.000000
vn 1.000000 0.000000 0.000000
vn 0.000000 -1.000000 0.000000
vn 0.000000 0.000000 1.000000
vn 0.000000 0.000000 -1.000000
vn -1.000000 0.000000 -0.000000
vn 0.000000 1.000000 0.000000
vn 1.000000 0.000000 0.000000
vn 0.000000 -1.000000 0.000000
vn 0.000000 0.000000 1.000000
vn 0.000000 0.000000 -1.000000
vn -1.000000 0.000000 -0.000000
vn 0.000000 1.000000 0.000000
vn 1.000000 0.000000 0.000000
vn 0.000000 -1.000000 0.000000
vn 0.000000 0.000000 1.000000
vn 0.000000 0.000000 -1.000000
vn -1.000000 0.000000 -0.000000
vn 0.000000 1.000000 0.000000
vn 1.000000 0.000000 0.000000
vn 0.000000 -1.000000 0.000000
vn 0.000000 0.000000 1.000000
vn 0.000000 0.000000 -1.000000
vn -1.000000 0.000000 -0.000000
vn 0.000000 1.000000 0.000000
vn 1.000000 0.000000 0.000000
vn 0.000000 -1.000000 0.000000
vn 0.000000 0.000000 1.000000
vn 0.000000 0.000000 -1.000000
vn -1.000000 0.000000 -0.000000
vn 0.000000 1.000000 0.000000
vn 1.000000 0.000000 0.000000
vn 0.000000 -1.000000 0.000000
vn 0.000000 0.000000 1.000000
vn 0.000000 0.000000 -1.000000

f 3/1/1 4/2/1 2/3/1 1/4/1
f 7/5/2 8/6/2 4/7/2 3/8/2
f 5/9/3 6/10/3 8/11/3 7/12/3
f 1/13/4 2/14/4 6/15/4 5/16/4
f 1/17/5 5/18/5 7/19/5 3/20/5
f 6/21/6 2/22/6 4/23/6 8/24/6
f 11/25/7 12/26/7 10/27/7 9/28/7
f 15/29/8 16/30/8 12/31/8 11/32/8
f 13/33/9 14/34/9 16/35/9 15/36/9
f 9/37/10 10/38/10 14/39/10 13/40/10
f 9/41/11 13/42/11 15/43/11 11/44/11
f 14/45/12 10/46/12 12/47/12 16/48/12
f 19/49/13 20/50/13 18/51/13 17/52/13
f 23/53/14 24/54/14 20/55/14 19/56/14
f 21/57/15 22/58/15 24/59/15 23/60/15
f 17/61/16 18/62/16 22/63/16 21/64/16
f 17/65/17 21/66/17 23/67/17 19/68/17
f 22/69/18 18/70/18 20/71/18 24/72/18
f 27/73/19 28/74/19 26/75/19 25/76/19
f 31/77/20 32/78/20 28/79/20 27/80/20
f 29/81/21 30/82/21 32/83/21 31/84/21
f 25/85/22 26/86/22 30/87/22 29/88/22
f 25/89/23 29/90/23 31/91/23 27/92/23
f 30/93/24 26/94/24 28/95/24 32/96/24
f 35/97/25 36/98/25 34/99/25 33/100/25
f 39/101/26 40/102/26 36/103/26 35/104/26
f 37/105/27 38/106/27 40/107/27 39/108/27
f 33/109/28 34/110/28 38/111/28 37/112/28
f 33/113/29 37/114/29 39/115/29 35/116/29
f 38/117/30 34/118/30 36/119/30 40/120/30
f 43/121/31 44/122/31 42/123/31 41/124/31
f 47/125/32 48/126/32 44/127/32 43/128/32
f 45/129/33 46/130/33 48/131/33 47/132/33
f 41/133/34 42/134/34 46/135/34 45/136/34
f 41/137/35 45/138/35 47/139/35 43/140/35
f 46/141/36 42/142/36 44/143/36 48/144/36
f 51/145/37 52/146/37 50/147/37 49/148/37
f 55/149/38 56/150/38 52/151/38 51/152/38
f 53/153/39 54/154/39 56/155/39 55/156/39
f 49/157/40 50/158/40 54/159/40 53/160/40
f 49/161/41 53/162/41 55/163/41 51/164/41
f 54/165/42 50/166/42 52/167/42 56/168/42
f 59/169/43 60/170/43 58/171/43 57/172/43
f 63/173/44 64/174/44 60/175/44 59/176/44
f 61/177/45 62/178/45 64/179/45 63/180/45
f 57/181/46 58/182/46 62/183/46 61/184/46
f 57/185/47 61/186/47 63/187/47 59/188/47
f 62/189/48 58/190/48 60/191/48 64/192/48
f 67/193/49 68/194/49 66/195/49 65/196/49
f 71/197/50 72/198/50 68/199/50 67/200/50
f 69/201/51 70/202/51 72/203/51 71/204/51
f 65/205/52 66/206/52 70/207/52 69/208/52
f 65/209/53 69/210/53 71/211/53 67/212/53
f 70/213/54 66/214/54 68/215/54 72/216/54
f 75/217/55 76/218/55 74/219/55 73/220/55
f 79/221/56 80/222/56 76/223/56 75/224/56
f 77/225/57 78/226/57 80/227/57 79/228/57
f 73/229/58 74/230/58 78/231/58 77/232/58
f 73/233/59 77/234/59 79/235/59 75/236/59
f 78/237/60 74/238/60 76/239/60 80/240/60
f 83/241/61 84/242/61 82/243/61 81/244/61
f 87/245/62 88/246/62 84/247/62 83/248/62
f 85/249/63 86/250/63 88/251/63 87/252/63
f 81/253/64 82/254/64 86/255/64 85/256/64
f 81/257/65 85/258/65 87/259/65 83/260/65
f 86/261/66 82/262/66 84/263/66 88/264/66
f 91/265/67 92/266/67 90/267/67 89/268/67
f 95/269/68 96/270/68 92/271/68 91/272/68
f 93/273/69 94/274/69 96/275/69 95/276/69
f 89/277/70 90/278/70 94/279/70 93/280/70
f 89/281/71 93/282/71 95/283/71 91/284/71
f 94/285/72 90/286/72 92/287/72 96/288/72
f 99/289/73 100/290/73 98/291/73 97/292/73
f 103/293/74 104/294/74 100/295/74 99/296/74
f 101/297/75 102/298/75 104/299/75 103/300/75
f 97/301/76 98/302/76 102/303/76 101/304/76
f 97/305/77 101/306/77 103/307/77 99/308/77
f 102/309/78 98/310/78 100/311/78 104/312/78
f 107/313/79 108/314/79 106/315/79 105/316/79
f 111/317/80 112/318/80 108/319/80 107/320/80
f 109/321/81 110/322/81 112/323/81 111/324/81
f 105/325/82 106/326/82 110/327/82 109/328/82
f 105/329/83 109/330/83 111/331/83 107/332/83
f 110/333/84 106/334/84 108/335/84 112/336/84
f 115/337/85 116/338/85 114/339/85 113/340/85
f 119/341/86 120/342/86 116/343/86 115/344/86
f 117/345/87 118/346/87 120/347/87 119/348/87
f 113/349/88 114/350/88 118/351/88 117/352/88
f 113/353/89 117/354/89 119/355/89 115/356/89
f 118/357/90 114/358/90 116/359/90 120/360/90
