# Exported from Blender by blender_stonefish_plugin
# Vertices: 512, Faces: 384

v 5.988000 -4.000000 0.310000
v 5.988000 -4.000000 -0.110000
v 5.988000 24.000000 0.310000
v 5.988000 24.000000 -0.110000
v 6.000000 -4.000000 0.310000
v 6.000000 -4.000000 -0.110000
v 6.000000 24.000000 0.310000
v 6.000000 24.000000 -0.110000
v -6.000000 -4.000000 0.310000
v -6.000000 -4.000000 -0.110000
v -6.000000 24.000000 0.310000
v -6.000000 24.000000 -0.110000
v -5.988000 -4.000000 0.310000
v -5.988000 -4.000000 -0.110000
v -5.988000 24.000000 0.310000
v -5.988000 24.000000 -0.110000
v -6.000000 23.987999 0.310000
v -6.000000 23.987999 -0.110000
v -6.000000 24.000000 0.310000
v -6.000000 24.000000 -0.110000
v 6.000000 23.987999 0.310000
v 6.000000 23.987999 -0.110000
v 6.000000 24.000000 0.310000
v 6.000000 24.000000 -0.110000
v -6.000000 -4.000000 0.310000
v -6.000000 -4.000000 -0.110000
v -6.000000 -3.988000 0.310000
v -6.000000 -3.988000 -0.110000
v 6.000000 -4.000000 0.310000
v 6.000000 -4.000000 -0.110000
v 6.000000 -3.988000 0.310000
v 6.000000 -3.988000 -0.110000
v 1.940000 -3.600000 2.990000
v 1.940000 -3.600000 2.982000
v 1.940000 23.600000 2.990000
v 1.940000 23.600000 2.982000
v 2.060000 -3.600000 2.990000
v 2.060000 -3.600000 2.982000
v 2.060000 23.600000 2.990000
v 2.060000 23.600000 2.982000
v -2.060000 -3.600000 2.990000
v -2.060000 -3.600000 2.982000
v -2.060000 23.600000 2.990000
v -2.060000 23.600000 2.982000
v -1.940000 -3.600000 2.990000
v -1.940000 -3.600000 2.982000
v -1.940000 23.600000 2.990000
v -1.940000 23.600000 2.982000
v 6.300000 -4.380000 0.100000
v 6.300000 -4.380000 0.020000
v 6.300000 24.380001 0.100000
v 6.300000 24.380001 0.020000
v 6.380000 -4.380000 0.100000
v 6.380000 -4.380000 0.020000
v 6.380000 24.380001 0.100000
v 6.380000 24.380001 0.020000
v -6.380000 -4.380000 0.100000
v -6.380000 -4.380000 0.020000
v -6.380000 24.380001 0.100000
v -6.380000 24.380001 0.020000
v -6.300000 -4.380000 0.100000
v -6.300000 -4.380000 0.020000
v -6.300000 24.380001 0.100000
v -6.300000 24.380001 0.020000
v -6.300000 24.299999 0.100000
v -6.300000 24.299999 0.020000
v -6.300000 24.380001 0.100000
v -6.300000 24.380001 0.020000
v 6.300000 24.299999 0.100000
v 6.300000 24.299999 0.020000
v 6.300000 24.380001 0.100000
v 6.300000 24.380001 0.020000
v -6.300000 -4.380000 0.100000
v -6.300000 -4.380000 0.020000
v -6.300000 -4.300000 0.100000
v -6.300000 -4.300000 0.020000
v 6.300000 -4.380000 0.100000
v 6.300000 -4.380000 0.020000
v 6.300000 -4.300000 0.100000
v 6.300000 -4.300000 0.020000
v -0.275000 4.725000 2.989000
v -0.275000 4.725000 2.979000
v -0.275000 5.275000 2.989000
v -0.275000 5.275000 2.979000
v 0.275000 4.725000 2.989000
v 0.275000 4.725000 2.979000
v 0.275000 5.275000 2.989000
v 0.275000 5.275000 2.979000
v -0.275000 17.725000 2.989000
v -0.275000 17.725000 2.979000
v -0.275000 18.275000 2.989000
v -0.275000 18.275000 2.979000
v 0.275000 17.725000 2.989000
v 0.275000 17.725000 2.979000
v 0.275000 18.275000 2.989000
v 0.275000 18.275000 2.979000
v 5.986000 2.725000 1.760000
v 5.986000 2.725000 1.440000
v 5.986000 3.275000 1.760000
v 5.986000 3.275000 1.440000
v 5.998000 2.725000 1.760000
v 5.998000 2.725000 1.440000
v 5.998000 3.275000 1.760000
v 5.998000 3.275000 1.440000
v -5.998000 2.725000 1.760000
v -5.998000 2.725000 1.440000
v -5.998000 3.275000 1.760000
v -5.998000 3.275000 1.440000
v -5.986000 2.725000 1.760000
v -5.986000 2.725000 1.440000
v -5.986000 3.275000 1.760000
v -5.986000 3.275000 1.440000
v 5.986000 16.725000 1.760000
v 5.986000 16.725000 1.440000
v 5.986000 17.275000 1.760000
v 5.986000 17.275000 1.440000
v 5.998000 16.725000 1.760000
v 5.998000 16.725000 1.440000
v 5.998000 17.275000 1.760000
v 5.998000 17.275000 1.440000
v -5.998000 16.725000 1.760000
v -5.998000 16.725000 1.440000
v -5.998000 17.275000 1.760000
v -5.998000 17.275000 1.440000
v -5.986000 16.725000 1.760000
v -5.986000 16.725000 1.440000
v -5.986000 17.275000 1.760000
v -5.986000 17.275000 1.440000
v 5.966000 5.060000 1.000000
v 5.966000 5.060000 0.870000
v 5.966000 5.100000 1.000000
v 5.966000 5.100000 0.870000
v 5.978000 5.060000 1.000000
v 5.978000 5.060000 0.870000
v 5.978000 5.100000 1.000000
v 5.978000 5.100000 0.870000
v 5.966000 5.060000 1.130000
v 5.966000 5.060000 1.000000
v 5.966000 5.100000 1.130000
v 5.966000 5.100000 1.000000
v 5.978000 5.060000 1.130000
v 5.978000 5.060000 1.000000
v 5.978000 5.100000 1.130000
v 5.978000 5.100000 1.000000
v -5.978000 4.900000 1.000000
v -5.978000 4.900000 0.870000
v -5.978000 4.940000 1.000000
v -5.978000 4.940000 0.870000
v -5.966000 4.900000 1.000000
v -5.966000 4.900000 0.870000
v -5.966000 4.940000 1.000000
v -5.966000 4.940000 0.870000
v -5.978000 4.900000 1.130000
v -5.978000 4.900000 1.000000
v -5.978000 4.940000 1.130000
v -5.978000 4.940000 1.000000
v -5.966000 4.900000 1.130000
v -5.966000 4.900000 1.000000
v -5.966000 4.940000 1.130000
v -5.966000 4.940000 1.000000
v 5.966000 4.900000 1.890000
v 5.966000 4.900000 1.850000
v 5.966000 5.100000 1.890000
v 5.966000 5.100000 1.850000
v 5.978000 4.900000 1.890000
v 5.978000 4.900000 1.850000
v 5.978000 5.100000 1.890000
v 5.978000 5.100000 1.850000
v 5.966000 5.060000 2.000000
v 5.966000 5.060000 1.870000
v 5.966000 5.100000 2.000000
v 5.966000 5.100000 1.870000
v 5.978000 5.060000 2.000000
v 5.978000 5.060000 1.870000
v 5.978000 5.100000 2.000000
v 5.978000 5.100000 1.870000
v 5.966000 4.900000 2.020000
v 5.966000 4.900000 1.980000
v 5.966000 5.100000 2.020000
v 5.966000 5.100000 1.980000
v 5.978000 4.900000 2.020000
v 5.978000 4.900000 1.980000
v 5.978000 5.100000 2.020000
v 5.978000 5.100000 1.980000
v 5.966000 4.900000 2.130000
v 5.966000 4.900000 2.000000
v 5.966000 4.940000 2.130000
v 5.966000 4.940000 2.000000
v 5.978000 4.900000 2.130000
v 5.978000 4.900000 2.000000
v 5.978000 4.940000 2.130000
v 5.978000 4.940000 2.000000
v 5.966000 4.900000 2.150000
v 5.966000 4.900000 2.110000
v 5.966000 5.100000 2.150000
v 5.966000 5.100000 2.110000
v 5.978000 4.900000 2.150000
v 5.978000 4.900000 2.110000
v 5.978000 5.100000 2.150000
v 5.978000 5.100000 2.110000
v -5.978000 4.900000 1.890000
v -5.978000 4.900000 1.850000
v -5.978000 5.100000 1.890000
v -5.978000 5.100000 1.850000
v -5.966000 4.900000 1.890000
v -5.966000 4.900000 1.850000
v -5.966000 5.100000 1.890000
v -5.966000 5.100000 1.850000
v -5.978000 4.900000 2.000000
v -5.978000 4.900000 1.870000
v -5.978000 4.940000 2.000000
v -5.978000 4.940000 1.870000
v -5.966000 4.900000 2.000000
v -5.966000 4.900000 1.870000
v -5.966000 4.940000 2.000000
v -5.966000 4.940000 1.870000
v -5.978000 4.900000 2.020000
v -5.978000 4.900000 1.980000
v -5.978000 5.100000 2.020000
v -5.978000 5.100000 1.980000
v -5.966000 4.900000 2.020000
v -5.966000 4.900000 1.980000
v -5.966000 5.100000 2.020000
v -5.966000 5.100000 1.980000
v -5.978000 5.060000 2.130000
v -5.978000 5.060000 2.000000
v -5.978000 5.100000 2.130000
v -5.978000 5.100000 2.000000
v -5.966000 5.060000 2.130000
v -5.966000 5.060000 2.000000
v -5.966000 5.100000 2.130000
v -5.966000 5.100000 2.000000
v -5.978000 4.900000 2.150000
v -5.978000 4.900000 2.110000
v -5.978000 5.100000 2.150000
v -5.978000 5.100000 2.110000
v -5.966000 4.900000 2.150000
v -5.966000 4.900000 2.110000
v -5.966000 5.100000 2.150000
v -5.966000 5.100000 2.110000
v 5.966000 4.900000 2.540000
v 5.966000 4.900000 2.500000
v 5.966000 5.100000 2.540000
v 5.966000 5.100000 2.500000
v 5.978000 4.900000 2.540000
v 5.978000 4.900000 2.500000
v 5.978000 5.100000 2.540000
v 5.978000 5.100000 2.500000
v 5.966000 5.060000 2.650000
v 5.966000 5.060000 2.520000
v 5.966000 5.100000 2.650000
v 5.966000 5.100000 2.520000
v 5.978000 5.060000 2.650000
v 5.978000 5.060000 2.520000
v 5.978000 5.100000 2.650000
v 5.978000 5.100000 2.520000
v 5.966000 4.900000 2.670000
v 5.966000 4.900000 2.630000
v 5.966000 5.100000 2.670000
v 5.966000 5.100000 2.630000
v 5.978000 4.900000 2.670000
v 5.978000 4.900000 2.630000
v 5.978000 5.100000 2.670000
v 5.978000 5.100000 2.630000
v 5.966000 5.060000 2.780000
v 5.966000 5.060000 2.650000
v 5.966000 5.100000 2.780000
v 5.966000 5.100000 2.650000
v 5.978000 5.060000 2.780000
v 5.978000 5.060000 2.650000
v 5.978000 5.100000 2.780000
v 5.978000 5.100000 2.650000
v 5.966000 4.900000 2.800000
v 5.966000 4.900000 2.760000
v 5.966000 5.100000 2.800000
v 5.966000 5.100000 2.760000
v 5.978000 4.900000 2.800000
v 5.978000 4.900000 2.760000
v 5.978000 5.100000 2.800000
v 5.978000 5.100000 2.760000
v -5.978000 4.900000 2.540000
v -5.978000 4.900000 2.500000
v -5.978000 5.100000 2.540000
v -5.978000 5.100000 2.500000
v -5.966000 4.900000 2.540000
v -5.966000 4.900000 2.500000
v -5.966000 5.100000 2.540000
v -5.966000 5.100000 2.500000
v -5.978000 4.900000 2.650000
v -5.978000 4.900000 2.520000
v -5.978000 4.940000 2.650000
v -5.978000 4.940000 2.520000
v -5.966000 4.900000 2.650000
v -5.966000 4.900000 2.520000
v -5.966000 4.940000 2.650000
v -5.966000 4.940000 2.520000
v -5.978000 4.900000 2.670000
v -5.978000 4.900000 2.630000
v -5.978000 5.100000 2.670000
v -5.978000 5.100000 2.630000
v -5.966000 4.900000 2.670000
v -5.966000 4.900000 2.630000
v -5.966000 5.100000 2.670000
v -5.966000 5.100000 2.630000
v -5.978000 4.900000 2.780000
v -5.978000 4.900000 2.650000
v -5.978000 4.940000 2.780000
v -5.978000 4.940000 2.650000
v -5.966000 4.900000 2.780000
v -5.966000 4.900000 2.650000
v -5.966000 4.940000 2.780000
v -5.966000 4.940000 2.650000
v -5.978000 4.900000 2.800000
v -5.978000 4.900000 2.760000
v -5.978000 5.100000 2.800000
v -5.978000 5.100000 2.760000
v -5.966000 4.900000 2.800000
v -5.966000 4.900000 2.760000
v -5.966000 5.100000 2.800000
v -5.966000 5.100000 2.760000
v 5.966000 15.059999 1.000000
v 5.966000 15.059999 0.870000
v 5.966000 15.100000 1.000000
v 5.966000 15.100000 0.870000
v 5.978000 15.059999 1.000000
v 5.978000 15.059999 0.870000
v 5.978000 15.100000 1.000000
v 5.978000 15.100000 0.870000
v 5.966000 15.059999 1.130000
v 5.966000 15.059999 1.000000
v 5.966000 15.100000 1.130000
v 5.966000 15.100000 1.000000
v 5.978000 15.059999 1.130000
v 5.978000 15.059999 1.000000
v 5.978000 15.100000 1.130000
v 5.978000 15.100000 1.000000
v -5.978000 14.900000 1.000000
v -5.978000 14.900000 0.870000
v -5.978000 14.940001 1.000000
v -5.978000 14.940001 0.870000
v -5.966000 14.900000 1.000000
v -5.966000 14.900000 0.870000
v -5.966000 14.940001 1.000000
v -5.966000 14.940001 0.870000
v -5.978000 14.900000 1.130000
v -5.978000 14.900000 1.000000
v -5.978000 14.940001 1.130000
v -5.978000 14.940001 1.000000
v -5.966000 14.900000 1.130000
v -5.966000 14.900000 1.000000
v -5.966000 14.940001 1.130000
v -5.966000 14.940001 1.000000
v 5.966000 14.900000 1.890000
v 5.966000 14.900000 1.850000
v 5.966000 15.100000 1.890000
v 5.966000 15.100000 1.850000
v 5.978000 14.900000 1.890000
v 5.978000 14.900000 1.850000
v 5.978000 15.100000 1.890000
v 5.978000 15.100000 1.850000
v 5.966000 15.059999 2.000000
v 5.966000 15.059999 1.870000
v 5.966000 15.100000 2.000000
v 5.966000 15.100000 1.870000
v 5.978000 15.059999 2.000000
v 5.978000 15.059999 1.870000
v 5.978000 15.100000 2.000000
v 5.978000 15.100000 1.870000
v 5.966000 14.900000 2.020000
v 5.966000 14.900000 1.980000
v 5.966000 15.100000 2.020000
v 5.966000 15.100000 1.980000
v 5.978000 14.900000 2.020000
v 5.978000 14.900000 1.980000
v 5.978000 15.100000 2.020000
v 5.978000 15.100000 1.980000
v 5.966000 14.900000 2.130000
v 5.966000 14.900000 2.000000
v 5.966000 14.940001 2.130000
v 5.966000 14.940001 2.000000
v 5.978000 14.900000 2.130000
v 5.978000 14.900000 2.000000
v 5.978000 14.940001 2.130000
v 5.978000 14.940001 2.000000
v 5.966000 14.900000 2.150000
v 5.966000 14.900000 2.110000
v 5.966000 15.100000 2.150000
v 5.966000 15.100000 2.110000
v 5.978000 14.900000 2.150000
v 5.978000 14.900000 2.110000
v 5.978000 15.100000 2.150000
v 5.978000 15.100000 2.110000
v -5.978000 14.900000 1.890000
v -5.978000 14.900000 1.850000
v -5.978000 15.100000 1.890000
v -5.978000 15.100000 1.850000
v -5.966000 14.900000 1.890000
v -5.966000 14.900000 1.850000
v -5.966000 15.100000 1.890000
v -5.966000 15.100000 1.850000
v -5.978000 14.900000 2.000000
v -5.978000 14.900000 1.870000
v -5.978000 14.940001 2.000000
v -5.978000 14.940001 1.870000
v -5.966000 14.900000 2.000000
v -5.966000 14.900000 1.870000
v -5.966000 14.940001 2.000000
v -5.966000 14.940001 1.870000
v -5.978000 14.900000 2.020000
v -5.978000 14.900000 1.980000
v -5.978000 15.100000 2.020000
v -5.978000 15.100000 1.980000
v -5.966000 14.900000 2.020000
v -5.966000 14.900000 1.980000
v -5.966000 15.100000 2.020000
v -5.966000 15.100000 1.980000
v -5.978000 15.059999 2.130000
v -5.978000 15.059999 2.000000
v -5.978000 15.100000 2.130000
v -5.978000 15.100000 2.000000
v -5.966000 15.059999 2.130000
v -5.966000 15.059999 2.000000
v -5.966000 15.100000 2.130000
v -5.966000 15.100000 2.000000
v -5.978000 14.900000 2.150000
v -5.978000 14.900000 2.110000
v -5.978000 15.100000 2.150000
v -5.978000 15.100000 2.110000
v -5.966000 14.900000 2.150000
v -5.966000 14.900000 2.110000
v -5.966000 15.100000 2.150000
v -5.966000 15.100000 2.110000
v 5.966000 14.900000 2.540000
v 5.966000 14.900000 2.500000
v 5.966000 15.100000 2.540000
v 5.966000 15.100000 2.500000
v 5.978000 14.900000 2.540000
v 5.978000 14.900000 2.500000
v 5.978000 15.100000 2.540000
v 5.978000 15.100000 2.500000
v 5.966000 15.059999 2.650000
v 5.966000 15.059999 2.520000
v 5.966000 15.100000 2.650000
v 5.966000 15.100000 2.520000
v 5.978000 15.059999 2.650000
v 5.978000 15.059999 2.520000
v 5.978000 15.100000 2.650000
v 5.978000 15.100000 2.520000
v 5.966000 14.900000 2.670000
v 5.966000 14.900000 2.630000
v 5.966000 15.100000 2.670000
v 5.966000 15.100000 2.630000
v 5.978000 14.900000 2.670000
v 5.978000 14.900000 2.630000
v 5.978000 15.100000 2.670000
v 5.978000 15.100000 2.630000
v 5.966000 15.059999 2.780000
v 5.966000 15.059999 2.650000
v 5.966000 15.100000 2.780000
v 5.966000 15.100000 2.650000
v 5.978000 15.059999 2.780000
v 5.978000 15.059999 2.650000
v 5.978000 15.100000 2.780000
v 5.978000 15.100000 2.650000
v 5.966000 14.900000 2.800000
v 5.966000 14.900000 2.760000
v 5.966000 15.100000 2.800000
v 5.966000 15.100000 2.760000
v 5.978000 14.900000 2.800000
v 5.978000 14.900000 2.760000
v 5.978000 15.100000 2.800000
v 5.978000 15.100000 2.760000
v -5.978000 14.900000 2.540000
v -5.978000 14.900000 2.500000
v -5.978000 15.100000 2.540000
v -5.978000 15.100000 2.500000
v -5.966000 14.900000 2.540000
v -5.966000 14.900000 2.500000
v -5.966000 15.100000 2.540000
v -5.966000 15.100000 2.500000
v -5.978000 14.900000 2.650000
v -5.978000 14.900000 2.520000
v -5.978000 14.940001 2.650000
v -5.978000 14.940001 2.520000
v -5.966000 14.900000 2.650000
v -5.966000 14.900000 2.520000
v -5.966000 14.940001 2.650000
v -5.966000 14.940001 2.520000
v -5.978000 14.900000 2.670000
v -5.978000 14.900000 2.630000
v -5.978000 15.100000 2.670000
v -5.978000 15.100000 2.630000
v -5.966000 14.900000 2.670000
v -5.966000 14.900000 2.630000
v -5.966000 15.100000 2.670000
v -5.966000 15.100000 2.630000
v -5.978000 14.900000 2.780000
v -5.978000 14.900000 2.650000
v -5.978000 14.940001 2.780000
v -5.978000 14.940001 2.650000
v -5.966000 14.900000 2.780000
v -5.966000 14.900000 2.650000
v -5.966000 14.940001 2.780000
v -5.966000 14.940001 2.650000
v -5.978000 14.900000 2.800000
v -5.978000 14.900000 2.760000
v -5.978000 15.100000 2.800000
v -5.978000 15.100000 2.760000
v -5.966000 14.900000 2.800000
v -5.966000 14.900000 2.760000
v -5.966000 15.100000 2.800000
v -5.966000 15.100000 2.760000

vt 40.000000 -0.516667
vt 40.000000 0.183333
vt -6.666667 0.183333
vt -6.666667 -0.516667
vt 10.000000 -0.516667
vt 10.000000 0.183333
vt 9.980000 0.183333
vt 9.980000 -0.516667
vt -6.666667 -0.516667
vt -6.666667 0.183333
vt 40.000000 0.183333
vt 40.000000 -0.516667
vt 9.980000 -0.516667
vt 9.980000 0.183333
vt 10.000000 0.183333
vt 10.000000 -0.516667
vt 9.980000 -6.666667
vt 10.000000 -6.666667
vt 10.000000 40.000000
vt 9.980000 40.000000
vt 10.000000 -6.666667
vt 9.980000 -6.666667
vt 9.980000 40.000000
vt 10.000000 40.000000
vt 40.000000 -0.516667
vt 40.000000 0.183333
vt -6.666667 0.183333
vt -6.666667 -0.516667
vt -9.980000 -0.516667
vt -9.980000 0.183333
vt -10.000000 0.183333
vt -10.000000 -0.516667
vt -6.666667 -0.516667
vt -6.666667 0.183333
vt 40.000000 0.183333
vt 40.000000 -0.516667
vt -10.000000 -0.516667
vt -10.000000 0.183333
vt -9.980000 0.183333
vt -9.980000 -0.516667
vt -10.000000 -6.666667
vt -9.980000 -6.666667
vt -9.980000 40.000000
vt -10.000000 40.000000
vt -9.980000 -6.666667
vt -10.000000 -6.666667
vt -10.000000 40.000000
vt -9.980000 40.000000
vt 40.000000 -0.516667
vt 40.000000 0.183333
vt 39.980000 0.183333
vt 39.980000 -0.516667
vt 10.000000 -0.516667
vt 10.000000 0.183333
vt -10.000000 0.183333
vt -10.000000 -0.516667
vt 39.980000 -0.516667
vt 39.980000 0.183333
vt 40.000000 0.183333
vt 40.000000 -0.516667
vt -10.000000 -0.516667
vt -10.000000 0.183333
vt 10.000000 0.183333
vt 10.000000 -0.516667
vt -10.000000 39.980000
vt 10.000000 39.980000
vt 10.000000 40.000000
vt -10.000000 40.000000
vt 10.000000 39.980000
vt -10.000000 39.980000
vt -10.000000 40.000000
vt 10.000000 40.000000
vt -6.646667 -0.516667
vt -6.646667 0.183333
vt -6.666667 0.183333
vt -6.666667 -0.516667
vt 10.000000 -0.516667
vt 10.000000 0.183333
vt -10.000000 0.183333
vt -10.000000 -0.516667
vt -6.666667 -0.516667
vt -6.666667 0.183333
vt -6.646667 0.183333
vt -6.646667 -0.516667
vt -10.000000 -0.516667
vt -10.000000 0.183333
vt 10.000000 0.183333
vt 10.000000 -0.516667
vt -10.000000 -6.666667
vt 10.000000 -6.666667
vt 10.000000 -6.646667
vt -10.000000 -6.646667
vt 10.000000 -6.666667
vt -10.000000 -6.666667
vt -10.000000 -6.646667
vt 10.000000 -6.646667
vt 39.333336 -4.996666
vt 39.333336 -4.983334
vt -6.000000 -4.983334
vt -6.000000 -4.996666
vt 3.433333 -4.996666
vt 3.433333 -4.983334
vt 3.233333 -4.983334
vt 3.233333 -4.996666
vt -6.000000 -4.996666
vt -6.000000 -4.983334
vt 39.333336 -4.983334
vt 39.333336 -4.996666
vt 3.233333 -4.996666
vt 3.233333 -4.983334
vt 3.433333 -4.983334
vt 3.433333 -4.996666
vt 3.233333 -6.000000
vt 3.433333 -6.000000
vt 3.433333 39.333336
vt 3.233333 39.333336
vt 3.433333 -6.000000
vt 3.233333 -6.000000
vt 3.233333 39.333336
vt 3.433333 39.333336
vt 39.333336 -4.996666
vt 39.333336 -4.983334
vt -6.000000 -4.983334
vt -6.000000 -4.996666
vt -3.233333 -4.996666
vt -3.233333 -4.983334
vt -3.433333 -4.983334
vt -3.433333 -4.996666
vt -6.000000 -4.996666
vt -6.000000 -4.983334
vt 39.333336 -4.983334
vt 39.333336 -4.996666
vt -3.433333 -4.996666
vt -3.433333 -4.983334
vt -3.233333 -4.983334
vt -3.233333 -4.996666
vt -3.433333 -6.000000
vt -3.233333 -6.000000
vt -3.233333 39.333336
vt -3.433333 39.333336
vt -3.233333 -6.000000
vt -3.433333 -6.000000
vt -3.433333 39.333336
vt -3.233333 39.333336
vt 40.633335 -0.166667
vt 40.633335 -0.033333
vt -7.300000 -0.033333
vt -7.300000 -0.166667
vt 10.633333 -0.166667
vt 10.633333 -0.033333
vt 10.500000 -0.033333
vt 10.500000 -0.166667
vt -7.300000 -0.166667
vt -7.300000 -0.033333
vt 40.633335 -0.033333
vt 40.633335 -0.166667
vt 10.500000 -0.166667
vt 10.500000 -0.033333
vt 10.633333 -0.033333
vt 10.633333 -0.166667
vt 10.500000 -7.300000
vt 10.633333 -7.300000
vt 10.633333 40.633335
vt 10.500000 40.633335
vt 10.633333 -7.300000
vt 10.500000 -7.300000
vt 10.500000 40.633335
vt 10.633333 40.633335
vt 40.633335 -0.166667
vt 40.633335 -0.033333
vt -7.300000 -0.033333
vt -7.300000 -0.166667
vt -10.500000 -0.166667
vt -10.500000 -0.033333
vt -10.633333 -0.033333
vt -10.633333 -0.166667
vt -7.300000 -0.166667
vt -7.300000 -0.033333
vt 40.633335 -0.033333
vt 40.633335 -0.166667
vt -10.633333 -0.166667
vt -10.633333 -0.033333
vt -10.500000 -0.033333
vt -10.500000 -0.166667
vt -10.633333 -7.300000
vt -10.500000 -7.300000
vt -10.500000 40.633335
vt -10.633333 40.633335
vt -10.500000 -7.300000
vt -10.633333 -7.300000
vt -10.633333 40.633335
vt -10.500000 40.633335
vt 40.633335 -0.166667
vt 40.633335 -0.033333
vt 40.500000 -0.033333
vt 40.500000 -0.166667
vt 10.500000 -0.166667
vt 10.500000 -0.033333
vt -10.500000 -0.033333
vt -10.500000 -0.166667
vt 40.500000 -0.166667
vt 40.500000 -0.033333
vt 40.633335 -0.033333
vt 40.633335 -0.166667
vt -10.500000 -0.166667
vt -10.500000 -0.033333
vt 10.500000 -0.033333
vt 10.500000 -0.166667
vt -10.500000 40.500000
vt 10.500000 40.500000
vt 10.500000 40.633335
vt -10.500000 40.633335
vt 10.500000 40.500000
vt -10.500000 40.500000
vt -10.500000 40.633335
vt 10.500000 40.633335
vt -7.166667 -0.166667
vt -7.166667 -0.033333
vt -7.300000 -0.033333
vt -7.300000 -0.166667
vt 10.500000 -0.166667
vt 10.500000 -0.033333
vt -10.500000 -0.033333
vt -10.500000 -0.166667
vt -7.300000 -0.166667
vt -7.300000 -0.033333
vt -7.166667 -0.033333
vt -7.166667 -0.166667
vt -10.500000 -0.166667
vt -10.500000 -0.033333
vt 10.500000 -0.033333
vt 10.500000 -0.166667
vt -10.500000 -7.300000
vt 10.500000 -7.300000
vt 10.500000 -7.166667
vt -10.500000 -7.166667
vt 10.500000 -7.300000
vt -10.500000 -7.300000
vt -10.500000 -7.166667
vt 10.500000 -7.166667
vt 8.791667 -4.995000
vt 8.791667 -4.978333
vt 7.875000 -4.978333
vt 7.875000 -4.995000
vt 0.458333 -4.995000
vt 0.458333 -4.978333
vt -0.458333 -4.978333
vt -0.458333 -4.995000
vt 7.875000 -4.995000
vt 7.875000 -4.978333
vt 8.791667 -4.978333
vt 8.791667 -4.995000
vt -0.458333 -4.995000
vt -0.458333 -4.978333
vt 0.458333 -4.978333
vt 0.458333 -4.995000
vt -0.458333 7.875000
vt 0.458333 7.875000
vt 0.458333 8.791667
vt -0.458333 8.791667
vt 0.458333 7.875000
vt -0.458333 7.875000
vt -0.458333 8.791667
vt 0.458333 8.791667
vt 30.458332 -4.995000
vt 30.458332 -4.978333
vt 29.541668 -4.978333
vt 29.541668 -4.995000
vt 0.458333 -4.995000
vt 0.458333 -4.978333
vt -0.458333 -4.978333
vt -0.458333 -4.995000
vt 29.541668 -4.995000
vt 29.541668 -4.978333
vt 30.458332 -4.978333
vt 30.458332 -4.995000
vt -0.458333 -4.995000
vt -0.458333 -4.978333
vt 0.458333 -4.978333
vt 0.458333 -4.995000
vt -0.458333 29.541668
vt 0.458333 29.541668
vt 0.458333 30.458332
vt -0.458333 30.458332
vt 0.458333 29.541668
vt -0.458333 29.541668
vt -0.458333 30.458332
vt 0.458333 30.458332
vt 5.458333 -2.933333
vt 5.458333 -2.400000
vt 4.541667 -2.400000
vt 4.541667 -2.933333
vt 9.996667 -2.933333
vt 9.996667 -2.400000
vt 9.976666 -2.400000
vt 9.976666 -2.933333
vt 4.541667 -2.933333
vt 4.541667 -2.400000
vt 5.458333 -2.400000
vt 5.458333 -2.933333
vt 9.976666 -2.933333
vt 9.976666 -2.400000
vt 9.996667 -2.400000
vt 9.996667 -2.933333
vt 9.976666 4.541667
vt 9.996667 4.541667
vt 9.996667 5.458333
vt 9.976666 5.458333
vt 9.996667 4.541667
vt 9.976666 4.541667
vt 9.976666 5.458333
vt 9.996667 5.458333
vt 5.458333 -2.933333
vt 5.458333 -2.400000
vt 4.541667 -2.400000
vt 4.541667 -2.933333
vt -9.976666 -2.933333
vt -9.976666 -2.400000
vt -9.996667 -2.400000
vt -9.996667 -2.933333
vt 4.541667 -2.933333
vt 4.541667 -2.400000
vt 5.458333 -2.400000
vt 5.458333 -2.933333
vt -9.996667 -2.933333
vt -9.996667 -2.400000
vt -9.976666 -2.400000
vt -9.976666 -2.933333
vt -9.996667 4.541667
vt -9.976666 4.541667
vt -9.976666 5.458333
vt -9.996667 5.458333
vt -9.976666 4.541667
vt -9.996667 4.541667
vt -9.996667 5.458333
vt -9.976666 5.458333
vt 28.791666 -2.933333
vt 28.791666 -2.400000
vt 27.875000 -2.400000
vt 27.875000 -2.933333
vt 9.996667 -2.933333
vt 9.996667 -2.400000
vt 9.976666 -2.400000
vt 9.976666 -2.933333
vt 27.875000 -2.933333
vt 27.875000 -2.400000
vt 28.791666 -2.400000
vt 28.791666 -2.933333
vt 9.976666 -2.933333
vt 9.976666 -2.400000
vt 9.996667 -2.400000
vt 9.996667 -2.933333
vt 9.976666 27.875000
vt 9.996667 27.875000
vt 9.996667 28.791666
vt 9.976666 28.791666
vt 9.996667 27.875000
vt 9.976666 27.875000
vt 9.976666 28.791666
vt 9.996667 28.791666
vt 28.791666 -2.933333
vt 28.791666 -2.400000
vt 27.875000 -2.400000
vt 27.875000 -2.933333
vt -9.976666 -2.933333
vt -9.976666 -2.400000
vt -9.996667 -2.400000
vt -9.996667 -2.933333
vt 27.875000 -2.933333
vt 27.875000 -2.400000
vt 28.791666 -2.400000
vt 28.791666 -2.933333
vt -9.996667 -2.933333
vt -9.996667 -2.400000
vt -9.976666 -2.400000
vt -9.976666 -2.933333
vt -9.996667 27.875000
vt -9.976666 27.875000
vt -9.976666 28.791666
vt -9.996667 28.791666
vt -9.976666 27.875000
vt -9.996667 27.875000
vt -9.996667 28.791666
vt -9.976666 28.791666
vt 0.125000 0.125000
vt 0.125000 0.125000
vt 0.125000 0.125000
vt 0.125000 0.125000
vt 0.125000 0.125000
vt 0.125000 0.125000
vt 0.125000 0.125000
vt 0.125000 0.125000
vt 0.125000 0.125000
vt 0.125000 0.125000
vt 0.125000 0.125000
vt 0.125000 0.125000
vt 0.125000 0.125000
vt 0.125000 0.125000
vt 0.125000 0.125000
vt 0.125000 0.125000
vt 0.125000 0.125000
vt 0.125000 0.125000
vt 0.125000 0.125000
vt 0.125000 0.125000
vt 0.125000 0.125000
vt 0.125000 0.125000
vt 0.125000 0.125000
vt 0.125000 0.125000
vt 0.125000 0.125000
vt 0.125000 0.125000
vt 0.125000 0.125000
vt 0.125000 0.125000
vt 0.125000 0.125000
vt 0.125000 0.125000
vt 0.125000 0.125000
vt 0.125000 0.125000
vt 0.125000 0.125000
vt 0.125000 0.125000
vt 0.125000 0.125000
vt 0.125000 0.125000
vt 0.125000 0.125000
vt 0.125000 0.125000
vt 0.125000 0.125000
vt 0.125000 0.125000
vt 0.125000 0.125000
vt 0.125000 0.125000
vt 0.125000 0.125000
vt 0.125000 0.125000
vt 0.125000 0.125000
vt 0.125000 0.125000
vt 0.125000 0.125000
vt 0.125000 0.125000
vt 0.125000 0.125000
vt 0.125000 0.125000
vt 0.125000 0.125000
vt 0.125000 0.125000
vt 0.125000 0.125000
vt 0.125000 0.125000
vt 0.125000 0.125000
vt 0.125000 0.125000
vt 0.125000 0.125000
vt 0.125000 0.125000
vt 0.125000 0.125000
vt 0.125000 0.125000
vt 0.125000 0.125000
vt 0.125000 0.125000
vt 0.125000 0.125000
vt 0.125000 0.125000
vt 0.125000 0.125000
vt 0.125000 0.125000
vt 0.125000 0.125000
vt 0.125000 0.125000
vt 0.125000 0.125000
vt 0.125000 0.125000
vt 0.125000 0.125000
vt 0.125000 0.125000
vt 0.125000 0.125000
vt 0.125000 0.125000
vt 0.125000 0.125000
vt 0.125000 0.125000
vt 0.125000 0.125000
vt 0.125000 0.125000
vt 0.125000 0.125000
vt 0.125000 0.125000
vt 0.125000 0.125000
vt 0.125000 0.125000
vt 0.125000 0.125000
vt 0.125000 0.125000
vt 0.125000 0.125000
vt 0.125000 0.125000
vt 0.125000 0.125000
vt 0.125000 0.125000
vt 0.125000 0.125000
vt 0.125000 0.125000
vt 0.125000 0.125000
vt 0.125000 0.125000
vt 0.125000 0.125000
vt 0.125000 0.125000
vt 0.125000 0.125000
vt 0.125000 0.125000
vt 0.125000 0.125000
vt 0.125000 0.125000
vt 0.125000 0.125000
vt 0.125000 0.125000
vt 0.125000 0.125000
vt 0.125000 0.125000
vt 0.125000 0.125000
vt 0.125000 0.125000
vt 0.125000 0.125000
vt 0.125000 0.125000
vt 0.125000 0.125000
vt 0.125000 0.125000
vt 0.125000 0.125000
vt 0.125000 0.125000
vt 0.125000 0.125000
vt 0.125000 0.125000
vt 0.125000 0.125000
vt 0.125000 0.125000
vt 0.125000 0.125000
vt 0.125000 0.125000
vt 0.125000 0.125000
vt 0.125000 0.125000
vt 0.125000 0.125000
vt 0.125000 0.125000
vt 0.125000 0.125000
vt 0.125000 0.125000
vt 0.125000 0.125000
vt 0.125000 0.125000
vt 0.125000 0.125000
vt 0.125000 0.125000
vt 0.125000 0.125000
vt 0.125000 0.125000
vt 0.125000 0.125000
vt 0.125000 0.125000
vt 0.125000 0.125000
vt 0.125000 0.125000
vt 0.125000 0.125000
vt 0.125000 0.125000
vt 0.125000 0.125000
vt 0.125000 0.125000
vt 0.125000 0.125000
vt 0.125000 0.125000
vt 0.125000 0.125000
vt 0.125000 0.125000
vt 0.125000 0.125000
vt 0.125000 0.125000
vt 0.125000 0.125000
vt 0.125000 0.125000
vt 0.125000 0.125000
vt 0.125000 0.125000
vt 0.125000 0.125000
vt 0.125000 0.125000
vt 0.125000 0.125000
vt 0.125000 0.125000
vt 0.125000 0.125000
vt 0.125000 0.125000
vt 0.125000 0.125000
vt 0.125000 0.125000
vt 0.125000 0.125000
vt 0.125000 0.125000
vt 0.125000 0.125000
vt 0.125000 0.125000
vt 0.125000 0.125000
vt 0.125000 0.125000
vt 0.125000 0.125000
vt 0.125000 0.125000
vt 0.125000 0.125000
vt 0.125000 0.125000
vt 0.125000 0.125000
vt 0.125000 0.125000
vt 0.125000 0.125000
vt 0.125000 0.125000
vt 0.125000 0.125000
vt 0.125000 0.125000
vt 0.125000 0.125000
vt 0.125000 0.125000
vt 0.125000 0.125000
vt 0.125000 0.125000
vt 0.125000 0.125000
vt 0.125000 0.125000
vt 0.125000 0.125000
vt 0.125000 0.125000
vt 0.125000 0.125000
vt 0.125000 0.125000
vt 0.125000 0.125000
vt 0.125000 0.125000
vt 0.125000 0.125000
vt 0.125000 0.125000
vt 0.125000 0.125000
vt 0.125000 0.125000
vt 0.125000 0.125000
vt 0.125000 0.125000
vt 0.125000 0.125000
vt 0.125000 0.125000
vt 0.125000 0.125000
vt 0.125000 0.125000
vt 0.125000 0.125000
vt 0.125000 0.125000
vt 0.125000 0.125000
vt 0.125000 0.125000
vt 0.125000 0.125000
vt 0.125000 0.125000
vt 0.125000 0.125000
vt 0.125000 0.125000
vt 0.125000 0.125000
vt 0.125000 0.125000
vt 0.125000 0.125000
vt 0.125000 0.125000
vt 0.125000 0.125000
vt 0.125000 0.125000
vt 0.125000 0.125000
vt 0.125000 0.125000
vt 0.125000 0.125000
vt 0.125000 0.125000
vt 0.125000 0.125000
vt 0.125000 0.125000
vt 0.125000 0.125000
vt 0.125000 0.125000
vt 0.125000 0.125000
vt 0.125000 0.125000
vt 0.125000 0.125000
vt 0.125000 0.125000
vt 0.125000 0.125000
vt 0.125000 0.125000
vt 0.125000 0.125000
vt 0.125000 0.125000
vt 0.125000 0.125000
vt 0.125000 0.125000
vt 0.125000 0.125000
vt 0.125000 0.125000
vt 0.125000 0.125000
vt 0.125000 0.125000
vt 0.125000 0.125000
vt 0.125000 0.125000
vt 0.125000 0.125000
vt 0.125000 0.125000
vt 0.125000 0.125000
vt 0.125000 0.125000
vt 0.125000 0.125000
vt 0.125000 0.125000
vt 0.125000 0.125000
vt 0.125000 0.125000
vt 0.125000 0.125000
vt 0.125000 0.125000
vt 0.125000 0.125000
vt 0.125000 0.125000
vt 0.125000 0.125000
vt 0.125000 0.125000
vt 0.125000 0.125000
vt 0.125000 0.125000
vt 0.125000 0.125000
vt 0.125000 0.125000
vt 0.125000 0.125000
vt 0.125000 0.125000
vt 0.125000 0.125000
vt 0.125000 0.125000
vt 0.125000 0.125000
vt 0.125000 0.125000
vt 0.125000 0.125000
vt 0.125000 0.125000
vt 0.125000 0.125000
vt 0.125000 0.125000
vt 0.125000 0.125000
vt 0.125000 0.125000
vt 0.125000 0.125000
vt 0.125000 0.125000
vt 0.125000 0.125000
vt 0.125000 0.125000
vt 0.125000 0.125000
vt 0.125000 0.125000
vt 0.125000 0.125000
vt 0.125000 0.125000
vt 0.125000 0.125000
vt 0.125000 0.125000
vt 0.125000 0.125000
vt 0.125000 0.125000
vt 0.125000 0.125000
vt 0.125000 0.125000
vt 0.125000 0.125000
vt 0.125000 0.125000
vt 0.125000 0.125000
vt 0.125000 0.125000
vt 0.125000 0.125000
vt 0.125000 0.125000
vt 0.125000 0.125000
vt 0.125000 0.125000
vt 0.125000 0.125000
vt 0.125000 0.125000
vt 0.125000 0.125000
vt 0.125000 0.125000
vt 0.125000 0.125000
vt 0.125000 0.125000
vt 0.125000 0.125000
vt 0.125000 0.125000
vt 0.125000 0.125000
vt 0.125000 0.125000
vt 0.125000 0.125000
vt 0.125000 0.125000
vt 0.125000 0.125000
vt 0.125000 0.125000
vt 0.125000 0.125000
vt 0.125000 0.125000
vt 0.125000 0.125000
vt 0.125000 0.125000
vt 0.125000 0.125000
vt 0.125000 0.125000
vt 0.125000 0.125000
vt 0.125000 0.125000
vt 0.125000 0.125000
vt 0.125000 0.125000
vt 0.125000 0.125000
vt 0.125000 0.125000
vt 0.125000 0.125000
vt 0.125000 0.125000
vt 0.125000 0.125000
vt 0.125000 0.125000
vt 0.125000 0.125000
vt 0.125000 0.125000
vt 0.125000 0.125000
vt 0.125000 0.125000
vt 0.125000 0.125000
vt 0.125000 0.125000
vt 0.125000 0.125000
vt 0.125000 0.125000
vt 0.125000 0.125000
vt 0.125000 0.125000
vt 0.125000 0.125000
vt 0.125000 0.125000
vt 0.125000 0.125000
vt 0.125000 0.125000
vt 0.125000 0.125000
vt 0.125000 0.125000
vt 0.125000 0.125000
vt 0.125000 0.125000
vt 0.125000 0.125000
vt 0.125000 0.125000
vt 0.125000 0.125000
vt 0.125000 0.125000
vt 0.125000 0.125000
vt 0.125000 0.125000
vt 0.125000 0.125000
vt 0.125000 0.125000
vt 0.125000 0.125000
vt 0.125000 0.125000
vt 0.125000 0.125000
vt 0.125000 0.125000
vt 0.125000 0.125000
vt 0.125000 0.125000
vt 0.125000 0.125000
vt 0.125000 0.125000
vt 0.125000 0.125000
vt 0.125000 0.125000
vt 0.125000 0.125000
vt 0.125000 0.125000
vt 0.125000 0.125000
vt 0.125000 0.125000
vt 0.125000 0.125000
vt 0.125000 0.125000
vt 0.125000 0.125000
vt 0.125000 0.125000
vt 0.125000 0.125000
vt 0.125000 0.125000
vt 0.125000 0.125000
vt 0.125000 0.125000
vt 0.125000 0.125000
vt 0.125000 0.125000
vt 0.125000 0.125000
vt 0.125000 0.125000
vt 0.125000 0.125000
vt 0.125000 0.125000
vt 0.125000 0.125000
vt 0.125000 0.125000
vt 0.125000 0.125000
vt 0.125000 0.125000
vt 0.125000 0.125000
vt 0.125000 0.125000
vt 0.125000 0.125000
vt 0.125000 0.125000
vt 0.125000 0.125000
vt 0.125000 0.125000
vt 0.125000 0.125000
vt 0.125000 0.125000
vt 0.125000 0.125000
vt 0.125000 0.125000
vt 0.125000 0.125000
vt 0.125000 0.125000
vt 0.125000 0.125000
vt 0.125000 0.125000
vt 0.125000 0.125000
vt 0.125000 0.125000
vt 0.125000 0.125000
vt 0.125000 0.125000
vt 0.125000 0.125000
vt 0.125000 0.125000
vt 0.125000 0.125000
vt 0.125000 0.125000
vt 0.125000 0.125000
vt 0.125000 0.125000
vt 0.125000 0.125000
vt 0.125000 0.125000
vt 0.125000 0.125000
vt 0.125000 0.125000
vt 0.125000 0.125000
vt 0.125000 0.125000
vt 0.125000 0.125000
vt 0.125000 0.125000
vt 0.125000 0.125000
vt 0.125000 0.125000
vt 0.125000 0.125000
vt 0.125000 0.125000
vt 0.125000 0.125000
vt 0.125000 0.125000
vt 0.125000 0.125000
vt 0.125000 0.125000
vt 0.125000 0.125000
vt 0.125000 0.125000
vt 0.125000 0.125000
vt 0.125000 0.125000
vt 0.125000 0.125000
vt 0.125000 0.125000
vt 0.125000 0.125000
vt 0.125000 0.125000
vt 0.125000 0.125000
vt 0.125000 0.125000
vt 0.125000 0.125000
vt 0.125000 0.125000
vt 0.125000 0.125000
vt 0.125000 0.125000
vt 0.125000 0.125000
vt 0.125000 0.125000
vt 0.125000 0.125000
vt 0.125000 0.125000
vt 0.125000 0.125000
vt 0.125000 0.125000
vt 0.125000 0.125000
vt 0.125000 0.125000
vt 0.125000 0.125000
vt 0.125000 0.125000
vt 0.125000 0.125000
vt 0.125000 0.125000
vt 0.125000 0.125000
vt 0.125000 0.125000
vt 0.125000 0.125000
vt 0.125000 0.125000
vt 0.125000 0.125000
vt 0.125000 0.125000
vt 0.125000 0.125000
vt 0.125000 0.125000
vt 0.125000 0.125000
vt 0.125000 0.125000
vt 0.125000 0.125000
vt 0.125000 0.125000
vt 0.125000 0.125000
vt 0.125000 0.125000
vt 0.125000 0.125000
vt 0.125000 0.125000
vt 0.125000 0.125000
vt 0.125000 0.125000
vt 0.125000 0.125000
vt 0.125000 0.125000
vt 0.125000 0.125000
vt 0.125000 0.125000
vt 0.125000 0.125000
vt 0.125000 0.125000
vt 0.125000 0.125000
vt 0.125000 0.125000
vt 0.125000 0.125000
vt 0.125000 0.125000
vt 0.125000 0.125000
vt 0.125000 0.125000
vt 0.125000 0.125000
vt 0.125000 0.125000
vt 0.125000 0.125000
vt 0.125000 0.125000
vt 0.125000 0.125000
vt 0.125000 0.125000
vt 0.125000 0.125000
vt 0.125000 0.125000
vt 0.125000 0.125000
vt 0.125000 0.125000
vt 0.125000 0.125000
vt 0.125000 0.125000
vt 0.125000 0.125000
vt 0.125000 0.125000
vt 0.125000 0.125000
vt 0.125000 0.125000
vt 0.125000 0.125000
vt 0.125000 0.125000
vt 0.125000 0.125000
vt 0.125000 0.125000
vt 0.125000 0.125000
vt 0.125000 0.125000
vt 0.125000 0.125000
vt 0.125000 0.125000
vt 0.125000 0.125000
vt 0.125000 0.125000
vt 0.125000 0.125000
vt 0.125000 0.125000
vt 0.125000 0.125000
vt 0.125000 0.125000
vt 0.125000 0.125000
vt 0.125000 0.125000
vt 0.125000 0.125000
vt 0.125000 0.125000
vt 0.125000 0.125000
vt 0.125000 0.125000
vt 0.125000 0.125000
vt 0.125000 0.125000
vt 0.125000 0.125000
vt 0.125000 0.125000
vt 0.125000 0.125000
vt 0.125000 0.125000
vt 0.125000 0.125000
vt 0.125000 0.125000
vt 0.125000 0.125000
vt 0.125000 0.125000
vt 0.125000 0.125000
vt 0.125000 0.125000
vt 0.125000 0.125000
vt 0.125000 0.125000
vt 0.125000 0.125000
vt 0.125000 0.125000
vt 0.125000 0.125000
vt 0.125000 0.125000
vt 0.125000 0.125000
vt 0.125000 0.125000
vt 0.125000 0.125000
vt 0.125000 0.125000
vt 0.125000 0.125000
vt 0.125000 0.125000
vt 0.125000 0.125000
vt 0.125000 0.125000
vt 0.125000 0.125000
vt 0.125000 0.125000
vt 0.125000 0.125000
vt 0.125000 0.125000
vt 0.125000 0.125000
vt 0.125000 0.125000
vt 0.125000 0.125000
vt 0.125000 0.125000
vt 0.125000 0.125000
vt 0.125000 0.125000
vt 0.125000 0.125000
vt 0.125000 0.125000
vt 0.125000 0.125000
vt 0.125000 0.125000
vt 0.125000 0.125000
vt 0.125000 0.125000
vt 0.125000 0.125000
vt 0.125000 0.125000
vt 0.125000 0.125000
vt 0.125000 0.125000
vt 0.125000 0.125000
vt 0.125000 0.125000
vt 0.125000 0.125000
vt 0.125000 0.125000
vt 0.125000 0.125000
vt 0.125000 0.125000
vt 0.125000 0.125000
vt 0.125000 0.125000
vt 0.125000 0.125000
vt 0.125000 0.125000
vt 0.125000 0.125000
vt 0.125000 0.125000
vt 0.125000 0.125000
vt 0.125000 0.125000
vt 0.125000 0.125000
vt 0.125000 0.125000
vt 0.125000 0.125000
vt 0.125000 0.125000
vt 0.125000 0.125000
vt 0.125000 0.125000
vt 0.125000 0.125000
vt 0.125000 0.125000
vt 0.125000 0.125000
vt 0.125000 0.125000
vt 0.125000 0.125000
vt 0.125000 0.125000
vt 0.125000 0.125000
vt 0.125000 0.125000
vt 0.125000 0.125000
vt 0.125000 0.125000
vt 0.125000 0.125000
vt 0.125000 0.125000
vt 0.125000 0.125000
vt 0.125000 0.125000
vt 0.125000 0.125000
vt 0.125000 0.125000
vt 0.125000 0.125000
vt 0.125000 0.125000
vt 0.125000 0.125000
vt 0.125000 0.125000
vt 0.125000 0.125000
vt 0.125000 0.125000
vt 0.125000 0.125000
vt 0.125000 0.125000
vt 0.125000 0.125000
vt 0.125000 0.125000
vt 0.125000 0.125000
vt 0.125000 0.125000
vt 0.125000 0.125000
vt 0.125000 0.125000
vt 0.125000 0.125000
vt 0.125000 0.125000
vt 0.125000 0.125000
vt 0.125000 0.125000
vt 0.125000 0.125000
vt 0.125000 0.125000
vt 0.125000 0.125000
vt 0.125000 0.125000
vt 0.125000 0.125000
vt 0.125000 0.125000
vt 0.125000 0.125000
vt 0.125000 0.125000
vt 0.125000 0.125000
vt 0.125000 0.125000
vt 0.125000 0.125000
vt 0.125000 0.125000
vt 0.125000 0.125000
vt 0.125000 0.125000
vt 0.125000 0.125000
vt 0.125000 0.125000
vt 0.125000 0.125000
vt 0.125000 0.125000
vt 0.125000 0.125000
vt 0.125000 0.125000
vt 0.125000 0.125000
vt 0.125000 0.125000
vt 0.125000 0.125000
vt 0.125000 0.125000
vt 0.125000 0.125000
vt 0.125000 0.125000
vt 0.125000 0.125000
vt 0.125000 0.125000
vt 0.125000 0.125000
vt 0.125000 0.125000
vt 0.125000 0.125000
vt 0.125000 0.125000
vt 0.125000 0.125000
vt 0.125000 0.125000
vt 0.125000 0.125000
vt 0.125000 0.125000
vt 0.125000 0.125000
vt 0.125000 0.125000
vt 0.125000 0.125000
vt 0.125000 0.125000
vt 0.125000 0.125000
vt 0.125000 0.125000
vt 0.125000 0.125000
vt 0.125000 0.125000
vt 0.125000 0.125000
vt 0.125000 0.125000
vt 0.125000 0.125000
vt 0.125000 0.125000
vt 0.125000 0.125000
vt 0.125000 0.125000
vt 0.125000 0.125000
vt 0.125000 0.125000
vt 0.125000 0.125000
vt 0.125000 0.125000
vt 0.125000 0.125000
vt 0.125000 0.125000
vt 0.125000 0.125000
vt 0.125000 0.125000
vt 0.125000 0.125000
vt 0.125000 0.125000
vt 0.125000 0.125000
vt 0.125000 0.125000
vt 0.125000 0.125000
vt 0.125000 0.125000
vt 0.125000 0.125000
vt 0.125000 0.125000
vt 0.125000 0.125000
vt 0.125000 0.125000
vt 0.125000 0.125000
vt 0.125000 0.125000
vt 0.125000 0.125000
vt 0.125000 0.125000
vt 0.125000 0.125000
vt 0.125000 0.125000
vt 0.125000 0.125000
vt 0.125000 0.125000
vt 0.125000 0.125000
vt 0.125000 0.125000
vt 0.125000 0.125000
vt 0.125000 0.125000
vt 0.125000 0.125000
vt 0.125000 0.125000
vt 0.125000 0.125000
vt 0.125000 0.125000
vt 0.125000 0.125000
vt 0.125000 0.125000
vt 0.125000 0.125000
vt 0.125000 0.125000
vt 0.125000 0.125000
vt 0.125000 0.125000
vt 0.125000 0.125000
vt 0.125000 0.125000
vt 0.125000 0.125000
vt 0.125000 0.125000
vt 0.125000 0.125000
vt 0.125000 0.125000
vt 0.125000 0.125000
vt 0.125000 0.125000
vt 0.125000 0.125000
vt 0.125000 0.125000
vt 0.125000 0.125000
vt 0.125000 0.125000
vt 0.125000 0.125000
vt 0.125000 0.125000
vt 0.125000 0.125000
vt 0.125000 0.125000
vt 0.125000 0.125000
vt 0.125000 0.125000
vt 0.125000 0.125000
vt 0.125000 0.125000
vt 0.125000 0.125000
vt 0.125000 0.125000
vt 0.125000 0.125000
vt 0.125000 0.125000
vt 0.125000 0.125000
vt 0.125000 0.125000
vt 0.125000 0.125000
vt 0.125000 0.125000
vt 0.125000 0.125000
vt 0.125000 0.125000
vt 0.125000 0.125000
vt 0.125000 0.125000
vt 0.125000 0.125000
vt 0.125000 0.125000
vt 0.125000 0.125000
vt 0.125000 0.125000
vt 0.125000 0.125000
vt 0.125000 0.125000
vt 0.125000 0.125000
vt 0.125000 0.125000
vt 0.125000 0.125000
vt 0.125000 0.125000
vt 0.125000 0.125000
vt 0.125000 0.125000
vt 0.125000 0.125000
vt 0.125000 0.125000
vt 0.125000 0.125000
vt 0.125000 0.125000
vt 0.125000 0.125000
vt 0.125000 0.125000
vt 0.125000 0.125000
vt 0.125000 0.125000
vt 0.125000 0.125000
vt 0.125000 0.125000
vt 0.125000 0.125000
vt 0.125000 0.125000
vt 0.125000 0.125000
vt 0.125000 0.125000
vt 0.125000 0.125000
vt 0.125000 0.125000
vt 0.125000 0.125000
vt 0.125000 0.125000
vt 0.125000 0.125000
vt 0.125000 0.125000
vt 0.125000 0.125000
vt 0.125000 0.125000
vt 0.125000 0.125000
vt 0.125000 0.125000
vt 0.125000 0.125000
vt 0.125000 0.125000
vt 0.125000 0.125000
vt 0.125000 0.125000
vt 0.125000 0.125000
vt 0.125000 0.125000
vt 0.125000 0.125000
vt 0.125000 0.125000
vt 0.125000 0.125000
vt 0.125000 0.125000
vt 0.125000 0.125000
vt 0.125000 0.125000
vt 0.125000 0.125000
vt 0.125000 0.125000
vt 0.125000 0.125000
vt 0.125000 0.125000
vt 0.125000 0.125000
vt 0.125000 0.125000
vt 0.125000 0.125000
vt 0.125000 0.125000
vt 0.125000 0.125000
vt 0.125000 0.125000
vt 0.125000 0.125000
vt 0.125000 0.125000
vt 0.125000 0.125000
vt 0.125000 0.125000
vt 0.125000 0.125000
vt 0.125000 0.125000
vt 0.125000 0.125000
vt 0.125000 0.125000
vt 0.125000 0.125000
vt 0.125000 0.125000
vt 0.125000 0.125000
vt 0.125000 0.125000
vt 0.125000 0.125000
vt 0.125000 0.125000
vt 0.125000 0.125000
vt 0.125000 0.125000
vt 0.125000 0.125000
vt 0.125000 0.125000
vt 0.125000 0.125000
vt 0.125000 0.125000
vt 0.125000 0.125000
vt 0.125000 0.125000
vt 0.125000 0.125000
vt 0.125000 0.125000
vt 0.125000 0.125000
vt 0.125000 0.125000
vt 0.125000 0.125000
vt 0.125000 0.125000
vt 0.125000 0.125000
vt 0.125000 0.125000
vt 0.125000 0.125000
vt 0.125000 0.125000
vt 0.125000 0.125000
vt 0.125000 0.125000
vt 0.125000 0.125000
vt 0.125000 0.125000
vt 0.125000 0.125000
vt 0.125000 0.125000
vt 0.125000 0.125000
vt 0.125000 0.125000
vt 0.125000 0.125000
vt 0.125000 0.125000
vt 0.125000 0.125000
vt 0.125000 0.125000
vt 0.125000 0.125000
vt 0.125000 0.125000
vt 0.125000 0.125000
vt 0.125000 0.125000
vt 0.125000 0.125000
vt 0.125000 0.125000
vt 0.125000 0.125000
vt 0.125000 0.125000
vt 0.125000 0.125000
vt 0.125000 0.125000
vt 0.125000 0.125000
vt 0.125000 0.125000
vt 0.125000 0.125000
vt 0.125000 0.125000
vt 0.125000 0.125000
vt 0.125000 0.125000
vt 0.125000 0.125000
vt 0.125000 0.125000
vt 0.125000 0.125000
vt 0.125000 0.125000
vt 0.125000 0.125000
vt 0.125000 0.125000
vt 0.125000 0.125000
vt 0.125000 0.125000
vt 0.125000 0.125000
vt 0.125000 0.125000
vt 0.125000 0.125000
vt 0.125000 0.125000
vt 0.125000 0.125000
vt 0.125000 0.125000
vt 0.125000 0.125000
vt 0.125000 0.125000
vt 0.125000 0.125000
vt 0.125000 0.125000
vt 0.125000 0.125000
vt 0.125000 0.125000
vt 0.125000 0.125000
vt 0.125000 0.125000
vt 0.125000 0.125000
vt 0.125000 0.125000
vt 0.125000 0.125000
vt 0.125000 0.125000
vt 0.125000 0.125000
vt 0.125000 0.125000
vt 0.125000 0.125000
vt 0.125000 0.125000
vt 0.125000 0.125000
vt 0.125000 0.125000
vt 0.125000 0.125000
vt 0.125000 0.125000
vt 0.125000 0.125000
vt 0.125000 0.125000
vt 0.125000 0.125000
vt 0.125000 0.125000
vt 0.125000 0.125000
vt 0.125000 0.125000
vt 0.125000 0.125000
vt 0.125000 0.125000
vt 0.125000 0.125000
vt 0.125000 0.125000
vt 0.125000 0.125000
vt 0.125000 0.125000
vt 0.125000 0.125000
vt 0.125000 0.125000
vt 0.125000 0.125000
vt 0.125000 0.125000
vt 0.125000 0.125000
vt 0.125000 0.125000
vt 0.125000 0.125000
vt 0.125000 0.125000
vt 0.125000 0.125000
vt 0.125000 0.125000
vt 0.125000 0.125000
vt 0.125000 0.125000
vt 0.125000 0.125000
vt 0.125000 0.125000
vt 0.125000 0.125000
vt 0.125000 0.125000
vt 0.125000 0.125000
vt 0.125000 0.125000
vt 0.125000 0.125000
vt 0.125000 0.125000
vt 0.125000 0.125000
vt 0.125000 0.125000
vt 0.125000 0.125000
vt 0.125000 0.125000
vt 0.125000 0.125000
vt 0.125000 0.125000
vt 0.125000 0.125000
vt 0.125000 0.125000
vt 0.125000 0.125000
vt 0.125000 0.125000
vt 0.125000 0.125000
vt 0.125000 0.125000
vt 0.125000 0.125000
vt 0.125000 0.125000
vt 0.125000 0.125000
vt 0.125000 0.125000
vt 0.125000 0.125000
vt 0.125000 0.125000
vt 0.125000 0.125000
vt 0.125000 0.125000
vt 0.125000 0.125000
vt 0.125000 0.125000
vt 0.125000 0.125000
vt 0.125000 0.125000
vt 0.125000 0.125000
vt 0.125000 0.125000
vt 0.125000 0.125000
vt 0.125000 0.125000
vt 0.125000 0.125000
vt 0.125000 0.125000
vt 0.125000 0.125000
vt 0.125000 0.125000
vt 0.125000 0.125000
vt 0.125000 0.125000
vt 0.125000 0.125000
vt 0.125000 0.125000
vt 0.125000 0.125000
vt 0.125000 0.125000
vt 0.125000 0.125000
vt 0.125000 0.125000
vt 0.125000 0.125000
vt 0.125000 0.125000
vt 0.125000 0.125000
vt 0.125000 0.125000
vt 0.125000 0.125000
vt 0.125000 0.125000
vt 0.125000 0.125000
vt 0.125000 0.125000
vt 0.125000 0.125000
vt 0.125000 0.125000
vt 0.125000 0.125000
vt 0.125000 0.125000
vt 0.125000 0.125000
vt 0.125000 0.125000
vt 0.125000 0.125000
vt 0.125000 0.125000
vt 0.125000 0.125000
vt 0.125000 0.125000
vt 0.125000 0.125000
vt 0.125000 0.125000
vt 0.125000 0.125000
vt 0.125000 0.125000
vt 0.125000 0.125000
vt 0.125000 0.125000
vt 0.125000 0.125000
vt 0.125000 0.125000
vt 0.125000 0.125000
vt 0.125000 0.125000
vt 0.125000 0.125000
vt 0.125000 0.125000
vt 0.125000 0.125000
vt 0.125000 0.125000
vt 0.125000 0.125000
vt 0.125000 0.125000
vt 0.125000 0.125000
vt 0.125000 0.125000
vt 0.125000 0.125000
vt 0.125000 0.125000
vt 0.125000 0.125000
vt 0.125000 0.125000
vt 0.125000 0.125000
vt 0.125000 0.125000
vt 0.125000 0.125000
vt 0.125000 0.125000
vt 0.125000 0.125000
vt 0.125000 0.125000
vt 0.125000 0.125000
vt 0.125000 0.125000
vt 0.125000 0.125000
vt 0.125000 0.125000
vt 0.125000 0.125000
vt 0.125000 0.125000
vt 0.125000 0.125000
vt 0.125000 0.125000
vt 0.125000 0.125000
vt 0.125000 0.125000
vt 0.125000 0.125000
vt 0.125000 0.125000
vt 0.125000 0.125000
vt 0.125000 0.125000
vt 0.125000 0.125000
vt 0.125000 0.125000
vt 0.125000 0.125000
vt 0.125000 0.125000
vt 0.125000 0.125000
vt 0.125000 0.125000
vt 0.125000 0.125000
vt 0.125000 0.125000
vt 0.125000 0.125000
vt 0.125000 0.125000
vt 0.125000 0.125000
vt 0.125000 0.125000
vt 0.125000 0.125000
vt 0.125000 0.125000
vt 0.125000 0.125000
vt 0.125000 0.125000
vt 0.125000 0.125000
vt 0.125000 0.125000
vt 0.125000 0.125000
vt 0.125000 0.125000
vt 0.125000 0.125000
vt 0.125000 0.125000
vt 0.125000 0.125000
vt 0.125000 0.125000
vt 0.125000 0.125000
vt 0.125000 0.125000
vt 0.125000 0.125000
vt 0.125000 0.125000
vt 0.125000 0.125000
vt 0.125000 0.125000
vt 0.125000 0.125000
vt 0.125000 0.125000
vt 0.125000 0.125000
vt 0.125000 0.125000
vt 0.125000 0.125000
vt 0.125000 0.125000
vt 0.125000 0.125000
vt 0.125000 0.125000
vt 0.125000 0.125000
vt 0.125000 0.125000
vt 0.125000 0.125000
vt 0.125000 0.125000
vt 0.125000 0.125000
vt 0.125000 0.125000
vt 0.125000 0.125000
vt 0.125000 0.125000
vt 0.125000 0.125000
vt 0.125000 0.125000
vt 0.125000 0.125000
vt 0.125000 0.125000
vt 0.125000 0.125000
vt 0.125000 0.125000
vt 0.125000 0.125000
vt 0.125000 0.125000
vt 0.125000 0.125000
vt 0.125000 0.125000
vt 0.125000 0.125000
vt 0.125000 0.125000
vt 0.125000 0.125000
vt 0.125000 0.125000
vt 0.125000 0.125000
vt 0.125000 0.125000
vt 0.125000 0.125000
vt 0.125000 0.125000
vt 0.125000 0.125000
vt 0.125000 0.125000
vt 0.125000 0.125000
vt 0.125000 0.125000
vt 0.125000 0.125000
vt 0.125000 0.125000
vt 0.125000 0.125000
vt 0.125000 0.125000
vt 0.125000 0.125000
vt 0.125000 0.125000
vt 0.125000 0.125000
vt 0.125000 0.125000
vt 0.125000 0.125000
vt 0.125000 0.125000
vt 0.125000 0.125000
vt 0.125000 0.125000
vt 0.125000 0.125000
vt 0.125000 0.125000
vt 0.125000 0.125000
vt 0.125000 0.125000
vt 0.125000 0.125000
vt 0.125000 0.125000
vt 0.125000 0.125000
vt 0.125000 0.125000
vt 0.125000 0.125000
vt 0.125000 0.125000
vt 0.125000 0.125000
vt 0.125000 0.125000
vt 0.125000 0.125000
vt 0.125000 0.125000
vt 0.125000 0.125000
vt 0.125000 0.125000
vt 0.125000 0.125000
vt 0.125000 0.125000
vt 0.125000 0.125000
vt 0.125000 0.125000
vt 0.125000 0.125000
vt 0.125000 0.125000
vt 0.125000 0.125000
vt 0.125000 0.125000
vt 0.125000 0.125000
vt 0.125000 0.125000
vt 0.125000 0.125000
vt 0.125000 0.125000
vt 0.125000 0.125000
vt 0.125000 0.125000
vt 0.125000 0.125000
vt 0.125000 0.125000
vt 0.125000 0.125000
vt 0.125000 0.125000
vt 0.125000 0.125000
vt 0.125000 0.125000
vt 0.125000 0.125000
vt 0.125000 0.125000
vt 0.125000 0.125000
vt 0.125000 0.125000
vt 0.125000 0.125000
vt 0.125000 0.125000
vt 0.125000 0.125000
vt 0.125000 0.125000
vt 0.125000 0.125000
vt 0.125000 0.125000
vt 0.125000 0.125000
vt 0.125000 0.125000
vt 0.125000 0.125000
vt 0.125000 0.125000
vt 0.125000 0.125000
vt 0.125000 0.125000
vt 0.125000 0.125000
vt 0.125000 0.125000
vt 0.125000 0.125000
vt 0.125000 0.125000
vt 0.125000 0.125000
vt 0.125000 0.125000
vt 0.125000 0.125000
vt 0.125000 0.125000
vt 0.125000 0.125000
vt 0.125000 0.125000
vt 0.125000 0.125000
vt 0.125000 0.125000

vn -1.000000 0.000000 -0.000000
vn 0.000000 1.000000 0.000000
vn 1.000000 0.000000 0.000000
vn 0.000000 -1.000000 0.000000
vn 0.000000 0.000000 1.000000
vn 0.000000 0.000000 -1.000000
vn -1.000000 0.000000 -0.000000
vn 0.000000 1.000000 0.000000
vn 1.000000 0.000000 0.000000
vn 0.000000 -1.000000 0.000000
vn 0.000000 0.000000 1.000000
vn 0.000000 0.000000 -1.000000
vn -1.000000 0.000000 -0.000000
vn 0.000000 1.000000 0.000000
vn 1.000000 0.000000 0.000000
vn 0.000000 -1.000000 0.000000
vn 0.000000 0.000000 1.000000
vn 0.000000 0.000000 -1.000000
vn -1.000000 0.000000 -0.000000
vn 0.000000 1.000000 0.000000
vn 1.000000 0.000000 0.000000
vn 0.000000 -1.000000 0.000000
vn 0.000000 0.000000 1.000000
vn 0.000000 0.000000 -1.000000
vn -1.000000 0.000000 -0.000000
vn 0.000000 1.000000 0.000000
vn 1.000000 0.000000 0.000000
vn 0.000000 -1.000000 0.000000
vn 0.000000 0.000000 1.000000
vn 0.000000 0.000000 -1.000000
vn -1.000000 0.000000 -0.000000
vn 0.000000 1.000000 0.000000
vn 1.000000 0.000000 0.000000
vn 0.000000 -1.000000 0.000000
vn 0.000000 0.000000 1.000000
vn 0.000000 0.000000 -1.000000
vn -1.000000 0.000000 -0.000000
vn 0.000000 1.000000 0.000000
vn 1.000000 0.000000 0.000000
vn 0.000000 -1.000000 0.000000
vn 0.000000 0.000000 1.000000
vn 0.000000 0.000000 -1.000000
vn -1.000000 0.000000 -0.000000
vn 0.000000 1.000000 0.000000
vn 1.000000 0.000000 0.000000
vn 0.000000 -1.000000 0.000000
vn 0.000000 0.000000 1.000000
vn 0.000000 0.000000 -1.000000
vn -1.000000 0.000000 -0.000000
vn 0.000000 1.000000 0.000000
vn 1.000000 0.000000 0.000000
vn 0.000000 -1.000000 0.000000
vn 0.000000 0.000000 1.000000
vn 0.000000 0.000000 -1.000000
vn -1.000000 0.000000 -0.000000
vn 0.000000 1.000000 0.000000
vn 1.000000 0.000000 0.000000
vn 0.000000 -1.000000 0.000000
vn 0.000000 0.000000 1.000000
vn 0.000000 0.000000 -1.000000
vn -1.000000 0.000000 -0.000000
vn 0.000000 1.000000 0.000000
vn 1.000000 0.000000 0.000000
vn 0.000000 -1.000000 0.000000
vn 0.000000 0.000000 1.000000
vn 0.000000 0.000000 -1.000000
vn -1.000000 0.000000 -0.000000
vn 0.000000 1.000000 0.000000
vn 1.000000 0.000000 0.000000
vn 0.000000 -1.000000 0.000000
vn 0.000000 0.000000 1.000000
vn 0.000000 0.000000 -1.000000
vn -1.000000 0.000000 -0.000000
vn 0.000000 1.000000 0.000000
vn 1.000000 0.000000 0.000000
vn 0.000000 -1.000000 0.000000
vn 0.000000 0.000000 1.000000
vn 0.000000 0.000000 -1.000000
vn -1.000000 0.000000 -0.000000
vn 0.000000 1.000000 0.000000
vn 1.000000 0.000000 0.000000
vn 0.000000 -1.000000 0.000000
vn 0.000000 0.000000 1.000000
vn 0.000000 0.000000 -1.000000
vn -1.000000 0.000000 -0.000000
vn 0.000000 1.000000 0.000000
vn 1.000000 0.000000 0.000000
vn 0.000000 -1.000000 0.000000
vn 0.000000 0.000000 1.000000
vn 0.000000 0.000000 -1.000000
vn -1.000000 0.000000 -0.000000
vn 0.000000 1.000000 0.000000
vn 1.000000 0.000000 0.000000
vn 0.000000 -1.000000 0.000000
vn 0.000000 0.000000 1.000000
vn 0.000000 0.000000 -1.000000
vn -1.000000 0.000000 -0.000000
vn 0.000000 1.000000 0.000000
vn 1.000000 0.000000 0.000000
vn 0.000000 -1.000000 0.000000
vn 0.000000 0.000000 1.000000
vn 0.000000 0.000000 -1.000000
vn -1.000000 0.000000 -0.000000
vn 0.000000 1.000000 0.000000
vn 1.000000 0.000000 0.000000
vn 0.000000 -1.000000 0.000000
vn 0.000000 0.000000 1.000000
vn 0.000000 0.000000 -1.000000
vn -1.000000 0.000000 -0.000000
vn 0.000000 1.000000 0.000000
vn 1.000000 0.000000 0.000000
vn 0.000000 -1.000000 0.000000
vn 0.000000 0.000000 1.000000
vn 0.000000 0.000000 -1.000000
vn -1.000000 0.000000 -0.000000
vn 0.000000 1.000000 0.000000
vn 1.000000 0.000000 0.000000
vn 0.000000 -1.000000 0.000000
vn 0.000000 0.000000 1.000000
vn 0.000000 0.000000 -1.000000
vn -1.000000 0.000000 -0.000000
vn 0.000000 1.000000 0.000000
vn 1.000000 0.000000 0.000000
vn 0.000000 -1.000000 0.000000
vn 0.000000 0.000000 1.000000
vn 0.000000 0.000000 -1.000000
vn -1.000000 0.000000 -0.000000
vn 0.000000 1.000000 0.000000
vn 1.000000 0.000000 0.000000
vn 0.000000 -1.000000 0.000000
vn 0.000000 0.000000 1.000000
vn 0.000000 0.000000 -1.000000
vn -1.000000 0.000000 -0.000000
vn 0.000000 1.000000 0.000000
vn 1.000000 0.000000 0.000000
vn 0.000000 -1.000000 0.000000
vn 0.000000 0.000000 1.000000
vn 0.000000 0.000000 -1.000000
vn -1.000000 0.000000 -0.000000
vn 0.000000 1.000000 0.000000
vn 1.000000 0.000000 0.000000
vn 0.000000 -1.000000 0.000000
vn 0.000000 0.000000 1.000000
vn 0.000000 0.000000 -1.000000
vn -1.000000 0.000000 -0.000000
vn 0.000000 1.000000 0.000000
vn 1.000000 0.000000 0.000000
vn 0.000000 -1.000000 0.000000
vn 0.000000 0.000000 1.000000
vn 0.000000 0.000000 -1.000000
vn -1.000000 0.000000 -0.000000
vn 0.000000 1.000000 0.000000
vn 1.000000 0.000000 0.000000
vn 0.000000 -1.000000 0.000000
vn 0.000000 0.000000 1.000000
vn 0.000000 0.000000 -1.000000
vn -1.000000 0.000000 -0.000000
vn 0.000000 1.000000 0.000000
vn 1.000000 0.000000 0.000000
vn 0.000000 -1.000000 0.000000
vn 0.000000 0.000000 1.000000
vn 0.000000 0.000000 -1.000000
vn -1.000000 0.000000 -0.000000
vn 0.000000 1.000000 0.000000
vn 1.000000 0.000000 0.000000
vn 0.000000 -1.000000 0.000000
vn 0.000000 0.000000 1.000000
vn 0.000000 0.000000 -1.000000
vn -1.000000 0.000000 -0.000000
vn 0.000000 1.000000 0.000000
vn 1.000000 0.000000 0.000000
vn 0.000000 -1.000000 0.000000
vn 0.000000 0.000000 1.000000
vn 0.000000 0.000000 -1.000000
vn -1.000000 0.000000 -0.000000
vn 0.000000 1.000000 0.000000
vn 1.000000 0.000000 0.000000
vn 0.000000 -1.000000 0.000000
vn 0.000000 0.000000 1.000000
vn 0.000000 0.000000 -1.000000
vn -1.000000 0.000000 -0.000000
vn 0.000000 1.000000 0.000000
vn 1.000000 0.000000 0.000000
vn 0.000000 -1.000000 0.000000
vn 0.000000 0.000000 1.000000
vn 0.000000 0.000000 -1.000000
vn -1.000000 0.000000 -0.000000
vn 0.000000 1.000000 0.000000
vn 1.000000 0.000000 0.000000
vn 0.000000 -1.000000 0.000000
vn 0.000000 0.000000 1.000000
vn 0.000000 0.000000 -1.000000
vn -1.000000 0.000000 -0.000000
vn 0.000000 1.000000 0.000000
vn 1.000000 0.000000 0.000000
vn 0.000000 -1.000000 0.000000
vn 0.000000 0.000000 1.000000
vn 0.000000 0.000000 -1.000000
vn -1.000000 0.000000 -0.000000
vn 0.000000 1.000000 0.000000
vn 1.000000 0.000000 0.000000
vn 0.000000 -1.000000 0.000000
vn 0.000000 0.000000 1.000000
vn 0.000000 0.000000 -1.000000
vn -1.000000 0.000000 -0.000000
vn 0.000000 1.000000 0.000000
vn 1.000000 0.000000 0.000000
vn 0.000000 -1.000000 0.000000
vn 0.000000 0.000000 1.000000
vn 0.000000 0.000000 -1.000000
vn -1.000000 0.000000 -0.000000
vn 0.000000 1.000000 0.000000
vn 1.000000 0.000000 0.000000
vn 0.000000 -1.000000 0.000000
vn 0.000000 0.000000 1.000000
vn 0.000000 0.000000 -1.000000
vn -1.000000 0.000000 -0.000000
vn 0.000000 1.000000 0.000000
vn 1.000000 0.000000 0.000000
vn 0.000000 -1.000000 0.000000
vn 0.000000 0.000000 1.000000
vn 0.000000 0.000000 -1.000000
vn -1.000000 0.000000 -0.000000
vn 0.000000 1.000000 0.000000
vn 1.000000 0.000000 0.000000
vn 0.000000 -1.000000 0.000000
vn 0.000000 0.000000 1.000000
vn 0.000000 0.000000 -1.000000
vn -1.000000 0.000000 -0.000000
vn 0.000000 1.000000 0.000000
vn 1.000000 0.000000 0.000000
vn 0.000000 -1.000000 0.000000
vn 0.000000 0.000000 1.000000
vn 0.000000 0.000000 -1.000000
vn -1.000000 0.000000 -0.000000
vn 0.000000 1.000000 0.000000
vn 1.000000 0.000000 0.000000
vn 0.000000 -1.000000 0.000000
vn 0.000000 0.000000 1.000000
vn 0.000000 0.000000 -1.000000
vn -1.000000 0.000000 -0.000000
vn 0.000000 1.000000 0.000000
vn 1.000000 0.000000 0.000000
vn 0.000000 -1.000000 0.000000
vn 0.000000 0.000000 1.000000
vn 0.000000 0.000000 -1.000000
vn -1.000000 0.000000 -0.000000
vn 0.000000 1.000000 0.000000
vn 1.000000 0.000000 0.000000
vn 0.000000 -1.000000 0.000000
vn 0.000000 0.000000 1.000000
vn 0.000000 0.000000 -1.000000
vn -1.000000 0.000000 -0.000000
vn 0.000000 1.000000 0.000000
vn 1.000000 0.000000 0.000000
vn 0.000000 -1.000000 0.000000
vn 0.000000 0.000000 1.000000
vn 0.000000 0.000000 -1.000000
vn -1.000000 0.000000 -0.000000
vn 0.000000 1.000000 0.000000
vn 1.000000 0.000000 0.000000
vn 0.000000 -1.000000 0.000000
vn 0.000000 0.000000 1.000000
vn 0.000000 0.000000 -1.000000
vn -1.000000 0.000000 -0.000000
vn 0.000000 1.000000 0.000000
vn 1.000000 0.000000 0.000000
vn 0.000000 -1.000000 0.000000
vn 0.000000 0.000000 1.000000
vn 0.000000 0.000000 -1.000000
vn -1.000000 0.000000 -0.000000
vn 0.000000 1.000000 0.000000
vn 1.000000 0.000000 0.000000
vn 0.000000 -1.000000 0.000000
vn 0.000000 0.000000 1.000000
vn 0.000000 0.000000 -1.000000
vn -1.000000 0.000000 -0.000000
vn 0.000000 1.000000 0.000000
vn 1.000000 0.000000 0.000000
vn 0.000000 -1.000000 0.000000
vn 0.000000 0.000000 1.000000
vn 0.000000 0.000000 -1.000000
vn -1.000000 0.000000 -0.000000
vn 0.000000 1.000000 0.000000
vn 1.000000 0.000000 0.000000
vn 0.000000 -1.000000 0.000000
vn 0.000000 0.000000 1.000000
vn 0.000000 0.000000 -1.000000
vn -1.000000 0.000000 -0.000000
vn 0.000000 1.000000 0.000000
vn 1.000000 0.000000 0.000000
vn 0.000000 -1.000000 0.000000
vn 0.000000 0.000000 1.000000
vn 0.000000 0.000000 -1.000000
vn -1.000000 0.000000 -0.000000
vn 0.000000 1.000000 0.000000
vn 1.000000 0.000000 0.000000
vn 0.000000 -1.000000 0.000000
vn 0.000000 0.000000 1.000000
vn 0.000000 0.000000 -1.000000
vn -1.000000 0.000000 -0.000000
vn 0.000000 1.000000 0.000000
vn 1.000000 0.000000 0.000000
vn 0.000000 -1.000000 0.000000
vn 0.000000 0.000000 1.000000
vn 0.000000 0.000000 -1.000000
vn -1.000000 0.000000 -0.000000
vn 0.000000 1.000000 0.000000
vn 1.000000 0.000000 0.000000
vn 0.000000 -1.000000 0.000000
vn 0.000000 0.000000 1.000000
vn 0.000000 0.000000 -1.000000
vn -1.000000 0.000000 -0.000000
vn 0.000000 1.000000 0.000000
vn 1.000000 0.000000 0.000000
vn 0.000000 -1.000000 0.000000
vn 0.000000 0.000000 1.000000
vn 0.000000 0.000000 -1.000000
vn -1.000000 0.000000 -0.000000
vn 0.000000 1.000000 0.000000
vn 1.000000 0.000000 0.000000
vn 0.000000 -1.000000 0.000000
vn 0.000000 0.000000 1.000000
vn 0.000000 0.000000 -1.000000
vn -1.000000 0.000000 -0.000000
vn 0.000000 1.000000 0.000000
vn 1.000000 0.000000 0.000000
vn 0.000000 -1.000000 0.000000
vn 0.000000 0.000000 1.000000
vn 0.000000 0.000000 -1.000000
vn -1.000000 0.000000 -0.000000
vn 0.000000 1.000000 0.000000
vn 1.000000 0.000000 0.000000
vn 0.000000 -1.000000 0.000000
vn 0.000000 0.000000 1.000000
vn 0.000000 0.000000 -1.000000
vn -1.000000 0.000000 -0.000000
vn 0.000000 1.000000 0.000000
vn 1.000000 0.000000 0.000000
vn 0.000000 -1.000000 0.000000
vn 0.000000 0.000000 1.000000
vn 0.000000 0.000000 -1.000000
vn -1.000000 0.000000 -0.000000
vn 0.000000 1.000000 0.000000
vn 1.000000 0.000000 0.000000
vn 0.000000 -1.000000 0.000000
vn 0.000000 0.000000 1.000000
vn 0.000000 0.000000 -1.000000
vn -1.000000 0.000000 -0.000000
vn 0.000000 1.000000 0.000000
vn 1.000000 0.000000 0.000000
vn 0.000000 -1.000000 0.000000
vn 0.000000 0.000000 1.000000
vn 0.000000 0.000000 -1.000000
vn -1.000000 0.000000 -0.000000
vn 0.000000 1.000000 0.000000
vn 1.000000 0.000000 0.000000
vn 0.000000 -1.000000 0.000000
vn 0.000000 0.000000 1.000000
vn 0.000000 0.000000 -1.000000
vn -1.000000 0.000000 -0.000000
vn 0.000000 1.000000 0.000000
vn 1.000000 0.000000 0.000000
vn 0.000000 -1.000000 0.000000
vn 0.000000 0.000000 1.000000
vn 0.000000 0.000000 -1.000000
vn -1.000000 0.000000 -0.000000
vn 0.000000 1.000000 0.000000
vn 1.000000 0.000000 0.000000
vn 0.000000 -1.000000 0.000000
vn 0.000000 0.000000 1.000000
vn 0.000000 0.000000 -1.000000
vn -1.000000 0.000000 -0.000000
vn 0.000000 1.000000 0.000000
vn 1.000000 0.000000 0.000000
vn 0.000000 -1.000000 0.000000
vn 0.000000 0.000000 1.000000
vn 0.000000 0.000000 -1.000000
vn -1.000000 0.000000 -0.000000
vn 0.000000 1.000000 0.000000
vn 1.000000 0.000000 0.000000
vn 0.000000 -1.000000 0.000000
vn 0.000000 0.000000 1.000000
vn 0.000000 0.000000 -1.000000

f 3/1/1 4/2/1 2/3/1 1/4/1
f 7/5/2 8/6/2 4/7/2 3/8/2
f 5/9/3 6/10/3 8/11/3 7/12/3
f 1/13/4 2/14/4 6/15/4 5/16/4
f 1/17/5 5/18/5 7/19/5 3/20/5
f 6/21/6 2/22/6 4/23/6 8/24/6
f 11/25/7 12/26/7 10/27/7 9/28/7
f 15/29/8 16/30/8 12/31/8 11/32/8
f 13/33/9 14/34/9 16/35/9 15/36/9
f 9/37/10 10/38/10 14/39/10 13/40/10
f 9/41/11 13/42/11 15/43/11 11/44/11
f 14/45/12 10/46/12 12/47/12 16/48/12
f 19/49/13 20/50/13 18/51/13 17/52/13
f 23/53/14 24/54/14 20/55/14 19/56/14
f 21/57/15 22/58/15 24/59/15 23/60/15
f 17/61/16 18/62/16 22/63/16 21/64/16
f 17/65/17 21/66/17 23/67/17 19/68/17
f 22/69/18 18/70/18 20/71/18 24/72/18
f 27/73/19 28/74/19 26/75/19 25/76/19
f 31/77/20 32/78/20 28/79/20 27/80/20
f 29/81/21 30/82/21 32/83/21 31/84/21
f 25/85/22 26/86/22 30/87/22 29/88/22
f 25/89/23 29/90/23 31/91/23 27/92/23
f 30/93/24 26/94/24 28/95/24 32/96/24
f 35/97/25 36/98/25 34/99/25 33/100/25
f 39/101/26 40/102/26 36/103/26 35/104/26
f 37/105/27 38/106/27 40/107/27 39/108/27
f 33/109/28 34/110/28 38/111/28 37/112/28
f 33/113/29 37/114/29 39/115/29 35/116/29
f 38/117/30 34/118/30 36/119/30 40/120/30
f 43/121/31 44/122/31 42/123/31 41/124/31
f 47/125/32 48/126/32 44/127/32 43/128/32
f 45/129/33 46/130/33 48/131/33 47/132/33
f 41/133/34 42/134/34 46/135/34 45/136/34
f 41/137/35 45/138/35 47/139/35 43/140/35
f 46/141/36 42/142/36 44/143/36 48/144/36
f 51/145/37 52/146/37 50/147/37 49/148/37
f 55/149/38 56/150/38 52/151/38 51/152/38
f 53/153/39 54/154/39 56/155/39 55/156/39
f 49/157/40 50/158/40 54/159/40 53/160/40
f 49/161/41 53/162/41 55/163/41 51/164/41
f 54/165/42 50/166/42 52/167/42 56/168/42
f 59/169/43 60/170/43 58/171/43 57/172/43
f 63/173/44 64/174/44 60/175/44 59/176/44
f 61/177/45 62/178/45 64/179/45 63/180/45
f 57/181/46 58/182/46 62/183/46 61/184/46
f 57/185/47 61/186/47 63/187/47 59/188/47
f 62/189/48 58/190/48 60/191/48 64/192/48
f 67/193/49 68/194/49 66/195/49 65/196/49
f 71/197/50 72/198/50 68/199/50 67/200/50
f 69/201/51 70/202/51 72/203/51 71/204/51
f 65/205/52 66/206/52 70/207/52 69/208/52
f 65/209/53 69/210/53 71/211/53 67/212/53
f 70/213/54 66/214/54 68/215/54 72/216/54
f 75/217/55 76/218/55 74/219/55 73/220/55
f 79/221/56 80/222/56 76/223/56 75/224/56
f 77/225/57 78/226/57 80/227/57 79/228/57
f 73/229/58 74/230/58 78/231/58 77/232/58
f 73/233/59 77/234/59 79/235/59 75/236/59
f 78/237/60 74/238/60 76/239/60 80/240/60
f 83/241/61 84/242/61 82/243/61 81/244/61
f 87/245/62 88/246/62 84/247/62 83/248/62
f 85/249/63 86/250/63 88/251/63 87/252/63
f 81/253/64 82/254/64 86/255/64 85/256/64
f 81/257/65 85/258/65 87/259/65 83/260/65
f 86/261/66 82/262/66 84/263/66 88/264/66
f 91/265/67 92/266/67 90/267/67 89/268/67
f 95/269/68 96/270/68 92/271/68 91/272/68
f 93/273/69 94/274/69 96/275/69 95/276/69
f 89/277/70 90/278/70 94/279/70 93/280/70
f 89/281/71 93/282/71 95/283/71 91/284/71
f 94/285/72 90/286/72 92/287/72 96/288/72
f 99/289/73 100/290/73 98/291/73 97/292/73
f 103/293/74 104/294/74 100/295/74 99/296/74
f 101/297/75 102/298/75 104/299/75 103/300/75
f 97/301/76 98/302/76 102/303/76 101/304/76
f 97/305/77 101/306/77 103/307/77 99/308/77
f 102/309/78 98/310/78 100/311/78 104/312/78
f 107/313/79 108/314/79 106/315/79 105/316/79
f 111/317/80 112/318/80 108/319/80 107/320/80
f 109/321/81 110/322/81 112/323/81 111/324/81
f 105/325/82 106/326/82 110/327/82 109/328/82
f 105/329/83 109/330/83 111/331/83 107/332/83
f 110/333/84 106/334/84 108/335/84 112/336/84
f 115/337/85 116/338/85 114/339/85 113/340/85
f 119/341/86 120/342/86 116/343/86 115/344/86
f 117/345/87 118/346/87 120/347/87 119/348/87
f 113/349/88 114/350/88 118/351/88 117/352/88
f 113/353/89 117/354/89 119/355/89 115/356/89
f 118/357/90 114/358/90 116/359/90 120/360/90
f 123/361/91 124/362/91 122/363/91 121/364/91
f 127/365/92 128/366/92 124/367/92 123/368/92
f 125/369/93 126/370/93 128/371/93 127/372/93
f 121/373/94 122/374/94 126/375/94 125/376/94
f 121/377/95 125/378/95 127/379/95 123/380/95
f 126/381/96 122/382/96 124/383/96 128/384/96
f 131/385/97 132/386/97 130/387/97 129/388/97
f 135/389/98 136/390/98 132/391/98 131/392/98
f 133/393/99 134/394/99 136/395/99 135/396/99
f 129/397/100 130/398/100 134/399/100 133/400/100
f 129/401/101 133/402/101 135/403/101 131/404/101
f 134/405/102 130/406/102 132/407/102 136/408/102
f 139/409/103 140/410/103 138/411/103 137/412/103
f 143/413/104 144/414/104 140/415/104 139/416/104
f 141/417/105 142/418/105 144/419/105 143/420/105
f 137/421/106 138/422/106 142/423/106 141/424/106
f 137/425/107 141/426/107 143/427/107 139/428/107
f 142/429/108 138/430/108 140/431/108 144/432/108
f 147/433/109 148/434/109 146/435/109 145/436/109
f 151/437/110 152/438/110 148/439/110 147/440/110
f 149/441/111 150/442/111 152/443/111 151/444/111
f 145/445/112 146/446/112 150/447/112 149/448/112
f 145/449/113 149/450/113 151/451/113 147/452/113
f 150/453/114 146/454/114 148/455/114 152/456/114
f 155/457/115 156/458/115 154/459/115 153/460/115
f 159/461/116 160/462/116 156/463/116 155/464/116
f 157/465/117 158/466/117 160/467/117 159/468/117
f 153/469/118 154/470/118 158/471/118 157/472/118
f 153/473/119 157/474/119 159/475/119 155/476/119
f 158/477/120 154/478/120 156/479/120 160/480/120
f 163/481/121 164/482/121 162/483/121 161/484/121
f 167/485/122 168/486/122 164/487/122 163/488/122
f 165/489/123 166/490/123 168/491/123 167/492/123
f 161/493/124 162/494/124 166/495/124 165/496/124
f 161/497/125 165/498/125 167/499/125 163/500/125
f 166/501/126 162/502/126 164/503/126 168/504/126
f 171/505/127 172/506/127 170/507/127 169/508/127
f 175/509/128 176/510/128 172/511/128 171/512/128
f 173/513/129 174/514/129 176/515/129 175/516/129
f 169/517/130 170/518/130 174/519/130 173/520/130
f 169/521/131 173/522/131 175/523/131 171/524/131
f 174/525/132 170/526/132 172/527/132 176/528/132
f 179/529/133 180/530/133 178/531/133 177/532/133
f 183/533/134 184/534/134 180/535/134 179/536/134
f 181/537/135 182/538/135 184/539/135 183/540/135
f 177/541/136 178/542/136 182/543/136 181/544/136
f 177/545/137 181/546/137 183/547/137 179/548/137
f 182/549/138 178/550/138 180/551/138 184/552/138
f 187/553/139 188/554/139 186/555/139 185/556/139
f 191/557/140 192/558/140 188/559/140 187/560/140
f 189/561/141 190/562/141 192/563/141 191/564/141
f 185/565/142 186/566/142 190/567/142 189/568/142
f 185/569/143 189/570/143 191/571/143 187/572/143
f 190/573/144 186/574/144 188/575/144 192/576/144
f 195/577/145 196/578/145 194/579/145 193/580/145
f 199/581/146 200/582/146 196/583/146 195/584/146
f 197/585/147 198/586/147 200/587/147 199/588/147
f 193/589/148 194/590/148 198/591/148 197/592/148
f 193/593/149 197/594/149 199/595/149 195/596/149
f 198/597/150 194/598/150 196/599/150 200/600/150
f 203/601/151 204/602/151 202/603/151 201/604/151
f 207/605/152 208/606/152 204/607/152 203/608/152
f 205/609/153 206/610/153 208/611/153 207/612/153
f 201/613/154 202/614/154 206/615/154 205/616/154
f 201/617/155 205/618/155 207/619/155 203/620/155
f 206/621/156 202/622/156 204/623/156 208/624/156
f 211/625/157 212/626/157 210/627/157 209/628/157
f 215/629/158 216/630/158 212/631/158 211/632/158
f 213/633/159 214/634/159 216/635/159 215/636/159
f 209/637/160 210/638/160 214/639/160 213/640/160
f 209/641/161 213/642/161 215/643/161 211/644/161
f 214/645/162 210/646/162 212/647/162 216/648/162
f 219/649/163 220/650/163 218/651/163 217/652/163
f 223/653/164 224/654/164 220/655/164 219/656/164
f 221/657/165 222/658/165 224/659/165 223/660/165
f 217/661/166 218/662/166 222/663/166 221/664/166
f 217/665/167 221/666/167 223/667/167 219/668/167
f 222/669/168 218/670/168 220/671/168 224/672/168
f 227/673/169 228/674/169 226/675/169 225/676/169
f 231/677/170 232/678/170 228/679/170 227/680/170
f 229/681/171 230/682/171 232/683/171 231/684/171
f 225/685/172 226/686/172 230/687/172 229/688/172
f 225/689/173 229/690/173 231/691/173 227/692/173
f 230/693/174 226/694/174 228/695/174 232/696/174
f 235/697/175 236/698/175 234/699/175 233/700/175
f 239/701/176 240/702/176 236/703/176 235/704/176
f 237/705/177 238/706/177 240/707/177 239/708/177
f 233/709/178 234/710/178 238/711/178 237/712/178
f 233/713/179 237/714/179 239/715/179 235/716/179
f 238/717/180 234/718/180 236/719/180 240/720/180
f 243/721/181 244/722/181 242/723/181 241/724/181
f 247/725/182 248/726/182 244/727/182 243/728/182
f 245/729/183 246/730/183 248/731/183 247/732/183
f 241/733/184 242/734/184 246/735/184 245/736/184
f 241/737/185 245/738/185 247/739/185 243/740/185
f 246/741/186 242/742/186 244/743/186 248/744/186
f 251/745/187 252/746/187 250/747/187 249/748/187
f 255/749/188 256/750/188 252/751/188 251/752/188
f 253/753/189 254/754/189 256/755/189 255/756/189
f 249/757/190 250/758/190 254/759/190 253/760/190
f 249/761/191 253/762/191 255/763/191 251/764/191
f 254/765/192 250/766/192 252/767/192 256/768/192
f 259/769/193 260/770/193 258/771/193 257/772/193
f 263/773/194 264/774/194 260/775/194 259/776/194
f 261/777/195 262/778/195 264/779/195 263/780/195
f 257/781/196 258/782/196 262/783/196 261/784/196
f 257/785/197 261/786/197 263/787/197 259/788/197
f 262/789/198 258/790/198 260/791/198 264/792/198
f 267/793/199 268/794/199 266/795/199 265/796/199
f 271/797/200 272/798/200 268/799/200 267/800/200
f 269/801/201 270/802/201 272/803/201 271/804/201
f 265/805/202 266/806/202 270/807/202 269/808/202
f 265/809/203 269/810/203 271/811/203 267/812/203
f 270/813/204 266/814/204 268/815/204 272/816/204
f 275/817/205 276/818/205 274/819/205 273/820/205
f 279/821/206 280/822/206 276/823/206 275/824/206
f 277/825/207 278/826/207 280/827/207 279/828/207
f 273/829/208 274/830/208 278/831/208 277/832/208
f 273/833/209 277/834/209 279/835/209 275/836/209
f 278/837/210 274/838/210 276/839/210 280/840/210
f 283/841/211 284/842/211 282/843/211 281/844/211
f 287/845/212 288/846/212 284/847/212 283/848/212
f 285/849/213 286/850/213 288/851/213 287/852/213
f 281/853/214 282/854/214 286/855/214 285/856/214
f 281/857/215 285/858/215 287/859/215 283/860/215
f 286/861/216 282/862/216 284/863/216 288/864/216
f 291/865/217 292/866/217 290/867/217 289/868/217
f 295/869/218 296/870/218 292/871/218 291/872/218
f 293/873/219 294/874/219 296/875/219 295/876/219
f 289/877/220 290/878/220 294/879/220 293/880/220
f 289/881/221 293/882/221 295/883/221 291/884/221
f 294/885/222 290/886/222 292/887/222 296/888/222
f 299/889/223 300/890/223 298/891/223 297/892/223
f 303/893/224 304/894/224 300/895/224 299/896/224
f 301/897/225 302/898/225 304/899/225 303/900/225
f 297/901/226 298/902/226 302/903/226 301/904/226
f 297/905/227 301/906/227 303/907/227 299/908/227
f 302/909/228 298/910/228 300/911/228 304/912/228
f 307/913/229 308/914/229 306/915/229 305/916/229
f 311/917/230 312/918/230 308/919/230 307/920/230
f 309/921/231 310/922/231 312/923/231 311/924/231
f 305/925/232 306/926/232 310/927/232 309/928/232
f 305/929/233 309/930/233 311/931/233 307/932/233
f 310/933/234 306/934/234 308/935/234 312/936/234
f 315/937/235 316/938/235 314/939/235 313/940/235
f 319/941/236 320/942/236 316/943/236 315/944/236
f 317/945/237 318/946/237 320/947/237 319/948/237
f 313/949/238 314/950/238 318/951/238 317/952/238
f 313/953/239 317/954/239 319/955/239 315/956/239
f 318/957/240 314/958/240 316/959/240 320/960/240
f 323/961/241 324/962/241 322/963/241 321/964/241
f 327/965/242 328/966/242 324/967/242 323/968/242
f 325/969/243 326/970/243 328/971/243 327/972/243
f 321/973/244 322/974/244 326/975/244 325/976/244
f 321/977/245 325/978/245 327/979/245 323/980/245
f 326/981/246 322/982/246 324/983/246 328/984/246
f 331/985/247 332/986/247 330/987/247 329/988/247
f 335/989/248 336/990/248 332/991/248 331/992/248
f 333/993/249 334/994/249 336/995/249 335/996/249
f 329/997/250 330/998/250 334/999/250 333/1000/250
f 329/1001/251 333/1002/251 335/1003/251 331/1004/251
f 334/1005/252 330/1006/252 332/1007/252 336/1008/252
f 339/1009/253 340/1010/253 338/1011/253 337/1012/253
f 343/1013/254 344/1014/254 340/1015/254 339/1016/254
f 341/1017/255 342/1018/255 344/1019/255 343/1020/255
f 337/1021/256 338/1022/256 342/1023/256 341/1024/256
f 337/1025/257 341/1026/257 343/1027/257 339/1028/257
f 342/1029/258 338/1030/258 340/1031/258 344/1032/258
f 347/1033/259 348/1034/259 346/1035/259 345/1036/259
f 351/1037/260 352/1038/260 348/1039/260 347/1040/260
f 349/1041/261 350/1042/261 352/1043/261 351/1044/261
f 345/1045/262 346/1046/262 350/1047/262 349/1048/262
f 345/1049/263 349/1050/263 351/1051/263 347/1052/263
f 350/1053/264 346/1054/264 348/1055/264 352/1056/264
f 355/1057/265 356/1058/265 354/1059/265 353/1060/265
f 359/1061/266 360/1062/266 356/1063/266 355/1064/266
f 357/1065/267 358/1066/267 360/1067/267 359/1068/267
f 353/1069/268 354/1070/268 358/1071/268 357/1072/268
f 353/1073/269 357/1074/269 359/1075/269 355/1076/269
f 358/1077/270 354/1078/270 356/1079/270 360/1080/270
f 363/1081/271 364/1082/271 362/1083/271 361/1084/271
f 367/1085/272 368/1086/272 364/1087/272 363/1088/272
f 365/1089/273 366/1090/273 368/1091/273 367/1092/273
f 361/1093/274 362/1094/274 366/1095/274 365/1096/274
f 361/1097/275 365/1098/275 367/1099/275 363/1100/275
f 366/1101/276 362/1102/276 364/1103/276 368/1104/276
f 371/1105/277 372/1106/277 370/1107/277 369/1108/277
f 375/1109/278 376/1110/278 372/1111/278 371/1112/278
f 373/1113/279 374/1114/279 376/1115/279 375/1116/279
f 369/1117/280 370/1118/280 374/1119/280 373/1120/280
f 369/1121/281 373/1122/281 375/1123/281 371/1124/281
f 374/1125/282 370/1126/282 372/1127/282 376/1128/282
f 379/1129/283 380/1130/283 378/1131/283 377/1132/283
f 383/1133/284 384/1134/284 380/1135/284 379/1136/284
f 381/1137/285 382/1138/285 384/1139/285 383/1140/285
f 377/1141/286 378/1142/286 382/1143/286 381/1144/286
f 377/1145/287 381/1146/287 383/1147/287 379/1148/287
f 382/1149/288 378/1150/288 380/1151/288 384/1152/288
f 387/1153/289 388/1154/289 386/1155/289 385/1156/289
f 391/1157/290 392/1158/290 388/1159/290 387/1160/290
f 389/1161/291 390/1162/291 392/1163/291 391/1164/291
f 385/1165/292 386/1166/292 390/1167/292 389/1168/292
f 385/1169/293 389/1170/293 391/1171/293 387/1172/293
f 390/1173/294 386/1174/294 388/1175/294 392/1176/294
f 395/1177/295 396/1178/295 394/1179/295 393/1180/295
f 399/1181/296 400/1182/296 396/1183/296 395/1184/296
f 397/1185/297 398/1186/297 400/1187/297 399/1188/297
f 393/1189/298 394/1190/298 398/1191/298 397/1192/298
f 393/1193/299 397/1194/299 399/1195/299 395/1196/299
f 398/1197/300 394/1198/300 396/1199/300 400/1200/300
f 403/1201/301 404/1202/301 402/1203/301 401/1204/301
f 407/1205/302 408/1206/302 404/1207/302 403/1208/302
f 405/1209/303 406/1210/303 408/1211/303 407/1212/303
f 401/1213/304 402/1214/304 406/1215/304 405/1216/304
f 401/1217/305 405/1218/305 407/1219/305 403/1220/305
f 406/1221/306 402/1222/306 404/1223/306 408/1224/306
f 411/1225/307 412/1226/307 410/1227/307 409/1228/307
f 415/1229/308 416/1230/308 412/1231/308 411/1232/308
f 413/1233/309 414/1234/309 416/1235/309 415/1236/309
f 409/1237/310 410/1238/310 414/1239/310 413/1240/310
f 409/1241/311 413/1242/311 415/1243/311 411/1244/311
f 414/1245/312 410/1246/312 412/1247/312 416/1248/312
f 419/1249/313 420/1250/313 418/1251/313 417/1252/313
f 423/1253/314 424/1254/314 420/1255/314 419/1256/314
f 421/1257/315 422/1258/315 424/1259/315 423/1260/315
f 417/1261/316 418/1262/316 422/1263/316 421/1264/316
f 417/1265/317 421/1266/317 423/1267/317 419/1268/317
f 422/1269/318 418/1270/318 420/1271/318 424/1272/318
f 427/1273/319 428/1274/319 426/1275/319 425/1276/319
f 431/1277/320 432/1278/320 428/1279/320 427/1280/320
f 429/1281/321 430/1282/321 432/1283/321 431/1284/321
f 425/1285/322 426/1286/322 430/1287/322 429/1288/322
f 425/1289/323 429/1290/323 431/1291/323 427/1292/323
f 430/1293/324 426/1294/324 428/1295/324 432/1296/324
f 435/1297/325 436/1298/325 434/1299/325 433/1300/325
f 439/1301/326 440/1302/326 436/1303/326 435/1304/326
f 437/1305/327 438/1306/327 440/1307/327 439/1308/327
f 433/1309/328 434/1310/328 438/1311/328 437/1312/328
f 433/1313/329 437/1314/329 439/1315/329 435/1316/329
f 438/1317/330 434/1318/330 436/1319/330 440/1320/330
f 443/1321/331 444/1322/331 442/1323/331 441/1324/331
f 447/1325/332 448/1326/332 444/1327/332 443/1328/332
f 445/1329/333 446/1330/333 448/1331/333 447/1332/333
f 441/1333/334 442/1334/334 446/1335/334 445/1336/334
f 441/1337/335 445/1338/335 447/1339/335 443/1340/335
f 446/1341/336 442/1342/336 444/1343/336 448/1344/336
f 451/1345/337 452/1346/337 450/1347/337 449/1348/337
f 455/1349/338 456/1350/338 452/1351/338 451/1352/338
f 453/1353/339 454/1354/339 456/1355/339 455/1356/339
f 449/1357/340 450/1358/340 454/1359/340 453/1360/340
f 449/1361/341 453/1362/341 455/1363/341 451/1364/341
f 454/1365/342 450/1366/342 452/1367/342 456/1368/342
f 459/1369/343 460/1370/343 458/1371/343 457/1372/343
f 463/1373/344 464/1374/344 460/1375/344 459/1376/344
f 461/1377/345 462/1378/345 464/1379/345 463/1380/345
f 457/1381/346 458/1382/346 462/1383/346 461/1384/346
f 457/1385/347 461/1386/347 463/1387/347 459/1388/347
f 462/1389/348 458/1390/348 460/1391/348 464/1392/348
f 467/1393/349 468/1394/349 466/1395/349 465/1396/349
f 471/1397/350 472/1398/350 468/1399/350 467/1400/350
f 469/1401/351 470/1402/351 472/1403/351 471/1404/351
f 465/1405/352 466/1406/352 470/1407/352 469/1408/352
f 465/1409/353 469/1410/353 471/1411/353 467/1412/353
f 470/1413/354 466/1414/354 468/1415/354 472/1416/354
f 475/1417/355 476/1418/355 474/1419/355 473/1420/355
f 479/1421/356 480/1422/356 476/1423/356 475/1424/356
f 477/1425/357 478/1426/357 480/1427/357 479/1428/357
f 473/1429/358 474/1430/358 478/1431/358 477/1432/358
f 473/1433/359 477/1434/359 479/1435/359 475/1436/359
f 478/1437/360 474/1438/360 476/1439/360 480/1440/360
f 483/1441/361 484/1442/361 482/1443/361 481/1444/361
f 487/1445/362 488/1446/362 484/1447/362 483/1448/362
f 485/1449/363 486/1450/363 488/1451/363 487/1452/363
f 481/1453/364 482/1454/364 486/1455/364 485/1456/364
f 481/1457/365 485/1458/365 487/1459/365 483/1460/365
f 486/1461/366 482/1462/366 484/1463/366 488/1464/366
f 491/1465/367 492/1466/367 490/1467/367 489/1468/367
f 495/1469/368 496/1470/368 492/1471/368 491/1472/368
f 493/1473/369 494/1474/369 496/1475/369 495/1476/369
f 489/1477/370 490/1478/370 494/1479/370 493/1480/370
f 489/1481/371 493/1482/371 495/1483/371 491/1484/371
f 494/1485/372 490/1486/372 492/1487/372 496/1488/372
f 499/1489/373 500/1490/373 498/1491/373 497/1492/373
f 503/1493/374 504/1494/374 500/1495/374 499/1496/374
f 501/1497/375 502/1498/375 504/1499/375 503/1500/375
f 497/1501/376 498/1502/376 502/1503/376 501/1504/376
f 497/1505/377 501/1506/377 503/1507/377 499/1508/377
f 502/1509/378 498/1510/378 500/1511/378 504/1512/378
f 507/1513/379 508/1514/379 506/1515/379 505/1516/379
f 511/1517/380 512/1518/380 508/1519/380 507/1520/380
f 509/1521/381 510/1522/381 512/1523/381 511/1524/381
f 505/1525/382 506/1526/382 510/1527/382 509/1528/382
f 505/1529/383 509/1530/383 511/1531/383 507/1532/383
f 510/1533/384 506/1534/384 508/1535/384 512/1536/384
