# Blender 4.5.6 LTS
# www.blender.org
o export_Electronics_PCB
v 0.052000 -0.118500 -0.022500
v 0.052000 -0.119000 -0.023000
v 0.052500 -0.118500 -0.023000
v 0.052000 -0.118854 -0.022646
v 0.052289 -0.118789 -0.022711
v 0.052354 -0.118854 -0.023000
v 0.052354 -0.118500 -0.022646
v 0.052000 -0.119000 -0.025000
v 0.052000 -0.118500 -0.025500
v 0.052500 -0.118500 -0.025000
v 0.052000 -0.118854 -0.025354
v 0.052289 -0.118789 -0.025289
v 0.052354 -0.118500 -0.025354
v 0.052354 -0.118854 -0.025000
v 0.052000 -0.051500 -0.022500
v 0.052500 -0.051500 -0.023000
v 0.052000 -0.051000 -0.023000
v 0.052354 -0.051500 -0.022646
v 0.052289 -0.051211 -0.022711
v 0.052354 -0.051146 -0.023000
v 0.052000 -0.051146 -0.022646
v 0.052000 -0.051500 -0.025500
v 0.052000 -0.051000 -0.025000
v 0.052500 -0.051500 -0.025000
v 0.052000 -0.051146 -0.025354
v 0.052289 -0.051211 -0.025289
v 0.052354 -0.051146 -0.025000
v 0.052354 -0.051500 -0.025354
v -0.052000 -0.118500 -0.022500
v -0.052500 -0.118500 -0.023000
v -0.052000 -0.119000 -0.023000
v -0.052354 -0.118500 -0.022646
v -0.052289 -0.118789 -0.022711
v -0.052354 -0.118854 -0.023000
v -0.052000 -0.118854 -0.022646
v -0.052000 -0.118500 -0.025500
v -0.052000 -0.119000 -0.025000
v -0.052500 -0.118500 -0.025000
v -0.052000 -0.118854 -0.025354
v -0.052289 -0.118789 -0.025289
v -0.052354 -0.118854 -0.025000
v -0.052354 -0.118500 -0.025354
v -0.052000 -0.051500 -0.022500
v -0.052000 -0.051000 -0.023000
v -0.052500 -0.051500 -0.023000
v -0.052000 -0.051146 -0.022646
v -0.052289 -0.051211 -0.022711
v -0.052354 -0.051146 -0.023000
v -0.052354 -0.051500 -0.022646
v -0.052000 -0.051500 -0.025500
v -0.052500 -0.051500 -0.025000
v -0.052000 -0.051000 -0.025000
v -0.052354 -0.051500 -0.025354
v -0.052289 -0.051211 -0.025289
v -0.052354 -0.051146 -0.025000
v -0.052000 -0.051146 -0.025354
vn 0.3672 -0.2817 0.8865
vn 0.2818 -0.8865 0.3672
vn 0.8864 -0.3672 0.2817
vn 0.3672 -0.8865 -0.2817
vn 0.2817 -0.3672 -0.8865
vn 0.8865 -0.2817 -0.3672
vn 0.2818 0.3672 0.8865
vn 0.8864 0.2818 0.3672
vn 0.3672 0.8864 0.2817
vn 0.3672 0.2817 -0.8865
vn 0.2817 0.8864 -0.3672
vn 0.8865 0.3672 -0.2817
vn -0.2817 -0.3672 0.8865
vn -0.8864 -0.2818 0.3672
vn -0.3672 -0.8865 0.2817
vn -0.3672 -0.2817 -0.8865
vn -0.2818 -0.8865 -0.3672
vn -0.8864 -0.3672 -0.2817
vn -0.3672 0.2817 0.8865
vn -0.2817 0.8864 0.3672
vn -0.8865 0.3672 0.2817
vn -0.2818 0.3672 -0.8865
vn -0.8864 0.2818 -0.3672
vn -0.3672 0.8864 -0.2817
vn 0.3827 -0.0000 0.9239
vn 0.9239 -0.0000 0.3827
vn 0.3827 -0.9239 -0.0000
vn 0.9239 -0.3827 -0.0000
vn 0.3827 -0.0000 -0.9239
vn 0.9239 -0.0000 -0.3827
vn 0.3827 0.9239 -0.0000
vn 0.9239 0.3827 -0.0000
vn -0.0000 0.3827 0.9239
vn -0.0000 0.9239 0.3827
vn -0.0000 0.3827 -0.9239
vn -0.0000 0.9239 -0.3827
vn -0.9239 0.3827 -0.0000
vn -0.3827 0.9239 -0.0000
vn -0.3827 -0.0000 0.9239
vn -0.9239 -0.0000 0.3827
vn -0.3827 -0.0000 -0.9239
vn -0.9239 -0.0000 -0.3827
vn -0.3827 -0.9239 -0.0000
vn -0.9239 -0.3827 -0.0000
vn -0.0000 -0.3827 0.9239
vn -0.0000 -0.9239 0.3827
vn -0.0000 -0.3827 -0.9239
vn -0.0000 -0.9239 -0.3827
vn -0.0000 -0.0000 1.0000
vn 1.0000 -0.0000 -0.0000
vn -0.0000 -1.0000 -0.0000
vn -0.0000 -0.0000 -1.0000
vn -0.0000 1.0000 -0.0000
vn -1.0000 -0.0000 -0.0000
vn 0.2817 -0.3672 0.8865
vn 0.3672 -0.8865 0.2817
vn 0.8865 -0.2817 0.3672
vn 0.2818 -0.8865 -0.3672
vn 0.3672 -0.2817 -0.8865
vn 0.8864 -0.3672 -0.2817
vn 0.3672 0.2817 0.8865
vn 0.8865 0.3672 0.2817
vn 0.2817 0.8865 0.3672
vn 0.2817 0.3672 -0.8865
vn 0.3672 0.8864 -0.2817
vn 0.8865 0.2817 -0.3672
vn -0.3672 -0.2817 0.8865
vn -0.8864 -0.3672 0.2817
vn -0.2818 -0.8865 0.3672
vn -0.2817 -0.3672 -0.8865
vn -0.3672 -0.8865 -0.2817
vn -0.8865 -0.2817 -0.3672
vn -0.2817 0.3672 0.8865
vn -0.3672 0.8864 0.2817
vn -0.8865 0.2817 0.3672
vn -0.3672 0.2817 -0.8865
vn -0.8865 0.3672 -0.2817
vn -0.2817 0.8865 -0.3672
vt 0.126190 0.748162
vt 0.125503 0.750000
vt 0.125000 0.748162
vt 0.416667 0.998810
vt 0.392610 1.000000
vt 0.375000 0.998810
vt 0.416667 0.001838
vt 0.375000 0.000777
vt 0.416667 0.000000
vt 0.583333 0.998809
vt 0.625000 0.999497
vt 0.583333 1.000000
vt 0.873809 0.748162
vt 0.875000 0.749223
vt 0.873810 0.750000
vt 0.583333 0.001838
vt 0.607390 0.000000
vt 0.625000 0.001838
vt 0.126190 0.501838
vt 0.125000 0.500777
vt 0.126190 0.500000
vt 0.416667 0.248162
vt 0.383805 0.250252
vt 0.375000 0.248162
vt 0.416667 0.251190
vt 0.416667 0.250000
vt 0.873809 0.501838
vt 0.874497 0.500000
vt 0.875000 0.501838
vt 0.583333 0.251190
vt 0.616195 0.249612
vt 0.625000 0.251190
vt 0.583333 0.248162
vt 0.583333 0.250000
vt 0.373810 0.748162
vt 0.380870 0.749909
vt 0.374405 0.750595
vt 0.416667 0.748162
vt 0.375000 0.748162
vt 0.416667 0.751190
vt 0.416667 0.750000
vt 0.626191 0.748162
vt 0.619298 0.749741
vt 0.625000 0.748162
vt 0.583333 0.751190
vt 0.625595 0.750595
vt 0.583333 0.748162
vt 0.583333 0.750000
vt 0.373810 0.501838
vt 0.380702 0.500259
vt 0.375000 0.501838
vt 0.416667 0.498809
vt 0.374405 0.499405
vt 0.416667 0.501838
vt 0.416667 0.500000
vt 0.626190 0.501838
vt 0.619130 0.500091
vt 0.625595 0.499405
vt 0.583333 0.501838
vt 0.625000 0.501838
vt 0.583333 0.498809
vt 0.583333 0.500000
vt 0.125000 0.501838
vt 0.375000 0.001838
vt 0.416667 1.000000
vt 0.583333 0.000000
vt 0.875000 0.748162
vt 0.625000 0.248162
vt 0.375000 0.251190
vt 0.873810 0.500000
vt 0.126190 0.750000
vt 0.625000 0.998810
s 0
f 1/1/1 5/2/1 7/3/1
f 2/4/2 5/5/2 4/6/2
f 3/7/3 5/8/3 6/9/3
f 8/10/4 12/11/4 14/12/4
f 9/13/5 12/14/5 11/15/5
f 10/16/6 12/17/6 13/18/6
f 15/19/7 19/20/7 21/21/7
f 16/22/8 19/23/8 18/24/8
f 17/25/9 19/23/9 20/26/9
f 22/27/10 26/28/10 28/29/10
f 23/30/11 26/31/11 25/32/11
f 24/33/12 26/31/12 27/34/12
f 29/35/13 33/36/13 35/37/13
f 30/38/14 33/36/14 32/39/14
f 31/40/15 33/36/15 34/41/15
f 36/42/16 40/43/16 42/44/16
f 37/45/17 40/43/17 39/46/17
f 38/47/18 40/43/18 41/48/18
f 43/49/19 47/50/19 49/51/19
f 44/52/20 47/50/20 46/53/20
f 45/54/21 47/50/21 48/55/21
f 50/56/22 54/57/22 56/58/22
f 51/59/23 54/57/23 53/60/23
f 52/61/24 54/57/24 55/62/24
f 1/1/25 18/63/25 15/19/25
f 7/64/26 16/22/26 18/24/26
f 8/10/27 6/65/27 2/4/27
f 14/66/28 3/7/28 6/9/28
f 22/27/29 13/67/29 9/13/29
f 28/68/30 10/16/30 13/18/30
f 17/25/31 27/34/31 23/30/31
f 20/26/32 24/33/32 27/34/32
f 15/19/33 46/53/33 43/49/33
f 21/69/34 44/52/34 46/53/34
f 50/56/35 25/70/35 22/27/35
f 56/58/36 23/30/36 25/32/36
f 45/54/37 55/62/37 51/59/37
f 48/55/38 52/61/38 55/62/38
f 43/49/39 32/39/39 29/35/39
f 49/51/40 30/38/40 32/39/40
f 36/42/41 53/60/41 50/56/41
f 42/44/42 51/59/42 53/60/42
f 31/40/43 41/48/43 37/45/43
f 34/41/44 38/47/44 41/48/44
f 29/35/45 4/71/45 1/1/45
f 35/37/46 2/4/46 4/6/46
f 9/13/47 39/46/47 36/42/47
f 11/72/48 37/45/48 39/46/48
f 43/49/49 1/1/49 15/19/49
f 10/16/50 16/22/50 3/7/50
f 37/45/51 2/4/51 31/40/51
f 22/27/52 36/42/52 50/56/52
f 23/30/53 44/52/53 17/25/53
f 51/59/54 30/38/54 45/54/54
f 1/1/55 4/71/55 5/2/55
f 2/4/56 6/65/56 5/5/56
f 3/7/57 7/64/57 5/8/57
f 8/10/58 11/72/58 12/11/58
f 9/13/59 13/67/59 12/14/59
f 10/16/60 14/66/60 12/17/60
f 15/19/61 18/63/61 19/20/61
f 16/22/62 20/26/62 19/23/62
f 17/25/63 21/69/63 19/23/63
f 22/27/64 25/70/64 26/28/64
f 23/30/65 27/34/65 26/31/65
f 24/33/66 28/68/66 26/31/66
f 29/35/67 32/39/67 33/36/67
f 30/38/68 34/41/68 33/36/68
f 31/40/69 35/37/69 33/36/69
f 36/42/70 39/46/70 40/43/70
f 37/45/71 41/48/71 40/43/71
f 38/47/72 42/44/72 40/43/72
f 43/49/73 46/53/73 47/50/73
f 44/52/74 48/55/74 47/50/74
f 45/54/75 49/51/75 47/50/75
f 50/56/76 53/60/76 54/57/76
f 51/59/77 55/62/77 54/57/77
f 52/61/78 56/58/78 54/57/78
f 1/1/25 7/3/25 18/63/25
f 7/64/26 3/7/26 16/22/26
f 8/10/27 14/12/27 6/65/27
f 14/66/28 10/16/28 3/7/28
f 22/27/29 28/29/29 13/67/29
f 28/68/30 24/33/30 10/16/30
f 17/25/31 20/26/31 27/34/31
f 20/26/32 16/22/32 24/33/32
f 15/19/33 21/21/33 46/53/33
f 21/69/34 17/25/34 44/52/34
f 50/56/35 56/58/35 25/70/35
f 56/58/36 52/61/36 23/30/36
f 45/54/37 48/55/37 55/62/37
f 48/55/38 44/52/38 52/61/38
f 43/49/39 49/51/39 32/39/39
f 49/51/40 45/54/40 30/38/40
f 36/42/41 42/44/41 53/60/41
f 42/44/42 38/47/42 51/59/42
f 31/40/43 34/41/43 41/48/43
f 34/41/44 30/38/44 38/47/44
f 29/35/45 35/37/45 4/71/45
f 35/37/46 31/40/46 2/4/46
f 9/13/47 11/15/47 39/46/47
f 11/72/48 8/10/48 37/45/48
f 43/49/49 29/35/49 1/1/49
f 10/16/50 24/33/50 16/22/50
f 37/45/51 8/10/51 2/4/51
f 22/27/52 9/13/52 36/42/52
f 23/30/53 52/61/53 44/52/53
f 51/59/54 38/47/54 30/38/54
o export_Electronics_PCB.001
v 0.052000 -0.033500 -0.022500
v 0.052000 -0.034000 -0.023000
v 0.052500 -0.033500 -0.023000
v 0.052000 -0.033854 -0.022646
v 0.052289 -0.033789 -0.022711
v 0.052354 -0.033854 -0.023000
v 0.052354 -0.033500 -0.022646
v 0.052000 -0.034000 -0.025000
v 0.052000 -0.033500 -0.025500
v 0.052500 -0.033500 -0.025000
v 0.052000 -0.033854 -0.025354
v 0.052289 -0.033789 -0.025289
v 0.052354 -0.033500 -0.025354
v 0.052354 -0.033854 -0.025000
v 0.052000 0.033500 -0.022500
v 0.052500 0.033500 -0.023000
v 0.052000 0.034000 -0.023000
v 0.052354 0.033500 -0.022646
v 0.052289 0.033789 -0.022711
v 0.052354 0.033854 -0.023000
v 0.052000 0.033854 -0.022646
v 0.052000 0.033500 -0.025500
v 0.052000 0.034000 -0.025000
v 0.052500 0.033500 -0.025000
v 0.052000 0.033854 -0.025354
v 0.052289 0.033789 -0.025289
v 0.052354 0.033854 -0.025000
v 0.052354 0.033500 -0.025354
v -0.052000 -0.033500 -0.022500
v -0.052500 -0.033500 -0.023000
v -0.052000 -0.034000 -0.023000
v -0.052354 -0.033500 -0.022646
v -0.052289 -0.033789 -0.022711
v -0.052354 -0.033854 -0.023000
v -0.052000 -0.033854 -0.022646
v -0.052000 -0.033500 -0.025500
v -0.052000 -0.034000 -0.025000
v -0.052500 -0.033500 -0.025000
v -0.052000 -0.033854 -0.025354
v -0.052289 -0.033789 -0.025289
v -0.052354 -0.033854 -0.025000
v -0.052354 -0.033500 -0.025354
v -0.052000 0.033500 -0.022500
v -0.052000 0.034000 -0.023000
v -0.052500 0.033500 -0.023000
v -0.052000 0.033854 -0.022646
v -0.052289 0.033789 -0.022711
v -0.052354 0.033854 -0.023000
v -0.052354 0.033500 -0.022646
v -0.052000 0.033500 -0.025500
v -0.052500 0.033500 -0.025000
v -0.052000 0.034000 -0.025000
v -0.052354 0.033500 -0.025354
v -0.052289 0.033789 -0.025289
v -0.052354 0.033854 -0.025000
v -0.052000 0.033854 -0.025354
vn 0.3672 -0.2817 0.8865
vn 0.2817 -0.8864 0.3672
vn 0.8865 -0.3672 0.2817
vn 0.3672 -0.8864 -0.2817
vn 0.2817 -0.3672 -0.8864
vn 0.8865 -0.2817 -0.3672
vn 0.2818 0.3672 0.8864
vn 0.8864 0.2818 0.3672
vn 0.3672 0.8864 0.2817
vn 0.3672 0.2817 -0.8865
vn 0.2817 0.8864 -0.3672
vn 0.8865 0.3672 -0.2817
vn -0.2818 -0.3672 0.8864
vn -0.8864 -0.2818 0.3672
vn -0.3672 -0.8864 0.2817
vn -0.3672 -0.2817 -0.8865
vn -0.2817 -0.8864 -0.3672
vn -0.8865 -0.3672 -0.2817
vn -0.3672 0.2817 0.8865
vn -0.2817 0.8864 0.3672
vn -0.8865 0.3672 0.2817
vn -0.2818 0.3672 -0.8864
vn -0.8864 0.2818 -0.3672
vn -0.3672 0.8864 -0.2817
vn 0.3827 -0.0000 0.9239
vn 0.9239 -0.0000 0.3827
vn 0.3827 -0.9239 -0.0000
vn 0.9239 -0.3827 -0.0000
vn 0.3827 -0.0000 -0.9239
vn 0.9239 -0.0000 -0.3827
vn 0.3827 0.9239 -0.0000
vn 0.9239 0.3827 -0.0000
vn -0.0000 0.3827 0.9239
vn -0.0000 0.9239 0.3827
vn -0.0000 0.3827 -0.9239
vn -0.0000 0.9239 -0.3827
vn -0.9239 0.3827 -0.0000
vn -0.3827 0.9239 -0.0000
vn -0.3827 -0.0000 0.9239
vn -0.9239 -0.0000 0.3827
vn -0.3827 -0.0000 -0.9239
vn -0.9239 -0.0000 -0.3827
vn -0.3827 -0.9239 -0.0000
vn -0.9239 -0.3827 -0.0000
vn -0.0000 -0.3827 0.9239
vn -0.0000 -0.9239 0.3827
vn -0.0000 -0.3827 -0.9239
vn -0.0000 -0.9239 -0.3827
vn -0.0000 -0.0000 1.0000
vn 1.0000 -0.0000 -0.0000
vn -0.0000 -1.0000 -0.0000
vn -0.0000 -0.0000 -1.0000
vn -0.0000 1.0000 -0.0000
vn -1.0000 -0.0000 -0.0000
vn 0.2817 -0.3672 0.8864
vn 0.3672 -0.8864 0.2817
vn 0.8865 -0.2817 0.3672
vn 0.2817 -0.8864 -0.3672
vn 0.3672 -0.2817 -0.8865
vn 0.8865 -0.3672 -0.2817
vn 0.3672 0.2817 0.8865
vn 0.8865 0.3672 0.2817
vn 0.2817 0.8864 0.3672
vn 0.2817 0.3672 -0.8864
vn 0.3672 0.8864 -0.2817
vn 0.8865 0.2817 -0.3672
vn -0.3672 -0.2817 0.8865
vn -0.8865 -0.3672 0.2817
vn -0.2817 -0.8864 0.3672
vn -0.2817 -0.3672 -0.8864
vn -0.3672 -0.8864 -0.2817
vn -0.8865 -0.2817 -0.3672
vn -0.2817 0.3672 0.8864
vn -0.3672 0.8864 0.2817
vn -0.8865 0.2817 0.3672
vn -0.3672 0.2817 -0.8865
vn -0.8865 0.3672 -0.2817
vn -0.2817 0.8864 -0.3672
vt 0.126190 0.748162
vt 0.125503 0.750000
vt 0.125000 0.748162
vt 0.416667 0.998810
vt 0.392610 1.000000
vt 0.375000 0.998810
vt 0.416667 0.001838
vt 0.375000 0.000777
vt 0.416667 0.000000
vt 0.583333 0.998809
vt 0.625000 0.999497
vt 0.583333 1.000000
vt 0.873810 0.748162
vt 0.875000 0.749223
vt 0.873810 0.750000
vt 0.583333 0.001838
vt 0.607390 0.000000
vt 0.625000 0.001838
vt 0.126190 0.501838
vt 0.125000 0.500777
vt 0.126190 0.500000
vt 0.416667 0.248162
vt 0.383805 0.250252
vt 0.375000 0.248162
vt 0.416667 0.251190
vt 0.416667 0.250000
vt 0.873810 0.501838
vt 0.874497 0.500000
vt 0.875000 0.501838
vt 0.583333 0.251190
vt 0.616195 0.249612
vt 0.625000 0.251190
vt 0.583333 0.248162
vt 0.583333 0.250000
vt 0.373810 0.748162
vt 0.380870 0.749909
vt 0.374405 0.750595
vt 0.416667 0.748162
vt 0.375000 0.748162
vt 0.416667 0.751190
vt 0.416667 0.750000
vt 0.626191 0.748162
vt 0.619298 0.749741
vt 0.625000 0.748162
vt 0.583333 0.751190
vt 0.625595 0.750595
vt 0.583333 0.748162
vt 0.583333 0.750000
vt 0.373810 0.501838
vt 0.380702 0.500259
vt 0.375000 0.501838
vt 0.416667 0.498809
vt 0.374405 0.499405
vt 0.416667 0.501838
vt 0.416667 0.500000
vt 0.626190 0.501838
vt 0.619130 0.500091
vt 0.625595 0.499405
vt 0.583333 0.501838
vt 0.625000 0.501838
vt 0.583333 0.498809
vt 0.583333 0.500000
vt 0.125000 0.501838
vt 0.416667 1.000000
vt 0.583333 0.000000
vt 0.875000 0.748162
vt 0.625000 0.248162
vt 0.873810 0.500000
vt 0.126190 0.750000
vt 0.625000 0.998810
vt 0.375000 0.001838
vt 0.375000 0.251190
s 0
f 57/73/79 61/74/79 63/75/79
f 58/76/80 61/77/80 60/78/80
f 59/79/81 61/80/81 62/81/81
f 64/82/82 68/83/82 70/84/82
f 65/85/83 68/86/83 67/87/83
f 66/88/84 68/89/84 69/90/84
f 71/91/85 75/92/85 77/93/85
f 72/94/86 75/95/86 74/96/86
f 73/97/87 75/95/87 76/98/87
f 78/99/88 82/100/88 84/101/88
f 79/102/89 82/103/89 81/104/89
f 80/105/90 82/103/90 83/106/90
f 85/107/91 89/108/91 91/109/91
f 86/110/92 89/108/92 88/111/92
f 87/112/93 89/108/93 90/113/93
f 92/114/94 96/115/94 98/116/94
f 93/117/95 96/115/95 95/118/95
f 94/119/96 96/115/96 97/120/96
f 99/121/97 103/122/97 105/123/97
f 100/124/98 103/122/98 102/125/98
f 101/126/99 103/122/99 104/127/99
f 106/128/100 110/129/100 112/130/100
f 107/131/101 110/129/101 109/132/101
f 108/133/102 110/129/102 111/134/102
f 57/73/103 74/135/103 71/91/103
f 74/96/104 59/79/104 72/94/104
f 64/82/105 62/136/105 58/76/105
f 70/137/106 59/79/106 62/81/106
f 78/99/107 69/138/107 65/85/107
f 84/139/108 66/88/108 69/90/108
f 73/97/109 83/106/109 79/102/109
f 76/98/110 80/105/110 83/106/110
f 71/91/111 102/125/111 99/121/111
f 102/125/112 73/97/112 100/124/112
f 106/128/113 81/140/113 78/99/113
f 112/130/114 79/102/114 81/104/114
f 101/126/115 111/134/115 107/131/115
f 104/127/116 108/133/116 111/134/116
f 99/121/117 88/111/117 85/107/117
f 88/111/118 101/126/118 86/110/118
f 92/114/119 109/132/119 106/128/119
f 98/116/120 107/131/120 109/132/120
f 87/112/121 97/120/121 93/117/121
f 90/113/122 94/119/122 97/120/122
f 85/107/123 60/141/123 57/73/123
f 60/78/124 87/112/124 58/76/124
f 65/85/125 95/118/125 92/114/125
f 67/142/126 93/117/126 95/118/126
f 99/121/127 57/73/127 71/91/127
f 66/88/128 72/94/128 59/79/128
f 93/117/129 58/76/129 87/112/129
f 78/99/130 92/114/130 106/128/130
f 79/102/131 100/124/131 73/97/131
f 107/131/132 86/110/132 101/126/132
f 57/73/133 60/141/133 61/74/133
f 58/76/134 62/136/134 61/77/134
f 59/79/135 63/143/135 61/80/135
f 64/82/136 67/142/136 68/83/136
f 65/85/137 69/138/137 68/86/137
f 66/88/138 70/137/138 68/89/138
f 71/91/139 74/135/139 75/92/139
f 72/94/140 76/98/140 75/95/140
f 73/97/141 77/144/141 75/95/141
f 78/99/142 81/140/142 82/100/142
f 79/102/143 83/106/143 82/103/143
f 80/105/144 84/139/144 82/103/144
f 85/107/145 88/111/145 89/108/145
f 86/110/146 90/113/146 89/108/146
f 87/112/147 91/109/147 89/108/147
f 92/114/148 95/118/148 96/115/148
f 93/117/149 97/120/149 96/115/149
f 94/119/150 98/116/150 96/115/150
f 99/121/151 102/125/151 103/122/151
f 100/124/152 104/127/152 103/122/152
f 101/126/153 105/123/153 103/122/153
f 106/128/154 109/132/154 110/129/154
f 107/131/155 111/134/155 110/129/155
f 108/133/156 112/130/156 110/129/156
f 57/73/103 63/75/103 74/135/103
f 74/96/104 63/143/104 59/79/104
f 64/82/105 70/84/105 62/136/105
f 70/137/106 66/88/106 59/79/106
f 78/99/107 84/101/107 69/138/107
f 84/139/108 80/105/108 66/88/108
f 73/97/109 76/98/109 83/106/109
f 76/98/110 72/94/110 80/105/110
f 71/91/111 77/93/111 102/125/111
f 102/125/112 77/144/112 73/97/112
f 106/128/113 112/130/113 81/140/113
f 112/130/114 108/133/114 79/102/114
f 101/126/115 104/127/115 111/134/115
f 104/127/116 100/124/116 108/133/116
f 99/121/117 105/123/117 88/111/117
f 88/111/118 105/123/118 101/126/118
f 92/114/119 98/116/119 109/132/119
f 98/116/120 94/119/120 107/131/120
f 87/112/121 90/113/121 97/120/121
f 90/113/122 86/110/122 94/119/122
f 85/107/123 91/109/123 60/141/123
f 60/78/124 91/109/124 87/112/124
f 65/85/125 67/87/125 95/118/125
f 67/142/126 64/82/126 93/117/126
f 99/121/127 85/107/127 57/73/127
f 66/88/128 80/105/128 72/94/128
f 93/117/129 64/82/129 58/76/129
f 78/99/130 65/85/130 92/114/130
f 79/102/131 108/133/131 100/124/131
f 107/131/132 94/119/132 86/110/132
o export_Electronics_PCB.002
v 0.052000 0.049500 -0.022500
v 0.052000 0.049000 -0.023000
v 0.052500 0.049500 -0.023000
v 0.052000 0.049146 -0.022646
v 0.052289 0.049211 -0.022711
v 0.052354 0.049146 -0.023000
v 0.052354 0.049500 -0.022646
v 0.052000 0.049000 -0.025000
v 0.052000 0.049500 -0.025500
v 0.052500 0.049500 -0.025000
v 0.052000 0.049146 -0.025354
v 0.052289 0.049211 -0.025289
v 0.052354 0.049500 -0.025354
v 0.052354 0.049146 -0.025000
v 0.052000 0.116500 -0.022500
v 0.052500 0.116500 -0.023000
v 0.052000 0.117000 -0.023000
v 0.052354 0.116500 -0.022646
v 0.052289 0.116789 -0.022711
v 0.052354 0.116854 -0.023000
v 0.052000 0.116854 -0.022646
v 0.052000 0.116500 -0.025500
v 0.052000 0.117000 -0.025000
v 0.052500 0.116500 -0.025000
v 0.052000 0.116854 -0.025354
v 0.052289 0.116789 -0.025289
v 0.052354 0.116854 -0.025000
v 0.052354 0.116500 -0.025354
v -0.052000 0.049500 -0.022500
v -0.052500 0.049500 -0.023000
v -0.052000 0.049000 -0.023000
v -0.052354 0.049500 -0.022646
v -0.052289 0.049211 -0.022711
v -0.052354 0.049146 -0.023000
v -0.052000 0.049146 -0.022646
v -0.052000 0.049500 -0.025500
v -0.052000 0.049000 -0.025000
v -0.052500 0.049500 -0.025000
v -0.052000 0.049146 -0.025354
v -0.052289 0.049211 -0.025289
v -0.052354 0.049146 -0.025000
v -0.052354 0.049500 -0.025354
v -0.052000 0.116500 -0.022500
v -0.052000 0.117000 -0.023000
v -0.052500 0.116500 -0.023000
v -0.052000 0.116854 -0.022646
v -0.052289 0.116789 -0.022711
v -0.052354 0.116854 -0.023000
v -0.052354 0.116500 -0.022646
v -0.052000 0.116500 -0.025500
v -0.052500 0.116500 -0.025000
v -0.052000 0.117000 -0.025000
v -0.052354 0.116500 -0.025354
v -0.052289 0.116789 -0.025289
v -0.052354 0.116854 -0.025000
v -0.052000 0.116854 -0.025354
vn 0.3672 -0.2817 0.8865
vn 0.2817 -0.8864 0.3672
vn 0.8865 -0.3672 0.2817
vn 0.3672 -0.8864 -0.2817
vn 0.2817 -0.3672 -0.8864
vn 0.8865 -0.2817 -0.3672
vn 0.2818 0.3672 0.8864
vn 0.8864 0.2818 0.3672
vn 0.3672 0.8865 0.2817
vn 0.3672 0.2817 -0.8865
vn 0.2818 0.8865 -0.3672
vn 0.8865 0.3672 -0.2817
vn -0.2818 -0.3672 0.8864
vn -0.8864 -0.2818 0.3672
vn -0.3672 -0.8864 0.2817
vn -0.3672 -0.2817 -0.8865
vn -0.2817 -0.8864 -0.3672
vn -0.8865 -0.3672 -0.2817
vn -0.3672 0.2817 0.8865
vn -0.2818 0.8865 0.3672
vn -0.8865 0.3672 0.2817
vn -0.2818 0.3672 -0.8864
vn -0.8864 0.2818 -0.3672
vn -0.3672 0.8865 -0.2817
vn 0.3827 -0.0000 0.9239
vn 0.9239 -0.0000 0.3827
vn 0.3827 -0.9239 -0.0000
vn 0.9239 -0.3827 -0.0000
vn 0.3827 -0.0000 -0.9239
vn 0.9239 -0.0000 -0.3827
vn 0.3827 0.9239 -0.0000
vn 0.9239 0.3827 -0.0000
vn -0.0000 0.3827 0.9239
vn -0.0000 0.9239 0.3827
vn -0.0000 0.3827 -0.9239
vn -0.0000 0.9239 -0.3827
vn -0.9239 0.3827 -0.0000
vn -0.3827 0.9239 -0.0000
vn -0.3827 -0.0000 0.9239
vn -0.9239 -0.0000 0.3827
vn -0.3827 -0.0000 -0.9239
vn -0.9239 -0.0000 -0.3827
vn -0.3827 -0.9239 -0.0000
vn -0.9239 -0.3827 -0.0000
vn -0.0000 -0.3827 0.9239
vn -0.0000 -0.9239 0.3827
vn -0.0000 -0.3827 -0.9239
vn -0.0000 -0.9239 -0.3827
vn -0.0000 -0.0000 1.0000
vn 1.0000 -0.0000 -0.0000
vn -0.0000 -1.0000 -0.0000
vn -0.0000 -0.0000 -1.0000
vn -0.0000 1.0000 -0.0000
vn -1.0000 -0.0000 -0.0000
vn 0.2817 -0.3672 0.8864
vn 0.3672 -0.8864 0.2817
vn 0.8865 -0.2817 0.3672
vn 0.2817 -0.8864 -0.3672
vn 0.3672 -0.2817 -0.8865
vn 0.8865 -0.3672 -0.2817
vn 0.3672 0.2817 0.8865
vn 0.8865 0.3672 0.2817
vn 0.2818 0.8865 0.3672
vn 0.2817 0.3672 -0.8864
vn 0.3672 0.8865 -0.2817
vn 0.8865 0.2817 -0.3672
vn -0.3672 -0.2817 0.8865
vn -0.8865 -0.3672 0.2817
vn -0.2817 -0.8864 0.3672
vn -0.2817 -0.3672 -0.8864
vn -0.3672 -0.8864 -0.2817
vn -0.8865 -0.2817 -0.3672
vn -0.2818 0.3672 0.8864
vn -0.3672 0.8865 0.2817
vn -0.8865 0.2817 0.3672
vn -0.3672 0.2817 -0.8865
vn -0.8865 0.3672 -0.2817
vn -0.2818 0.8865 -0.3672
vt 0.126190 0.748162
vt 0.125503 0.750000
vt 0.125000 0.748162
vt 0.416667 0.998810
vt 0.392610 1.000000
vt 0.375000 0.998810
vt 0.416667 0.001838
vt 0.375000 0.000777
vt 0.416667 0.000000
vt 0.583333 0.998809
vt 0.625000 0.999497
vt 0.583333 1.000000
vt 0.873809 0.748162
vt 0.875000 0.749223
vt 0.873810 0.750000
vt 0.583333 0.001838
vt 0.607390 0.000000
vt 0.625000 0.001838
vt 0.126190 0.501838
vt 0.125000 0.500777
vt 0.126190 0.500000
vt 0.416667 0.248162
vt 0.383805 0.250252
vt 0.375000 0.248162
vt 0.416667 0.251190
vt 0.416667 0.250000
vt 0.873809 0.501838
vt 0.874497 0.500000
vt 0.875000 0.501838
vt 0.583333 0.251190
vt 0.616195 0.249612
vt 0.625000 0.251190
vt 0.583333 0.248162
vt 0.583333 0.250000
vt 0.373810 0.748162
vt 0.380870 0.749909
vt 0.374405 0.750595
vt 0.416667 0.748162
vt 0.375000 0.748162
vt 0.416667 0.751190
vt 0.416667 0.750000
vt 0.626191 0.748162
vt 0.619298 0.749741
vt 0.625000 0.748162
vt 0.583333 0.751190
vt 0.625595 0.750595
vt 0.583333 0.748162
vt 0.583333 0.750000
vt 0.373810 0.501838
vt 0.380702 0.500259
vt 0.375000 0.501838
vt 0.416667 0.498809
vt 0.374405 0.499405
vt 0.416667 0.501838
vt 0.416667 0.500000
vt 0.626190 0.501838
vt 0.619130 0.500091
vt 0.625595 0.499405
vt 0.583333 0.501838
vt 0.625000 0.501838
vt 0.583333 0.498809
vt 0.583333 0.500000
vt 0.125000 0.501838
vt 0.375000 0.001838
vt 0.416667 1.000000
vt 0.583333 0.000000
vt 0.875000 0.748162
vt 0.625000 0.248162
vt 0.375000 0.251190
vt 0.873810 0.500000
vt 0.126190 0.750000
vt 0.625000 0.998810
s 0
f 113/145/157 117/146/157 119/147/157
f 114/148/158 117/149/158 116/150/158
f 115/151/159 117/152/159 118/153/159
f 120/154/160 124/155/160 126/156/160
f 121/157/161 124/158/161 123/159/161
f 122/160/162 124/161/162 125/162/162
f 127/163/163 131/164/163 133/165/163
f 128/166/164 131/167/164 130/168/164
f 129/169/165 131/167/165 132/170/165
f 134/171/166 138/172/166 140/173/166
f 135/174/167 138/175/167 137/176/167
f 136/177/168 138/175/168 139/178/168
f 141/179/169 145/180/169 147/181/169
f 142/182/170 145/180/170 144/183/170
f 143/184/171 145/180/171 146/185/171
f 148/186/172 152/187/172 154/188/172
f 149/189/173 152/187/173 151/190/173
f 150/191/174 152/187/174 153/192/174
f 155/193/175 159/194/175 161/195/175
f 156/196/176 159/194/176 158/197/176
f 157/198/177 159/194/177 160/199/177
f 162/200/178 166/201/178 168/202/178
f 163/203/179 166/201/179 165/204/179
f 164/205/180 166/201/180 167/206/180
f 113/145/181 130/207/181 127/163/181
f 119/208/182 128/166/182 130/168/182
f 120/154/183 118/209/183 114/148/183
f 126/210/184 115/151/184 118/153/184
f 134/171/185 125/211/185 121/157/185
f 140/212/186 122/160/186 125/162/186
f 129/169/187 139/178/187 135/174/187
f 132/170/188 136/177/188 139/178/188
f 127/163/189 158/197/189 155/193/189
f 133/213/190 156/196/190 158/197/190
f 162/200/191 137/214/191 134/171/191
f 168/202/192 135/174/192 137/176/192
f 157/198/193 167/206/193 163/203/193
f 160/199/194 164/205/194 167/206/194
f 155/193/195 144/183/195 141/179/195
f 161/195/196 142/182/196 144/183/196
f 148/186/197 165/204/197 162/200/197
f 154/188/198 163/203/198 165/204/198
f 143/184/199 153/192/199 149/189/199
f 146/185/200 150/191/200 153/192/200
f 141/179/201 116/215/201 113/145/201
f 147/181/202 114/148/202 116/150/202
f 121/157/203 151/190/203 148/186/203
f 123/216/204 149/189/204 151/190/204
f 155/193/205 113/145/205 127/163/205
f 122/160/206 128/166/206 115/151/206
f 149/189/207 114/148/207 143/184/207
f 134/171/208 148/186/208 162/200/208
f 135/174/209 156/196/209 129/169/209
f 163/203/210 142/182/210 157/198/210
f 113/145/211 116/215/211 117/146/211
f 114/148/212 118/209/212 117/149/212
f 115/151/213 119/208/213 117/152/213
f 120/154/214 123/216/214 124/155/214
f 121/157/215 125/211/215 124/158/215
f 122/160/216 126/210/216 124/161/216
f 127/163/217 130/207/217 131/164/217
f 128/166/218 132/170/218 131/167/218
f 129/169/219 133/213/219 131/167/219
f 134/171/220 137/214/220 138/172/220
f 135/174/221 139/178/221 138/175/221
f 136/177/222 140/212/222 138/175/222
f 141/179/223 144/183/223 145/180/223
f 142/182/224 146/185/224 145/180/224
f 143/184/225 147/181/225 145/180/225
f 148/186/226 151/190/226 152/187/226
f 149/189/227 153/192/227 152/187/227
f 150/191/228 154/188/228 152/187/228
f 155/193/229 158/197/229 159/194/229
f 156/196/230 160/199/230 159/194/230
f 157/198/231 161/195/231 159/194/231
f 162/200/232 165/204/232 166/201/232
f 163/203/233 167/206/233 166/201/233
f 164/205/234 168/202/234 166/201/234
f 113/145/181 119/147/181 130/207/181
f 119/208/182 115/151/182 128/166/182
f 120/154/183 126/156/183 118/209/183
f 126/210/184 122/160/184 115/151/184
f 134/171/185 140/173/185 125/211/185
f 140/212/186 136/177/186 122/160/186
f 129/169/187 132/170/187 139/178/187
f 132/170/188 128/166/188 136/177/188
f 127/163/189 133/165/189 158/197/189
f 133/213/190 129/169/190 156/196/190
f 162/200/191 168/202/191 137/214/191
f 168/202/192 164/205/192 135/174/192
f 157/198/193 160/199/193 167/206/193
f 160/199/194 156/196/194 164/205/194
f 155/193/195 161/195/195 144/183/195
f 161/195/196 157/198/196 142/182/196
f 148/186/197 154/188/197 165/204/197
f 154/188/198 150/191/198 163/203/198
f 143/184/199 146/185/199 153/192/199
f 146/185/200 142/182/200 150/191/200
f 141/179/201 147/181/201 116/215/201
f 147/181/202 143/184/202 114/148/202
f 121/157/203 123/159/203 151/190/203
f 123/216/204 120/154/204 149/189/204
f 155/193/205 141/179/205 113/145/205
f 122/160/206 136/177/206 128/166/206
f 149/189/207 120/154/207 114/148/207
f 134/171/208 121/157/208 148/186/208
f 135/174/209 164/205/209 156/196/209
f 163/203/210 150/191/210 142/182/210
