# Blender 4.5.6 LTS
# www.blender.org
o export_Upper_red_endplate_-0.155
v 0.000000 -0.160000 0.053000
v 0.000000 -0.150000 0.053000
v -0.013444 -0.160000 0.052119
v -0.013444 -0.150000 0.052119
v -0.026658 -0.160000 0.049490
v -0.026658 -0.150000 0.049490
v -0.039416 -0.160000 0.045160
v -0.039416 -0.150000 0.045160
v -0.051500 -0.160000 0.039201
v -0.051500 -0.150000 0.039201
v -0.062702 -0.160000 0.031715
v -0.062702 -0.150000 0.031715
v -0.072832 -0.160000 0.022832
v -0.072832 -0.150000 0.022832
v -0.081715 -0.160000 0.012702
v -0.081715 -0.150000 0.012702
v -0.089201 -0.160000 0.001500
v -0.089201 -0.150000 0.001500
v -0.095160 -0.160000 -0.010584
v -0.095160 -0.150000 -0.010584
v -0.099490 -0.160000 -0.023342
v -0.099490 -0.150000 -0.023342
v -0.102119 -0.160000 -0.036556
v -0.102119 -0.150000 -0.036556
v -0.103000 -0.160000 -0.050000
v -0.103000 -0.150000 -0.050000
v -0.102119 -0.160000 -0.063444
v -0.102119 -0.150000 -0.063444
v -0.099490 -0.160000 -0.076658
v -0.099490 -0.150000 -0.076658
v -0.095160 -0.160000 -0.089416
v -0.095160 -0.150000 -0.089416
v -0.089201 -0.160000 -0.101500
v -0.089201 -0.150000 -0.101500
v -0.081715 -0.160000 -0.112702
v -0.081715 -0.150000 -0.112702
v -0.072832 -0.160000 -0.122832
v -0.072832 -0.150000 -0.122832
v -0.062702 -0.160000 -0.131715
v -0.062702 -0.150000 -0.131715
v -0.051500 -0.160000 -0.139201
v -0.051500 -0.150000 -0.139201
v -0.039416 -0.160000 -0.145160
v -0.039416 -0.150000 -0.145160
v -0.026658 -0.160000 -0.149490
v -0.026658 -0.150000 -0.149490
v -0.013444 -0.160000 -0.152119
v -0.013444 -0.150000 -0.152119
v 0.000000 -0.160000 -0.153000
v 0.000000 -0.150000 -0.153000
v 0.013444 -0.160000 -0.152119
v 0.013444 -0.150000 -0.152119
v 0.026658 -0.160000 -0.149490
v 0.026658 -0.150000 -0.149490
v 0.039416 -0.160000 -0.145160
v 0.039416 -0.150000 -0.145160
v 0.051500 -0.160000 -0.139201
v 0.051500 -0.150000 -0.139201
v 0.062702 -0.160000 -0.131715
v 0.062702 -0.150000 -0.131715
v 0.072832 -0.160000 -0.122832
v 0.072832 -0.150000 -0.122832
v 0.081715 -0.160000 -0.112702
v 0.081715 -0.150000 -0.112702
v 0.089201 -0.160000 -0.101500
v 0.089201 -0.150000 -0.101500
v 0.095160 -0.160000 -0.089416
v 0.095160 -0.150000 -0.089416
v 0.099490 -0.160000 -0.076658
v 0.099490 -0.150000 -0.076658
v 0.102119 -0.160000 -0.063444
v 0.102119 -0.150000 -0.063444
v 0.103000 -0.160000 -0.050000
v 0.103000 -0.150000 -0.050000
v 0.102119 -0.160000 -0.036556
v 0.102119 -0.150000 -0.036556
v 0.099490 -0.160000 -0.023342
v 0.099490 -0.150000 -0.023342
v 0.095160 -0.160000 -0.010584
v 0.095160 -0.150000 -0.010584
v 0.089201 -0.160000 0.001500
v 0.089201 -0.150000 0.001500
v 0.081715 -0.160000 0.012702
v 0.081715 -0.150000 0.012702
v 0.072832 -0.160000 0.022832
v 0.072832 -0.150000 0.022832
v 0.062702 -0.160000 0.031715
v 0.062702 -0.150000 0.031715
v 0.051500 -0.160000 0.039201
v 0.051500 -0.150000 0.039201
v 0.039416 -0.160000 0.045160
v 0.039416 -0.150000 0.045160
v 0.026658 -0.160000 0.049490
v 0.026658 -0.150000 0.049490
v 0.013444 -0.160000 0.052119
v 0.013444 -0.150000 0.052119
vn -0.0000 -0.0000 1.0000
vn -0.1305 -0.0000 0.9914
vn -0.2588 -0.0000 0.9659
vn -0.3827 -0.0000 0.9239
vn -0.5000 -0.0000 0.8660
vn -0.6088 -0.0000 0.7934
vn -0.7071 -0.0000 0.7071
vn -0.7934 -0.0000 0.6088
vn -0.8660 -0.0000 0.5000
vn -0.9239 -0.0000 0.3827
vn -0.9659 -0.0000 0.2588
vn -0.9914 -0.0000 0.1305
vn -1.0000 -0.0000 -0.0000
vn -0.9914 -0.0000 -0.1305
vn -0.9659 -0.0000 -0.2588
vn -0.9239 -0.0000 -0.3827
vn -0.8660 -0.0000 -0.5000
vn -0.7934 -0.0000 -0.6088
vn -0.7071 -0.0000 -0.7071
vn -0.6088 -0.0000 -0.7934
vn -0.5000 -0.0000 -0.8660
vn -0.3827 -0.0000 -0.9239
vn -0.2588 -0.0000 -0.9659
vn -0.1305 -0.0000 -0.9914
vn -0.0000 -0.0000 -1.0000
vn 0.1305 -0.0000 -0.9914
vn 0.2588 -0.0000 -0.9659
vn 0.3827 -0.0000 -0.9239
vn 0.5000 -0.0000 -0.8660
vn 0.6088 -0.0000 -0.7934
vn 0.7071 -0.0000 -0.7071
vn 0.7934 -0.0000 -0.6088
vn 0.8660 -0.0000 -0.5000
vn 0.9239 -0.0000 -0.3827
vn 0.9659 -0.0000 -0.2588
vn 0.9914 -0.0000 -0.1305
vn 1.0000 -0.0000 -0.0000
vn 0.9914 -0.0000 0.1305
vn 0.9659 -0.0000 0.2588
vn 0.9239 -0.0000 0.3827
vn 0.8660 -0.0000 0.5000
vn 0.7934 -0.0000 0.6088
vn 0.7071 -0.0000 0.7071
vn 0.6088 -0.0000 0.7934
vn 0.5000 -0.0000 0.8660
vn 0.3827 -0.0000 0.9239
vn 0.2588 -0.0000 0.9659
vn -0.0000 1.0000 -0.0000
vn 0.1305 -0.0000 0.9914
vn -0.0000 -1.0000 -0.0000
vt 1.000000 1.000000
vt 0.979167 0.500000
vt 1.000000 0.500000
vt 0.979167 1.000000
vt 0.958333 0.500000
vt 0.958333 1.000000
vt 0.937500 0.500000
vt 0.937500 1.000000
vt 0.916667 0.500000
vt 0.916667 1.000000
vt 0.895833 0.500000
vt 0.875000 1.000000
vt 0.875000 0.500000
vt 0.854167 0.500000
vt 0.854167 1.000000
vt 0.833333 0.500000
vt 0.833333 1.000000
vt 0.812500 0.500000
vt 0.812500 1.000000
vt 0.791667 0.500000
vt 0.791667 1.000000
vt 0.770834 0.500000
vt 0.770834 1.000000
vt 0.750000 0.500000
vt 0.750000 1.000000
vt 0.729167 0.500000
vt 0.729167 1.000000
vt 0.708334 0.500000
vt 0.708334 1.000000
vt 0.687500 0.500000
vt 0.687500 1.000000
vt 0.666667 0.500000
vt 0.666667 1.000000
vt 0.645834 0.500000
vt 0.645834 1.000000
vt 0.625000 0.500000
vt 0.625000 1.000000
vt 0.604167 0.500000
vt 0.604167 1.000000
vt 0.583334 0.500000
vt 0.583334 1.000000
vt 0.562500 0.500000
vt 0.562500 1.000000
vt 0.541667 0.500000
vt 0.541667 1.000000
vt 0.520834 0.500000
vt 0.520834 1.000000
vt 0.500000 0.500000
vt 0.500000 1.000000
vt 0.479167 0.500000
vt 0.479167 1.000000
vt 0.458334 0.500000
vt 0.458334 1.000000
vt 0.437500 0.500000
vt 0.437500 1.000000
vt 0.416667 0.500000
vt 0.416667 1.000000
vt 0.395834 0.500000
vt 0.375000 1.000000
vt 0.375000 0.500000
vt 0.354167 1.000000
vt 0.354167 0.500000
vt 0.333334 1.000000
vt 0.333334 0.500000
vt 0.312500 1.000000
vt 0.312500 0.500000
vt 0.291667 0.500000
vt 0.291667 1.000000
vt 0.270834 0.500000
vt 0.270834 1.000000
vt 0.250000 0.500000
vt 0.229167 1.000000
vt 0.229167 0.500000
vt 0.208334 0.500000
vt 0.208334 1.000000
vt 0.187500 0.500000
vt 0.166667 1.000000
vt 0.166667 0.500000
vt 0.145834 0.500000
vt 0.145834 1.000000
vt 0.125000 0.500000
vt 0.125000 1.000000
vt 0.104167 0.500000
vt 0.104167 1.000000
vt 0.083334 0.500000
vt 0.083334 1.000000
vt 0.062500 0.500000
vt 0.062500 1.000000
vt 0.041667 0.500000
vt 0.018178 0.187883
vt 0.419706 0.080294
vt 0.312117 0.481822
vt 0.041667 1.000000
vt 0.020834 0.500000
vt 0.020834 1.000000
vt 0.000000 0.500000
vt 0.971731 0.158156
vt 0.559595 0.103897
vt 0.718674 0.487947
vt 0.895833 1.000000
vt 0.395834 1.000000
vt 0.250000 1.000000
vt 0.187500 1.000000
vt 0.281326 0.487947
vt 0.250000 0.490000
vt 0.218674 0.487947
vt 0.187883 0.481822
vt 0.158156 0.471731
vt 0.130000 0.457846
vt 0.103897 0.440405
vt 0.080294 0.419706
vt 0.059595 0.396103
vt 0.042154 0.370000
vt 0.028269 0.341844
vt 0.018178 0.312117
vt 0.012053 0.281326
vt 0.010000 0.250000
vt 0.012053 0.218674
vt 0.028269 0.158156
vt 0.042154 0.130000
vt 0.059595 0.103897
vt 0.080294 0.080294
vt 0.103897 0.059595
vt 0.130000 0.042154
vt 0.158156 0.028269
vt 0.187883 0.018178
vt 0.218674 0.012053
vt 0.250000 0.010000
vt 0.281326 0.012053
vt 0.312117 0.018178
vt 0.341844 0.028269
vt 0.370000 0.042154
vt 0.396103 0.059595
vt 0.440405 0.103897
vt 0.457846 0.130000
vt 0.471731 0.158156
vt 0.481822 0.187883
vt 0.487947 0.218674
vt 0.490000 0.250000
vt 0.487947 0.281326
vt 0.481822 0.312117
vt 0.471731 0.341844
vt 0.457846 0.370000
vt 0.440405 0.396103
vt 0.419706 0.419706
vt 0.396103 0.440405
vt 0.370000 0.457846
vt 0.341844 0.471731
vt 0.000000 1.000000
vt 0.750000 0.490000
vt 0.781326 0.487947
vt 0.812117 0.481822
vt 0.841844 0.471731
vt 0.870000 0.457846
vt 0.896103 0.440405
vt 0.919706 0.419706
vt 0.940405 0.396103
vt 0.957846 0.370000
vt 0.971731 0.341844
vt 0.981822 0.312117
vt 0.987947 0.281326
vt 0.990000 0.250000
vt 0.987947 0.218674
vt 0.981822 0.187883
vt 0.957846 0.130000
vt 0.940405 0.103897
vt 0.919706 0.080294
vt 0.896103 0.059595
vt 0.870000 0.042154
vt 0.841844 0.028269
vt 0.812117 0.018178
vt 0.781326 0.012053
vt 0.750000 0.010000
vt 0.718674 0.012053
vt 0.687883 0.018178
vt 0.658156 0.028269
vt 0.630000 0.042154
vt 0.603897 0.059595
vt 0.580294 0.080294
vt 0.542154 0.130000
vt 0.528269 0.158156
vt 0.518178 0.187883
vt 0.512053 0.218674
vt 0.510000 0.250000
vt 0.512053 0.281326
vt 0.518178 0.312117
vt 0.528269 0.341844
vt 0.542154 0.370000
vt 0.559595 0.396103
vt 0.580294 0.419706
vt 0.603897 0.440405
vt 0.630000 0.457846
vt 0.658156 0.471731
vt 0.687883 0.481822
s 1
f 2/1/1 3/2/2 1/3/1
f 4/4/2 5/5/3 3/2/2
f 6/6/3 7/7/4 5/5/3
f 8/8/4 9/9/5 7/7/4
f 10/10/5 11/11/6 9/9/5
f 11/11/6 14/12/7 13/13/7
f 14/12/7 15/14/8 13/13/7
f 16/15/8 17/16/9 15/14/8
f 18/17/9 19/18/10 17/16/9
f 20/19/10 21/20/11 19/18/10
f 22/21/11 23/22/12 21/20/11
f 24/23/12 25/24/13 23/22/12
f 26/25/13 27/26/14 25/24/13
f 28/27/14 29/28/15 27/26/14
f 30/29/15 31/30/16 29/28/15
f 32/31/16 33/32/17 31/30/16
f 34/33/17 35/34/18 33/32/17
f 36/35/18 37/36/19 35/34/18
f 38/37/19 39/38/20 37/36/19
f 40/39/20 41/40/21 39/38/20
f 42/41/21 43/42/22 41/40/21
f 44/43/22 45/44/23 43/42/22
f 46/45/23 47/46/24 45/44/23
f 48/47/24 49/48/25 47/46/24
f 50/49/25 51/50/26 49/48/25
f 52/51/26 53/52/27 51/50/26
f 54/53/27 55/54/28 53/52/27
f 56/55/28 57/56/29 55/54/28
f 58/57/29 59/58/30 57/56/29
f 59/58/30 62/59/31 61/60/31
f 61/60/31 64/61/32 63/62/32
f 63/62/32 66/63/33 65/64/33
f 65/64/33 68/65/34 67/66/34
f 68/65/34 69/67/35 67/66/34
f 70/68/35 71/69/36 69/67/35
f 72/70/36 73/71/37 71/69/36
f 73/71/37 76/72/38 75/73/38
f 76/72/38 77/74/39 75/73/38
f 78/75/39 79/76/40 77/74/39
f 79/76/40 82/77/41 81/78/41
f 82/77/41 83/79/42 81/78/41
f 84/80/42 85/81/43 83/79/42
f 86/82/43 87/83/44 85/81/43
f 88/84/44 89/85/45 87/83/44
f 90/86/45 91/87/46 89/85/45
f 92/88/46 93/89/47 91/87/46
s 0
f 70/90/48 38/91/48 6/92/48
s 1
f 94/93/47 95/94/49 93/89/47
f 96/95/49 1/96/1 95/94/49
s 0
f 31/97/50 63/98/50 95/99/50
s 1
f 2/1/1 4/4/2 3/2/2
f 4/4/2 6/6/3 5/5/3
f 6/6/3 8/8/4 7/7/4
f 8/8/4 10/10/5 9/9/5
f 10/10/5 12/100/6 11/11/6
f 11/11/6 12/100/6 14/12/7
f 14/12/7 16/15/8 15/14/8
f 16/15/8 18/17/9 17/16/9
f 18/17/9 20/19/10 19/18/10
f 20/19/10 22/21/11 21/20/11
f 22/21/11 24/23/12 23/22/12
f 24/23/12 26/25/13 25/24/13
f 26/25/13 28/27/14 27/26/14
f 28/27/14 30/29/15 29/28/15
f 30/29/15 32/31/16 31/30/16
f 32/31/16 34/33/17 33/32/17
f 34/33/17 36/35/18 35/34/18
f 36/35/18 38/37/19 37/36/19
f 38/37/19 40/39/20 39/38/20
f 40/39/20 42/41/21 41/40/21
f 42/41/21 44/43/22 43/42/22
f 44/43/22 46/45/23 45/44/23
f 46/45/23 48/47/24 47/46/24
f 48/47/24 50/49/25 49/48/25
f 50/49/25 52/51/26 51/50/26
f 52/51/26 54/53/27 53/52/27
f 54/53/27 56/55/28 55/54/28
f 56/55/28 58/57/29 57/56/29
f 58/57/29 60/101/30 59/58/30
f 59/58/30 60/101/30 62/59/31
f 61/60/31 62/59/31 64/61/32
f 63/62/32 64/61/32 66/63/33
f 65/64/33 66/63/33 68/65/34
f 68/65/34 70/68/35 69/67/35
f 70/68/35 72/70/36 71/69/36
f 72/70/36 74/102/37 73/71/37
f 73/71/37 74/102/37 76/72/38
f 76/72/38 78/75/39 77/74/39
f 78/75/39 80/103/40 79/76/40
f 79/76/40 80/103/40 82/77/41
f 82/77/41 84/80/42 83/79/42
f 84/80/42 86/82/43 85/81/43
f 86/82/43 88/84/44 87/83/44
f 88/84/44 90/86/45 89/85/45
f 90/86/45 92/88/46 91/87/46
f 92/88/46 94/93/47 93/89/47
s 0
f 6/92/48 4/104/48 2/105/48
f 2/105/48 96/106/48 94/107/48
f 94/107/48 92/108/48 90/109/48
f 90/109/48 88/110/48 86/111/48
f 86/111/48 84/112/48 82/113/48
f 82/113/48 80/114/48 78/115/48
f 78/115/48 76/116/48 74/117/48
f 74/117/48 72/118/48 70/90/48
f 70/90/48 68/119/48 66/120/48
f 66/120/48 64/121/48 62/122/48
f 62/122/48 60/123/48 58/124/48
f 58/124/48 56/125/48 54/126/48
f 54/126/48 52/127/48 50/128/48
f 50/128/48 48/129/48 46/130/48
f 46/130/48 44/131/48 42/132/48
f 42/132/48 40/133/48 38/91/48
f 38/91/48 36/134/48 34/135/48
f 34/135/48 32/136/48 30/137/48
f 30/137/48 28/138/48 26/139/48
f 26/139/48 24/140/48 22/141/48
f 22/141/48 20/142/48 18/143/48
f 18/143/48 16/144/48 14/145/48
f 14/145/48 12/146/48 10/147/48
f 10/147/48 8/148/48 6/92/48
f 6/92/48 2/105/48 94/107/48
f 94/107/48 90/109/48 86/111/48
f 86/111/48 82/113/48 78/115/48
f 78/115/48 74/117/48 70/90/48
f 70/90/48 66/120/48 62/122/48
f 62/122/48 58/124/48 54/126/48
f 54/126/48 50/128/48 46/130/48
f 46/130/48 42/132/48 38/91/48
f 38/91/48 34/135/48 30/137/48
f 30/137/48 26/139/48 22/141/48
f 22/141/48 18/143/48 14/145/48
f 14/145/48 10/147/48 6/92/48
f 6/92/48 94/107/48 86/111/48
f 86/111/48 78/115/48 70/90/48
f 70/90/48 62/122/48 54/126/48
f 54/126/48 46/130/48 38/91/48
f 38/91/48 30/137/48 22/141/48
f 22/141/48 14/145/48 6/92/48
f 6/92/48 86/111/48 70/90/48
f 70/90/48 54/126/48 38/91/48
f 38/91/48 22/141/48 6/92/48
s 1
f 94/93/47 96/95/49 95/94/49
f 96/95/49 2/149/1 1/96/1
s 0
f 95/99/50 1/150/50 3/151/50
f 3/151/50 5/152/50 7/153/50
f 7/153/50 9/154/50 11/155/50
f 11/155/50 13/156/50 15/157/50
f 15/157/50 17/158/50 19/159/50
f 19/159/50 21/160/50 23/161/50
f 23/161/50 25/162/50 27/163/50
f 27/163/50 29/164/50 31/97/50
f 31/97/50 33/165/50 35/166/50
f 35/166/50 37/167/50 39/168/50
f 39/168/50 41/169/50 43/170/50
f 43/170/50 45/171/50 47/172/50
f 47/172/50 49/173/50 51/174/50
f 51/174/50 53/175/50 55/176/50
f 55/176/50 57/177/50 59/178/50
f 59/178/50 61/179/50 63/98/50
f 63/98/50 65/180/50 67/181/50
f 67/181/50 69/182/50 71/183/50
f 71/183/50 73/184/50 75/185/50
f 75/185/50 77/186/50 79/187/50
f 79/187/50 81/188/50 83/189/50
f 83/189/50 85/190/50 87/191/50
f 87/191/50 89/192/50 91/193/50
f 91/193/50 93/194/50 95/99/50
f 95/99/50 3/151/50 7/153/50
f 7/153/50 11/155/50 15/157/50
f 15/157/50 19/159/50 23/161/50
f 23/161/50 27/163/50 31/97/50
f 31/97/50 35/166/50 39/168/50
f 39/168/50 43/170/50 47/172/50
f 47/172/50 51/174/50 55/176/50
f 55/176/50 59/178/50 63/98/50
f 63/98/50 67/181/50 71/183/50
f 71/183/50 75/185/50 79/187/50
f 79/187/50 83/189/50 87/191/50
f 87/191/50 91/193/50 95/99/50
f 95/99/50 7/153/50 15/157/50
f 15/157/50 23/161/50 31/97/50
f 31/97/50 39/168/50 47/172/50
f 47/172/50 55/176/50 63/98/50
f 63/98/50 71/183/50 79/187/50
f 79/187/50 87/191/50 95/99/50
f 95/99/50 15/157/50 31/97/50
f 31/97/50 47/172/50 63/98/50
f 63/98/50 79/187/50 95/99/50
o export_Upper_red_endplate_0.155
v 0.000000 0.150000 0.053000
v 0.000000 0.160000 0.053000
v -0.013444 0.150000 0.052119
v -0.013444 0.160000 0.052119
v -0.026658 0.150000 0.049490
v -0.026658 0.160000 0.049490
v -0.039416 0.150000 0.045160
v -0.039416 0.160000 0.045160
v -0.051500 0.150000 0.039201
v -0.051500 0.160000 0.039201
v -0.062702 0.150000 0.031715
v -0.062702 0.160000 0.031715
v -0.072832 0.150000 0.022832
v -0.072832 0.160000 0.022832
v -0.081715 0.150000 0.012702
v -0.081715 0.160000 0.012702
v -0.089201 0.150000 0.001500
v -0.089201 0.160000 0.001500
v -0.095160 0.150000 -0.010584
v -0.095160 0.160000 -0.010584
v -0.099490 0.150000 -0.023342
v -0.099490 0.160000 -0.023342
v -0.102119 0.150000 -0.036556
v -0.102119 0.160000 -0.036556
v -0.103000 0.150000 -0.050000
v -0.103000 0.160000 -0.050000
v -0.102119 0.150000 -0.063444
v -0.102119 0.160000 -0.063444
v -0.099490 0.150000 -0.076658
v -0.099490 0.160000 -0.076658
v -0.095160 0.150000 -0.089416
v -0.095160 0.160000 -0.089416
v -0.089201 0.150000 -0.101500
v -0.089201 0.160000 -0.101500
v -0.081715 0.150000 -0.112702
v -0.081715 0.160000 -0.112702
v -0.072832 0.150000 -0.122832
v -0.072832 0.160000 -0.122832
v -0.062702 0.150000 -0.131715
v -0.062702 0.160000 -0.131715
v -0.051500 0.150000 -0.139201
v -0.051500 0.160000 -0.139201
v -0.039416 0.150000 -0.145160
v -0.039416 0.160000 -0.145160
v -0.026658 0.150000 -0.149490
v -0.026658 0.160000 -0.149490
v -0.013444 0.150000 -0.152119
v -0.013444 0.160000 -0.152119
v 0.000000 0.150000 -0.153000
v 0.000000 0.160000 -0.153000
v 0.013444 0.150000 -0.152119
v 0.013444 0.160000 -0.152119
v 0.026658 0.150000 -0.149490
v 0.026658 0.160000 -0.149490
v 0.039416 0.150000 -0.145160
v 0.039416 0.160000 -0.145160
v 0.051500 0.150000 -0.139201
v 0.051500 0.160000 -0.139201
v 0.062702 0.150000 -0.131715
v 0.062702 0.160000 -0.131715
v 0.072832 0.150000 -0.122832
v 0.072832 0.160000 -0.122832
v 0.081715 0.150000 -0.112702
v 0.081715 0.160000 -0.112702
v 0.089201 0.150000 -0.101500
v 0.089201 0.160000 -0.101500
v 0.095160 0.150000 -0.089416
v 0.095160 0.160000 -0.089416
v 0.099490 0.150000 -0.076658
v 0.099490 0.160000 -0.076658
v 0.102119 0.150000 -0.063444
v 0.102119 0.160000 -0.063444
v 0.103000 0.150000 -0.050000
v 0.103000 0.160000 -0.050000
v 0.102119 0.150000 -0.036556
v 0.102119 0.160000 -0.036556
v 0.099490 0.150000 -0.023342
v 0.099490 0.160000 -0.023342
v 0.095160 0.150000 -0.010584
v 0.095160 0.160000 -0.010584
v 0.089201 0.150000 0.001500
v 0.089201 0.160000 0.001500
v 0.081715 0.150000 0.012702
v 0.081715 0.160000 0.012702
v 0.072832 0.150000 0.022832
v 0.072832 0.160000 0.022832
v 0.062702 0.150000 0.031715
v 0.062702 0.160000 0.031715
v 0.051500 0.150000 0.039201
v 0.051500 0.160000 0.039201
v 0.039416 0.150000 0.045160
v 0.039416 0.160000 0.045160
v 0.026658 0.150000 0.049490
v 0.026658 0.160000 0.049490
v 0.013444 0.150000 0.052119
v 0.013444 0.160000 0.052119
vn -0.0000 -0.0000 1.0000
vn -0.1305 -0.0000 0.9914
vn -0.2588 -0.0000 0.9659
vn -0.3827 -0.0000 0.9239
vn -0.5000 -0.0000 0.8660
vn -0.6088 -0.0000 0.7934
vn -0.7071 -0.0000 0.7071
vn -0.7934 -0.0000 0.6088
vn -0.8660 -0.0000 0.5000
vn -0.9239 -0.0000 0.3827
vn -0.9659 -0.0000 0.2588
vn -0.9914 -0.0000 0.1305
vn -1.0000 -0.0000 -0.0000
vn -0.9914 -0.0000 -0.1305
vn -0.9659 -0.0000 -0.2588
vn -0.9239 -0.0000 -0.3827
vn -0.8660 -0.0000 -0.5000
vn -0.7934 -0.0000 -0.6088
vn -0.7071 -0.0000 -0.7071
vn -0.6088 -0.0000 -0.7934
vn -0.5000 -0.0000 -0.8660
vn -0.3827 -0.0000 -0.9239
vn -0.2588 -0.0000 -0.9659
vn -0.1305 -0.0000 -0.9914
vn -0.0000 -0.0000 -1.0000
vn 0.1305 -0.0000 -0.9914
vn 0.2588 -0.0000 -0.9659
vn 0.3827 -0.0000 -0.9239
vn 0.5000 -0.0000 -0.8660
vn 0.6088 -0.0000 -0.7934
vn 0.7071 -0.0000 -0.7071
vn 0.7934 -0.0000 -0.6088
vn 0.8660 -0.0000 -0.5000
vn 0.9239 -0.0000 -0.3827
vn 0.9659 -0.0000 -0.2588
vn 0.9914 -0.0000 -0.1305
vn 1.0000 -0.0000 -0.0000
vn 0.9914 -0.0000 0.1305
vn 0.9659 -0.0000 0.2588
vn 0.9239 -0.0000 0.3827
vn 0.8660 -0.0000 0.5000
vn 0.7934 -0.0000 0.6088
vn 0.7071 -0.0000 0.7071
vn 0.6088 -0.0000 0.7934
vn 0.5000 -0.0000 0.8660
vn 0.3827 -0.0000 0.9239
vn 0.2588 -0.0000 0.9659
vn -0.0000 1.0000 -0.0000
vn 0.1305 -0.0000 0.9914
vn -0.0000 -1.0000 -0.0000
vt 1.000000 1.000000
vt 0.979167 0.500000
vt 1.000000 0.500000
vt 0.979167 1.000000
vt 0.958333 0.500000
vt 0.958333 1.000000
vt 0.937500 0.500000
vt 0.937500 1.000000
vt 0.916667 0.500000
vt 0.916667 1.000000
vt 0.895833 0.500000
vt 0.875000 1.000000
vt 0.875000 0.500000
vt 0.854167 0.500000
vt 0.854167 1.000000
vt 0.833333 0.500000
vt 0.833333 1.000000
vt 0.812500 0.500000
vt 0.812500 1.000000
vt 0.791667 0.500000
vt 0.791667 1.000000
vt 0.770834 0.500000
vt 0.770834 1.000000
vt 0.750000 0.500000
vt 0.750000 1.000000
vt 0.729167 0.500000
vt 0.729167 1.000000
vt 0.708334 0.500000
vt 0.708334 1.000000
vt 0.687500 0.500000
vt 0.687500 1.000000
vt 0.666667 0.500000
vt 0.666667 1.000000
vt 0.645834 0.500000
vt 0.645834 1.000000
vt 0.625000 0.500000
vt 0.625000 1.000000
vt 0.604167 0.500000
vt 0.604167 1.000000
vt 0.583334 0.500000
vt 0.583334 1.000000
vt 0.562500 0.500000
vt 0.562500 1.000000
vt 0.541667 0.500000
vt 0.541667 1.000000
vt 0.520834 0.500000
vt 0.520834 1.000000
vt 0.500000 0.500000
vt 0.500000 1.000000
vt 0.479167 0.500000
vt 0.479167 1.000000
vt 0.458334 0.500000
vt 0.458334 1.000000
vt 0.437500 0.500000
vt 0.437500 1.000000
vt 0.416667 0.500000
vt 0.416667 1.000000
vt 0.395834 0.500000
vt 0.375000 1.000000
vt 0.375000 0.500000
vt 0.354167 1.000000
vt 0.354167 0.500000
vt 0.333334 1.000000
vt 0.333334 0.500000
vt 0.312500 1.000000
vt 0.312500 0.500000
vt 0.291667 0.500000
vt 0.291667 1.000000
vt 0.270834 0.500000
vt 0.270834 1.000000
vt 0.250000 0.500000
vt 0.229167 1.000000
vt 0.229167 0.500000
vt 0.208334 1.000000
vt 0.208334 0.500000
vt 0.187500 0.500000
vt 0.166667 1.000000
vt 0.166667 0.500000
vt 0.145834 0.500000
vt 0.145834 1.000000
vt 0.125000 0.500000
vt 0.125000 1.000000
vt 0.104167 0.500000
vt 0.104167 1.000000
vt 0.083334 0.500000
vt 0.083334 1.000000
vt 0.062500 0.500000
vt 0.062500 1.000000
vt 0.041667 0.500000
vt 0.018178 0.187883
vt 0.419706 0.080294
vt 0.312117 0.481822
vt 0.041667 1.000000
vt 0.020834 0.500000
vt 0.020834 1.000000
vt 0.000000 0.500000
vt 0.971731 0.158156
vt 0.559595 0.103897
vt 0.718674 0.487947
vt 0.895833 1.000000
vt 0.395834 1.000000
vt 0.250000 1.000000
vt 0.187500 1.000000
vt 0.281326 0.487947
vt 0.250000 0.490000
vt 0.218674 0.487947
vt 0.187883 0.481822
vt 0.158156 0.471731
vt 0.130000 0.457846
vt 0.103897 0.440405
vt 0.080294 0.419706
vt 0.059595 0.396103
vt 0.042154 0.370000
vt 0.028269 0.341844
vt 0.018178 0.312117
vt 0.012053 0.281326
vt 0.010000 0.250000
vt 0.012053 0.218674
vt 0.028269 0.158156
vt 0.042154 0.130000
vt 0.059595 0.103897
vt 0.080294 0.080294
vt 0.103897 0.059595
vt 0.130000 0.042154
vt 0.158156 0.028269
vt 0.187883 0.018178
vt 0.218674 0.012053
vt 0.250000 0.010000
vt 0.281326 0.012053
vt 0.312117 0.018178
vt 0.341844 0.028269
vt 0.370000 0.042154
vt 0.396103 0.059595
vt 0.440405 0.103897
vt 0.457846 0.130000
vt 0.471731 0.158156
vt 0.481822 0.187883
vt 0.487947 0.218674
vt 0.490000 0.250000
vt 0.487947 0.281326
vt 0.481822 0.312117
vt 0.471731 0.341844
vt 0.457846 0.370000
vt 0.440405 0.396103
vt 0.419706 0.419706
vt 0.396103 0.440405
vt 0.370000 0.457846
vt 0.341844 0.471731
vt 0.000000 1.000000
vt 0.750000 0.490000
vt 0.781326 0.487947
vt 0.812117 0.481822
vt 0.841844 0.471731
vt 0.870000 0.457846
vt 0.896103 0.440405
vt 0.919706 0.419706
vt 0.940405 0.396103
vt 0.957846 0.370000
vt 0.971731 0.341844
vt 0.981822 0.312117
vt 0.987947 0.281326
vt 0.990000 0.250000
vt 0.987947 0.218674
vt 0.981822 0.187883
vt 0.957846 0.130000
vt 0.940405 0.103897
vt 0.919706 0.080294
vt 0.896103 0.059595
vt 0.870000 0.042154
vt 0.841844 0.028269
vt 0.812117 0.018178
vt 0.781326 0.012053
vt 0.750000 0.010000
vt 0.718674 0.012053
vt 0.687883 0.018178
vt 0.658156 0.028269
vt 0.630000 0.042154
vt 0.603897 0.059595
vt 0.580294 0.080294
vt 0.542154 0.130000
vt 0.528269 0.158156
vt 0.518178 0.187883
vt 0.512053 0.218674
vt 0.510000 0.250000
vt 0.512053 0.281326
vt 0.518178 0.312117
vt 0.528269 0.341844
vt 0.542154 0.370000
vt 0.559595 0.396103
vt 0.580294 0.419706
vt 0.603897 0.440405
vt 0.630000 0.457846
vt 0.658156 0.471731
vt 0.687883 0.481822
s 1
f 98/195/51 99/196/52 97/197/51
f 100/198/52 101/199/53 99/196/52
f 102/200/53 103/201/54 101/199/53
f 104/202/54 105/203/55 103/201/54
f 106/204/55 107/205/56 105/203/55
f 107/205/56 110/206/57 109/207/57
f 110/206/57 111/208/58 109/207/57
f 112/209/58 113/210/59 111/208/58
f 114/211/59 115/212/60 113/210/59
f 116/213/60 117/214/61 115/212/60
f 118/215/61 119/216/62 117/214/61
f 120/217/62 121/218/63 119/216/62
f 122/219/63 123/220/64 121/218/63
f 124/221/64 125/222/65 123/220/64
f 126/223/65 127/224/66 125/222/65
f 128/225/66 129/226/67 127/224/66
f 130/227/67 131/228/68 129/226/67
f 132/229/68 133/230/69 131/228/68
f 134/231/69 135/232/70 133/230/69
f 136/233/70 137/234/71 135/232/70
f 138/235/71 139/236/72 137/234/71
f 140/237/72 141/238/73 139/236/72
f 142/239/73 143/240/74 141/238/73
f 144/241/74 145/242/75 143/240/74
f 146/243/75 147/244/76 145/242/75
f 148/245/76 149/246/77 147/244/76
f 150/247/77 151/248/78 149/246/77
f 152/249/78 153/250/79 151/248/78
f 154/251/79 155/252/80 153/250/79
f 155/252/80 158/253/81 157/254/81
f 157/254/81 160/255/82 159/256/82
f 159/256/82 162/257/83 161/258/83
f 161/258/83 164/259/84 163/260/84
f 164/259/84 165/261/85 163/260/84
f 166/262/85 167/263/86 165/261/85
f 168/264/86 169/265/87 167/263/86
f 169/265/87 172/266/88 171/267/88
f 171/267/88 174/268/89 173/269/89
f 174/268/89 175/270/90 173/269/89
f 175/270/90 178/271/91 177/272/91
f 178/271/91 179/273/92 177/272/91
f 180/274/92 181/275/93 179/273/92
f 182/276/93 183/277/94 181/275/93
f 184/278/94 185/279/95 183/277/94
f 186/280/95 187/281/96 185/279/95
f 188/282/96 189/283/97 187/281/96
s 0
f 166/284/98 134/285/98 102/286/98
s 1
f 190/287/97 191/288/99 189/283/97
f 192/289/99 97/290/51 191/288/99
s 0
f 127/291/100 159/292/100 191/293/100
s 1
f 98/195/51 100/198/52 99/196/52
f 100/198/52 102/200/53 101/199/53
f 102/200/53 104/202/54 103/201/54
f 104/202/54 106/204/55 105/203/55
f 106/204/55 108/294/56 107/205/56
f 107/205/56 108/294/56 110/206/57
f 110/206/57 112/209/58 111/208/58
f 112/209/58 114/211/59 113/210/59
f 114/211/59 116/213/60 115/212/60
f 116/213/60 118/215/61 117/214/61
f 118/215/61 120/217/62 119/216/62
f 120/217/62 122/219/63 121/218/63
f 122/219/63 124/221/64 123/220/64
f 124/221/64 126/223/65 125/222/65
f 126/223/65 128/225/66 127/224/66
f 128/225/66 130/227/67 129/226/67
f 130/227/67 132/229/68 131/228/68
f 132/229/68 134/231/69 133/230/69
f 134/231/69 136/233/70 135/232/70
f 136/233/70 138/235/71 137/234/71
f 138/235/71 140/237/72 139/236/72
f 140/237/72 142/239/73 141/238/73
f 142/239/73 144/241/74 143/240/74
f 144/241/74 146/243/75 145/242/75
f 146/243/75 148/245/76 147/244/76
f 148/245/76 150/247/77 149/246/77
f 150/247/77 152/249/78 151/248/78
f 152/249/78 154/251/79 153/250/79
f 154/251/79 156/295/80 155/252/80
f 155/252/80 156/295/80 158/253/81
f 157/254/81 158/253/81 160/255/82
f 159/256/82 160/255/82 162/257/83
f 161/258/83 162/257/83 164/259/84
f 164/259/84 166/262/85 165/261/85
f 166/262/85 168/264/86 167/263/86
f 168/264/86 170/296/87 169/265/87
f 169/265/87 170/296/87 172/266/88
f 171/267/88 172/266/88 174/268/89
f 174/268/89 176/297/90 175/270/90
f 175/270/90 176/297/90 178/271/91
f 178/271/91 180/274/92 179/273/92
f 180/274/92 182/276/93 181/275/93
f 182/276/93 184/278/94 183/277/94
f 184/278/94 186/280/95 185/279/95
f 186/280/95 188/282/96 187/281/96
f 188/282/96 190/287/97 189/283/97
s 0
f 102/286/98 100/298/98 98/299/98
f 98/299/98 192/300/98 190/301/98
f 190/301/98 188/302/98 186/303/98
f 186/303/98 184/304/98 182/305/98
f 182/305/98 180/306/98 178/307/98
f 178/307/98 176/308/98 174/309/98
f 174/309/98 172/310/98 170/311/98
f 170/311/98 168/312/98 166/284/98
f 166/284/98 164/313/98 162/314/98
f 162/314/98 160/315/98 158/316/98
f 158/316/98 156/317/98 154/318/98
f 154/318/98 152/319/98 150/320/98
f 150/320/98 148/321/98 146/322/98
f 146/322/98 144/323/98 142/324/98
f 142/324/98 140/325/98 138/326/98
f 138/326/98 136/327/98 134/285/98
f 134/285/98 132/328/98 130/329/98
f 130/329/98 128/330/98 126/331/98
f 126/331/98 124/332/98 122/333/98
f 122/333/98 120/334/98 118/335/98
f 118/335/98 116/336/98 114/337/98
f 114/337/98 112/338/98 110/339/98
f 110/339/98 108/340/98 106/341/98
f 106/341/98 104/342/98 102/286/98
f 102/286/98 98/299/98 190/301/98
f 190/301/98 186/303/98 182/305/98
f 182/305/98 178/307/98 174/309/98
f 174/309/98 170/311/98 166/284/98
f 166/284/98 162/314/98 158/316/98
f 158/316/98 154/318/98 150/320/98
f 150/320/98 146/322/98 142/324/98
f 142/324/98 138/326/98 134/285/98
f 134/285/98 130/329/98 126/331/98
f 126/331/98 122/333/98 118/335/98
f 118/335/98 114/337/98 110/339/98
f 110/339/98 106/341/98 102/286/98
f 102/286/98 190/301/98 182/305/98
f 182/305/98 174/309/98 166/284/98
f 166/284/98 158/316/98 150/320/98
f 150/320/98 142/324/98 134/285/98
f 134/285/98 126/331/98 118/335/98
f 118/335/98 110/339/98 102/286/98
f 102/286/98 182/305/98 166/284/98
f 166/284/98 150/320/98 134/285/98
f 134/285/98 118/335/98 102/286/98
s 1
f 190/287/97 192/289/99 191/288/99
f 192/289/99 98/343/51 97/290/51
s 0
f 191/293/100 97/344/100 99/345/100
f 99/345/100 101/346/100 103/347/100
f 103/347/100 105/348/100 107/349/100
f 107/349/100 109/350/100 111/351/100
f 111/351/100 113/352/100 115/353/100
f 115/353/100 117/354/100 119/355/100
f 119/355/100 121/356/100 123/357/100
f 123/357/100 125/358/100 127/291/100
f 127/291/100 129/359/100 131/360/100
f 131/360/100 133/361/100 135/362/100
f 135/362/100 137/363/100 139/364/100
f 139/364/100 141/365/100 143/366/100
f 143/366/100 145/367/100 147/368/100
f 147/368/100 149/369/100 151/370/100
f 151/370/100 153/371/100 155/372/100
f 155/372/100 157/373/100 159/292/100
f 159/292/100 161/374/100 163/375/100
f 163/375/100 165/376/100 167/377/100
f 167/377/100 169/378/100 171/379/100
f 171/379/100 173/380/100 175/381/100
f 175/381/100 177/382/100 179/383/100
f 179/383/100 181/384/100 183/385/100
f 183/385/100 185/386/100 187/387/100
f 187/387/100 189/388/100 191/293/100
f 191/293/100 99/345/100 103/347/100
f 103/347/100 107/349/100 111/351/100
f 111/351/100 115/353/100 119/355/100
f 119/355/100 123/357/100 127/291/100
f 127/291/100 131/360/100 135/362/100
f 135/362/100 139/364/100 143/366/100
f 143/366/100 147/368/100 151/370/100
f 151/370/100 155/372/100 159/292/100
f 159/292/100 163/375/100 167/377/100
f 167/377/100 171/379/100 175/381/100
f 175/381/100 179/383/100 183/385/100
f 183/385/100 187/387/100 191/293/100
f 191/293/100 103/347/100 111/351/100
f 111/351/100 119/355/100 127/291/100
f 127/291/100 135/362/100 143/366/100
f 143/366/100 151/370/100 159/292/100
f 159/292/100 167/377/100 175/381/100
f 175/381/100 183/385/100 191/293/100
f 191/293/100 111/351/100 127/291/100
f 127/291/100 143/366/100 159/292/100
f 159/292/100 175/381/100 191/293/100
