# Blender 4.5.6 LTS
# www.blender.org
o export_Lower_optical_window
v 0.000000 0.175500 0.166000
v 0.000000 0.182500 0.166000
v -0.004699 0.175500 0.165692
v -0.004699 0.182500 0.165692
v -0.009317 0.175500 0.164773
v -0.009317 0.182500 0.164773
v -0.013777 0.175500 0.163260
v -0.013777 0.182500 0.163260
v -0.018000 0.175500 0.161177
v -0.018000 0.182500 0.161177
v -0.021915 0.175500 0.158561
v -0.021915 0.182500 0.158561
v -0.025456 0.175500 0.155456
v -0.025456 0.182500 0.155456
v -0.028561 0.175500 0.151915
v -0.028561 0.182500 0.151915
v -0.031177 0.175500 0.148000
v -0.031177 0.182500 0.148000
v -0.033260 0.175500 0.143777
v -0.033260 0.182500 0.143777
v -0.034773 0.175500 0.139317
v -0.034773 0.182500 0.139317
v -0.035692 0.175500 0.134699
v -0.035692 0.182500 0.134699
v -0.036000 0.175500 0.130000
v -0.036000 0.182500 0.130000
v -0.035692 0.175500 0.125301
v -0.035692 0.182500 0.125301
v -0.034773 0.175500 0.120683
v -0.034773 0.182500 0.120683
v -0.033260 0.175500 0.116223
v -0.033260 0.182500 0.116223
v -0.031177 0.175500 0.112000
v -0.031177 0.182500 0.112000
v -0.028561 0.175500 0.108085
v -0.028561 0.182500 0.108085
v -0.025456 0.175500 0.104544
v -0.025456 0.182500 0.104544
v -0.021915 0.175500 0.101439
v -0.021915 0.182500 0.101439
v -0.018000 0.175500 0.098823
v -0.018000 0.182500 0.098823
v -0.013777 0.175500 0.096740
v -0.013777 0.182500 0.096740
v -0.009317 0.175500 0.095227
v -0.009317 0.182500 0.095227
v -0.004699 0.175500 0.094308
v -0.004699 0.182500 0.094308
v 0.000000 0.175500 0.094000
v 0.000000 0.182500 0.094000
v 0.004699 0.175500 0.094308
v 0.004699 0.182500 0.094308
v 0.009317 0.175500 0.095227
v 0.009317 0.182500 0.095227
v 0.013777 0.175500 0.096740
v 0.013777 0.182500 0.096740
v 0.018000 0.175500 0.098823
v 0.018000 0.182500 0.098823
v 0.021915 0.175500 0.101439
v 0.021915 0.182500 0.101439
v 0.025456 0.175500 0.104544
v 0.025456 0.182500 0.104544
v 0.028561 0.175500 0.108085
v 0.028561 0.182500 0.108085
v 0.031177 0.175500 0.112000
v 0.031177 0.182500 0.112000
v 0.033260 0.175500 0.116223
v 0.033260 0.182500 0.116223
v 0.034773 0.175500 0.120683
v 0.034773 0.182500 0.120683
v 0.035692 0.175500 0.125301
v 0.035692 0.182500 0.125301
v 0.036000 0.175500 0.130000
v 0.036000 0.182500 0.130000
v 0.035692 0.175500 0.134699
v 0.035692 0.182500 0.134699
v 0.034773 0.175500 0.139317
v 0.034773 0.182500 0.139317
v 0.033260 0.175500 0.143777
v 0.033260 0.182500 0.143777
v 0.031177 0.175500 0.148000
v 0.031177 0.182500 0.148000
v 0.028561 0.175500 0.151915
v 0.028561 0.182500 0.151915
v 0.025456 0.175500 0.155456
v 0.025456 0.182500 0.155456
v 0.021915 0.175500 0.158561
v 0.021915 0.182500 0.158561
v 0.018000 0.175500 0.161177
v 0.018000 0.182500 0.161177
v 0.013777 0.175500 0.163260
v 0.013777 0.182500 0.163260
v 0.009317 0.175500 0.164773
v 0.009317 0.182500 0.164773
v 0.004699 0.175500 0.165692
v 0.004699 0.182500 0.165692
vn -0.0000 -0.0000 1.0000
vn -0.1305 -0.0000 0.9914
vn -0.2588 -0.0000 0.9659
vn -0.3827 -0.0000 0.9239
vn -0.5000 -0.0000 0.8660
vn -0.6088 -0.0000 0.7934
vn -0.7071 -0.0000 0.7071
vn -0.7934 -0.0000 0.6088
vn -0.8660 -0.0000 0.5000
vn -0.9239 -0.0000 0.3827
vn -0.9659 -0.0000 0.2588
vn -0.9914 -0.0000 0.1305
vn -1.0000 -0.0000 -0.0000
vn -0.9914 -0.0000 -0.1305
vn -0.9659 -0.0000 -0.2588
vn -0.9239 -0.0000 -0.3827
vn -0.8660 -0.0000 -0.5000
vn -0.7934 -0.0000 -0.6088
vn -0.7071 -0.0000 -0.7071
vn -0.6088 -0.0000 -0.7934
vn -0.5000 -0.0000 -0.8660
vn -0.3827 -0.0000 -0.9239
vn -0.2588 -0.0000 -0.9659
vn -0.1305 -0.0000 -0.9914
vn -0.0000 -0.0000 -1.0000
vn 0.1305 -0.0000 -0.9914
vn 0.2588 -0.0000 -0.9659
vn 0.3827 -0.0000 -0.9239
vn 0.5000 -0.0000 -0.8660
vn 0.6088 -0.0000 -0.7934
vn 0.7071 -0.0000 -0.7071
vn 0.7934 -0.0000 -0.6088
vn 0.8660 -0.0000 -0.5000
vn 0.9239 -0.0000 -0.3827
vn 0.9659 -0.0000 -0.2588
vn 0.9914 -0.0000 -0.1305
vn 1.0000 -0.0000 -0.0000
vn 0.9914 -0.0000 0.1305
vn 0.9659 -0.0000 0.2588
vn 0.9239 -0.0000 0.3827
vn 0.8660 -0.0000 0.5000
vn 0.7934 -0.0000 0.6088
vn 0.7071 -0.0000 0.7071
vn 0.6088 -0.0000 0.7934
vn 0.5000 -0.0000 0.8660
vn 0.3827 -0.0000 0.9239
vn 0.2588 -0.0000 0.9659
vn -0.0000 1.0000 -0.0000
vn 0.1305 -0.0000 0.9914
vn -0.0000 -1.0000 -0.0000
vn -0.0000 -1.0000 0.0001
vn -0.0000 -1.0000 -0.0001
vt 1.000000 1.000000
vt 0.979167 0.500000
vt 1.000000 0.500000
vt 0.958333 1.000000
vt 0.958333 0.500000
vt 0.937500 0.500000
vt 0.937500 1.000000
vt 0.916667 0.500000
vt 0.916667 1.000000
vt 0.895833 0.500000
vt 0.895833 1.000000
vt 0.875000 0.500000
vt 0.875000 1.000000
vt 0.854167 0.500000
vt 0.854167 1.000000
vt 0.833333 0.500000
vt 0.833333 1.000000
vt 0.812500 0.500000
vt 0.812500 1.000000
vt 0.791667 0.500000
vt 0.791667 1.000000
vt 0.770834 0.500000
vt 0.770834 1.000000
vt 0.750000 0.500000
vt 0.750000 1.000000
vt 0.729167 0.500000
vt 0.729167 1.000000
vt 0.708334 0.500000
vt 0.708334 1.000000
vt 0.687500 0.500000
vt 0.687500 1.000000
vt 0.666667 0.500000
vt 0.666667 1.000000
vt 0.645834 0.500000
vt 0.645834 1.000000
vt 0.625000 0.500000
vt 0.625000 1.000000
vt 0.604167 0.500000
vt 0.604167 1.000000
vt 0.583334 0.500000
vt 0.583334 1.000000
vt 0.562500 0.500000
vt 0.562500 1.000000
vt 0.541667 0.500000
vt 0.541667 1.000000
vt 0.520834 0.500000
vt 0.520834 1.000000
vt 0.500000 0.500000
vt 0.500000 1.000000
vt 0.479167 0.500000
vt 0.479167 1.000000
vt 0.458334 0.500000
vt 0.458334 1.000000
vt 0.437500 0.500000
vt 0.416667 1.000000
vt 0.416667 0.500000
vt 0.395834 1.000000
vt 0.395834 0.500000
vt 0.375000 0.500000
vt 0.354167 1.000000
vt 0.354167 0.500000
vt 0.333334 1.000000
vt 0.333334 0.500000
vt 0.312500 1.000000
vt 0.312500 0.500000
vt 0.291667 1.000000
vt 0.291667 0.500000
vt 0.270834 0.500000
vt 0.270834 1.000000
vt 0.250000 0.500000
vt 0.250000 1.000000
vt 0.229167 0.500000
vt 0.229167 1.000000
vt 0.208334 0.500000
vt 0.208334 1.000000
vt 0.187500 0.500000
vt 0.166667 1.000000
vt 0.166667 0.500000
vt 0.145834 1.000000
vt 0.145834 0.500000
vt 0.125000 0.500000
vt 0.125000 1.000000
vt 0.104167 0.500000
vt 0.104167 1.000000
vt 0.083334 0.500000
vt 0.083334 1.000000
vt 0.062500 0.500000
vt 0.062500 1.000000
vt 0.041667 0.500000
vt 0.018178 0.187883
vt 0.419706 0.080294
vt 0.312117 0.481822
vt 0.041667 1.000000
vt 0.020834 0.500000
vt 0.000000 1.000000
vt 0.000000 0.500000
vt 0.971731 0.158156
vt 0.559595 0.103897
vt 0.718674 0.487947
vt 0.979167 1.000000
vt 0.437500 1.000000
vt 0.375000 1.000000
vt 0.187500 1.000000
vt 0.281326 0.487947
vt 0.250000 0.490000
vt 0.218674 0.487947
vt 0.187883 0.481822
vt 0.158156 0.471731
vt 0.130000 0.457846
vt 0.103897 0.440405
vt 0.080294 0.419706
vt 0.059595 0.396103
vt 0.042154 0.370000
vt 0.028269 0.341844
vt 0.018178 0.312117
vt 0.012053 0.281326
vt 0.010000 0.250000
vt 0.012053 0.218674
vt 0.028269 0.158156
vt 0.042154 0.130000
vt 0.059595 0.103897
vt 0.080294 0.080294
vt 0.103897 0.059595
vt 0.130000 0.042154
vt 0.158156 0.028269
vt 0.187883 0.018178
vt 0.218674 0.012053
vt 0.250000 0.010000
vt 0.281326 0.012053
vt 0.312117 0.018178
vt 0.341844 0.028269
vt 0.370000 0.042154
vt 0.396103 0.059595
vt 0.440405 0.103897
vt 0.457846 0.130000
vt 0.471731 0.158156
vt 0.481822 0.187883
vt 0.487947 0.218674
vt 0.490000 0.250000
vt 0.487947 0.281326
vt 0.481822 0.312117
vt 0.471731 0.341844
vt 0.457846 0.370000
vt 0.440405 0.396103
vt 0.419706 0.419706
vt 0.396103 0.440405
vt 0.370000 0.457846
vt 0.341844 0.471731
vt 0.020834 1.000000
vt 0.750000 0.490000
vt 0.781326 0.487947
vt 0.812117 0.481822
vt 0.841844 0.471731
vt 0.870000 0.457846
vt 0.896103 0.440405
vt 0.919706 0.419706
vt 0.940405 0.396103
vt 0.957846 0.370000
vt 0.971731 0.341844
vt 0.981822 0.312117
vt 0.987947 0.281326
vt 0.990000 0.250000
vt 0.987947 0.218674
vt 0.981822 0.187883
vt 0.957846 0.130000
vt 0.940405 0.103897
vt 0.919706 0.080294
vt 0.896103 0.059595
vt 0.870000 0.042154
vt 0.841844 0.028269
vt 0.812117 0.018178
vt 0.781326 0.012053
vt 0.750000 0.010000
vt 0.718674 0.012053
vt 0.687883 0.018178
vt 0.658156 0.028269
vt 0.630000 0.042154
vt 0.603897 0.059595
vt 0.580294 0.080294
vt 0.542154 0.130000
vt 0.528269 0.158156
vt 0.518178 0.187883
vt 0.512053 0.218674
vt 0.510000 0.250000
vt 0.512053 0.281326
vt 0.518178 0.312117
vt 0.528269 0.341844
vt 0.542154 0.370000
vt 0.559595 0.396103
vt 0.580294 0.419706
vt 0.603897 0.440405
vt 0.630000 0.457846
vt 0.658156 0.471731
vt 0.687883 0.481822
s 1
f 2/1/1 3/2/2 1/3/1
f 3/2/2 6/4/3 5/5/3
f 6/4/3 7/6/4 5/5/3
f 8/7/4 9/8/5 7/6/4
f 10/9/5 11/10/6 9/8/5
f 12/11/6 13/12/7 11/10/6
f 14/13/7 15/14/8 13/12/7
f 16/15/8 17/16/9 15/14/8
f 18/17/9 19/18/10 17/16/9
f 20/19/10 21/20/11 19/18/10
f 22/21/11 23/22/12 21/20/11
f 24/23/12 25/24/13 23/22/12
f 26/25/13 27/26/14 25/24/13
f 28/27/14 29/28/15 27/26/14
f 30/29/15 31/30/16 29/28/15
f 32/31/16 33/32/17 31/30/16
f 34/33/17 35/34/18 33/32/17
f 36/35/18 37/36/19 35/34/18
f 38/37/19 39/38/20 37/36/19
f 40/39/20 41/40/21 39/38/20
f 42/41/21 43/42/22 41/40/21
f 44/43/22 45/44/23 43/42/22
f 46/45/23 47/46/24 45/44/23
f 48/47/24 49/48/25 47/46/24
f 50/49/25 51/50/26 49/48/25
f 52/51/26 53/52/27 51/50/26
f 54/53/27 55/54/28 53/52/27
f 55/54/28 58/55/29 57/56/29
f 57/56/29 60/57/30 59/58/30
f 60/57/30 61/59/31 59/58/30
f 61/59/31 64/60/32 63/61/32
f 63/61/32 66/62/33 65/63/33
f 65/63/33 68/64/34 67/65/34
f 67/65/34 70/66/35 69/67/35
f 70/66/35 71/68/36 69/67/35
f 72/69/36 73/70/37 71/68/36
f 74/71/37 75/72/38 73/70/37
f 76/73/38 77/74/39 75/72/38
f 78/75/39 79/76/40 77/74/39
f 79/76/40 82/77/41 81/78/41
f 81/78/41 84/79/42 83/80/42
f 84/79/42 85/81/43 83/80/42
f 86/82/43 87/83/44 85/81/43
f 88/84/44 89/85/45 87/83/44
f 90/86/45 91/87/46 89/85/45
f 92/88/46 93/89/47 91/87/46
s 0
f 70/90/48 38/91/48 6/92/48
s 1
f 94/93/47 95/94/49 93/89/47
f 95/94/49 2/95/1 1/96/1
s 0
f 31/97/50 63/98/50 95/99/50
s 1
f 2/1/1 4/100/2 3/2/2
f 3/2/2 4/100/2 6/4/3
f 6/4/3 8/7/4 7/6/4
f 8/7/4 10/9/5 9/8/5
f 10/9/5 12/11/6 11/10/6
f 12/11/6 14/13/7 13/12/7
f 14/13/7 16/15/8 15/14/8
f 16/15/8 18/17/9 17/16/9
f 18/17/9 20/19/10 19/18/10
f 20/19/10 22/21/11 21/20/11
f 22/21/11 24/23/12 23/22/12
f 24/23/12 26/25/13 25/24/13
f 26/25/13 28/27/14 27/26/14
f 28/27/14 30/29/15 29/28/15
f 30/29/15 32/31/16 31/30/16
f 32/31/16 34/33/17 33/32/17
f 34/33/17 36/35/18 35/34/18
f 36/35/18 38/37/19 37/36/19
f 38/37/19 40/39/20 39/38/20
f 40/39/20 42/41/21 41/40/21
f 42/41/21 44/43/22 43/42/22
f 44/43/22 46/45/23 45/44/23
f 46/45/23 48/47/24 47/46/24
f 48/47/24 50/49/25 49/48/25
f 50/49/25 52/51/26 51/50/26
f 52/51/26 54/53/27 53/52/27
f 54/53/27 56/101/28 55/54/28
f 55/54/28 56/101/28 58/55/29
f 57/56/29 58/55/29 60/57/30
f 60/57/30 62/102/31 61/59/31
f 61/59/31 62/102/31 64/60/32
f 63/61/32 64/60/32 66/62/33
f 65/63/33 66/62/33 68/64/34
f 67/65/34 68/64/34 70/66/35
f 70/66/35 72/69/36 71/68/36
f 72/69/36 74/71/37 73/70/37
f 74/71/37 76/73/38 75/72/38
f 76/73/38 78/75/39 77/74/39
f 78/75/39 80/103/40 79/76/40
f 79/76/40 80/103/40 82/77/41
f 81/78/41 82/77/41 84/79/42
f 84/79/42 86/82/43 85/81/43
f 86/82/43 88/84/44 87/83/44
f 88/84/44 90/86/45 89/85/45
f 90/86/45 92/88/46 91/87/46
f 92/88/46 94/93/47 93/89/47
s 0
f 6/92/48 4/104/48 2/105/48
f 2/105/48 96/106/48 94/107/48
f 94/107/48 92/108/48 90/109/48
f 90/109/48 88/110/48 86/111/48
f 86/111/48 84/112/48 82/113/48
f 82/113/48 80/114/48 78/115/48
f 78/115/48 76/116/48 74/117/48
f 74/117/48 72/118/48 70/90/48
f 70/90/48 68/119/48 66/120/48
f 66/120/48 64/121/48 62/122/48
f 62/122/48 60/123/48 58/124/48
f 58/124/48 56/125/48 54/126/48
f 54/126/48 52/127/48 50/128/48
f 50/128/48 48/129/48 46/130/48
f 46/130/48 44/131/48 42/132/48
f 42/132/48 40/133/48 38/91/48
f 38/91/48 36/134/48 34/135/48
f 34/135/48 32/136/48 30/137/48
f 30/137/48 28/138/48 26/139/48
f 26/139/48 24/140/48 22/141/48
f 22/141/48 20/142/48 18/143/48
f 18/143/48 16/144/48 14/145/48
f 14/145/48 12/146/48 10/147/48
f 10/147/48 8/148/48 6/92/48
f 6/92/48 2/105/48 94/107/48
f 94/107/48 90/109/48 86/111/48
f 86/111/48 82/113/48 78/115/48
f 78/115/48 74/117/48 70/90/48
f 70/90/48 66/120/48 62/122/48
f 62/122/48 58/124/48 54/126/48
f 54/126/48 50/128/48 46/130/48
f 46/130/48 42/132/48 38/91/48
f 38/91/48 34/135/48 30/137/48
f 30/137/48 26/139/48 22/141/48
f 22/141/48 18/143/48 14/145/48
f 14/145/48 10/147/48 6/92/48
f 6/92/48 94/107/48 86/111/48
f 86/111/48 78/115/48 70/90/48
f 70/90/48 62/122/48 54/126/48
f 54/126/48 46/130/48 38/91/48
f 38/91/48 30/137/48 22/141/48
f 22/141/48 14/145/48 6/92/48
f 6/92/48 86/111/48 70/90/48
f 70/90/48 54/126/48 38/91/48
f 38/91/48 22/141/48 6/92/48
s 1
f 94/93/47 96/149/49 95/94/49
f 95/94/49 96/149/49 2/95/1
s 0
f 95/99/50 1/150/50 3/151/50
f 3/151/51 5/152/51 7/153/51
f 7/153/50 9/154/50 11/155/50
f 11/155/50 13/156/50 15/157/50
f 15/157/50 17/158/50 19/159/50
f 19/159/50 21/160/50 23/161/50
f 23/161/50 25/162/50 27/163/50
f 27/163/50 29/164/50 31/97/50
f 31/97/50 33/165/50 35/166/50
f 35/166/50 37/167/50 39/168/50
f 39/168/50 41/169/50 43/170/50
f 43/170/52 45/171/52 47/172/52
f 47/172/50 49/173/50 51/174/50
f 51/174/52 53/175/52 55/176/52
f 55/176/50 57/177/50 59/178/50
f 59/178/50 61/179/50 63/98/50
f 63/98/50 65/180/50 67/181/50
f 67/181/50 69/182/50 71/183/50
f 71/183/50 73/184/50 75/185/50
f 75/185/50 77/186/50 79/187/50
f 79/187/50 81/188/50 83/189/50
f 83/189/50 85/190/50 87/191/50
f 87/191/50 89/192/50 91/193/50
f 91/193/51 93/194/51 95/99/51
f 95/99/50 3/151/50 7/153/50
f 7/153/50 11/155/50 15/157/50
f 15/157/50 19/159/50 23/161/50
f 23/161/50 27/163/50 31/97/50
f 31/97/50 35/166/50 39/168/50
f 39/168/50 43/170/50 47/172/50
f 47/172/50 51/174/50 55/176/50
f 55/176/50 59/178/50 63/98/50
f 63/98/50 67/181/50 71/183/50
f 71/183/50 75/185/50 79/187/50
f 79/187/50 83/189/50 87/191/50
f 87/191/50 91/193/50 95/99/50
f 95/99/50 7/153/50 15/157/50
f 15/157/50 23/161/50 31/97/50
f 31/97/50 39/168/50 47/172/50
f 47/172/50 55/176/50 63/98/50
f 63/98/50 71/183/50 79/187/50
f 79/187/50 87/191/50 95/99/50
f 95/99/50 15/157/50 31/97/50
f 31/97/50 47/172/50 63/98/50
f 63/98/50 79/187/50 95/99/50
