# Blender 4.5.6 LTS
# www.blender.org
o export_thruster_0_left_rotor
v -0.001500 0.014000 -0.005000
v 0.002500 0.043000 -0.010000
v 0.002500 0.045000 0.004000
v -0.001500 0.018000 0.007000
v 0.001500 0.014000 -0.005000
v 0.005500 0.043000 -0.010000
v 0.005500 0.045000 0.004000
v 0.001500 0.018000 0.007000
v -0.001500 -0.002670 0.014624
v 0.002500 -0.012840 0.042239
v 0.002500 -0.025964 0.036971
v -0.001500 -0.015062 0.012088
v 0.001500 -0.002670 0.014624
v 0.005500 -0.012840 0.042239
v 0.005500 -0.025964 0.036971
v 0.001500 -0.015062 0.012088
v -0.001500 -0.011330 -0.009624
v 0.002500 -0.030160 -0.032239
v 0.002500 -0.019036 -0.040971
v -0.001500 -0.002938 -0.019088
v 0.001500 -0.011330 -0.009624
v 0.005500 -0.030160 -0.032239
v 0.005500 -0.019036 -0.040971
v 0.001500 -0.002938 -0.019088
vn -0.9907 0.1292 -0.0431
vn 0.9907 -0.1292 0.0431
vn -0.0000 -0.1699 -0.9855
vn -0.0000 0.9899 -0.1414
vn -0.0000 0.1104 0.9939
vn -0.0000 -0.9487 0.3162
vn -0.9907 -0.0273 0.1334
vn 0.9907 0.0273 -0.1334
vn -0.0000 0.9384 0.3456
vn -0.0000 -0.3725 0.9280
vn -0.0000 -0.9159 -0.4013
vn -0.0000 0.2005 -0.9797
vn -0.9907 -0.1019 -0.0904
vn 0.9907 0.1019 0.0904
vn -0.0000 -0.7685 0.6399
vn -0.0000 -0.6174 -0.7866
vn -0.0000 0.8055 -0.5926
vn -0.0000 0.7482 0.6635
vn -0.9893 0.1443 -0.0206
vn 0.9893 -0.1443 0.0206
vn -0.9893 -0.0543 0.1353
vn 0.9893 0.0543 -0.1353
vn -0.9893 -0.0900 -0.1146
vn 0.9893 0.0900 0.1146
s 0
f 4//1 2//1 1//1
f 6//2 8//2 5//2
f 2//3 5//3 1//3
f 3//4 6//4 2//4
f 3//5 8//5 7//5
f 1//6 8//6 4//6
f 12//7 10//7 9//7
f 14//8 16//8 13//8
f 10//9 13//9 9//9
f 11//10 14//10 10//10
f 11//11 16//11 15//11
f 9//12 16//12 12//12
f 20//13 18//13 17//13
f 22//14 24//14 21//14
f 18//15 21//15 17//15
f 19//16 22//16 18//16
f 19//17 24//17 23//17
f 17//18 24//18 20//18
f 4//19 3//19 2//19
f 6//20 7//20 8//20
f 2//3 6//3 5//3
f 3//4 7//4 6//4
f 3//5 4//5 8//5
f 1//6 5//6 8//6
f 12//21 11//21 10//21
f 14//22 15//22 16//22
f 10//9 14//9 13//9
f 11//10 15//10 14//10
f 11//11 12//11 16//11
f 9//12 13//12 16//12
f 20//23 19//23 18//23
f 22//24 23//24 24//24
f 18//15 22//15 21//15
f 19//16 23//16 22//16
f 19//17 20//17 24//17
f 17//18 21//18 24//18
