# Exported from Blender by blender_stonefish_plugin
# Vertices: 136, Faces: 208

v 0.000000 -0.300000 0.300000
v 0.000000 -0.300000 -0.300000
v 0.000000 0.300000 0.300000
v 0.000000 0.300000 -0.300000
v -0.010000 -0.300000 0.300000
v -0.010000 -0.300000 -0.300000
v -0.010000 0.300000 0.300000
v -0.010000 0.300000 -0.300000
v 0.000000 -0.148589 0.109503
v 0.000000 -0.149569 0.119453
v 0.000000 -0.145687 0.099936
v 0.000000 -0.145687 0.138969
v 0.000000 -0.148589 0.129402
v 0.000000 -0.126903 0.077048
v 0.000000 -0.134632 0.083390
v 0.000000 -0.108519 0.069433
v 0.000000 -0.088620 0.069433
v 0.000000 -0.098569 0.068453
v 0.000000 -0.118086 0.072335
v 0.000000 -0.140974 0.091119
v 0.000000 0.056758 -0.074345
v 0.000000 0.065353 -0.102679
v 0.000000 0.060640 -0.093862
v 0.000000 0.057738 -0.084294
v 0.000000 0.057738 -0.064395
v 0.000000 -0.079052 0.072335
v 0.000000 0.088241 -0.121463
v 0.000000 0.079424 -0.116750
v 0.000000 0.107758 -0.125345
v 0.000000 0.117708 -0.124365
v 0.000000 0.097808 -0.124365
v 0.000000 0.071696 -0.110407
v 0.000000 -0.140974 0.147787
v 0.000000 -0.126903 0.161858
v 0.000000 -0.134632 0.155515
v 0.000000 -0.118086 0.166570
v 0.000000 -0.098569 0.170453
v 0.000000 -0.108519 0.169473
v 0.000000 -0.079052 0.166570
v 0.000000 -0.088620 0.169473
v 0.000000 -0.056164 0.147787
v 0.000000 -0.062507 0.083390
v 0.000000 -0.062507 0.155515
v 0.000000 -0.051451 0.099936
v 0.000000 -0.047569 0.119453
v 0.000000 -0.048549 0.109503
v 0.000000 -0.048549 0.129402
v 0.000000 -0.056164 0.091119
v 0.000000 -0.051451 0.138969
v 0.000000 -0.070235 0.077048
v 0.000000 -0.070235 0.161858
v 0.000000 0.065353 -0.046011
v 0.000000 0.079424 -0.031940
v 0.000000 0.088241 -0.027227
v 0.000000 0.071696 -0.038282
v 0.000000 0.117708 -0.024325
v 0.000000 0.107758 -0.023345
v 0.000000 0.127275 -0.121463
v 0.000000 0.127275 -0.027227
v 0.000000 0.097808 -0.024325
v 0.000000 0.150163 -0.102679
v 0.000000 0.150163 -0.046011
v 0.000000 0.143820 -0.110407
v 0.000000 0.143820 -0.038282
v 0.000000 0.158758 -0.074345
v 0.000000 0.157778 -0.064395
v 0.000000 0.154876 -0.093862
v 0.000000 0.157778 -0.084294
v 0.000000 0.154876 -0.054828
v 0.000000 0.136092 -0.031940
v 0.000000 0.136092 -0.116750
v 0.000000 0.060640 -0.054828
v -0.010000 -0.140974 0.147787
v -0.010000 -0.134632 0.155515
v -0.010000 -0.118086 0.166570
v -0.010000 -0.126903 0.161858
v -0.010000 -0.098569 0.170453
v -0.010000 -0.079052 0.166570
v -0.010000 -0.088620 0.169473
v -0.010000 -0.108519 0.169473
v -0.010000 -0.056164 0.091119
v -0.010000 -0.056164 0.147787
v -0.010000 -0.062507 0.083390
v -0.010000 -0.062507 0.155515
v -0.010000 -0.047569 0.119453
v -0.010000 -0.048549 0.109503
v -0.010000 -0.048549 0.129402
v -0.010000 -0.051451 0.099936
v -0.010000 -0.051451 0.138969
v -0.010000 0.060640 -0.054828
v -0.010000 -0.070235 0.077048
v -0.010000 -0.070235 0.161858
v -0.010000 0.071696 -0.038282
v -0.010000 0.065353 -0.046011
v -0.010000 0.097808 -0.024325
v -0.010000 0.088241 -0.027227
v -0.010000 0.079424 -0.031940
v -0.010000 0.117708 -0.024325
v -0.010000 0.127275 -0.121463
v -0.010000 0.127275 -0.027227
v -0.010000 0.107758 -0.023345
v -0.010000 0.150163 -0.102679
v -0.010000 0.150163 -0.046011
v -0.010000 0.143820 -0.110407
v -0.010000 0.143820 -0.038282
v -0.010000 0.158758 -0.074345
v -0.010000 0.157778 -0.064395
v -0.010000 0.154876 -0.093862
v -0.010000 0.157778 -0.084294
v -0.010000 0.154876 -0.054828
v -0.010000 0.136092 -0.031940
v -0.010000 0.136092 -0.116750
v -0.010000 -0.148589 0.109503
v -0.010000 -0.149569 0.119453
v -0.010000 -0.145687 0.138969
v -0.010000 -0.145687 0.099936
v -0.010000 -0.148589 0.129402
v -0.010000 -0.140974 0.091119
v -0.010000 -0.126903 0.077048
v -0.010000 -0.134632 0.083390
v -0.010000 -0.098569 0.068453
v -0.010000 -0.108519 0.069433
v -0.010000 -0.118086 0.072335
v -0.010000 -0.079052 0.072335
v -0.010000 0.056758 -0.074345
v -0.010000 0.060640 -0.093862
v -0.010000 0.057738 -0.084294
v -0.010000 0.057738 -0.064395
v -0.010000 0.071696 -0.110407
v -0.010000 0.088241 -0.121463
v -0.010000 0.079424 -0.116750
v -0.010000 0.117708 -0.124365
v -0.010000 0.097808 -0.124365
v -0.010000 0.107758 -0.125345
v -0.010000 0.065353 -0.102679
v -0.010000 -0.088620 0.069433

vt 0.380507 0.563804
vt 0.367627 0.553233
vt 0.593607 0.348136
vt 0.367627 0.694583
vt 0.380507 0.684012
vt 1.000000 1.000000
vt 0.734957 0.348136
vt 0.724386 0.361016
vt 1.000000 1.000000
vt 0.585752 0.333440
vt 0.367627 0.553233
vt 0.593607 0.348136
vt 0.000000 0.000000
vt 0.000000 0.000000
vt 1.000000 0.000000
vt 1.000000 0.000000
vt 1.000000 0.000000
vt 1.000000 0.000000
vt 1.000000 1.000000
vt 1.000000 1.000000
vt 1.000000 1.000000
vt 1.000000 1.000000
vt 0.000000 1.000000
vt 0.000000 1.000000
vt 0.000000 1.000000
vt 0.000000 1.000000
vt 0.000000 0.000000
vt 0.000000 0.000000
vt 0.300813 0.666979
vt 0.300813 0.664097
vt 0.339977 0.664097
vt 0.339977 0.666979
vt 0.300813 0.664097
vt 0.300813 0.661214
vt 0.339977 0.661214
vt 0.339977 0.664097
vt 0.300813 0.661214
vt 0.300813 0.658332
vt 0.339977 0.658332
vt 0.339977 0.661214
vt 0.300813 0.658332
vt 0.300813 0.655450
vt 0.339977 0.655450
vt 0.339977 0.658332
vt 0.300813 0.655450
vt 0.300813 0.652568
vt 0.339977 0.652568
vt 0.339977 0.655450
vt 0.300813 0.652568
vt 0.300813 0.649686
vt 0.339977 0.649686
vt 0.339977 0.652568
vt 0.300813 0.649686
vt 0.300813 0.646804
vt 0.339977 0.646804
vt 0.339977 0.649686
vt 0.300813 0.646804
vt 0.300813 0.643921
vt 0.339977 0.643921
vt 0.339977 0.646804
vt 0.339977 0.641039
vt 0.339977 0.643921
vt 0.300813 0.643921
vt 0.300813 0.641039
vt 0.339977 0.638157
vt 0.339977 0.641039
vt 0.300813 0.641039
vt 0.300813 0.638157
vt 0.339977 0.635275
vt 0.339977 0.638157
vt 0.300813 0.638157
vt 0.300813 0.635275
vt 0.339977 0.632393
vt 0.339977 0.635275
vt 0.300813 0.635275
vt 0.300813 0.632393
vt 0.300813 0.632393
vt 0.300813 0.629511
vt 0.339977 0.629511
vt 0.339977 0.632393
vt 0.300813 0.629511
vt 0.300813 0.626629
vt 0.339977 0.626629
vt 0.339977 0.629511
vt 0.300813 0.626629
vt 0.300813 0.623746
vt 0.339977 0.623746
vt 0.339977 0.626629
vt 0.300813 0.623746
vt 0.300813 0.620864
vt 0.339977 0.620864
vt 0.339977 0.623746
vt 0.300813 0.620864
vt 0.300813 0.617982
vt 0.339977 0.617982
vt 0.339977 0.620864
vt 0.300813 0.617982
vt 0.300813 0.615100
vt 0.339977 0.615100
vt 0.339977 0.617982
vt 0.300813 0.615100
vt 0.300813 0.612218
vt 0.339977 0.612218
vt 0.339977 0.615100
vt 0.300813 0.612218
vt 0.300813 0.609336
vt 0.339977 0.609336
vt 0.339977 0.612218
vt 0.300813 0.609336
vt 0.300813 0.606454
vt 0.339977 0.606454
vt 0.339977 0.609336
vt 0.339977 0.606454
vt 0.300813 0.606454
vt 0.300813 0.603571
vt 0.339977 0.603571
vt 0.300813 0.603571
vt 0.300813 0.600689
vt 0.339977 0.600689
vt 0.339977 0.603571
vt 0.300813 0.600689
vt 0.300813 0.597807
vt 0.339977 0.597807
vt 0.339977 0.600689
vt 0.339977 0.597807
vt 0.300813 0.597807
vt 0.300813 0.594925
vt 0.339977 0.594925
vt 0.339977 0.594925
vt 0.300813 0.594925
vt 0.300813 0.592043
vt 0.339977 0.592043
vt 0.339977 0.592043
vt 0.300813 0.592043
vt 0.300813 0.589161
vt 0.339977 0.589161
vt 0.339977 0.589161
vt 0.300813 0.589161
vt 0.300813 0.586279
vt 0.339977 0.586279
vt 0.300813 0.586279
vt 0.300813 0.583396
vt 0.339977 0.583396
vt 0.339977 0.586279
vt 0.300813 0.583396
vt 0.300813 0.580514
vt 0.339977 0.580514
vt 0.339977 0.583396
vt 0.300813 0.580514
vt 0.300813 0.577632
vt 0.339977 0.577632
vt 0.339977 0.580514
vt 0.300813 0.577632
vt 0.300813 0.574750
vt 0.339977 0.574750
vt 0.339977 0.577632
vt 0.300813 0.666979
vt 0.300813 0.664097
vt 0.339977 0.664097
vt 0.339977 0.666979
vt 0.339977 0.661214
vt 0.339977 0.664097
vt 0.300813 0.664097
vt 0.300813 0.661214
vt 0.300813 0.661214
vt 0.300813 0.658332
vt 0.339977 0.658332
vt 0.339977 0.661214
vt 0.300813 0.658332
vt 0.300813 0.655450
vt 0.339977 0.655450
vt 0.339977 0.658332
vt 0.300813 0.655450
vt 0.300813 0.652568
vt 0.339977 0.652568
vt 0.339977 0.655450
vt 0.300813 0.652568
vt 0.300814 0.649686
vt 0.339977 0.649686
vt 0.339977 0.652568
vt 0.300814 0.649686
vt 0.300813 0.646804
vt 0.339977 0.646804
vt 0.339977 0.649686
vt 0.300813 0.646804
vt 0.300813 0.643921
vt 0.339977 0.643921
vt 0.339977 0.646804
vt 0.339977 0.641039
vt 0.339977 0.643921
vt 0.300813 0.643921
vt 0.300814 0.641039
vt 0.339977 0.638157
vt 0.339977 0.641039
vt 0.300814 0.641039
vt 0.300813 0.638157
vt 0.339977 0.635275
vt 0.339977 0.638157
vt 0.300813 0.638157
vt 0.300814 0.635275
vt 0.339977 0.632393
vt 0.339977 0.635275
vt 0.300814 0.635275
vt 0.300813 0.632393
vt 0.300813 0.632393
vt 0.300813 0.629511
vt 0.339977 0.629511
vt 0.339977 0.632393
vt 0.300813 0.629511
vt 0.300813 0.626629
vt 0.339977 0.626629
vt 0.339977 0.629511
vt 0.300813 0.626629
vt 0.300813 0.623746
vt 0.339977 0.623746
vt 0.339977 0.626629
vt 0.300813 0.623746
vt 0.300813 0.620864
vt 0.339977 0.620864
vt 0.339977 0.623746
vt 0.300813 0.620864
vt 0.300814 0.617982
vt 0.339977 0.617982
vt 0.339977 0.620864
vt 0.300814 0.617982
vt 0.300814 0.615100
vt 0.339977 0.615100
vt 0.339977 0.617982
vt 0.300814 0.615100
vt 0.300814 0.612218
vt 0.339977 0.612218
vt 0.339977 0.615100
vt 0.300814 0.612218
vt 0.300814 0.609336
vt 0.339977 0.609336
vt 0.339977 0.612218
vt 0.300814 0.609336
vt 0.300814 0.606454
vt 0.339977 0.606454
vt 0.339977 0.609336
vt 0.300814 0.606454
vt 0.300814 0.603571
vt 0.339977 0.603571
vt 0.339977 0.606454
vt 0.300814 0.603571
vt 0.300814 0.600689
vt 0.339977 0.600689
vt 0.339977 0.603571
vt 0.300814 0.600689
vt 0.300814 0.597807
vt 0.339977 0.597807
vt 0.339977 0.600689
vt 0.339977 0.597807
vt 0.300814 0.597807
vt 0.300814 0.594925
vt 0.339977 0.594925
vt 0.339977 0.594925
vt 0.300814 0.594925
vt 0.300814 0.592043
vt 0.339977 0.592043
vt 0.339977 0.592043
vt 0.300814 0.592043
vt 0.300814 0.589161
vt 0.339977 0.589161
vt 0.339977 0.589161
vt 0.300814 0.589161
vt 0.300814 0.586279
vt 0.339977 0.586279
vt 0.300814 0.586279
vt 0.300814 0.583396
vt 0.339977 0.583396
vt 0.339977 0.586279
vt 0.300814 0.583396
vt 0.300814 0.580514
vt 0.339977 0.580514
vt 0.339977 0.583396
vt 0.300814 0.580514
vt 0.300814 0.577632
vt 0.339977 0.577632
vt 0.339977 0.580514
vt 0.300814 0.577632
vt 0.300813 0.574750
vt 0.339977 0.574750
vt 0.339977 0.577632
vt 0.260299 0.684012
vt 0.000000 1.000000
vt 0.249729 0.671131
vt 0.724386 0.240808
vt 0.711506 0.230237
vt 1.000000 0.000000
vt 0.711506 0.230237
vt 0.696810 0.222383
vt 1.000000 0.000000
vt 0.249729 0.671131
vt 0.000000 1.000000
vt 0.241874 0.656436
vt 0.241874 0.656436
vt 0.000000 1.000000
vt 0.237037 0.640490
vt 1.000000 0.000000
vt 0.647700 0.217546
vt 0.000000 0.000000
vt 0.696810 0.222383
vt 0.680865 0.217546
vt 1.000000 0.000000
vt 0.680865 0.217546
vt 0.664282 0.215912
vt 1.000000 0.000000
vt 0.000000 1.000000
vt 0.235403 0.623908
vt 0.237037 0.640490
vt 0.000000 0.000000
vt 0.237037 0.607325
vt 0.000000 1.000000
vt 0.000000 1.000000
vt 0.237037 0.607325
vt 0.235403 0.623908
vt 0.664282 0.215912
vt 0.647700 0.217546
vt 1.000000 0.000000
vt 0.237037 0.607325
vt 0.000000 0.000000
vt 0.241874 0.591380
vt 0.647700 0.217546
vt 0.631754 0.222383
vt 0.000000 0.000000
vt 0.631754 0.222383
vt 0.617059 0.230237
vt 0.000000 0.000000
vt 0.241874 0.591380
vt 0.000000 0.000000
vt 0.249729 0.576684
vt 0.249729 0.576684
vt 0.000000 0.000000
vt 0.260299 0.563804
vt 0.617059 0.230237
vt 0.604178 0.240808
vt 0.000000 0.000000
vt 0.604178 0.240808
vt 0.593607 0.253689
vt 0.000000 0.000000
vt 0.260299 0.563804
vt 0.000000 0.000000
vt 0.273180 0.553233
vt 0.273180 0.553233
vt 0.000000 0.000000
vt 0.287875 0.545378
vt 0.593607 0.253689
vt 0.585752 0.268384
vt 0.000000 0.000000
vt 0.585752 0.268384
vt 0.580915 0.284330
vt 0.000000 0.000000
vt 0.287875 0.545378
vt 0.000000 0.000000
vt 0.303821 0.540541
vt 0.303821 0.540541
vt 0.580915 0.284330
vt 0.320403 0.538908
vt 0.000000 0.000000
vt 0.580915 0.284330
vt 0.303821 0.540541
vt 0.579282 0.300912
vt 0.320403 0.538908
vt 0.580915 0.284330
vt 0.580915 0.317495
vt 0.336986 0.540541
vt 0.579282 0.300912
vt 0.320403 0.538908
vt 0.579282 0.300912
vt 0.336986 0.540541
vt 0.336986 0.540541
vt 0.580915 0.317495
vt 0.352931 0.545378
vt 0.585752 0.333440
vt 0.352931 0.545378
vt 0.580915 0.317495
vt 0.604178 0.361016
vt 0.380507 0.563804
vt 0.593607 0.348136
vt 0.593607 0.348136
vt 0.367627 0.553233
vt 0.585752 0.333440
vt 0.352931 0.545378
vt 0.585752 0.333440
vt 0.367627 0.553233
vt 0.380507 0.563804
vt 0.604178 0.361016
vt 0.391078 0.576684
vt 0.604178 0.361016
vt 0.617059 0.371587
vt 0.391078 0.576684
vt 0.391078 0.576684
vt 0.617059 0.371587
vt 0.398933 0.591380
vt 0.617059 0.371587
vt 0.631754 0.379442
vt 0.398933 0.591380
vt 0.398933 0.591380
vt 0.631754 0.379442
vt 0.403770 0.607325
vt 0.631754 0.379442
vt 0.647699 0.384279
vt 0.403770 0.607325
vt 0.403770 0.607325
vt 0.647699 0.384279
vt 0.405403 0.623908
vt 0.647699 0.384279
vt 0.664282 0.385912
vt 0.405403 0.623908
vt 0.405403 0.623908
vt 0.664282 0.385912
vt 0.403770 0.640490
vt 0.664282 0.385912
vt 0.680865 0.384279
vt 0.403770 0.640490
vt 0.403770 0.640490
vt 1.000000 1.000000
vt 0.398933 0.656436
vt 0.680865 0.384279
vt 1.000000 1.000000
vt 0.403770 0.640490
vt 0.696810 0.379442
vt 1.000000 1.000000
vt 0.680865 0.384279
vt 0.398933 0.656436
vt 1.000000 1.000000
vt 0.391078 0.671131
vt 0.711506 0.371587
vt 1.000000 1.000000
vt 0.696810 0.379442
vt 0.391078 0.671131
vt 1.000000 1.000000
vt 0.380507 0.684012
vt 0.724386 0.361016
vt 1.000000 1.000000
vt 0.711506 0.371587
vt 0.724386 0.240808
vt 1.000000 0.000000
vt 0.734957 0.253689
vt 0.260299 0.684012
vt 0.273180 0.694583
vt 0.000000 1.000000
vt 0.273180 0.694583
vt 0.287875 0.702438
vt 0.000000 1.000000
vt 0.734957 0.253689
vt 1.000000 0.000000
vt 0.742812 0.268384
vt 0.742812 0.268384
vt 1.000000 0.000000
vt 0.747649 0.284330
vt 0.000000 1.000000
vt 0.336986 0.707275
vt 1.000000 1.000000
vt 0.287875 0.702438
vt 0.303821 0.707274
vt 0.000000 1.000000
vt 0.303821 0.707274
vt 0.320403 0.708908
vt 0.000000 1.000000
vt 1.000000 0.000000
vt 0.749282 0.300912
vt 0.747649 0.284330
vt 1.000000 1.000000
vt 0.742812 0.333440
vt 1.000000 0.000000
vt 1.000000 0.000000
vt 0.747649 0.317495
vt 0.749282 0.300912
vt 1.000000 0.000000
vt 0.742812 0.333440
vt 0.747649 0.317495
vt 0.320403 0.708908
vt 0.336986 0.707275
vt 0.000000 1.000000
vt 0.336986 0.707275
vt 0.352931 0.702438
vt 1.000000 1.000000
vt 0.352931 0.702438
vt 0.367627 0.694583
vt 1.000000 1.000000
vt 0.742812 0.333440
vt 1.000000 1.000000
vt 0.734957 0.348136
vt 0.734957 0.348136
vt 1.000000 1.000000
vt 0.724386 0.361016
vt 0.724386 0.240808
vt 1.000000 0.000000
vt 0.711506 0.230237
vt 0.260299 0.684012
vt 0.249729 0.671131
vt 0.000000 1.000000
vt 0.249729 0.671131
vt 0.241874 0.656436
vt 0.000000 1.000000
vt 0.711506 0.230237
vt 1.000000 0.000000
vt 0.696810 0.222383
vt 0.696810 0.222383
vt 1.000000 0.000000
vt 0.680865 0.217546
vt 0.000000 1.000000
vt 0.237037 0.607325
vt 0.000000 0.000000
vt 0.241874 0.656436
vt 0.237037 0.640490
vt 0.000000 1.000000
vt 0.237037 0.640490
vt 0.235403 0.623908
vt 0.000000 1.000000
vt 1.000000 0.000000
vt 0.664282 0.215912
vt 0.680865 0.217546
vt 0.000000 0.000000
vt 0.647699 0.217546
vt 1.000000 0.000000
vt 1.000000 0.000000
vt 0.647699 0.217546
vt 0.664282 0.215912
vt 0.235403 0.623908
vt 0.237037 0.607325
vt 0.000000 1.000000
vt 0.647699 0.217546
vt 0.000000 0.000000
vt 0.631754 0.222383
vt 0.237037 0.607325
vt 0.241874 0.591380
vt 0.000000 0.000000
vt 0.241874 0.591380
vt 0.249729 0.576684
vt 0.000000 0.000000
vt 0.631754 0.222383
vt 0.000000 0.000000
vt 0.617059 0.230237
vt 0.617059 0.230237
vt 0.000000 0.000000
vt 0.604178 0.240808
vt 0.249729 0.576684
vt 0.260299 0.563804
vt 0.000000 0.000000
vt 0.260299 0.563804
vt 0.273180 0.553233
vt 0.000000 0.000000
vt 0.604178 0.240808
vt 0.000000 0.000000
vt 0.593607 0.253689
vt 0.593607 0.253689
vt 0.000000 0.000000
vt 0.585752 0.268384
vt 0.273180 0.553233
vt 0.287875 0.545378
vt 0.000000 0.000000
vt 0.287875 0.545378
vt 0.303821 0.540541
vt 0.000000 0.000000
vt 0.585752 0.268384
vt 0.000000 0.000000
vt 0.580915 0.284330
vt 0.580915 0.284330
vt 0.320403 0.538908
vt 0.579282 0.300912
vt 0.000000 0.000000
vt 0.303821 0.540541
vt 0.580915 0.284330
vt 0.580915 0.284330
vt 0.303821 0.540541
vt 0.320403 0.538908
vt 0.336986 0.540541
vt 0.579282 0.300912
vt 0.320403 0.538908
vt 0.579282 0.300912
vt 0.336986 0.540541
vt 0.580915 0.317495
vt 0.580915 0.317495
vt 0.352931 0.545378
vt 0.585752 0.333440
vt 0.580915 0.317495
vt 0.336986 0.540541
vt 0.352931 0.545378
vt 0.380507 0.563804
vt 0.593607 0.348136
vt 0.367627 0.553233
vt 0.604178 0.361016
vt 0.593607 0.348136
vt 0.380507 0.563804
vt 0.367627 0.553233
vt 0.585752 0.333440
vt 0.352931 0.545378
vt 0.604178 0.361016
vt 0.391078 0.576684
vt 0.617059 0.371587
vt 0.380507 0.563804
vt 0.391078 0.576684
vt 0.604178 0.361016
vt 0.617059 0.371587
vt 0.398933 0.591380
vt 0.631754 0.379442
vt 0.391078 0.576684
vt 0.398933 0.591380
vt 0.617059 0.371587
vt 0.631754 0.379442
vt 0.403770 0.607325
vt 0.647699 0.384279
vt 0.398933 0.591380
vt 0.403770 0.607325
vt 0.631754 0.379442
vt 0.647699 0.384279
vt 0.405403 0.623908
vt 0.664282 0.385912
vt 0.403770 0.607325
vt 0.405403 0.623908
vt 0.647699 0.384279
vt 0.664282 0.385912
vt 0.403770 0.640490
vt 0.680865 0.384279
vt 0.405403 0.623908
vt 0.403770 0.640490
vt 0.664282 0.385912
vt 0.680865 0.384279
vt 1.000000 1.000000
vt 0.696810 0.379442
vt 0.403770 0.640490
vt 1.000000 1.000000
vt 0.680865 0.384279
vt 0.398933 0.656436
vt 1.000000 1.000000
vt 0.403770 0.640490
vt 0.696810 0.379442
vt 1.000000 1.000000
vt 0.711506 0.371587
vt 0.391078 0.671131
vt 1.000000 1.000000
vt 0.398933 0.656436
vt 0.711506 0.371587
vt 1.000000 1.000000
vt 0.724386 0.361016
vt 0.380507 0.684012
vt 1.000000 1.000000
vt 0.391078 0.671131
vt 0.260299 0.684012
vt 0.000000 1.000000
vt 0.273180 0.694583
vt 0.724386 0.240808
vt 0.734957 0.253689
vt 1.000000 0.000000
vt 0.734957 0.253689
vt 0.742812 0.268384
vt 1.000000 0.000000
vt 0.273180 0.694583
vt 0.000000 1.000000
vt 0.287875 0.702438
vt 0.287875 0.702438
vt 0.000000 1.000000
vt 0.303821 0.707274
vt 1.000000 0.000000
vt 0.742812 0.333440
vt 1.000000 1.000000
vt 0.742812 0.268384
vt 0.747649 0.284330
vt 1.000000 0.000000
vt 0.747649 0.284330
vt 0.749282 0.300912
vt 1.000000 0.000000
vt 0.000000 1.000000
vt 0.320403 0.708908
vt 0.303821 0.707274
vt 1.000000 1.000000
vt 0.336986 0.707275
vt 0.000000 1.000000
vt 0.000000 1.000000
vt 0.336986 0.707275
vt 0.320403 0.708908
vt 0.749282 0.300912
vt 0.747649 0.317495
vt 1.000000 0.000000
vt 0.747649 0.317495
vt 0.742812 0.333440
vt 1.000000 0.000000
vt 0.336986 0.707275
vt 1.000000 1.000000
vt 0.352931 0.702438
vt 0.742812 0.333440
vt 0.734957 0.348136
vt 1.000000 1.000000
vt 0.352931 0.702438
vt 1.000000 1.000000
vt 0.367627 0.694583
vt 0.367627 0.694583
vt 1.000000 1.000000
vt 0.380507 0.684012

vn 1.000000 0.000000 -0.000000
vn 1.000000 0.000000 0.000000
vn -1.000000 0.000000 -0.000000
vn -1.000000 0.000000 -0.000000
vn 0.000000 0.000000 1.000000
vn -0.000000 -1.000000 0.000000
vn 0.000000 0.000000 -1.000000
vn 0.000000 1.000000 0.000000
vn 0.000000 0.995184 -0.098028
vn 0.000000 0.956944 -0.290274
vn 0.000000 0.881935 -0.471372
vn 0.000000 0.773021 -0.634381
vn 0.000000 0.634392 -0.773012
vn 0.000000 0.471335 -0.881954
vn 0.000000 0.290367 -0.956915
vn 0.000000 0.098017 -0.995185
vn 0.000000 -0.098027 -0.995184
vn 0.000000 -0.290339 -0.956924
vn 0.000000 -0.471334 -0.881955
vn 0.000000 -0.634441 -0.772971
vn 0.000000 -0.772971 -0.634441
vn 0.000000 -0.881935 -0.471372
vn 0.000000 -0.956944 -0.290274
vn 0.000000 -0.995184 -0.098028
vn 0.000000 -0.995185 0.098018
vn 0.000000 -0.956944 0.290274
vn 0.000000 -0.881912 0.471413
vn 0.000000 -0.773012 0.634392
vn 0.000000 -0.634381 0.773021
vn 0.000000 -0.471414 0.881912
vn 0.000000 -0.290246 0.956952
vn 0.000000 -0.098028 0.995184
vn 0.000000 0.098019 0.995185
vn 0.000000 0.290273 0.956944
vn 0.000000 0.471414 0.881912
vn 0.000000 0.634331 0.773061
vn 0.000000 0.773061 0.634332
vn 0.000000 0.881912 0.471413
vn 0.000000 0.956944 0.290274
vn 0.000000 0.995185 0.098019
vn 0.000000 0.995185 -0.098018
vn 0.000000 0.956944 -0.290274
vn 0.000000 0.881912 -0.471413
vn 0.000000 0.773012 -0.634392
vn 0.000000 0.634381 -0.773021
vn 0.000000 0.471413 -0.881912
vn 0.000000 0.290274 -0.956944
vn 0.000000 0.098018 -0.995185
vn 0.000000 -0.098018 -0.995185
vn 0.000000 -0.290274 -0.956944
vn 0.000000 -0.471413 -0.881912
vn 0.000000 -0.634381 -0.773020
vn 0.000000 -0.773012 -0.634391
vn 0.000000 -0.881912 -0.471413
vn 0.000000 -0.956944 -0.290274
vn 0.000000 -0.995185 -0.098019
vn 0.000000 -0.995184 0.098028
vn 0.000000 -0.956952 0.290246
vn 0.000000 -0.881912 0.471413
vn 0.000000 -0.772972 0.634440
vn 0.000000 -0.634441 0.772971
vn 0.000000 -0.471413 0.881912
vn 0.000000 -0.290274 0.956944
vn 0.000000 -0.098019 0.995185
vn 0.000000 0.098019 0.995185
vn 0.000000 0.290274 0.956944
vn 0.000000 0.471413 0.881912
vn 0.000000 0.634441 0.772972
vn 0.000000 0.772972 0.634441
vn 0.000000 0.881912 0.471413
vn 0.000000 0.956952 0.290246
vn 0.000000 0.995184 0.098028
vn 1.000000 -0.000000 0.000000
vn 1.000000 0.000000 -0.000000
vn 1.000000 0.000000 -0.000000
vn 1.000000 -0.000000 0.000000
vn 1.000000 -0.000000 0.000000
vn 1.000000 -0.000000 0.000000
vn 1.000000 0.000000 -0.000000
vn 1.000000 0.000000 -0.000000
vn 1.000000 0.000000 0.000000
vn 1.000000 0.000000 0.000000
vn 1.000000 0.000000 0.000000
vn 1.000000 -0.000000 -0.000000
vn 1.000000 0.000000 -0.000000
vn 1.000000 -0.000000 0.000000
vn 1.000000 -0.000000 0.000000
vn 1.000000 0.000000 -0.000000
vn 1.000000 0.000000 -0.000000
vn 1.000000 -0.000000 0.000000
vn 1.000000 -0.000000 0.000000
vn 1.000000 0.000000 -0.000000
vn 1.000000 0.000000 -0.000000
vn 1.000000 -0.000000 0.000000
vn 1.000000 -0.000000 0.000000
vn 1.000000 0.000000 -0.000000
vn 1.000000 0.000000 0.000000
vn 1.000000 0.000000 0.000000
vn 1.000000 -0.000000 -0.000000
vn 1.000000 -0.000000 0.000000
vn 1.000000 0.000000 0.000000
vn 1.000000 0.000000 0.000000
vn 1.000000 -0.000000 0.000000
vn 1.000000 -0.000000 0.000000
vn 1.000000 -0.000000 0.000000
vn 1.000000 0.000000 0.000000
vn 1.000000 0.000000 0.000000
vn 1.000000 0.000000 0.000000
vn 1.000000 0.000000 0.000000
vn 1.000000 0.000000 0.000000
vn 1.000000 0.000000 0.000000
vn 1.000000 0.000000 0.000000
vn 1.000000 0.000000 0.000000
vn 1.000000 0.000000 0.000000
vn 1.000000 0.000000 0.000000
vn 1.000000 0.000000 0.000000
vn 1.000000 0.000000 0.000000
vn 1.000000 0.000000 0.000000
vn 1.000000 0.000000 0.000000
vn 1.000000 0.000000 0.000000
vn 1.000000 0.000000 0.000000
vn 1.000000 0.000000 0.000000
vn 1.000000 0.000000 0.000000
vn 1.000000 0.000000 0.000000
vn 1.000000 0.000000 0.000000
vn 1.000000 0.000000 0.000000
vn 1.000000 0.000000 0.000000
vn 1.000000 0.000000 0.000000
vn 1.000000 0.000000 0.000000
vn 1.000000 0.000000 0.000000
vn 1.000000 0.000000 0.000000
vn 1.000000 0.000000 0.000000
vn 1.000000 0.000000 0.000000
vn 1.000000 0.000000 0.000000
vn 1.000000 0.000000 0.000000
vn 1.000000 0.000000 0.000000
vn 1.000000 0.000000 0.000000
vn 1.000000 0.000000 0.000000
vn 1.000000 0.000000 0.000000
vn 1.000000 0.000000 0.000000
vn -1.000000 0.000000 0.000000
vn -1.000000 0.000000 0.000000
vn -1.000000 0.000000 0.000000
vn -1.000000 0.000000 0.000000
vn -1.000000 0.000000 0.000000
vn -1.000000 0.000000 0.000000
vn -1.000000 0.000000 0.000000
vn -1.000000 0.000000 0.000000
vn -1.000000 0.000000 0.000000
vn -1.000000 -0.000000 0.000000
vn -1.000000 0.000000 0.000000
vn -1.000000 0.000000 0.000000
vn -1.000000 0.000000 0.000000
vn -1.000000 0.000000 0.000000
vn -1.000000 0.000000 0.000000
vn -1.000000 0.000000 0.000000
vn -1.000000 0.000000 0.000000
vn -1.000000 0.000000 0.000000
vn -1.000000 0.000000 0.000000
vn -1.000000 0.000000 0.000000
vn -1.000000 0.000000 0.000000
vn -1.000000 0.000000 0.000000
vn -1.000000 0.000000 0.000000
vn -1.000000 0.000000 0.000000
vn -1.000000 0.000000 0.000000
vn -1.000000 0.000000 0.000000
vn -1.000000 0.000000 0.000000
vn -1.000000 0.000000 0.000000
vn -1.000000 0.000000 -0.000000
vn -1.000000 0.000000 -0.000000
vn -1.000000 0.000000 0.000000
vn -1.000000 0.000000 0.000000
vn -1.000000 0.000000 0.000000
vn -1.000000 0.000000 0.000000
vn -1.000000 0.000000 -0.000000
vn -1.000000 -0.000000 0.000000
vn -1.000000 0.000000 -0.000000
vn -1.000000 -0.000000 0.000000
vn -1.000000 0.000000 -0.000000
vn -1.000000 -0.000000 0.000000
vn -1.000000 0.000000 -0.000000
vn -1.000000 -0.000000 0.000000
vn -1.000000 -0.000000 -0.000000
vn -1.000000 -0.000000 -0.000000
vn -1.000000 -0.000000 0.000000
vn -1.000000 -0.000000 0.000000
vn -1.000000 -0.000000 0.000000
vn -1.000000 -0.000000 0.000000
vn -1.000000 -0.000000 0.000000
vn -1.000000 -0.000000 0.000000
vn -1.000000 -0.000000 0.000000
vn -1.000000 0.000000 -0.000000
vn -1.000000 -0.000000 0.000000
vn -1.000000 -0.000000 0.000000
vn -1.000000 0.000000 -0.000000
vn -1.000000 0.000000 -0.000000
vn -1.000000 0.000000 0.000000
vn -1.000000 -0.000000 0.000000
vn -1.000000 -0.000000 0.000000
vn -1.000000 0.000000 0.000000
vn -1.000000 0.000000 0.000000
vn -1.000000 0.000000 0.000000
vn -1.000000 -0.000000 -0.000000
vn -1.000000 -0.000000 -0.000000
vn -1.000000 -0.000000 0.000000
vn -1.000000 0.000000 -0.000000
vn -1.000000 -0.000000 0.000000
vn -1.000000 -0.000000 0.000000

f 55/1/1 53/2/1 48/3/1
f 28/4/2 32/5/2 2/6/2
f 118/7/3 120/8/3 6/9/3
f 88/10/4 97/11/4 81/12/4
f 3/13/5 7/14/5 5/15/5 1/16/5
f 1/17/6 5/18/6 6/19/6 2/20/6
f 2/21/7 6/22/7 8/23/7 4/24/7
f 4/25/8 8/26/8 7/27/8 3/28/8
f 114/29/9 117/30/9 13/31/9 10/32/9
f 117/33/10 115/34/10 12/35/10 13/36/10
f 115/37/11 73/38/11 33/39/11 12/40/11
f 73/41/12 74/42/12 35/43/12 33/44/12
f 74/45/13 76/46/13 34/47/13 35/48/13
f 76/49/14 75/50/14 36/51/14 34/52/14
f 75/53/15 80/54/15 38/55/15 36/56/15
f 80/57/16 77/58/16 37/59/16 38/60/16
f 40/61/17 37/62/17 77/63/17 79/64/17
f 39/65/18 40/66/18 79/67/18 78/68/18
f 51/69/19 39/70/19 78/71/19 92/72/19
f 43/73/20 51/74/20 92/75/20 84/76/20
f 84/77/21 82/78/21 41/79/21 43/80/21
f 82/81/22 89/82/22 49/83/22 41/84/22
f 89/85/23 87/86/23 47/87/23 49/88/23
f 87/89/24 85/90/24 45/91/24 47/92/24
f 85/93/25 86/94/25 46/95/25 45/96/25
f 86/97/26 88/98/26 44/99/26 46/100/26
f 88/101/27 81/102/27 48/103/27 44/104/27
f 81/105/28 83/106/28 42/107/28 48/108/28
f 83/109/29 91/110/29 50/111/29 42/112/29
f 50/113/30 91/114/30 124/115/30 26/116/30
f 124/117/31 136/118/31 17/119/31 26/120/31
f 136/121/32 121/122/32 18/123/32 17/124/32
f 18/125/33 121/126/33 122/127/33 16/128/33
f 16/129/34 122/130/34 123/131/34 19/132/34
f 19/133/35 123/134/35 119/135/35 14/136/35
f 14/137/36 119/138/36 120/139/36 15/140/36
f 120/141/37 118/142/37 20/143/37 15/144/37
f 118/145/38 116/146/38 11/147/38 20/148/38
f 116/149/39 113/150/39 9/151/39 11/152/39
f 113/153/40 114/154/40 10/155/40 9/156/40
f 125/157/41 128/158/41 25/159/41 21/160/41
f 72/161/42 25/162/42 128/163/42 90/164/42
f 90/165/43 94/166/43 52/167/43 72/168/43
f 94/169/44 93/170/44 55/171/44 52/172/44
f 93/173/45 97/174/45 53/175/45 55/176/45
f 97/177/46 96/178/46 54/179/46 53/180/46
f 96/181/47 95/182/47 60/183/47 54/184/47
f 95/185/48 101/186/48 57/187/48 60/188/48
f 56/189/49 57/190/49 101/191/49 98/192/49
f 59/193/50 56/194/50 98/195/50 100/196/50
f 70/197/51 59/198/51 100/199/51 111/200/51
f 64/201/52 70/202/52 111/203/52 105/204/52
f 105/205/53 103/206/53 62/207/53 64/208/53
f 103/209/54 110/210/54 69/211/54 62/212/54
f 110/213/55 107/214/55 66/215/55 69/216/55
f 107/217/56 106/218/56 65/219/56 66/220/56
f 106/221/57 109/222/57 68/223/57 65/224/57
f 109/225/58 108/226/58 67/227/58 68/228/58
f 108/229/59 102/230/59 61/231/59 67/232/59
f 102/233/60 104/234/60 63/235/60 61/236/60
f 104/237/61 112/238/61 71/239/61 63/240/61
f 112/241/62 99/242/62 58/243/62 71/244/62
f 99/245/63 132/246/63 30/247/63 58/248/63
f 132/249/64 134/250/64 29/251/64 30/252/64
f 29/253/65 134/254/65 133/255/65 31/256/65
f 31/257/66 133/258/66 130/259/66 27/260/66
f 27/261/67 130/262/67 131/263/67 28/264/67
f 28/265/68 131/266/68 129/267/68 32/268/68
f 129/269/69 135/270/69 22/271/69 32/272/69
f 135/273/70 126/274/70 23/275/70 22/276/70
f 126/277/71 127/278/71 24/279/71 23/280/71
f 127/281/72 125/282/72 21/283/72 24/284/72
f 63/285/73 4/286/73 61/287/73
f 35/288/74 34/289/74 1/290/74
f 34/291/75 36/292/75 1/293/75
f 61/294/76 4/295/76 67/296/76
f 67/297/77 4/298/77 68/299/77
f 1/300/78 40/301/78 3/302/78
f 36/303/79 38/304/79 1/305/79
f 38/306/80 37/307/80 1/308/80
f 4/309/81 65/310/81 68/311/81
f 3/312/82 66/313/82 4/314/82
f 4/315/83 66/316/83 65/317/83
f 37/318/84 40/319/84 1/320/84
f 66/321/85 3/322/85 69/323/85
f 40/324/86 39/325/86 3/326/86
f 39/327/87 51/328/87 3/329/87
f 69/330/88 3/331/88 62/332/88
f 62/333/89 3/334/89 64/335/89
f 51/336/90 43/337/90 3/338/90
f 43/339/91 41/340/91 3/341/91
f 64/342/92 3/343/92 70/344/92
f 70/345/93 3/346/93 59/347/93
f 41/348/94 49/349/94 3/350/94
f 49/351/95 47/352/95 3/353/95
f 59/354/96 3/355/96 56/356/96
f 56/357/97 47/358/97 57/359/97
f 3/360/98 47/361/98 56/362/98
f 45/363/99 57/364/99 47/365/99
f 46/366/100 60/367/100 45/368/100
f 57/369/101 45/370/101 60/371/101
f 60/372/102 46/373/102 54/374/102
f 44/375/103 54/376/103 46/377/103
f 42/378/104 55/379/104 48/380/104
f 48/381/105 53/382/105 44/383/105
f 54/384/106 44/385/106 53/386/106
f 55/387/107 42/388/107 52/389/107
f 42/390/108 50/391/108 52/392/108
f 52/393/109 50/394/109 72/395/109
f 50/396/110 26/397/110 72/398/110
f 72/399/111 26/400/111 25/401/111
f 26/402/112 17/403/112 25/404/112
f 25/405/113 17/406/113 21/407/113
f 17/408/114 18/409/114 21/410/114
f 21/411/115 18/412/115 24/413/115
f 18/414/116 16/415/116 24/416/116
f 24/417/117 2/418/117 23/419/117
f 16/420/118 2/421/118 24/422/118
f 19/423/119 2/424/119 16/425/119
f 23/426/120 2/427/120 22/428/120
f 14/429/121 2/430/121 19/431/121
f 22/432/122 2/433/122 32/434/122
f 15/435/123 2/436/123 14/437/123
f 35/438/124 1/439/124 33/440/124
f 63/441/125 71/442/125 4/443/125
f 71/444/126 58/445/126 4/446/126
f 33/447/127 1/448/127 12/449/127
f 12/450/128 1/451/128 13/452/128
f 4/453/129 31/454/129 2/455/129
f 58/456/130 30/457/130 4/458/130
f 30/459/131 29/460/131 4/461/131
f 1/462/132 10/463/132 13/464/132
f 2/465/133 11/466/133 1/467/133
f 1/468/134 9/469/134 10/470/134
f 1/471/135 11/472/135 9/473/135
f 29/474/136 31/475/136 4/476/136
f 31/477/137 27/478/137 2/479/137
f 27/480/138 28/481/138 2/482/138
f 11/483/139 2/484/139 20/485/139
f 20/486/140 2/487/140 15/488/140
f 74/489/141 5/490/141 76/491/141
f 104/492/142 102/493/142 8/494/142
f 102/495/143 108/496/143 8/497/143
f 76/498/144 5/499/144 75/500/144
f 75/501/145 5/502/145 80/503/145
f 8/504/146 107/505/146 7/506/146
f 108/507/147 109/508/147 8/509/147
f 109/510/148 106/511/148 8/512/148
f 5/513/149 77/514/149 80/515/149
f 7/516/150 79/517/150 5/518/150
f 5/519/151 79/520/151 77/521/151
f 106/522/152 107/523/152 8/524/152
f 79/525/153 7/526/153 78/527/153
f 107/528/154 110/529/154 7/530/154
f 110/531/155 103/532/155 7/533/155
f 78/534/156 7/535/156 92/536/156
f 92/537/157 7/538/157 84/539/157
f 103/540/158 105/541/158 7/542/158
f 105/543/159 111/544/159 7/545/159
f 84/546/160 7/547/160 82/548/160
f 82/549/161 7/550/161 89/551/161
f 111/552/162 100/553/162 7/554/162
f 100/555/163 98/556/163 7/557/163
f 89/558/164 7/559/164 87/560/164
f 87/561/165 101/562/165 85/563/165
f 7/564/166 98/565/166 87/566/166
f 87/567/167 98/568/167 101/569/167
f 95/570/168 85/571/168 101/572/168
f 85/573/169 95/574/169 86/575/169
f 86/576/170 96/577/170 88/578/170
f 86/579/171 95/580/171 96/581/171
f 93/582/172 81/583/172 97/584/172
f 83/585/173 81/586/173 93/587/173
f 97/588/174 88/589/174 96/590/174
f 83/591/175 94/592/175 91/593/175
f 93/594/176 94/595/176 83/596/176
f 91/597/177 90/598/177 124/599/177
f 94/600/178 90/601/178 91/602/178
f 124/603/179 128/604/179 136/605/179
f 90/606/180 128/607/180 124/608/180
f 136/609/181 125/610/181 121/611/181
f 128/612/182 125/613/182 136/614/182
f 121/615/183 127/616/183 122/617/183
f 125/618/184 127/619/184 121/620/184
f 122/621/185 6/622/185 123/623/185
f 127/624/186 6/625/186 122/626/186
f 126/627/187 6/628/187 127/629/187
f 123/630/188 6/631/188 119/632/188
f 135/633/189 6/634/189 126/635/189
f 119/636/190 6/637/190 120/638/190
f 129/639/191 6/640/191 135/641/191
f 104/642/192 8/643/192 112/644/192
f 74/645/193 73/646/193 5/647/193
f 73/648/194 115/649/194 5/650/194
f 112/651/195 8/652/195 99/653/195
f 99/654/196 8/655/196 132/656/196
f 5/657/197 116/658/197 6/659/197
f 115/660/198 117/661/198 5/662/198
f 117/663/199 114/664/199 5/665/199
f 8/666/200 134/667/200 132/668/200
f 6/669/201 133/670/201 8/671/201
f 8/672/202 133/673/202 134/674/202
f 114/675/203 113/676/203 5/677/203
f 113/678/204 116/679/204 5/680/204
f 133/681/205 6/682/205 130/683/205
f 116/684/206 118/685/206 6/686/206
f 130/687/207 6/688/207 131/689/207
f 131/690/208 6/691/208 129/692/208
