# Exported from Blender by blender_stonefish_plugin
# Vertices: 482, Faces: 512

v 0.000000 0.194450 -0.291014
v 0.000000 0.291014 -0.194450
v 0.000000 0.343275 -0.068282
v 0.000000 0.350000 -0.000000
v 0.000000 0.343275 0.068282
v 0.000000 0.291014 0.194450
v 0.000000 0.194450 0.291014
v 0.013321 0.066970 -0.343275
v 0.026130 0.131366 -0.323358
v 0.037935 0.190713 -0.291014
v 0.048282 0.242732 -0.247487
v 0.056774 0.285423 -0.194450
v 0.063084 0.317145 -0.133939
v 0.066970 0.336679 -0.068282
v 0.068282 0.343275 -0.000000
v 0.066970 0.336679 0.068282
v 0.063084 0.317145 0.133939
v 0.056774 0.285423 0.194450
v 0.048282 0.242732 0.247487
v 0.037935 0.190713 0.291014
v 0.026130 0.131366 0.323358
v 0.013321 0.066970 0.343275
v 0.026130 0.063084 -0.343275
v 0.051256 0.123744 -0.323358
v 0.074413 0.179648 -0.291014
v 0.094709 0.228648 -0.247487
v 0.111366 0.268862 -0.194450
v 0.123744 0.298744 -0.133939
v 0.131366 0.317145 -0.068282
v 0.133939 0.323358 -0.000000
v 0.131366 0.317145 0.068282
v 0.123744 0.298744 0.133939
v 0.111366 0.268862 0.194450
v 0.094709 0.228648 0.247487
v 0.074413 0.179648 0.291014
v 0.051256 0.123744 0.323358
v 0.026130 0.063084 0.343275
v 0.037935 0.056774 -0.343275
v 0.074413 0.111366 -0.323358
v 0.108030 0.161679 -0.291014
v 0.137497 0.205778 -0.247487
v 0.161679 0.241970 -0.194450
v 0.179648 0.268862 -0.133939
v 0.190713 0.285423 -0.068282
v 0.194450 0.291014 -0.000000
v 0.190713 0.285423 0.068282
v 0.179648 0.268862 0.133939
v 0.161679 0.241970 0.194450
v 0.137497 0.205778 0.247487
v 0.108030 0.161679 0.291014
v 0.074413 0.111366 0.323358
v 0.037935 0.056774 0.343275
v 0.048282 0.048282 -0.343275
v 0.094709 0.094709 -0.323358
v 0.137497 0.137497 -0.291014
v 0.175000 0.175000 -0.247487
v 0.205778 0.205778 -0.194450
v 0.228648 0.228648 -0.133939
v 0.242732 0.242732 -0.068282
v 0.247487 0.247487 -0.000000
v 0.242732 0.242732 0.068282
v 0.228648 0.228648 0.133939
v 0.205778 0.205778 0.194450
v 0.175000 0.175000 0.247487
v 0.137497 0.137497 0.291014
v 0.094709 0.094709 0.323358
v 0.048282 0.048282 0.343275
v 0.056774 0.037935 -0.343275
v 0.111366 0.074413 -0.323358
v 0.161679 0.108030 -0.291014
v 0.205778 0.137497 -0.247487
v 0.241970 0.161679 -0.194450
v 0.268862 0.179648 -0.133939
v 0.285423 0.190713 -0.068282
v 0.291014 0.194450 -0.000000
v 0.285423 0.190713 0.068282
v 0.268862 0.179648 0.133939
v 0.241970 0.161679 0.194450
v 0.205778 0.137497 0.247487
v 0.161679 0.108030 0.291014
v 0.111366 0.074413 0.323358
v 0.056774 0.037935 0.343275
v 0.063084 0.026130 -0.343275
v 0.123744 0.051256 -0.323358
v 0.179648 0.074413 -0.291014
v 0.228648 0.094709 -0.247487
v 0.268862 0.111366 -0.194450
v 0.298744 0.123744 -0.133939
v 0.317145 0.131366 -0.068282
v 0.323358 0.133939 -0.000000
v 0.317145 0.131366 0.068282
v 0.298744 0.123744 0.133939
v 0.268862 0.111366 0.194450
v 0.228648 0.094709 0.247487
v 0.179648 0.074413 0.291014
v 0.123744 0.051256 0.323358
v 0.063084 0.026130 0.343275
v 0.066970 0.013321 -0.343275
v 0.131366 0.026130 -0.323358
v 0.190713 0.037935 -0.291014
v 0.242732 0.048282 -0.247487
v 0.285423 0.056774 -0.194450
v 0.317145 0.063084 -0.133939
v 0.336679 0.066970 -0.068282
v 0.343275 0.068282 -0.000000
v 0.336679 0.066970 0.068282
v 0.317145 0.063084 0.133939
v 0.285423 0.056774 0.194450
v 0.242732 0.048282 0.247487
v 0.190713 0.037935 0.291014
v 0.131366 0.026130 0.323358
v 0.066970 0.013321 0.343275
v 0.068282 -0.000000 -0.343275
v 0.133939 0.000000 -0.323358
v 0.194450 -0.000000 -0.291014
v 0.247487 0.000000 -0.247487
v 0.291014 -0.000000 -0.194450
v 0.323358 -0.000000 -0.133939
v 0.343275 -0.000000 -0.068282
v 0.350000 -0.000000 -0.000000
v 0.343275 -0.000000 0.068282
v 0.323358 -0.000000 0.133939
v 0.291014 -0.000000 0.194450
v 0.247487 0.000000 0.247487
v 0.194450 -0.000000 0.291014
v 0.133939 0.000000 0.323358
v 0.068282 -0.000000 0.343275
v 0.066970 -0.013321 -0.343275
v 0.131366 -0.026130 -0.323358
v 0.190713 -0.037935 -0.291014
v 0.242732 -0.048282 -0.247487
v 0.285423 -0.056774 -0.194450
v 0.317144 -0.063084 -0.133939
v 0.336679 -0.066970 -0.068282
v 0.343275 -0.068282 -0.000000
v 0.336679 -0.066970 0.068282
v 0.317144 -0.063084 0.133939
v 0.285423 -0.056774 0.194450
v 0.242732 -0.048282 0.247487
v 0.190713 -0.037935 0.291014
v 0.131366 -0.026130 0.323358
v 0.066970 -0.013321 0.343275
v 0.063084 -0.026130 -0.343275
v 0.123744 -0.051256 -0.323358
v 0.179648 -0.074413 -0.291014
v 0.228648 -0.094709 -0.247487
v 0.268862 -0.111366 -0.194450
v 0.298744 -0.123744 -0.133939
v 0.317145 -0.131366 -0.068282
v 0.323358 -0.133939 -0.000000
v 0.317145 -0.131366 0.068282
v 0.298744 -0.123744 0.133939
v 0.268862 -0.111366 0.194450
v 0.228648 -0.094709 0.247487
v 0.179648 -0.074413 0.291014
v 0.123744 -0.051256 0.323358
v 0.063084 -0.026130 0.343275
v 0.056774 -0.037935 -0.343275
v 0.111366 -0.074413 -0.323358
v 0.161679 -0.108030 -0.291014
v 0.205778 -0.137497 -0.247487
v 0.241970 -0.161679 -0.194450
v 0.268862 -0.179648 -0.133939
v 0.285423 -0.190713 -0.068282
v 0.291014 -0.194449 -0.000000
v 0.285423 -0.190713 0.068282
v 0.268862 -0.179648 0.133939
v 0.241970 -0.161679 0.194450
v 0.205778 -0.137497 0.247487
v 0.161679 -0.108030 0.291014
v 0.111366 -0.074413 0.323358
v 0.056774 -0.037935 0.343275
v 0.048282 -0.048282 -0.343275
v 0.094709 -0.094709 -0.323358
v 0.137497 -0.137497 -0.291014
v 0.175000 -0.175000 -0.247487
v 0.205778 -0.205778 -0.194450
v 0.228648 -0.228648 -0.133939
v 0.242732 -0.242732 -0.068282
v 0.247487 -0.247487 -0.000000
v 0.242732 -0.242732 0.068282
v 0.228648 -0.228648 0.133939
v 0.205778 -0.205778 0.194450
v 0.175000 -0.175000 0.247487
v 0.137497 -0.137497 0.291014
v 0.094709 -0.094709 0.323358
v 0.048282 -0.048282 0.343275
v 0.037935 -0.056774 -0.343275
v 0.074413 -0.111366 -0.323358
v 0.108030 -0.161679 -0.291014
v 0.137497 -0.205778 -0.247487
v 0.161679 -0.241970 -0.194450
v 0.179648 -0.268862 -0.133939
v 0.190713 -0.285423 -0.068282
v 0.194449 -0.291014 -0.000000
v 0.190713 -0.285423 0.068282
v 0.179648 -0.268862 0.133939
v 0.161679 -0.241970 0.194450
v 0.137497 -0.205778 0.247487
v 0.108030 -0.161679 0.291014
v 0.074413 -0.111366 0.323358
v 0.037935 -0.056774 0.343275
v 0.026130 -0.063084 -0.343275
v 0.051256 -0.123744 -0.323358
v 0.074413 -0.179648 -0.291014
v 0.094709 -0.228648 -0.247487
v 0.111366 -0.268862 -0.194450
v 0.123744 -0.298744 -0.133939
v 0.131366 -0.317145 -0.068282
v 0.133939 -0.323358 -0.000000
v 0.131366 -0.317145 0.068282
v 0.123744 -0.298744 0.133939
v 0.111366 -0.268862 0.194450
v 0.094709 -0.228648 0.247487
v 0.074413 -0.179648 0.291014
v 0.051256 -0.123744 0.323358
v 0.026130 -0.063084 0.343275
v 0.013321 -0.066970 -0.343275
v 0.026130 -0.131366 -0.323358
v 0.037935 -0.190713 -0.291014
v 0.048282 -0.242732 -0.247487
v 0.056774 -0.285422 -0.194450
v 0.063084 -0.317144 -0.133939
v 0.066970 -0.336679 -0.068282
v 0.068282 -0.343275 -0.000000
v 0.066970 -0.336679 0.068282
v 0.063084 -0.317144 0.133939
v 0.056774 -0.285422 0.194450
v 0.048282 -0.242732 0.247487
v 0.037935 -0.190713 0.291014
v 0.026130 -0.131366 0.323358
v 0.013321 -0.066970 0.343275
v -0.000000 -0.068282 -0.343275
v -0.000000 -0.133939 -0.323358
v -0.000000 -0.194450 -0.291014
v -0.000000 -0.247487 -0.247487
v -0.000000 -0.291014 -0.194450
v -0.000000 -0.323358 -0.133939
v -0.000000 -0.343275 -0.068282
v -0.000000 -0.350000 -0.000000
v -0.000000 -0.343275 0.068282
v -0.000000 -0.323358 0.133939
v -0.000000 -0.291014 0.194450
v -0.000000 -0.247487 0.247487
v -0.000000 -0.194450 0.291014
v -0.000000 -0.133939 0.323358
v -0.000000 -0.068282 0.343275
v -0.013321 -0.066970 -0.343275
v -0.026130 -0.131366 -0.323358
v -0.037935 -0.190713 -0.291014
v -0.048282 -0.242732 -0.247487
v -0.056774 -0.285422 -0.194450
v -0.063084 -0.317144 -0.133939
v -0.066970 -0.336679 -0.068282
v -0.068282 -0.343275 -0.000000
v -0.066970 -0.336679 0.068282
v -0.063084 -0.317144 0.133939
v -0.056774 -0.285422 0.194450
v -0.048282 -0.242732 0.247487
v -0.037935 -0.190713 0.291014
v -0.026130 -0.131366 0.323358
v -0.013321 -0.066970 0.343275
v 0.000000 0.000000 0.350000
v -0.026130 -0.063084 -0.343275
v -0.051256 -0.123744 -0.323358
v -0.074413 -0.179648 -0.291014
v -0.094709 -0.228648 -0.247487
v -0.111366 -0.268862 -0.194450
v -0.123744 -0.298743 -0.133939
v -0.131366 -0.317144 -0.068282
v -0.133939 -0.323358 -0.000000
v -0.131366 -0.317144 0.068282
v -0.123744 -0.298743 0.133939
v -0.111366 -0.268862 0.194450
v -0.094709 -0.228648 0.247487
v -0.074413 -0.179648 0.291014
v -0.051256 -0.123744 0.323358
v -0.026130 -0.063084 0.343275
v -0.037935 -0.056774 -0.343275
v -0.074413 -0.111366 -0.323358
v -0.108030 -0.161679 -0.291014
v -0.137497 -0.205778 -0.247487
v -0.161679 -0.241969 -0.194450
v -0.179648 -0.268862 -0.133939
v -0.190713 -0.285422 -0.068282
v -0.194449 -0.291014 -0.000000
v -0.190713 -0.285422 0.068282
v -0.179648 -0.268862 0.133939
v -0.161679 -0.241969 0.194450
v -0.137497 -0.205778 0.247487
v -0.108030 -0.161679 0.291014
v -0.074413 -0.111366 0.323358
v -0.037935 -0.056774 0.343275
v -0.048282 -0.048282 -0.343275
v -0.094709 -0.094709 -0.323358
v -0.137497 -0.137497 -0.291014
v -0.175000 -0.175000 -0.247487
v -0.205778 -0.205778 -0.194450
v -0.228648 -0.228648 -0.133939
v -0.242732 -0.242732 -0.068282
v -0.247487 -0.247487 -0.000000
v -0.242732 -0.242732 0.068282
v -0.228648 -0.228648 0.133939
v -0.205778 -0.205778 0.194450
v -0.175000 -0.175000 0.247487
v -0.137497 -0.137497 0.291014
v -0.094709 -0.094709 0.323358
v -0.048282 -0.048282 0.343275
v -0.056774 -0.037935 -0.343275
v -0.111366 -0.074413 -0.323358
v -0.161679 -0.108030 -0.291014
v -0.205778 -0.137497 -0.247487
v -0.241969 -0.161679 -0.194450
v -0.268862 -0.179648 -0.133939
v -0.285423 -0.190713 -0.068282
v -0.291014 -0.194449 -0.000000
v -0.285423 -0.190713 0.068282
v -0.268862 -0.179648 0.133939
v -0.241969 -0.161679 0.194450
v -0.205778 -0.137497 0.247487
v -0.161679 -0.108030 0.291014
v -0.111366 -0.074413 0.323358
v -0.056774 -0.037935 0.343275
v 0.000000 0.000000 -0.350000
v -0.063084 -0.026130 -0.343275
v -0.123744 -0.051256 -0.323358
v -0.179648 -0.074413 -0.291014
v -0.228648 -0.094709 -0.247487
v -0.268862 -0.111366 -0.194450
v -0.298743 -0.123744 -0.133939
v -0.317144 -0.131365 -0.068282
v -0.323358 -0.133939 -0.000000
v -0.317144 -0.131365 0.068282
v -0.298743 -0.123744 0.133939
v -0.268862 -0.111366 0.194450
v -0.228648 -0.094709 0.247487
v -0.179648 -0.074413 0.291014
v -0.123744 -0.051256 0.323358
v -0.063084 -0.026130 0.343275
v -0.066970 -0.013321 -0.343275
v -0.131366 -0.026130 -0.323358
v -0.190713 -0.037935 -0.291014
v -0.242732 -0.048282 -0.247487
v -0.285422 -0.056774 -0.194450
v -0.317144 -0.063084 -0.133939
v -0.336679 -0.066969 -0.068282
v -0.343275 -0.068281 -0.000000
v -0.336679 -0.066969 0.068282
v -0.317144 -0.063084 0.133939
v -0.285422 -0.056774 0.194450
v -0.242732 -0.048282 0.247487
v -0.190713 -0.037935 0.291014
v -0.131366 -0.026130 0.323358
v -0.066970 -0.013321 0.343275
v -0.068282 0.000000 -0.343275
v -0.133939 0.000000 -0.323358
v -0.194449 0.000000 -0.291014
v -0.247487 0.000000 -0.247487
v -0.291014 0.000000 -0.194450
v -0.323357 0.000000 -0.133939
v -0.343275 0.000000 -0.068282
v -0.350000 0.000000 -0.000000
v -0.343275 0.000000 0.068282
v -0.323357 0.000000 0.133939
v -0.291014 0.000000 0.194450
v -0.247487 0.000000 0.247487
v -0.194449 0.000000 0.291014
v -0.133939 0.000000 0.323358
v -0.068282 0.000000 0.343275
v -0.066970 0.013321 -0.343275
v -0.131366 0.026130 -0.323358
v -0.190713 0.037935 -0.291014
v -0.242732 0.048282 -0.247487
v -0.285422 0.056774 -0.194450
v -0.317144 0.063084 -0.133939
v -0.336679 0.066970 -0.068282
v -0.343275 0.068282 -0.000000
v -0.336679 0.066970 0.068282
v -0.317144 0.063084 0.133939
v -0.285422 0.056774 0.194450
v -0.242732 0.048282 0.247487
v -0.190713 0.037935 0.291014
v -0.131366 0.026130 0.323358
v -0.066970 0.013321 0.343275
v -0.063084 0.026130 -0.343275
v -0.123744 0.051256 -0.323358
v -0.179648 0.074413 -0.291014
v -0.228648 0.094709 -0.247487
v -0.268862 0.111366 -0.194450
v -0.298743 0.123744 -0.133939
v -0.317144 0.131366 -0.068282
v -0.323357 0.133939 -0.000000
v -0.317144 0.131366 0.068282
v -0.298743 0.123744 0.133939
v -0.268862 0.111366 0.194450
v -0.228648 0.094709 0.247487
v -0.179648 0.074413 0.291014
v -0.123744 0.051256 0.323358
v -0.063084 0.026130 0.343275
v -0.056774 0.037935 -0.343275
v -0.111366 0.074413 -0.323358
v -0.161679 0.108030 -0.291014
v -0.205778 0.137497 -0.247487
v -0.241969 0.161679 -0.194450
v -0.268862 0.179648 -0.133939
v -0.285422 0.190713 -0.068282
v -0.291014 0.194449 -0.000000
v -0.285422 0.190713 0.068282
v -0.268862 0.179648 0.133939
v -0.241969 0.161679 0.194450
v -0.205778 0.137497 0.247487
v -0.161679 0.108030 0.291014
v -0.111366 0.074413 0.323358
v -0.056774 0.037935 0.343275
v -0.048282 0.048282 -0.343275
v -0.094709 0.094709 -0.323358
v -0.137496 0.137497 -0.291014
v -0.175000 0.175000 -0.247487
v -0.205778 0.205778 -0.194450
v -0.228648 0.228648 -0.133939
v -0.242732 0.242732 -0.068282
v -0.247487 0.247487 -0.000000
v -0.242732 0.242732 0.068282
v -0.228648 0.228648 0.133939
v -0.205778 0.205778 0.194450
v -0.175000 0.175000 0.247487
v -0.137496 0.137497 0.291014
v -0.094709 0.094709 0.323358
v -0.048282 0.048282 0.343275
v -0.037935 0.056774 -0.343275
v -0.074413 0.111366 -0.323358
v -0.108030 0.161679 -0.291014
v -0.137496 0.205778 -0.247487
v -0.161679 0.241969 -0.194450
v -0.179648 0.268862 -0.133939
v -0.190713 0.285422 -0.068282
v -0.194449 0.291014 -0.000000
v -0.190713 0.285422 0.068282
v -0.179648 0.268862 0.133939
v -0.161679 0.241969 0.194450
v -0.137496 0.205778 0.247487
v -0.108030 0.161679 0.291014
v -0.074413 0.111366 0.323358
v -0.037935 0.056774 0.343275
v -0.026130 0.063084 -0.343275
v -0.051256 0.123744 -0.323358
v -0.074413 0.179648 -0.291014
v -0.094709 0.228648 -0.247487
v -0.111366 0.268862 -0.194450
v -0.123743 0.298743 -0.133939
v -0.131365 0.317144 -0.068282
v -0.133939 0.323357 -0.000000
v -0.131365 0.317144 0.068282
v -0.123743 0.298743 0.133939
v -0.111366 0.268862 0.194450
v -0.094709 0.228648 0.247487
v -0.074413 0.179648 0.291014
v -0.051256 0.123744 0.323358
v -0.026130 0.063084 0.343275
v -0.013321 0.066970 -0.343275
v -0.026130 0.131366 -0.323358
v -0.037935 0.190713 -0.291014
v -0.048282 0.242732 -0.247487
v -0.056774 0.285422 -0.194450
v -0.063084 0.317144 -0.133939
v -0.066969 0.336679 -0.068282
v -0.068281 0.343274 -0.000000
v -0.066969 0.336679 0.068282
v -0.063084 0.317144 0.133939
v -0.056774 0.285422 0.194450
v -0.048282 0.242732 0.247487
v -0.037935 0.190713 0.291014
v -0.026130 0.131366 0.323358
v -0.013321 0.066970 0.343275
v 0.000000 0.068282 -0.343275
v 0.000000 0.133939 -0.323358
v 0.000000 0.247487 -0.247487
v 0.000000 0.323357 -0.133939
v 0.000000 0.323357 0.133939
v 0.000000 0.247487 0.247487
v 0.000000 0.133939 0.323358
v 0.000000 0.068282 0.343275

vt 0.718750 0.625000
vt 0.718750 0.687500
vt 0.750000 0.687500
vt 0.750000 0.625000
vt 0.718750 0.125000
vt 0.718750 0.187500
vt 0.750000 0.187500
vt 0.750000 0.125000
vt 0.718750 0.562500
vt 0.718750 0.625000
vt 0.750000 0.625000
vt 0.750000 0.562500
vt 0.718750 0.062500
vt 0.718750 0.125000
vt 0.750000 0.125000
vt 0.750000 0.062500
vt 0.718750 0.500000
vt 0.718750 0.562500
vt 0.750000 0.562500
vt 0.750000 0.500000
vt 0.718750 0.937500
vt 0.734375 1.000000
vt 0.750000 0.937500
vt 0.718750 0.062500
vt 0.750000 0.062500
vt 0.734375 0.000000
vt 0.718750 0.437500
vt 0.718750 0.500000
vt 0.750000 0.500000
vt 0.750000 0.437500
vt 0.718750 0.875000
vt 0.718750 0.937500
vt 0.750000 0.937500
vt 0.750000 0.875000
vt 0.718750 0.375000
vt 0.718750 0.437500
vt 0.750000 0.437500
vt 0.750000 0.375000
vt 0.718750 0.812500
vt 0.718750 0.875000
vt 0.750000 0.875000
vt 0.750000 0.812500
vt 0.718750 0.312500
vt 0.718750 0.375000
vt 0.750000 0.375000
vt 0.750000 0.312500
vt 0.718750 0.750000
vt 0.718750 0.812500
vt 0.750000 0.812500
vt 0.750000 0.750000
vt 0.718750 0.250000
vt 0.718750 0.312500
vt 0.750000 0.312500
vt 0.750000 0.250000
vt 0.718750 0.687500
vt 0.718750 0.750000
vt 0.750000 0.750000
vt 0.750000 0.687500
vt 0.718750 0.187500
vt 0.718750 0.250000
vt 0.750000 0.250000
vt 0.750000 0.187500
vt 0.687500 0.250000
vt 0.687500 0.312500
vt 0.718750 0.312500
vt 0.718750 0.250000
vt 0.687500 0.687500
vt 0.687500 0.750000
vt 0.718750 0.750000
vt 0.718750 0.687500
vt 0.687500 0.187500
vt 0.687500 0.250000
vt 0.718750 0.250000
vt 0.718750 0.187500
vt 0.687500 0.625000
vt 0.687500 0.687500
vt 0.718750 0.687500
vt 0.718750 0.625000
vt 0.687500 0.125000
vt 0.687500 0.187500
vt 0.718750 0.187500
vt 0.718750 0.125000
vt 0.687500 0.562500
vt 0.687500 0.625000
vt 0.718750 0.625000
vt 0.718750 0.562500
vt 0.687500 0.062500
vt 0.687500 0.125000
vt 0.718750 0.125000
vt 0.718750 0.062500
vt 0.687500 0.500000
vt 0.687500 0.562500
vt 0.718750 0.562500
vt 0.718750 0.500000
vt 0.687500 0.937500
vt 0.703125 1.000000
vt 0.718750 0.937500
vt 0.687500 0.062500
vt 0.718750 0.062500
vt 0.703125 0.000000
vt 0.687500 0.437500
vt 0.687500 0.500000
vt 0.718750 0.500000
vt 0.718750 0.437500
vt 0.687500 0.875000
vt 0.687500 0.937500
vt 0.718750 0.937500
vt 0.718750 0.875000
vt 0.687500 0.375000
vt 0.687500 0.437500
vt 0.718750 0.437500
vt 0.718750 0.375000
vt 0.687500 0.812500
vt 0.687500 0.875000
vt 0.718750 0.875000
vt 0.718750 0.812500
vt 0.687500 0.312500
vt 0.687500 0.375000
vt 0.718750 0.375000
vt 0.718750 0.312500
vt 0.687500 0.750000
vt 0.687500 0.812500
vt 0.718750 0.812500
vt 0.718750 0.750000
vt 0.656250 0.062500
vt 0.687500 0.062500
vt 0.671875 0.000000
vt 0.656250 0.437500
vt 0.656250 0.500000
vt 0.687500 0.500000
vt 0.687500 0.437500
vt 0.656250 0.875000
vt 0.656250 0.937500
vt 0.687500 0.937500
vt 0.687500 0.875000
vt 0.656250 0.375000
vt 0.656250 0.437500
vt 0.687500 0.437500
vt 0.687500 0.375000
vt 0.656250 0.812500
vt 0.656250 0.875000
vt 0.687500 0.875000
vt 0.687500 0.812500
vt 0.656250 0.312500
vt 0.656250 0.375000
vt 0.687500 0.375000
vt 0.687500 0.312500
vt 0.656250 0.750000
vt 0.656250 0.812500
vt 0.687500 0.812500
vt 0.687500 0.750000
vt 0.656250 0.250000
vt 0.656250 0.312500
vt 0.687500 0.312500
vt 0.687500 0.250000
vt 0.656250 0.687500
vt 0.656250 0.750000
vt 0.687500 0.750000
vt 0.687500 0.687500
vt 0.656250 0.187500
vt 0.656250 0.250000
vt 0.687500 0.250000
vt 0.687500 0.187500
vt 0.656250 0.625000
vt 0.656250 0.687500
vt 0.687500 0.687500
vt 0.687500 0.625000
vt 0.656250 0.125000
vt 0.656250 0.187500
vt 0.687500 0.187500
vt 0.687500 0.125000
vt 0.656250 0.562500
vt 0.656250 0.625000
vt 0.687500 0.625000
vt 0.687500 0.562500
vt 0.656250 0.062500
vt 0.656250 0.125000
vt 0.687500 0.125000
vt 0.687500 0.062500
vt 0.656250 0.500000
vt 0.656250 0.562500
vt 0.687500 0.562500
vt 0.687500 0.500000
vt 0.656250 0.937500
vt 0.671875 1.000000
vt 0.687500 0.937500
vt 0.625000 0.187500
vt 0.625000 0.250000
vt 0.656250 0.250000
vt 0.656250 0.187500
vt 0.625000 0.625000
vt 0.625000 0.687500
vt 0.656250 0.687500
vt 0.656250 0.625000
vt 0.625000 0.125000
vt 0.625000 0.187500
vt 0.656250 0.187500
vt 0.656250 0.125000
vt 0.625000 0.562500
vt 0.625000 0.625000
vt 0.656250 0.625000
vt 0.656250 0.562500
vt 0.625000 0.062500
vt 0.625000 0.125000
vt 0.656250 0.125000
vt 0.656250 0.062500
vt 0.625000 0.500000
vt 0.625000 0.562500
vt 0.656250 0.562500
vt 0.656250 0.500000
vt 0.625000 0.937500
vt 0.640625 1.000000
vt 0.656250 0.937500
vt 0.625000 0.062500
vt 0.656250 0.062500
vt 0.640625 0.000000
vt 0.625000 0.437500
vt 0.625000 0.500000
vt 0.656250 0.500000
vt 0.656250 0.437500
vt 0.625000 0.875000
vt 0.625000 0.937500
vt 0.656250 0.937500
vt 0.656250 0.875000
vt 0.625000 0.375000
vt 0.625000 0.437500
vt 0.656250 0.437500
vt 0.656250 0.375000
vt 0.625000 0.812500
vt 0.625000 0.875000
vt 0.656250 0.875000
vt 0.656250 0.812500
vt 0.625000 0.312500
vt 0.625000 0.375000
vt 0.656250 0.375000
vt 0.656250 0.312500
vt 0.625000 0.750000
vt 0.625000 0.812500
vt 0.656250 0.812500
vt 0.656250 0.750000
vt 0.625000 0.250000
vt 0.625000 0.312500
vt 0.656250 0.312500
vt 0.656250 0.250000
vt 0.625000 0.687500
vt 0.625000 0.750000
vt 0.656250 0.750000
vt 0.656250 0.687500
vt 0.593750 0.875000
vt 0.593750 0.937500
vt 0.625000 0.937500
vt 0.625000 0.875000
vt 0.593750 0.375000
vt 0.593750 0.437500
vt 0.625000 0.437500
vt 0.625000 0.375000
vt 0.593750 0.812500
vt 0.593750 0.875000
vt 0.625000 0.875000
vt 0.625000 0.812500
vt 0.593750 0.312500
vt 0.593750 0.375000
vt 0.625000 0.375000
vt 0.625000 0.312500
vt 0.593750 0.750000
vt 0.593750 0.812500
vt 0.625000 0.812500
vt 0.625000 0.750000
vt 0.593750 0.250000
vt 0.593750 0.312500
vt 0.625000 0.312500
vt 0.625000 0.250000
vt 0.593750 0.687500
vt 0.593750 0.750000
vt 0.625000 0.750000
vt 0.625000 0.687500
vt 0.593750 0.187500
vt 0.593750 0.250000
vt 0.625000 0.250000
vt 0.625000 0.187500
vt 0.593750 0.625000
vt 0.593750 0.687500
vt 0.625000 0.687500
vt 0.625000 0.625000
vt 0.593750 0.125000
vt 0.593750 0.187500
vt 0.625000 0.187500
vt 0.625000 0.125000
vt 0.593750 0.562500
vt 0.593750 0.625000
vt 0.625000 0.625000
vt 0.625000 0.562500
vt 0.593750 0.062500
vt 0.593750 0.125000
vt 0.625000 0.125000
vt 0.625000 0.062500
vt 0.593750 0.500000
vt 0.593750 0.562500
vt 0.625000 0.562500
vt 0.625000 0.500000
vt 0.593750 0.937500
vt 0.609375 1.000000
vt 0.625000 0.937500
vt 0.593750 0.062500
vt 0.625000 0.062500
vt 0.609375 0.000000
vt 0.593750 0.437500
vt 0.593750 0.500000
vt 0.625000 0.500000
vt 0.625000 0.437500
vt 0.562500 0.625000
vt 0.562500 0.687500
vt 0.593750 0.687500
vt 0.593750 0.625000
vt 0.562500 0.125000
vt 0.562500 0.187500
vt 0.593750 0.187500
vt 0.593750 0.125000
vt 0.562500 0.562500
vt 0.562500 0.625000
vt 0.593750 0.625000
vt 0.593750 0.562500
vt 0.562500 0.062500
vt 0.562500 0.125000
vt 0.593750 0.125000
vt 0.593750 0.062500
vt 0.562500 0.500000
vt 0.562500 0.562500
vt 0.593750 0.562500
vt 0.593750 0.500000
vt 0.562500 0.937500
vt 0.578125 1.000000
vt 0.593750 0.937500
vt 0.562500 0.062500
vt 0.593750 0.062500
vt 0.578125 0.000000
vt 0.562500 0.437500
vt 0.562500 0.500000
vt 0.593750 0.500000
vt 0.593750 0.437500
vt 0.562500 0.875000
vt 0.562500 0.937500
vt 0.593750 0.937500
vt 0.593750 0.875000
vt 0.562500 0.375000
vt 0.562500 0.437500
vt 0.593750 0.437500
vt 0.593750 0.375000
vt 0.562500 0.812500
vt 0.562500 0.875000
vt 0.593750 0.875000
vt 0.593750 0.812500
vt 0.562500 0.312500
vt 0.562500 0.375000
vt 0.593750 0.375000
vt 0.593750 0.312500
vt 0.562500 0.750000
vt 0.562500 0.812500
vt 0.593750 0.812500
vt 0.593750 0.750000
vt 0.562500 0.250000
vt 0.562500 0.312500
vt 0.593750 0.312500
vt 0.593750 0.250000
vt 0.562500 0.687500
vt 0.562500 0.750000
vt 0.593750 0.750000
vt 0.593750 0.687500
vt 0.562500 0.187500
vt 0.562500 0.250000
vt 0.593750 0.250000
vt 0.593750 0.187500
vt 0.531250 0.375000
vt 0.531250 0.437500
vt 0.562500 0.437500
vt 0.562500 0.375000
vt 0.531250 0.812500
vt 0.531250 0.875000
vt 0.562500 0.875000
vt 0.562500 0.812500
vt 0.531250 0.312500
vt 0.531250 0.375000
vt 0.562500 0.375000
vt 0.562500 0.312500
vt 0.531250 0.750000
vt 0.531250 0.812500
vt 0.562500 0.812500
vt 0.562500 0.750000
vt 0.531250 0.250000
vt 0.531250 0.312500
vt 0.562500 0.312500
vt 0.562500 0.250000
vt 0.531250 0.687500
vt 0.531250 0.750000
vt 0.562500 0.750000
vt 0.562500 0.687500
vt 0.531250 0.187500
vt 0.531250 0.250000
vt 0.562500 0.250000
vt 0.562500 0.187500
vt 0.531250 0.625000
vt 0.531250 0.687500
vt 0.562500 0.687500
vt 0.562500 0.625000
vt 0.531250 0.125000
vt 0.531250 0.187500
vt 0.562500 0.187500
vt 0.562500 0.125000
vt 0.531250 0.562500
vt 0.531250 0.625000
vt 0.562500 0.625000
vt 0.562500 0.562500
vt 0.531250 0.062500
vt 0.531250 0.125000
vt 0.562500 0.125000
vt 0.562500 0.062500
vt 0.531250 0.500000
vt 0.531250 0.562500
vt 0.562500 0.562500
vt 0.562500 0.500000
vt 0.531250 0.937500
vt 0.546875 1.000000
vt 0.562500 0.937500
vt 0.531250 0.062500
vt 0.562500 0.062500
vt 0.546875 0.000000
vt 0.531250 0.437500
vt 0.531250 0.500000
vt 0.562500 0.500000
vt 0.562500 0.437500
vt 0.531250 0.875000
vt 0.531250 0.937500
vt 0.562500 0.937500
vt 0.562500 0.875000
vt 0.500000 0.125000
vt 0.500000 0.187500
vt 0.531250 0.187500
vt 0.531250 0.125000
vt 0.500000 0.562500
vt 0.500000 0.625000
vt 0.531250 0.625000
vt 0.531250 0.562500
vt 0.500000 0.062500
vt 0.500000 0.125000
vt 0.531250 0.125000
vt 0.531250 0.062500
vt 0.500000 0.500000
vt 0.500000 0.562500
vt 0.531250 0.562500
vt 0.531250 0.500000
vt 0.500000 0.937500
vt 0.515625 1.000000
vt 0.531250 0.937500
vt 0.500000 0.062500
vt 0.531250 0.062500
vt 0.515625 0.000000
vt 0.500000 0.437500
vt 0.500000 0.500000
vt 0.531250 0.500000
vt 0.531250 0.437500
vt 0.500000 0.875000
vt 0.500000 0.937500
vt 0.531250 0.937500
vt 0.531250 0.875000
vt 0.500000 0.375000
vt 0.500000 0.437500
vt 0.531250 0.437500
vt 0.531250 0.375000
vt 0.500000 0.812500
vt 0.500000 0.875000
vt 0.531250 0.875000
vt 0.531250 0.812500
vt 0.500000 0.312500
vt 0.500000 0.375000
vt 0.531250 0.375000
vt 0.531250 0.312500
vt 0.500000 0.750000
vt 0.500000 0.812500
vt 0.531250 0.812500
vt 0.531250 0.750000
vt 0.500000 0.250000
vt 0.500000 0.312500
vt 0.531250 0.312500
vt 0.531250 0.250000
vt 0.500000 0.687500
vt 0.500000 0.750000
vt 0.531250 0.750000
vt 0.531250 0.687500
vt 0.500000 0.187500
vt 0.500000 0.250000
vt 0.531250 0.250000
vt 0.531250 0.187500
vt 0.500000 0.625000
vt 0.500000 0.687500
vt 0.531250 0.687500
vt 0.531250 0.625000
vt 0.468750 0.812500
vt 0.468750 0.875000
vt 0.500000 0.875000
vt 0.500000 0.812500
vt 0.468750 0.312500
vt 0.468750 0.375000
vt 0.500000 0.375000
vt 0.500000 0.312500
vt 0.468750 0.750000
vt 0.468750 0.812500
vt 0.500000 0.812500
vt 0.500000 0.750000
vt 0.468750 0.250000
vt 0.468750 0.312500
vt 0.500000 0.312500
vt 0.500000 0.250000
vt 0.468750 0.687500
vt 0.468750 0.750000
vt 0.500000 0.750000
vt 0.500000 0.687500
vt 0.468750 0.187500
vt 0.468750 0.250000
vt 0.500000 0.250000
vt 0.500000 0.187500
vt 0.468750 0.625000
vt 0.468750 0.687500
vt 0.500000 0.687500
vt 0.500000 0.625000
vt 0.468750 0.125000
vt 0.468750 0.187500
vt 0.500000 0.187500
vt 0.500000 0.125000
vt 0.468750 0.562500
vt 0.468750 0.625000
vt 0.500000 0.625000
vt 0.500000 0.562500
vt 0.468750 0.062500
vt 0.468750 0.125000
vt 0.500000 0.125000
vt 0.500000 0.062500
vt 0.468750 0.500000
vt 0.468750 0.562500
vt 0.500000 0.562500
vt 0.500000 0.500000
vt 0.468750 0.937500
vt 0.484375 1.000000
vt 0.500000 0.937500
vt 0.468750 0.062500
vt 0.500000 0.062500
vt 0.484375 0.000000
vt 0.468750 0.437500
vt 0.468750 0.500000
vt 0.500000 0.500000
vt 0.500000 0.437500
vt 0.468750 0.875000
vt 0.468750 0.937500
vt 0.500000 0.937500
vt 0.500000 0.875000
vt 0.468750 0.375000
vt 0.468750 0.437500
vt 0.500000 0.437500
vt 0.500000 0.375000
vt 0.437500 0.562500
vt 0.437500 0.625000
vt 0.468750 0.625000
vt 0.468750 0.562500
vt 0.437500 0.062500
vt 0.437500 0.125000
vt 0.468750 0.125000
vt 0.468750 0.062500
vt 0.437500 0.500000
vt 0.437500 0.562500
vt 0.468750 0.562500
vt 0.468750 0.500000
vt 0.437500 0.937500
vt 0.453125 1.000000
vt 0.468750 0.937500
vt 0.437500 0.062500
vt 0.468750 0.062500
vt 0.453125 0.000000
vt 0.437500 0.437500
vt 0.437500 0.500000
vt 0.468750 0.500000
vt 0.468750 0.437500
vt 0.437500 0.875000
vt 0.437500 0.937500
vt 0.468750 0.937500
vt 0.468750 0.875000
vt 0.437500 0.375000
vt 0.437500 0.437500
vt 0.468750 0.437500
vt 0.468750 0.375000
vt 0.437500 0.812500
vt 0.437500 0.875000
vt 0.468750 0.875000
vt 0.468750 0.812500
vt 0.437500 0.312500
vt 0.437500 0.375000
vt 0.468750 0.375000
vt 0.468750 0.312500
vt 0.437500 0.750000
vt 0.437500 0.812500
vt 0.468750 0.812500
vt 0.468750 0.750000
vt 0.437500 0.250000
vt 0.437500 0.312500
vt 0.468750 0.312500
vt 0.468750 0.250000
vt 0.437500 0.687500
vt 0.437500 0.750000
vt 0.468750 0.750000
vt 0.468750 0.687500
vt 0.437500 0.187500
vt 0.437500 0.250000
vt 0.468750 0.250000
vt 0.468750 0.187500
vt 0.437500 0.625000
vt 0.437500 0.687500
vt 0.468750 0.687500
vt 0.468750 0.625000
vt 0.437500 0.125000
vt 0.437500 0.187500
vt 0.468750 0.187500
vt 0.468750 0.125000
vt 0.406250 0.312500
vt 0.406250 0.375000
vt 0.437500 0.375000
vt 0.437500 0.312500
vt 0.406250 0.750000
vt 0.406250 0.812500
vt 0.437500 0.812500
vt 0.437500 0.750000
vt 0.406250 0.250000
vt 0.406250 0.312500
vt 0.437500 0.312500
vt 0.437500 0.250000
vt 0.406250 0.687500
vt 0.406250 0.750000
vt 0.437500 0.750000
vt 0.437500 0.687500
vt 0.406250 0.187500
vt 0.406250 0.250000
vt 0.437500 0.250000
vt 0.437500 0.187500
vt 0.406250 0.625000
vt 0.406250 0.687500
vt 0.437500 0.687500
vt 0.437500 0.625000
vt 0.406250 0.125000
vt 0.406250 0.187500
vt 0.437500 0.187500
vt 0.437500 0.125000
vt 0.406250 0.562500
vt 0.406250 0.625000
vt 0.437500 0.625000
vt 0.437500 0.562500
vt 0.406250 0.062500
vt 0.406250 0.125000
vt 0.437500 0.125000
vt 0.437500 0.062500
vt 0.406250 0.500000
vt 0.406250 0.562500
vt 0.437500 0.562500
vt 0.437500 0.500000
vt 0.406250 0.937500
vt 0.421875 1.000000
vt 0.437500 0.937500
vt 0.406250 0.062500
vt 0.437500 0.062500
vt 0.421875 0.000000
vt 0.406250 0.437500
vt 0.406250 0.500000
vt 0.437500 0.500000
vt 0.437500 0.437500
vt 0.406250 0.875000
vt 0.406250 0.937500
vt 0.437500 0.937500
vt 0.437500 0.875000
vt 0.406250 0.375000
vt 0.406250 0.437500
vt 0.437500 0.437500
vt 0.437500 0.375000
vt 0.406250 0.812500
vt 0.406250 0.875000
vt 0.437500 0.875000
vt 0.437500 0.812500
vt 0.375000 0.062500
vt 0.375000 0.125000
vt 0.406250 0.125000
vt 0.406250 0.062500
vt 0.375000 0.500000
vt 0.375000 0.562500
vt 0.406250 0.562500
vt 0.406250 0.500000
vt 0.375000 0.937500
vt 0.390625 1.000000
vt 0.406250 0.937500
vt 0.375000 0.062500
vt 0.406250 0.062500
vt 0.390625 0.000000
vt 0.375000 0.437500
vt 0.375000 0.500000
vt 0.406250 0.500000
vt 0.406250 0.437500
vt 0.375000 0.875000
vt 0.375000 0.937500
vt 0.406250 0.937500
vt 0.406250 0.875000
vt 0.375000 0.375000
vt 0.375000 0.437500
vt 0.406250 0.437500
vt 0.406250 0.375000
vt 0.375000 0.812500
vt 0.375000 0.875000
vt 0.406250 0.875000
vt 0.406250 0.812500
vt 0.375000 0.312500
vt 0.375000 0.375000
vt 0.406250 0.375000
vt 0.406250 0.312500
vt 0.375000 0.750000
vt 0.375000 0.812500
vt 0.406250 0.812500
vt 0.406250 0.750000
vt 0.375000 0.250000
vt 0.375000 0.312500
vt 0.406250 0.312500
vt 0.406250 0.250000
vt 0.375000 0.687500
vt 0.375000 0.750000
vt 0.406250 0.750000
vt 0.406250 0.687500
vt 0.375000 0.187500
vt 0.375000 0.250000
vt 0.406250 0.250000
vt 0.406250 0.187500
vt 0.375000 0.625000
vt 0.375000 0.687500
vt 0.406250 0.687500
vt 0.406250 0.625000
vt 0.375000 0.125000
vt 0.375000 0.187500
vt 0.406250 0.187500
vt 0.406250 0.125000
vt 0.375000 0.562500
vt 0.375000 0.625000
vt 0.406250 0.625000
vt 0.406250 0.562500
vt 0.343750 0.250000
vt 0.343750 0.312500
vt 0.375000 0.312500
vt 0.375000 0.250000
vt 0.343750 0.687500
vt 0.343750 0.750000
vt 0.375000 0.750000
vt 0.375000 0.687500
vt 0.343750 0.187500
vt 0.343750 0.250000
vt 0.375000 0.250000
vt 0.375000 0.187500
vt 0.343750 0.625000
vt 0.343750 0.687500
vt 0.375000 0.687500
vt 0.375000 0.625000
vt 0.343750 0.125000
vt 0.343750 0.187500
vt 0.375000 0.187500
vt 0.375000 0.125000
vt 0.343750 0.562500
vt 0.343750 0.625000
vt 0.375000 0.625000
vt 0.375000 0.562500
vt 0.343750 0.062500
vt 0.343750 0.125000
vt 0.375000 0.125000
vt 0.375000 0.062500
vt 0.343750 0.500000
vt 0.343750 0.562500
vt 0.375000 0.562500
vt 0.375000 0.500000
vt 0.343750 0.937500
vt 0.359375 1.000000
vt 0.375000 0.937500
vt 0.343750 0.062500
vt 0.375000 0.062500
vt 0.359375 0.000000
vt 0.343750 0.437500
vt 0.343750 0.500000
vt 0.375000 0.500000
vt 0.375000 0.437500
vt 0.343750 0.875000
vt 0.343750 0.937500
vt 0.375000 0.937500
vt 0.375000 0.875000
vt 0.343750 0.375000
vt 0.343750 0.437500
vt 0.375000 0.437500
vt 0.375000 0.375000
vt 0.343750 0.812500
vt 0.343750 0.875000
vt 0.375000 0.875000
vt 0.375000 0.812500
vt 0.343750 0.312500
vt 0.343750 0.375000
vt 0.375000 0.375000
vt 0.375000 0.312500
vt 0.343750 0.750000
vt 0.343750 0.812500
vt 0.375000 0.812500
vt 0.375000 0.750000
vt 0.312500 0.937500
vt 0.328125 1.000000
vt 0.343750 0.937500
vt 0.312500 0.062500
vt 0.343750 0.062500
vt 0.328125 0.000000
vt 0.312500 0.437500
vt 0.312500 0.500000
vt 0.343750 0.500000
vt 0.343750 0.437500
vt 0.312500 0.875000
vt 0.312500 0.937500
vt 0.343750 0.937500
vt 0.343750 0.875000
vt 0.312500 0.375000
vt 0.312500 0.437500
vt 0.343750 0.437500
vt 0.343750 0.375000
vt 0.312500 0.812500
vt 0.312500 0.875000
vt 0.343750 0.875000
vt 0.343750 0.812500
vt 0.312500 0.312500
vt 0.312500 0.375000
vt 0.343750 0.375000
vt 0.343750 0.312500
vt 0.312500 0.750000
vt 0.312500 0.812500
vt 0.343750 0.812500
vt 0.343750 0.750000
vt 0.312500 0.250000
vt 0.312500 0.312500
vt 0.343750 0.312500
vt 0.343750 0.250000
vt 0.312500 0.687500
vt 0.312500 0.750000
vt 0.343750 0.750000
vt 0.343750 0.687500
vt 0.312500 0.187500
vt 0.312500 0.250000
vt 0.343750 0.250000
vt 0.343750 0.187500
vt 0.312500 0.625000
vt 0.312500 0.687500
vt 0.343750 0.687500
vt 0.343750 0.625000
vt 0.312500 0.125000
vt 0.312500 0.187500
vt 0.343750 0.187500
vt 0.343750 0.125000
vt 0.312500 0.562500
vt 0.312500 0.625000
vt 0.343750 0.625000
vt 0.343750 0.562500
vt 0.312500 0.062500
vt 0.312500 0.125000
vt 0.343750 0.125000
vt 0.343750 0.062500
vt 0.312500 0.500000
vt 0.312500 0.562500
vt 0.343750 0.562500
vt 0.343750 0.500000
vt 0.281250 0.687500
vt 0.281250 0.750000
vt 0.312500 0.750000
vt 0.312500 0.687500
vt 0.281250 0.187500
vt 0.281250 0.250000
vt 0.312500 0.250000
vt 0.312500 0.187500
vt 0.281250 0.625000
vt 0.281250 0.687500
vt 0.312500 0.687500
vt 0.312500 0.625000
vt 0.281250 0.125000
vt 0.281250 0.187500
vt 0.312500 0.187500
vt 0.312500 0.125000
vt 0.281250 0.562500
vt 0.281250 0.625000
vt 0.312500 0.625000
vt 0.312500 0.562500
vt 0.281250 0.062500
vt 0.281250 0.125000
vt 0.312500 0.125000
vt 0.312500 0.062500
vt 0.281250 0.500000
vt 0.281250 0.562500
vt 0.312500 0.562500
vt 0.312500 0.500000
vt 0.281250 0.937500
vt 0.296875 1.000000
vt 0.312500 0.937500
vt 0.281250 0.062500
vt 0.312500 0.062500
vt 0.296875 0.000000
vt 0.281250 0.437500
vt 0.281250 0.500000
vt 0.312500 0.500000
vt 0.312500 0.437500
vt 0.281250 0.875000
vt 0.281250 0.937500
vt 0.312500 0.937500
vt 0.312500 0.875000
vt 0.281250 0.375000
vt 0.281250 0.437500
vt 0.312500 0.437500
vt 0.312500 0.375000
vt 0.281250 0.812500
vt 0.281250 0.875000
vt 0.312500 0.875000
vt 0.312500 0.812500
vt 0.281250 0.312500
vt 0.281250 0.375000
vt 0.312500 0.375000
vt 0.312500 0.312500
vt 0.281250 0.750000
vt 0.281250 0.812500
vt 0.312500 0.812500
vt 0.312500 0.750000
vt 0.281250 0.250000
vt 0.281250 0.312500
vt 0.312500 0.312500
vt 0.312500 0.250000
vt 0.250000 0.437500
vt 0.250000 0.500000
vt 0.281250 0.500000
vt 0.281250 0.437500
vt 0.250000 0.875000
vt 0.250000 0.937500
vt 0.281250 0.937500
vt 0.281250 0.875000
vt 0.250000 0.375000
vt 0.250000 0.437500
vt 0.281250 0.437500
vt 0.281250 0.375000
vt 0.250000 0.812500
vt 0.250000 0.875000
vt 0.281250 0.875000
vt 0.281250 0.812500
vt 0.250000 0.312500
vt 0.250000 0.375000
vt 0.281250 0.375000
vt 0.281250 0.312500
vt 0.250000 0.750000
vt 0.250000 0.812500
vt 0.281250 0.812500
vt 0.281250 0.750000
vt 0.250000 0.250000
vt 0.250000 0.312500
vt 0.281250 0.312500
vt 0.281250 0.250000
vt 0.250000 0.687500
vt 0.250000 0.750000
vt 0.281250 0.750000
vt 0.281250 0.687500
vt 0.250000 0.187500
vt 0.250000 0.250000
vt 0.281250 0.250000
vt 0.281250 0.187500
vt 0.250000 0.625000
vt 0.250000 0.687500
vt 0.281250 0.687500
vt 0.281250 0.625000
vt 0.250000 0.125000
vt 0.250000 0.187500
vt 0.281250 0.187500
vt 0.281250 0.125000
vt 0.250000 0.562500
vt 0.250000 0.625000
vt 0.281250 0.625000
vt 0.281250 0.562500
vt 0.250000 0.062500
vt 0.250000 0.125000
vt 0.281250 0.125000
vt 0.281250 0.062500
vt 0.250000 0.500000
vt 0.250000 0.562500
vt 0.281250 0.562500
vt 0.281250 0.500000
vt 0.250000 0.937500
vt 0.265625 1.000000
vt 0.281250 0.937500
vt 0.250000 0.062500
vt 0.281250 0.062500
vt 0.265625 0.000000
vt 0.218750 0.187500
vt 0.218750 0.250000
vt 0.250000 0.250000
vt 0.250000 0.187500
vt 0.218750 0.625000
vt 0.218750 0.687500
vt 0.250000 0.687500
vt 0.250000 0.625000
vt 0.218750 0.125000
vt 0.218750 0.187500
vt 0.250000 0.187500
vt 0.250000 0.125000
vt 0.218750 0.562500
vt 0.218750 0.625000
vt 0.250000 0.625000
vt 0.250000 0.562500
vt 0.218750 0.062500
vt 0.218750 0.125000
vt 0.250000 0.125000
vt 0.250000 0.062500
vt 0.218750 0.500000
vt 0.218750 0.562500
vt 0.250000 0.562500
vt 0.250000 0.500000
vt 0.218750 0.937500
vt 0.234375 1.000000
vt 0.250000 0.937500
vt 0.218750 0.062500
vt 0.250000 0.062500
vt 0.234375 0.000000
vt 0.218750 0.437500
vt 0.218750 0.500000
vt 0.250000 0.500000
vt 0.250000 0.437500
vt 0.218750 0.875000
vt 0.218750 0.937500
vt 0.250000 0.937500
vt 0.250000 0.875000
vt 0.218750 0.375000
vt 0.218750 0.437500
vt 0.250000 0.437500
vt 0.250000 0.375000
vt 0.218750 0.812500
vt 0.218750 0.875000
vt 0.250000 0.875000
vt 0.250000 0.812500
vt 0.218750 0.312500
vt 0.218750 0.375000
vt 0.250000 0.375000
vt 0.250000 0.312500
vt 0.218750 0.750000
vt 0.218750 0.812500
vt 0.250000 0.812500
vt 0.250000 0.750000
vt 0.218750 0.250000
vt 0.218750 0.312500
vt 0.250000 0.312500
vt 0.250000 0.250000
vt 0.218750 0.687500
vt 0.218750 0.750000
vt 0.250000 0.750000
vt 0.250000 0.687500
vt 0.187500 0.875000
vt 0.187500 0.937500
vt 0.218750 0.937500
vt 0.218750 0.875000
vt 0.187500 0.375000
vt 0.187500 0.437500
vt 0.218750 0.437500
vt 0.218750 0.375000
vt 0.187500 0.812500
vt 0.187500 0.875000
vt 0.218750 0.875000
vt 0.218750 0.812500
vt 0.187500 0.312500
vt 0.187500 0.375000
vt 0.218750 0.375000
vt 0.218750 0.312500
vt 0.187500 0.750000
vt 0.187500 0.812500
vt 0.218750 0.812500
vt 0.218750 0.750000
vt 0.187500 0.250000
vt 0.187500 0.312500
vt 0.218750 0.312500
vt 0.218750 0.250000
vt 0.187500 0.687500
vt 0.187500 0.750000
vt 0.218750 0.750000
vt 0.218750 0.687500
vt 0.187500 0.187500
vt 0.187500 0.250000
vt 0.218750 0.250000
vt 0.218750 0.187500
vt 0.187500 0.625000
vt 0.187500 0.687500
vt 0.218750 0.687500
vt 0.218750 0.625000
vt 0.187500 0.125000
vt 0.187500 0.187500
vt 0.218750 0.187500
vt 0.218750 0.125000
vt 0.187500 0.562500
vt 0.187500 0.625000
vt 0.218750 0.625000
vt 0.218750 0.562500
vt 0.187500 0.062500
vt 0.187500 0.125000
vt 0.218750 0.125000
vt 0.218750 0.062500
vt 0.187500 0.500000
vt 0.187500 0.562500
vt 0.218750 0.562500
vt 0.218750 0.500000
vt 0.187500 0.937500
vt 0.203125 1.000000
vt 0.218750 0.937500
vt 0.187500 0.062500
vt 0.218750 0.062500
vt 0.203125 0.000000
vt 0.187500 0.437500
vt 0.187500 0.500000
vt 0.218750 0.500000
vt 0.218750 0.437500
vt 0.156250 0.625000
vt 0.156250 0.687500
vt 0.187500 0.687500
vt 0.187500 0.625000
vt 0.156250 0.125000
vt 0.156250 0.187500
vt 0.187500 0.187500
vt 0.187500 0.125000
vt 0.156250 0.562500
vt 0.156250 0.625000
vt 0.187500 0.625000
vt 0.187500 0.562500
vt 0.156250 0.062500
vt 0.156250 0.125000
vt 0.187500 0.125000
vt 0.187500 0.062500
vt 0.156250 0.500000
vt 0.156250 0.562500
vt 0.187500 0.562500
vt 0.187500 0.500000
vt 0.156250 0.937500
vt 0.171875 1.000000
vt 0.187500 0.937500
vt 0.156250 0.062500
vt 0.187500 0.062500
vt 0.171875 0.000000
vt 0.156250 0.437500
vt 0.156250 0.500000
vt 0.187500 0.500000
vt 0.187500 0.437500
vt 0.156250 0.875000
vt 0.156250 0.937500
vt 0.187500 0.937500
vt 0.187500 0.875000
vt 0.156250 0.375000
vt 0.156250 0.437500
vt 0.187500 0.437500
vt 0.187500 0.375000
vt 0.156250 0.812500
vt 0.156250 0.875000
vt 0.187500 0.875000
vt 0.187500 0.812500
vt 0.156250 0.312500
vt 0.156250 0.375000
vt 0.187500 0.375000
vt 0.187500 0.312500
vt 0.156250 0.750000
vt 0.156250 0.812500
vt 0.187500 0.812500
vt 0.187500 0.750000
vt 0.156250 0.250000
vt 0.156250 0.312500
vt 0.187500 0.312500
vt 0.187500 0.250000
vt 0.156250 0.687500
vt 0.156250 0.750000
vt 0.187500 0.750000
vt 0.187500 0.687500
vt 0.156250 0.187500
vt 0.156250 0.250000
vt 0.187500 0.250000
vt 0.187500 0.187500
vt 0.125000 0.375000
vt 0.125000 0.437500
vt 0.156250 0.437500
vt 0.156250 0.375000
vt 0.125000 0.812500
vt 0.125000 0.875000
vt 0.156250 0.875000
vt 0.156250 0.812500
vt 0.125000 0.312500
vt 0.125000 0.375000
vt 0.156250 0.375000
vt 0.156250 0.312500
vt 0.125000 0.750000
vt 0.125000 0.812500
vt 0.156250 0.812500
vt 0.156250 0.750000
vt 0.125000 0.250000
vt 0.125000 0.312500
vt 0.156250 0.312500
vt 0.156250 0.250000
vt 0.125000 0.687500
vt 0.125000 0.750000
vt 0.156250 0.750000
vt 0.156250 0.687500
vt 0.125000 0.187500
vt 0.125000 0.250000
vt 0.156250 0.250000
vt 0.156250 0.187500
vt 0.125000 0.625000
vt 0.125000 0.687500
vt 0.156250 0.687500
vt 0.156250 0.625000
vt 0.125000 0.125000
vt 0.125000 0.187500
vt 0.156250 0.187500
vt 0.156250 0.125000
vt 0.125000 0.562500
vt 0.125000 0.625000
vt 0.156250 0.625000
vt 0.156250 0.562500
vt 0.125000 0.062500
vt 0.125000 0.125000
vt 0.156250 0.125000
vt 0.156250 0.062500
vt 0.125000 0.500000
vt 0.125000 0.562500
vt 0.156250 0.562500
vt 0.156250 0.500000
vt 0.125000 0.937500
vt 0.140625 1.000000
vt 0.156250 0.937500
vt 0.125000 0.062500
vt 0.156250 0.062500
vt 0.140625 0.000000
vt 0.125000 0.437500
vt 0.125000 0.500000
vt 0.156250 0.500000
vt 0.156250 0.437500
vt 0.125000 0.875000
vt 0.125000 0.937500
vt 0.156250 0.937500
vt 0.156250 0.875000
vt 0.093750 0.125000
vt 0.093750 0.187500
vt 0.125000 0.187500
vt 0.125000 0.125000
vt 0.093750 0.562500
vt 0.093750 0.625000
vt 0.125000 0.625000
vt 0.125000 0.562500
vt 0.093750 0.062500
vt 0.093750 0.125000
vt 0.125000 0.125000
vt 0.125000 0.062500
vt 0.093750 0.500000
vt 0.093750 0.562500
vt 0.125000 0.562500
vt 0.125000 0.500000
vt 0.093750 0.937500
vt 0.109375 1.000000
vt 0.125000 0.937500
vt 0.093750 0.062500
vt 0.125000 0.062500
vt 0.109375 0.000000
vt 0.093750 0.437500
vt 0.093750 0.500000
vt 0.125000 0.500000
vt 0.125000 0.437500
vt 0.093750 0.875000
vt 0.093750 0.937500
vt 0.125000 0.937500
vt 0.125000 0.875000
vt 0.093750 0.375000
vt 0.093750 0.437500
vt 0.125000 0.437500
vt 0.125000 0.375000
vt 0.093750 0.812500
vt 0.093750 0.875000
vt 0.125000 0.875000
vt 0.125000 0.812500
vt 0.093750 0.312500
vt 0.093750 0.375000
vt 0.125000 0.375000
vt 0.125000 0.312500
vt 0.093750 0.750000
vt 0.093750 0.812500
vt 0.125000 0.812500
vt 0.125000 0.750000
vt 0.093750 0.250000
vt 0.093750 0.312500
vt 0.125000 0.312500
vt 0.125000 0.250000
vt 0.093750 0.687500
vt 0.093750 0.750000
vt 0.125000 0.750000
vt 0.125000 0.687500
vt 0.093750 0.187500
vt 0.093750 0.250000
vt 0.125000 0.250000
vt 0.125000 0.187500
vt 0.093750 0.625000
vt 0.093750 0.687500
vt 0.125000 0.687500
vt 0.125000 0.625000
vt 0.062500 0.312500
vt 0.062500 0.375000
vt 0.093750 0.375000
vt 0.093750 0.312500
vt 0.062500 0.750000
vt 0.062500 0.812500
vt 0.093750 0.812500
vt 0.093750 0.750000
vt 0.062500 0.250000
vt 0.062500 0.312500
vt 0.093750 0.312500
vt 0.093750 0.250000
vt 0.062500 0.687500
vt 0.062500 0.750000
vt 0.093750 0.750000
vt 0.093750 0.687500
vt 0.062500 0.187500
vt 0.062500 0.250000
vt 0.093750 0.250000
vt 0.093750 0.187500
vt 0.062500 0.625000
vt 0.062500 0.687500
vt 0.093750 0.687500
vt 0.093750 0.625000
vt 0.062500 0.125000
vt 0.062500 0.187500
vt 0.093750 0.187500
vt 0.093750 0.125000
vt 0.062500 0.562500
vt 0.062500 0.625000
vt 0.093750 0.625000
vt 0.093750 0.562500
vt 0.062500 0.062500
vt 0.062500 0.125000
vt 0.093750 0.125000
vt 0.093750 0.062500
vt 0.062500 0.500000
vt 0.062500 0.562500
vt 0.093750 0.562500
vt 0.093750 0.500000
vt 0.062500 0.937500
vt 0.078125 1.000000
vt 0.093750 0.937500
vt 0.062500 0.062500
vt 0.093750 0.062500
vt 0.078125 0.000000
vt 0.062500 0.437500
vt 0.062500 0.500000
vt 0.093750 0.500000
vt 0.093750 0.437500
vt 0.062500 0.875000
vt 0.062500 0.937500
vt 0.093750 0.937500
vt 0.093750 0.875000
vt 0.062500 0.375000
vt 0.062500 0.437500
vt 0.093750 0.437500
vt 0.093750 0.375000
vt 0.062500 0.812500
vt 0.062500 0.875000
vt 0.093750 0.875000
vt 0.093750 0.812500
vt 0.031250 0.062500
vt 0.031250 0.125000
vt 0.062500 0.125000
vt 0.062500 0.062500
vt 0.031250 0.500000
vt 0.031250 0.562500
vt 0.062500 0.562500
vt 0.062500 0.500000
vt 0.031250 0.937500
vt 0.046875 1.000000
vt 0.062500 0.937500
vt 0.031250 0.062500
vt 0.062500 0.062500
vt 0.046875 0.000000
vt 0.031250 0.437500
vt 0.031250 0.500000
vt 0.062500 0.500000
vt 0.062500 0.437500
vt 0.031250 0.875000
vt 0.031250 0.937500
vt 0.062500 0.937500
vt 0.062500 0.875000
vt 0.031250 0.375000
vt 0.031250 0.437500
vt 0.062500 0.437500
vt 0.062500 0.375000
vt 0.031250 0.812500
vt 0.031250 0.875000
vt 0.062500 0.875000
vt 0.062500 0.812500
vt 0.031250 0.312500
vt 0.031250 0.375000
vt 0.062500 0.375000
vt 0.062500 0.312500
vt 0.031250 0.750000
vt 0.031250 0.812500
vt 0.062500 0.812500
vt 0.062500 0.750000
vt 0.031250 0.250000
vt 0.031250 0.312500
vt 0.062500 0.312500
vt 0.062500 0.250000
vt 0.031250 0.687500
vt 0.031250 0.750000
vt 0.062500 0.750000
vt 0.062500 0.687500
vt 0.031250 0.187500
vt 0.031250 0.250000
vt 0.062500 0.250000
vt 0.062500 0.187500
vt 0.031250 0.625000
vt 0.031250 0.687500
vt 0.062500 0.687500
vt 0.062500 0.625000
vt 0.031250 0.125000
vt 0.031250 0.187500
vt 0.062500 0.187500
vt 0.062500 0.125000
vt 0.031250 0.562500
vt 0.031250 0.625000
vt 0.062500 0.625000
vt 0.062500 0.562500
vt 0.000000 0.750000
vt 0.000000 0.812500
vt 0.031250 0.812500
vt 0.031250 0.750000
vt 0.000000 0.250000
vt 0.000000 0.312500
vt 0.031250 0.312500
vt 0.031250 0.250000
vt 0.000000 0.687500
vt 0.000000 0.750000
vt 0.031250 0.750000
vt 0.031250 0.687500
vt 0.000000 0.187500
vt 0.000000 0.250000
vt 0.031250 0.250000
vt 0.031250 0.187500
vt 0.000000 0.625000
vt 0.000000 0.687500
vt 0.031250 0.687500
vt 0.031250 0.625000
vt 0.000000 0.125000
vt 0.000000 0.187500
vt 0.031250 0.187500
vt 0.031250 0.125000
vt 0.000000 0.562500
vt 0.000000 0.625000
vt 0.031250 0.625000
vt 0.031250 0.562500
vt 0.000000 0.062500
vt 0.000000 0.125000
vt 0.031250 0.125000
vt 0.031250 0.062500
vt 0.000000 0.500000
vt 0.000000 0.562500
vt 0.031250 0.562500
vt 0.031250 0.500000
vt 0.000000 0.937500
vt 0.015625 1.000000
vt 0.031250 0.937500
vt 0.000000 0.062500
vt 0.031250 0.062500
vt 0.015625 0.000000
vt 0.000000 0.437500
vt 0.000000 0.500000
vt 0.031250 0.500000
vt 0.031250 0.437500
vt 0.000000 0.875000
vt 0.000000 0.937500
vt 0.031250 0.937500
vt 0.031250 0.875000
vt 0.000000 0.375000
vt 0.000000 0.437500
vt 0.031250 0.437500
vt 0.031250 0.375000
vt 0.000000 0.812500
vt 0.000000 0.875000
vt 0.031250 0.875000
vt 0.031250 0.812500
vt 0.000000 0.312500
vt 0.000000 0.375000
vt 0.031250 0.375000
vt 0.031250 0.312500
vt 0.968750 0.500000
vt 0.968750 0.562500
vt 1.000000 0.562500
vt 1.000000 0.500000
vt 0.968750 0.937500
vt 0.984375 1.000000
vt 1.000000 0.937500
vt 0.968750 0.062500
vt 1.000000 0.062500
vt 0.984375 0.000000
vt 0.968750 0.437500
vt 0.968750 0.500000
vt 1.000000 0.500000
vt 1.000000 0.437500
vt 0.968750 0.875000
vt 0.968750 0.937500
vt 1.000000 0.937500
vt 1.000000 0.875000
vt 0.968750 0.375000
vt 0.968750 0.437500
vt 1.000000 0.437500
vt 1.000000 0.375000
vt 0.968750 0.812500
vt 0.968750 0.875000
vt 1.000000 0.875000
vt 1.000000 0.812500
vt 0.968750 0.312500
vt 0.968750 0.375000
vt 1.000000 0.375000
vt 1.000000 0.312500
vt 0.968750 0.750000
vt 0.968750 0.812500
vt 1.000000 0.812500
vt 1.000000 0.750000
vt 0.968750 0.250000
vt 0.968750 0.312500
vt 1.000000 0.312500
vt 1.000000 0.250000
vt 0.968750 0.687500
vt 0.968750 0.750000
vt 1.000000 0.750000
vt 1.000000 0.687500
vt 0.968750 0.187500
vt 0.968750 0.250000
vt 1.000000 0.250000
vt 1.000000 0.187500
vt 0.968750 0.625000
vt 0.968750 0.687500
vt 1.000000 0.687500
vt 1.000000 0.625000
vt 0.968750 0.125000
vt 0.968750 0.187500
vt 1.000000 0.187500
vt 1.000000 0.125000
vt 0.968750 0.562500
vt 0.968750 0.625000
vt 1.000000 0.625000
vt 1.000000 0.562500
vt 0.968750 0.062500
vt 0.968750 0.125000
vt 1.000000 0.125000
vt 1.000000 0.062500
vt 0.937500 0.250000
vt 0.937500 0.312500
vt 0.968750 0.312500
vt 0.968750 0.250000
vt 0.937500 0.687500
vt 0.937500 0.750000
vt 0.968750 0.750000
vt 0.968750 0.687500
vt 0.937500 0.187500
vt 0.937500 0.250000
vt 0.968750 0.250000
vt 0.968750 0.187500
vt 0.937500 0.625000
vt 0.937500 0.687500
vt 0.968750 0.687500
vt 0.968750 0.625000
vt 0.937500 0.125000
vt 0.937500 0.187500
vt 0.968750 0.187500
vt 0.968750 0.125000
vt 0.937500 0.562500
vt 0.937500 0.625000
vt 0.968750 0.625000
vt 0.968750 0.562500
vt 0.937500 0.062500
vt 0.937500 0.125000
vt 0.968750 0.125000
vt 0.968750 0.062500
vt 0.937500 0.500000
vt 0.937500 0.562500
vt 0.968750 0.562500
vt 0.968750 0.500000
vt 0.937500 0.937500
vt 0.953125 1.000000
vt 0.968750 0.937500
vt 0.937500 0.062500
vt 0.968750 0.062500
vt 0.953125 0.000000
vt 0.937500 0.437500
vt 0.937500 0.500000
vt 0.968750 0.500000
vt 0.968750 0.437500
vt 0.937500 0.875000
vt 0.937500 0.937500
vt 0.968750 0.937500
vt 0.968750 0.875000
vt 0.937500 0.375000
vt 0.937500 0.437500
vt 0.968750 0.437500
vt 0.968750 0.375000
vt 0.937500 0.812500
vt 0.937500 0.875000
vt 0.968750 0.875000
vt 0.968750 0.812500
vt 0.937500 0.312500
vt 0.937500 0.375000
vt 0.968750 0.375000
vt 0.968750 0.312500
vt 0.937500 0.750000
vt 0.937500 0.812500
vt 0.968750 0.812500
vt 0.968750 0.750000
vt 0.906250 0.937500
vt 0.921875 1.000000
vt 0.937500 0.937500
vt 0.906250 0.062500
vt 0.937500 0.062500
vt 0.921875 0.000000
vt 0.906250 0.437500
vt 0.906250 0.500000
vt 0.937500 0.500000
vt 0.937500 0.437500
vt 0.906250 0.875000
vt 0.906250 0.937500
vt 0.937500 0.937500
vt 0.937500 0.875000
vt 0.906250 0.375000
vt 0.906250 0.437500
vt 0.937500 0.437500
vt 0.937500 0.375000
vt 0.906250 0.812500
vt 0.906250 0.875000
vt 0.937500 0.875000
vt 0.937500 0.812500
vt 0.906250 0.312500
vt 0.906250 0.375000
vt 0.937500 0.375000
vt 0.937500 0.312500
vt 0.906250 0.750000
vt 0.906250 0.812500
vt 0.937500 0.812500
vt 0.937500 0.750000
vt 0.906250 0.250000
vt 0.906250 0.312500
vt 0.937500 0.312500
vt 0.937500 0.250000
vt 0.906250 0.687500
vt 0.906250 0.750000
vt 0.937500 0.750000
vt 0.937500 0.687500
vt 0.906250 0.187500
vt 0.906250 0.250000
vt 0.937500 0.250000
vt 0.937500 0.187500
vt 0.906250 0.625000
vt 0.906250 0.687500
vt 0.937500 0.687500
vt 0.937500 0.625000
vt 0.906250 0.125000
vt 0.906250 0.187500
vt 0.937500 0.187500
vt 0.937500 0.125000
vt 0.906250 0.562500
vt 0.906250 0.625000
vt 0.937500 0.625000
vt 0.937500 0.562500
vt 0.906250 0.062500
vt 0.906250 0.125000
vt 0.937500 0.125000
vt 0.937500 0.062500
vt 0.906250 0.500000
vt 0.906250 0.562500
vt 0.937500 0.562500
vt 0.937500 0.500000
vt 0.875000 0.687500
vt 0.875000 0.750000
vt 0.906250 0.750000
vt 0.906250 0.687500
vt 0.875000 0.187500
vt 0.875000 0.250000
vt 0.906250 0.250000
vt 0.906250 0.187500
vt 0.875000 0.625000
vt 0.875000 0.687500
vt 0.906250 0.687500
vt 0.906250 0.625000
vt 0.875000 0.125000
vt 0.875000 0.187500
vt 0.906250 0.187500
vt 0.906250 0.125000
vt 0.875000 0.562500
vt 0.875000 0.625000
vt 0.906250 0.625000
vt 0.906250 0.562500
vt 0.875000 0.062500
vt 0.875000 0.125000
vt 0.906250 0.125000
vt 0.906250 0.062500
vt 0.875000 0.500000
vt 0.875000 0.562500
vt 0.906250 0.562500
vt 0.906250 0.500000
vt 0.875000 0.937500
vt 0.890625 1.000000
vt 0.906250 0.937500
vt 0.875000 0.062500
vt 0.906250 0.062500
vt 0.890625 0.000000
vt 0.875000 0.437500
vt 0.875000 0.500000
vt 0.906250 0.500000
vt 0.906250 0.437500
vt 0.875000 0.875000
vt 0.875000 0.937500
vt 0.906250 0.937500
vt 0.906250 0.875000
vt 0.875000 0.375000
vt 0.875000 0.437500
vt 0.906250 0.437500
vt 0.906250 0.375000
vt 0.875000 0.812500
vt 0.875000 0.875000
vt 0.906250 0.875000
vt 0.906250 0.812500
vt 0.875000 0.312500
vt 0.875000 0.375000
vt 0.906250 0.375000
vt 0.906250 0.312500
vt 0.875000 0.750000
vt 0.875000 0.812500
vt 0.906250 0.812500
vt 0.906250 0.750000
vt 0.875000 0.250000
vt 0.875000 0.312500
vt 0.906250 0.312500
vt 0.906250 0.250000
vt 0.843750 0.437500
vt 0.843750 0.500000
vt 0.875000 0.500000
vt 0.875000 0.437500
vt 0.843750 0.875000
vt 0.843750 0.937500
vt 0.875000 0.937500
vt 0.875000 0.875000
vt 0.843750 0.375000
vt 0.843750 0.437500
vt 0.875000 0.437500
vt 0.875000 0.375000
vt 0.843750 0.812500
vt 0.843750 0.875000
vt 0.875000 0.875000
vt 0.875000 0.812500
vt 0.843750 0.312500
vt 0.843750 0.375000
vt 0.875000 0.375000
vt 0.875000 0.312500
vt 0.843750 0.750000
vt 0.843750 0.812500
vt 0.875000 0.812500
vt 0.875000 0.750000
vt 0.843750 0.250000
vt 0.843750 0.312500
vt 0.875000 0.312500
vt 0.875000 0.250000
vt 0.843750 0.687500
vt 0.843750 0.750000
vt 0.875000 0.750000
vt 0.875000 0.687500
vt 0.843750 0.187500
vt 0.843750 0.250000
vt 0.875000 0.250000
vt 0.875000 0.187500
vt 0.843750 0.625000
vt 0.843750 0.687500
vt 0.875000 0.687500
vt 0.875000 0.625000
vt 0.843750 0.125000
vt 0.843750 0.187500
vt 0.875000 0.187500
vt 0.875000 0.125000
vt 0.843750 0.562500
vt 0.843750 0.625000
vt 0.875000 0.625000
vt 0.875000 0.562500
vt 0.843750 0.062500
vt 0.843750 0.125000
vt 0.875000 0.125000
vt 0.875000 0.062500
vt 0.843750 0.500000
vt 0.843750 0.562500
vt 0.875000 0.562500
vt 0.875000 0.500000
vt 0.843750 0.937500
vt 0.859375 1.000000
vt 0.875000 0.937500
vt 0.843750 0.062500
vt 0.875000 0.062500
vt 0.859375 0.000000
vt 0.812500 0.187500
vt 0.812500 0.250000
vt 0.843750 0.250000
vt 0.843750 0.187500
vt 0.812500 0.625000
vt 0.812500 0.687500
vt 0.843750 0.687500
vt 0.843750 0.625000
vt 0.812500 0.125000
vt 0.812500 0.187500
vt 0.843750 0.187500
vt 0.843750 0.125000
vt 0.812500 0.562500
vt 0.812500 0.625000
vt 0.843750 0.625000
vt 0.843750 0.562500
vt 0.812500 0.062500
vt 0.812500 0.125000
vt 0.843750 0.125000
vt 0.843750 0.062500
vt 0.812500 0.500000
vt 0.812500 0.562500
vt 0.843750 0.562500
vt 0.843750 0.500000
vt 0.812500 0.937500
vt 0.828125 1.000000
vt 0.843750 0.937500
vt 0.812500 0.062500
vt 0.843750 0.062500
vt 0.828125 0.000000
vt 0.812500 0.437500
vt 0.812500 0.500000
vt 0.843750 0.500000
vt 0.843750 0.437500
vt 0.812500 0.875000
vt 0.812500 0.937500
vt 0.843750 0.937500
vt 0.843750 0.875000
vt 0.812500 0.375000
vt 0.812500 0.437500
vt 0.843750 0.437500
vt 0.843750 0.375000
vt 0.812500 0.812500
vt 0.812500 0.875000
vt 0.843750 0.875000
vt 0.843750 0.812500
vt 0.812500 0.312500
vt 0.812500 0.375000
vt 0.843750 0.375000
vt 0.843750 0.312500
vt 0.812500 0.750000
vt 0.812500 0.812500
vt 0.843750 0.812500
vt 0.843750 0.750000
vt 0.812500 0.250000
vt 0.812500 0.312500
vt 0.843750 0.312500
vt 0.843750 0.250000
vt 0.812500 0.687500
vt 0.812500 0.750000
vt 0.843750 0.750000
vt 0.843750 0.687500
vt 0.781250 0.375000
vt 0.781250 0.437500
vt 0.812500 0.437500
vt 0.812500 0.375000
vt 0.781250 0.812500
vt 0.781250 0.875000
vt 0.812500 0.875000
vt 0.812500 0.812500
vt 0.781250 0.312500
vt 0.781250 0.375000
vt 0.812500 0.375000
vt 0.812500 0.312500
vt 0.781250 0.750000
vt 0.781250 0.812500
vt 0.812500 0.812500
vt 0.812500 0.750000
vt 0.781250 0.250000
vt 0.781250 0.312500
vt 0.812500 0.312500
vt 0.812500 0.250000
vt 0.781250 0.687500
vt 0.781250 0.750000
vt 0.812500 0.750000
vt 0.812500 0.687500
vt 0.781250 0.187500
vt 0.781250 0.250000
vt 0.812500 0.250000
vt 0.812500 0.187500
vt 0.781250 0.625000
vt 0.781250 0.687500
vt 0.812500 0.687500
vt 0.812500 0.625000
vt 0.781250 0.125000
vt 0.781250 0.187500
vt 0.812500 0.187500
vt 0.812500 0.125000
vt 0.781250 0.562500
vt 0.781250 0.625000
vt 0.812500 0.625000
vt 0.812500 0.562500
vt 0.781250 0.062500
vt 0.781250 0.125000
vt 0.812500 0.125000
vt 0.812500 0.062500
vt 0.781250 0.500000
vt 0.781250 0.562500
vt 0.812500 0.562500
vt 0.812500 0.500000
vt 0.781250 0.937500
vt 0.796875 1.000000
vt 0.812500 0.937500
vt 0.781250 0.062500
vt 0.812500 0.062500
vt 0.796875 0.000000
vt 0.781250 0.437500
vt 0.781250 0.500000
vt 0.812500 0.500000
vt 0.812500 0.437500
vt 0.781250 0.875000
vt 0.781250 0.937500
vt 0.812500 0.937500
vt 0.812500 0.875000
vt 0.750000 0.125000
vt 0.750000 0.187500
vt 0.781250 0.187500
vt 0.781250 0.125000
vt 0.750000 0.562500
vt 0.750000 0.625000
vt 0.781250 0.625000
vt 0.781250 0.562500
vt 0.750000 0.062500
vt 0.750000 0.125000
vt 0.781250 0.125000
vt 0.781250 0.062500
vt 0.750000 0.500000
vt 0.750000 0.562500
vt 0.781250 0.562500
vt 0.781250 0.500000
vt 0.750000 0.937500
vt 0.765625 1.000000
vt 0.781250 0.937500
vt 0.750000 0.062500
vt 0.781250 0.062500
vt 0.765625 0.000000
vt 0.750000 0.437500
vt 0.750000 0.500000
vt 0.781250 0.500000
vt 0.781250 0.437500
vt 0.750000 0.875000
vt 0.750000 0.937500
vt 0.781250 0.937500
vt 0.781250 0.875000
vt 0.750000 0.375000
vt 0.750000 0.437500
vt 0.781250 0.437500
vt 0.781250 0.375000
vt 0.750000 0.812500
vt 0.750000 0.875000
vt 0.781250 0.875000
vt 0.781250 0.812500
vt 0.750000 0.312500
vt 0.750000 0.375000
vt 0.781250 0.375000
vt 0.781250 0.312500
vt 0.750000 0.750000
vt 0.750000 0.812500
vt 0.781250 0.812500
vt 0.781250 0.750000
vt 0.750000 0.250000
vt 0.750000 0.312500
vt 0.781250 0.312500
vt 0.781250 0.250000
vt 0.750000 0.687500
vt 0.750000 0.750000
vt 0.781250 0.750000
vt 0.781250 0.687500
vt 0.750000 0.187500
vt 0.750000 0.250000
vt 0.781250 0.250000
vt 0.781250 0.187500
vt 0.750000 0.625000
vt 0.750000 0.687500
vt 0.781250 0.687500
vt 0.781250 0.625000

vn 0.086536 0.878613 -0.469628
vn 0.046379 0.470890 0.880972
vn 0.093828 0.952719 -0.289004
vn 0.028578 0.290166 0.956549
vn 0.097550 0.990438 -0.097550
vn 0.009653 0.098013 -0.995138
vn 0.009653 0.098013 0.995138
vn 0.097550 0.990438 0.097550
vn 0.028577 0.290166 -0.956549
vn 0.093835 0.952718 0.289004
vn 0.046378 0.470890 -0.880972
vn 0.086530 0.878614 0.469628
vn 0.062361 0.633159 -0.771506
vn 0.075915 0.770780 0.632562
vn 0.075911 0.770780 -0.632562
vn 0.062357 0.633159 0.771506
vn 0.224828 0.741159 0.632563
vn 0.224828 0.741159 -0.632563
vn 0.184686 0.608827 0.771506
vn 0.256282 0.844849 -0.469628
vn 0.137353 0.452794 0.880972
vn 0.277898 0.916106 -0.289004
vn 0.084638 0.279015 0.956549
vn 0.288900 0.952376 -0.097550
vn 0.028589 0.094246 -0.995138
vn 0.028589 0.094246 0.995138
vn 0.288900 0.952376 0.097550
vn 0.084638 0.279015 -0.956549
vn 0.277898 0.916106 0.289004
vn 0.137353 0.452794 -0.880972
vn 0.256282 0.844848 0.469628
vn 0.184686 0.608827 -0.771506
vn 0.046426 0.086858 0.995138
vn 0.469149 0.877715 0.097550
vn 0.137445 0.257142 -0.956549
vn 0.451281 0.844288 0.289004
vn 0.223050 0.417297 -0.880972
vn 0.416180 0.778617 0.469628
vn 0.299913 0.561098 -0.771506
vn 0.365101 0.683056 0.632563
vn 0.365101 0.683056 -0.632563
vn 0.299913 0.561098 0.771506
vn 0.416179 0.778617 -0.469628
vn 0.223050 0.417297 0.880972
vn 0.451281 0.844288 -0.289004
vn 0.137445 0.257142 0.956549
vn 0.469149 0.877715 -0.097550
vn 0.046426 0.086858 -0.995138
vn 0.403615 0.491806 0.771506
vn 0.560083 0.682463 -0.469628
vn 0.300175 0.365764 0.880972
vn 0.607322 0.740024 -0.289004
vn 0.184970 0.225387 0.956549
vn 0.631368 0.769324 -0.097550
vn 0.062479 0.076131 -0.995138
vn 0.062479 0.076131 0.995138
vn 0.631368 0.769323 0.097550
vn 0.184970 0.225387 -0.956549
vn 0.607323 0.740024 0.289004
vn 0.300175 0.365764 -0.880972
vn 0.560083 0.682463 0.469628
vn 0.403615 0.491806 -0.771506
vn 0.491344 0.598704 0.632563
vn 0.491343 0.598704 -0.632563
vn 0.225387 0.184970 -0.956549
vn 0.740025 0.607322 0.289004
vn 0.365764 0.300174 -0.880972
vn 0.682463 0.560083 0.469628
vn 0.491807 0.403615 -0.771506
vn 0.598704 0.491343 0.632563
vn 0.598704 0.491343 -0.632563
vn 0.491807 0.403615 0.771506
vn 0.682463 0.560083 -0.469628
vn 0.365764 0.300175 0.880972
vn 0.740025 0.607322 -0.289004
vn 0.225387 0.184970 0.956549
vn 0.769324 0.631368 -0.097550
vn 0.076131 0.062479 -0.995138
vn 0.076131 0.062479 0.995138
vn 0.769324 0.631367 0.097550
vn 0.778617 0.416179 -0.469628
vn 0.417297 0.223050 0.880972
vn 0.844288 0.451281 -0.289004
vn 0.257142 0.137445 0.956549
vn 0.877715 0.469149 -0.097549
vn 0.086858 0.046426 -0.995138
vn 0.086858 0.046426 0.995138
vn 0.877715 0.469148 0.097549
vn 0.257142 0.137445 -0.956549
vn 0.844288 0.451281 0.289004
vn 0.417297 0.223050 -0.880972
vn 0.778617 0.416179 0.469628
vn 0.561098 0.299913 -0.771506
vn 0.683056 0.365101 0.632563
vn 0.683056 0.365101 -0.632563
vn 0.561098 0.299913 0.771506
vn 0.916106 0.277897 0.289004
vn 0.452794 0.137353 -0.880972
vn 0.844849 0.256282 0.469628
vn 0.608827 0.184685 -0.771506
vn 0.741159 0.224828 0.632563
vn 0.741159 0.224828 -0.632563
vn 0.608827 0.184686 0.771506
vn 0.844849 0.256282 -0.469628
vn 0.452794 0.137353 0.880972
vn 0.916106 0.277897 -0.289004
vn 0.279015 0.084638 0.956549
vn 0.952377 0.288900 -0.097549
vn 0.094246 0.028589 -0.995138
vn 0.094246 0.028589 0.995138
vn 0.952377 0.288900 0.097549
vn 0.279015 0.084638 -0.956549
vn 0.470890 0.046379 0.880972
vn 0.952718 0.093834 -0.289004
vn 0.290166 0.028579 0.956549
vn 0.990438 0.097549 -0.097549
vn 0.098013 0.009653 -0.995138
vn 0.098013 0.009653 0.995138
vn 0.990438 0.097549 0.097549
vn 0.290166 0.028579 -0.956549
vn 0.952718 0.093834 0.289004
vn 0.470890 0.046379 -0.880972
vn 0.878613 0.086536 0.469628
vn 0.633159 0.062361 -0.771506
vn 0.770780 0.075915 0.632563
vn 0.770780 0.075915 -0.632563
vn 0.633159 0.062361 0.771506
vn 0.878613 0.086536 -0.469628
vn 0.470890 -0.046379 -0.880972
vn 0.878613 -0.086536 0.469628
vn 0.633159 -0.062361 -0.771506
vn 0.770780 -0.075915 0.632563
vn 0.770780 -0.075915 -0.632563
vn 0.633159 -0.062361 0.771506
vn 0.878613 -0.086536 -0.469628
vn 0.470890 -0.046379 0.880972
vn 0.952718 -0.093835 -0.289004
vn 0.290166 -0.028579 0.956549
vn 0.990438 -0.097550 -0.097549
vn 0.098013 -0.009653 -0.995138
vn 0.098013 -0.009653 0.995138
vn 0.990438 -0.097550 0.097549
vn 0.290166 -0.028579 -0.956549
vn 0.952718 -0.093835 0.289004
vn 0.916105 -0.277898 -0.289005
vn 0.279015 -0.084638 0.956549
vn 0.952376 -0.288900 -0.097549
vn 0.094246 -0.028589 -0.995138
vn 0.094246 -0.028589 0.995138
vn 0.952376 -0.288900 0.097549
vn 0.279015 -0.084638 -0.956549
vn 0.916105 -0.277898 0.289005
vn 0.452794 -0.137353 -0.880972
vn 0.844849 -0.256282 0.469628
vn 0.608827 -0.184686 -0.771506
vn 0.741159 -0.224828 0.632563
vn 0.741159 -0.224828 -0.632563
vn 0.608827 -0.184686 0.771506
vn 0.844849 -0.256282 -0.469628
vn 0.452794 -0.137354 0.880972
vn 0.778617 -0.416180 0.469628
vn 0.561098 -0.299913 -0.771506
vn 0.683056 -0.365101 0.632563
vn 0.683056 -0.365101 -0.632563
vn 0.561098 -0.299913 0.771506
vn 0.778617 -0.416180 -0.469628
vn 0.417297 -0.223050 0.880972
vn 0.844288 -0.451281 -0.289005
vn 0.257142 -0.137445 0.956549
vn 0.877715 -0.469149 -0.097549
vn 0.086858 -0.046426 -0.995138
vn 0.086858 -0.046426 0.995138
vn 0.877715 -0.469149 0.097549
vn 0.257142 -0.137445 -0.956549
vn 0.844288 -0.451281 0.289005
vn 0.417297 -0.223050 -0.880972
vn 0.225387 -0.184970 0.956549
vn 0.769324 -0.631368 -0.097548
vn 0.076131 -0.062480 -0.995138
vn 0.076131 -0.062480 0.995138
vn 0.769324 -0.631368 0.097548
vn 0.225387 -0.184970 -0.956549
vn 0.740024 -0.607322 0.289005
vn 0.365764 -0.300175 -0.880972
vn 0.682463 -0.560083 0.469628
vn 0.491806 -0.403615 -0.771506
vn 0.598703 -0.491344 0.632563
vn 0.598703 -0.491344 -0.632563
vn 0.491806 -0.403615 0.771506
vn 0.682463 -0.560084 -0.469628
vn 0.365764 -0.300175 0.880972
vn 0.740024 -0.607322 -0.289005
vn 0.491343 -0.598704 0.632563
vn 0.491343 -0.598704 -0.632563
vn 0.403615 -0.491807 0.771506
vn 0.560083 -0.682464 -0.469628
vn 0.300175 -0.365764 0.880972
vn 0.607322 -0.740025 -0.289005
vn 0.184970 -0.225387 0.956549
vn 0.631367 -0.769324 -0.097548
vn 0.062479 -0.076132 -0.995138
vn 0.062479 -0.076132 0.995138
vn 0.631367 -0.769324 0.097548
vn 0.184970 -0.225387 -0.956549
vn 0.607322 -0.740024 0.289005
vn 0.300175 -0.365764 -0.880972
vn 0.560083 -0.682464 0.469628
vn 0.403615 -0.491807 -0.771506
vn 0.046426 -0.086858 -0.995138
vn 0.046426 -0.086858 0.995138
vn 0.469148 -0.877715 0.097548
vn 0.137445 -0.257142 -0.956549
vn 0.451281 -0.844288 0.289005
vn 0.223050 -0.417297 -0.880972
vn 0.416179 -0.778617 0.469628
vn 0.299913 -0.561098 -0.771506
vn 0.365101 -0.683056 0.632563
vn 0.365101 -0.683056 -0.632563
vn 0.299913 -0.561098 0.771506
vn 0.416179 -0.778617 -0.469628
vn 0.223050 -0.417297 0.880972
vn 0.451281 -0.844288 -0.289005
vn 0.137445 -0.257142 0.956549
vn 0.469148 -0.877715 -0.097548
vn 0.224828 -0.741159 -0.632563
vn 0.184685 -0.608827 0.771506
vn 0.256282 -0.844849 -0.469628
vn 0.137353 -0.452794 0.880972
vn 0.277897 -0.916105 -0.289005
vn 0.084638 -0.279015 0.956549
vn 0.288900 -0.952377 -0.097548
vn 0.028589 -0.094246 -0.995138
vn 0.028589 -0.094246 0.995138
vn 0.288900 -0.952377 0.097548
vn 0.084638 -0.279015 -0.956549
vn 0.277897 -0.916105 0.289005
vn 0.137353 -0.452794 -0.880972
vn 0.256282 -0.844849 0.469628
vn 0.184686 -0.608827 -0.771506
vn 0.224828 -0.741159 0.632563
vn 0.097549 -0.990439 0.097548
vn 0.028579 -0.290166 -0.956549
vn 0.093834 -0.952718 0.289005
vn 0.046379 -0.470890 -0.880972
vn 0.086535 -0.878614 0.469627
vn 0.062361 -0.633159 -0.771506
vn 0.075915 -0.770780 0.632563
vn 0.075915 -0.770780 -0.632563
vn 0.062361 -0.633159 0.771506
vn 0.086536 -0.878614 -0.469627
vn 0.046379 -0.470890 0.880972
vn 0.093834 -0.952718 -0.289005
vn 0.028579 -0.290166 0.956549
vn 0.097549 -0.990439 -0.097548
vn 0.009653 -0.098013 -0.995138
vn 0.009653 -0.098013 0.995138
vn -0.062361 -0.633159 0.771505
vn -0.086536 -0.878614 -0.469627
vn -0.046379 -0.470890 0.880972
vn -0.093835 -0.952718 -0.289006
vn -0.028579 -0.290166 0.956549
vn -0.097550 -0.990438 -0.097548
vn -0.009653 -0.098013 -0.995138
vn -0.009653 -0.098013 0.995138
vn -0.097550 -0.990438 0.097548
vn -0.028579 -0.290166 -0.956549
vn -0.093835 -0.952718 0.289006
vn -0.046379 -0.470890 -0.880972
vn -0.086536 -0.878614 0.469627
vn -0.062361 -0.633159 -0.771505
vn -0.075915 -0.770780 0.632563
vn -0.075915 -0.770780 -0.632563
vn -0.084638 -0.279015 -0.956549
vn -0.277898 -0.916105 0.289006
vn -0.137354 -0.452794 -0.880972
vn -0.256283 -0.844849 0.469627
vn -0.184686 -0.608827 -0.771505
vn -0.224828 -0.741159 0.632563
vn -0.224828 -0.741159 -0.632563
vn -0.184686 -0.608827 0.771505
vn -0.256282 -0.844849 -0.469627
vn -0.137354 -0.452794 0.880972
vn -0.277898 -0.916105 -0.289006
vn -0.084638 -0.279015 0.956549
vn -0.288900 -0.952376 -0.097548
vn -0.028589 -0.094246 -0.995138
vn -0.028589 -0.094246 0.995138
vn -0.288900 -0.952376 0.097548
vn -0.416180 -0.778618 -0.469626
vn -0.223050 -0.417297 0.880972
vn -0.451281 -0.844287 -0.289006
vn -0.137445 -0.257142 0.956549
vn -0.469149 -0.877715 -0.097548
vn -0.046426 -0.086858 -0.995138
vn -0.046426 -0.086858 0.995138
vn -0.469149 -0.877715 0.097548
vn -0.137445 -0.257142 -0.956549
vn -0.451281 -0.844287 0.289006
vn -0.223050 -0.417297 -0.880972
vn -0.416180 -0.778617 0.469626
vn -0.299913 -0.561098 -0.771505
vn -0.365101 -0.683056 0.632563
vn -0.365101 -0.683056 -0.632563
vn -0.299913 -0.561098 0.771505
vn -0.607322 -0.740024 0.289006
vn -0.300175 -0.365764 -0.880972
vn -0.560084 -0.682464 0.469626
vn -0.403616 -0.491807 -0.771505
vn -0.491344 -0.598703 0.632563
vn -0.491343 -0.598703 -0.632563
vn -0.403616 -0.491807 0.771505
vn -0.560084 -0.682464 -0.469626
vn -0.300175 -0.365764 0.880972
vn -0.607322 -0.740024 -0.289006
vn -0.184970 -0.225387 0.956549
vn -0.631368 -0.769324 -0.097548
vn -0.062480 -0.076131 -0.995138
vn -0.062480 -0.076131 0.995138
vn -0.631368 -0.769324 0.097548
vn -0.184970 -0.225387 -0.956549
vn -0.365764 -0.300175 0.880972
vn -0.740024 -0.607322 -0.289006
vn -0.225387 -0.184970 0.956549
vn -0.769324 -0.631368 -0.097548
vn -0.076132 -0.062479 -0.995138
vn -0.076132 -0.062479 0.995138
vn -0.769324 -0.631368 0.097548
vn -0.225387 -0.184970 -0.956549
vn -0.740024 -0.607322 0.289006
vn -0.365764 -0.300175 -0.880972
vn -0.682464 -0.560084 0.469627
vn -0.491807 -0.403615 -0.771505
vn -0.598704 -0.491343 0.632563
vn -0.598704 -0.491343 -0.632563
vn -0.491807 -0.403615 0.771505
vn -0.682464 -0.560083 -0.469627
vn -0.778618 -0.416179 0.469627
vn -0.561099 -0.299913 -0.771505
vn -0.683056 -0.365101 0.632563
vn -0.683056 -0.365101 -0.632563
vn -0.561098 -0.299913 0.771505
vn -0.778618 -0.416180 -0.469627
vn -0.417297 -0.223050 0.880972
vn -0.844287 -0.451281 -0.289006
vn -0.257142 -0.137445 0.956549
vn -0.877715 -0.469148 -0.097548
vn -0.086858 -0.046426 -0.995138
vn -0.086858 -0.046426 0.995138
vn -0.877715 -0.469148 0.097548
vn -0.257142 -0.137445 -0.956549
vn -0.844287 -0.451281 0.289006
vn -0.417297 -0.223050 -0.880972
vn -0.279015 -0.084638 0.956549
vn -0.952377 -0.288900 -0.097548
vn -0.094246 -0.028589 -0.995138
vn -0.094246 -0.028589 0.995138
vn -0.952377 -0.288900 0.097548
vn -0.279015 -0.084638 -0.956549
vn -0.916105 -0.277897 0.289006
vn -0.452794 -0.137353 -0.880972
vn -0.844849 -0.256282 0.469626
vn -0.608827 -0.184686 -0.771505
vn -0.741159 -0.224828 0.632563
vn -0.741159 -0.224828 -0.632563
vn -0.608827 -0.184686 0.771505
vn -0.844849 -0.256282 -0.469626
vn -0.452794 -0.137353 0.880972
vn -0.916105 -0.277897 -0.289006
vn -0.633159 -0.062360 -0.771505
vn -0.770779 -0.075915 0.632563
vn -0.770779 -0.075915 -0.632563
vn -0.633159 -0.062360 0.771505
vn -0.878614 -0.086536 -0.469626
vn -0.470890 -0.046378 0.880972
vn -0.952717 -0.093834 -0.289006
vn -0.290166 -0.028579 0.956549
vn -0.990439 -0.097549 -0.097548
vn -0.098013 -0.009653 -0.995138
vn -0.098013 -0.009653 0.995138
vn -0.990439 -0.097549 0.097548
vn -0.290166 -0.028579 -0.956549
vn -0.952717 -0.093834 0.289006
vn -0.470890 -0.046378 -0.880972
vn -0.878614 -0.086535 0.469626
vn -0.990439 0.097550 -0.097548
vn -0.098013 0.009653 -0.995138
vn -0.098013 0.009653 0.995138
vn -0.990439 0.097550 0.097548
vn -0.290166 0.028579 -0.956549
vn -0.952717 0.093835 0.289006
vn -0.470890 0.046379 -0.880972
vn -0.878614 0.086536 0.469626
vn -0.633159 0.062361 -0.771505
vn -0.770779 0.075915 0.632563
vn -0.770779 0.075915 -0.632563
vn -0.633159 0.062361 0.771505
vn -0.878614 0.086536 -0.469626
vn -0.470890 0.046379 0.880972
vn -0.952717 0.093834 -0.289006
vn -0.290166 0.028579 0.956549
vn -0.741158 0.224828 0.632563
vn -0.741158 0.224828 -0.632563
vn -0.608827 0.184686 0.771505
vn -0.844850 0.256283 -0.469626
vn -0.452794 0.137354 0.880972
vn -0.916105 0.277898 -0.289006
vn -0.279015 0.084638 0.956549
vn -0.952376 0.288901 -0.097547
vn -0.094246 0.028589 -0.995138
vn -0.094246 0.028589 0.995138
vn -0.952376 0.288901 0.097547
vn -0.279015 0.084638 -0.956549
vn -0.916105 0.277898 0.289006
vn -0.452794 0.137354 -0.880972
vn -0.844849 0.256283 0.469626
vn -0.608827 0.184686 -0.771505
vn -0.086858 0.046427 -0.995138
vn -0.086858 0.046427 0.995138
vn -0.877715 0.469149 0.097547
vn -0.257142 0.137445 -0.956549
vn -0.844287 0.451281 0.289007
vn -0.417297 0.223050 -0.880972
vn -0.778618 0.416180 0.469626
vn -0.561098 0.299914 -0.771505
vn -0.683056 0.365101 0.632563
vn -0.683056 0.365101 -0.632563
vn -0.561098 0.299913 0.771505
vn -0.778618 0.416180 -0.469626
vn -0.417297 0.223050 0.880972
vn -0.844287 0.451281 -0.289007
vn -0.257142 0.137445 0.956549
vn -0.877715 0.469149 -0.097547
vn -0.598703 0.491343 -0.632563
vn -0.491807 0.403616 0.771505
vn -0.682464 0.560084 -0.469626
vn -0.365764 0.300175 0.880972
vn -0.740024 0.607322 -0.289007
vn -0.225387 0.184970 0.956549
vn -0.769324 0.631368 -0.097547
vn -0.076131 0.062480 -0.995138
vn -0.076131 0.062480 0.995138
vn -0.769324 0.631368 0.097547
vn -0.225387 0.184970 -0.956549
vn -0.740024 0.607322 0.289007
vn -0.365764 0.300175 -0.880972
vn -0.682464 0.560084 0.469626
vn -0.491807 0.403616 -0.771505
vn -0.598703 0.491343 0.632563
vn -0.631367 0.769324 0.097547
vn -0.184970 0.225387 -0.956549
vn -0.607321 0.740024 0.289007
vn -0.300175 0.365764 -0.880972
vn -0.560084 0.682465 0.469626
vn -0.403615 0.491807 -0.771505
vn -0.491343 0.598704 0.632563
vn -0.491343 0.598703 -0.632563
vn -0.403615 0.491807 0.771505
vn -0.560084 0.682465 -0.469626
vn -0.300175 0.365764 0.880972
vn -0.607322 0.740024 -0.289007
vn -0.184970 0.225387 0.956549
vn -0.631367 0.769324 -0.097547
vn -0.062479 0.076132 -0.995138
vn -0.062479 0.076132 0.995138
vn -0.299913 0.561099 0.771505
vn -0.416180 0.778618 -0.469626
vn -0.223050 0.417298 0.880972
vn -0.451281 0.844287 -0.289007
vn -0.137445 0.257142 0.956549
vn -0.469148 0.877715 -0.097547
vn -0.046426 0.086858 -0.995138
vn -0.046426 0.086858 0.995138
vn -0.469148 0.877715 0.097547
vn -0.137445 0.257142 -0.956550
vn -0.451281 0.844287 0.289007
vn -0.223050 0.417298 -0.880972
vn -0.416180 0.778618 0.469626
vn -0.299913 0.561099 -0.771505
vn -0.365100 0.683056 0.632563
vn -0.365100 0.683056 -0.632563
vn -0.277897 0.916105 0.289007
vn -0.137353 0.452794 -0.880972
vn -0.256282 0.844850 0.469626
vn -0.184685 0.608827 -0.771505
vn -0.224828 0.741159 0.632563
vn -0.224828 0.741159 -0.632563
vn -0.184686 0.608827 0.771505
vn -0.256282 0.844850 -0.469626
vn -0.137353 0.452794 0.880972
vn -0.277897 0.916105 -0.289007
vn -0.084638 0.279015 0.956549
vn -0.288900 0.952377 -0.097547
vn -0.028589 0.094246 -0.995138
vn -0.028589 0.094246 0.995138
vn -0.288900 0.952377 0.097547
vn -0.084638 0.279015 -0.956549
vn -0.046381 0.470889 0.880972
vn -0.093834 0.952716 -0.289010
vn -0.028579 0.290166 0.956549
vn -0.097553 0.990438 -0.097550
vn -0.009653 0.098013 -0.995138
vn -0.009653 0.098013 0.995138
vn -0.097556 0.990438 0.097550
vn -0.028579 0.290166 -0.956549
vn -0.093837 0.952716 0.289010
vn -0.046378 0.470889 -0.880972
vn -0.086536 0.878616 0.469623
vn -0.062364 0.633161 -0.771504
vn -0.075917 0.770777 0.632565
vn -0.075915 0.770778 -0.632565
vn -0.062361 0.633161 0.771504
vn -0.086539 0.878615 -0.469623

f 13/1/1 12/2/1 2/3/1 478/4/1
f 21/5/2 20/6/2 7/7/2 481/8/2
f 14/9/3 13/10/3 478/11/3 3/12/3
f 22/13/4 21/14/4 481/15/4 482/16/4
f 15/17/5 14/18/5 3/19/5 4/20/5
f 8/21/6 324/22/6 475/23/6
f 22/24/7 482/25/7 263/26/7
f 16/27/8 15/28/8 4/29/8 5/30/8
f 9/31/9 8/32/9 475/33/9 476/34/9
f 17/35/10 16/36/10 5/37/10 479/38/10
f 10/39/11 9/40/11 476/41/11 1/42/11
f 18/43/12 17/44/12 479/45/12 6/46/12
f 11/47/13 10/48/13 1/49/13 477/50/13
f 19/51/14 18/52/14 6/53/14 480/54/14
f 12/55/15 11/56/15 477/57/15 2/58/15
f 20/59/16 19/60/16 480/61/16 7/62/16
f 34/63/17 33/64/17 18/65/17 19/66/17
f 27/67/18 26/68/18 11/69/18 12/70/18
f 35/71/19 34/72/19 19/73/19 20/74/19
f 28/75/20 27/76/20 12/77/20 13/78/20
f 36/79/21 35/80/21 20/81/21 21/82/21
f 29/83/22 28/84/22 13/85/22 14/86/22
f 37/87/23 36/88/23 21/89/23 22/90/23
f 30/91/24 29/92/24 14/93/24 15/94/24
f 23/95/25 324/96/25 8/97/25
f 37/98/26 22/99/26 263/100/26
f 31/101/27 30/102/27 15/103/27 16/104/27
f 24/105/28 23/106/28 8/107/28 9/108/28
f 32/109/29 31/110/29 16/111/29 17/112/29
f 25/113/30 24/114/30 9/115/30 10/116/30
f 33/117/31 32/118/31 17/119/31 18/120/31
f 26/121/32 25/122/32 10/123/32 11/124/32
f 52/125/33 37/126/33 263/127/33
f 46/128/34 45/129/34 30/130/34 31/131/34
f 39/132/35 38/133/35 23/134/35 24/135/35
f 47/136/36 46/137/36 31/138/36 32/139/36
f 40/140/37 39/141/37 24/142/37 25/143/37
f 48/144/38 47/145/38 32/146/38 33/147/38
f 41/148/39 40/149/39 25/150/39 26/151/39
f 49/152/40 48/153/40 33/154/40 34/155/40
f 42/156/41 41/157/41 26/158/41 27/159/41
f 50/160/42 49/161/42 34/162/42 35/163/42
f 43/164/43 42/165/43 27/166/43 28/167/43
f 51/168/44 50/169/44 35/170/44 36/171/44
f 44/172/45 43/173/45 28/174/45 29/175/45
f 52/176/46 51/177/46 36/178/46 37/179/46
f 45/180/47 44/181/47 29/182/47 30/183/47
f 38/184/48 324/185/48 23/186/48
f 65/187/49 64/188/49 49/189/49 50/190/49
f 58/191/50 57/192/50 42/193/50 43/194/50
f 66/195/51 65/196/51 50/197/51 51/198/51
f 59/199/52 58/200/52 43/201/52 44/202/52
f 67/203/53 66/204/53 51/205/53 52/206/53
f 60/207/54 59/208/54 44/209/54 45/210/54
f 53/211/55 324/212/55 38/213/55
f 67/214/56 52/215/56 263/216/56
f 61/217/57 60/218/57 45/219/57 46/220/57
f 54/221/58 53/222/58 38/223/58 39/224/58
f 62/225/59 61/226/59 46/227/59 47/228/59
f 55/229/60 54/230/60 39/231/60 40/232/60
f 63/233/61 62/234/61 47/235/61 48/236/61
f 56/237/62 55/238/62 40/239/62 41/240/62
f 64/241/63 63/242/63 48/243/63 49/244/63
f 57/245/64 56/246/64 41/247/64 42/248/64
f 69/249/65 68/250/65 53/251/65 54/252/65
f 77/253/66 76/254/66 61/255/66 62/256/66
f 70/257/67 69/258/67 54/259/67 55/260/67
f 78/261/68 77/262/68 62/263/68 63/264/68
f 71/265/69 70/266/69 55/267/69 56/268/69
f 79/269/70 78/270/70 63/271/70 64/272/70
f 72/273/71 71/274/71 56/275/71 57/276/71
f 80/277/72 79/278/72 64/279/72 65/280/72
f 73/281/73 72/282/73 57/283/73 58/284/73
f 81/285/74 80/286/74 65/287/74 66/288/74
f 74/289/75 73/290/75 58/291/75 59/292/75
f 82/293/76 81/294/76 66/295/76 67/296/76
f 75/297/77 74/298/77 59/299/77 60/300/77
f 68/301/78 324/302/78 53/303/78
f 82/304/79 67/305/79 263/306/79
f 76/307/80 75/308/80 60/309/80 61/310/80
f 88/311/81 87/312/81 72/313/81 73/314/81
f 96/315/82 95/316/82 80/317/82 81/318/82
f 89/319/83 88/320/83 73/321/83 74/322/83
f 97/323/84 96/324/84 81/325/84 82/326/84
f 90/327/85 89/328/85 74/329/85 75/330/85
f 83/331/86 324/332/86 68/333/86
f 97/334/87 82/335/87 263/336/87
f 91/337/88 90/338/88 75/339/88 76/340/88
f 84/341/89 83/342/89 68/343/89 69/344/89
f 92/345/90 91/346/90 76/347/90 77/348/90
f 85/349/91 84/350/91 69/351/91 70/352/91
f 93/353/92 92/354/92 77/355/92 78/356/92
f 86/357/93 85/358/93 70/359/93 71/360/93
f 94/361/94 93/362/94 78/363/94 79/364/94
f 87/365/95 86/366/95 71/367/95 72/368/95
f 95/369/96 94/370/96 79/371/96 80/372/96
f 107/373/97 106/374/97 91/375/97 92/376/97
f 100/377/98 99/378/98 84/379/98 85/380/98
f 108/381/99 107/382/99 92/383/99 93/384/99
f 101/385/100 100/386/100 85/387/100 86/388/100
f 109/389/101 108/390/101 93/391/101 94/392/101
f 102/393/102 101/394/102 86/395/102 87/396/102
f 110/397/103 109/398/103 94/399/103 95/400/103
f 103/401/104 102/402/104 87/403/104 88/404/104
f 111/405/105 110/406/105 95/407/105 96/408/105
f 104/409/106 103/410/106 88/411/106 89/412/106
f 112/413/107 111/414/107 96/415/107 97/416/107
f 105/417/108 104/418/108 89/419/108 90/420/108
f 98/421/109 324/422/109 83/423/109
f 112/424/110 97/425/110 263/426/110
f 106/427/111 105/428/111 90/429/111 91/430/111
f 99/431/112 98/432/112 83/433/112 84/434/112
f 126/435/113 125/436/113 110/437/113 111/438/113
f 119/439/114 118/440/114 103/441/114 104/442/114
f 127/443/115 126/444/115 111/445/115 112/446/115
f 120/447/116 119/448/116 104/449/116 105/450/116
f 113/451/117 324/452/117 98/453/117
f 127/454/118 112/455/118 263/456/118
f 121/457/119 120/458/119 105/459/119 106/460/119
f 114/461/120 113/462/120 98/463/120 99/464/120
f 122/465/121 121/466/121 106/467/121 107/468/121
f 115/469/122 114/470/122 99/471/122 100/472/122
f 123/473/123 122/474/123 107/475/123 108/476/123
f 116/477/124 115/478/124 100/479/124 101/480/124
f 124/481/125 123/482/125 108/483/125 109/484/125
f 117/485/126 116/486/126 101/487/126 102/488/126
f 125/489/127 124/490/127 109/491/127 110/492/127
f 118/493/128 117/494/128 102/495/128 103/496/128
f 130/497/129 129/498/129 114/499/129 115/500/129
f 138/501/130 137/502/130 122/503/130 123/504/130
f 131/505/131 130/506/131 115/507/131 116/508/131
f 139/509/132 138/510/132 123/511/132 124/512/132
f 132/513/133 131/514/133 116/515/133 117/516/133
f 140/517/134 139/518/134 124/519/134 125/520/134
f 133/521/135 132/522/135 117/523/135 118/524/135
f 141/525/136 140/526/136 125/527/136 126/528/136
f 134/529/137 133/530/137 118/531/137 119/532/137
f 142/533/138 141/534/138 126/535/138 127/536/138
f 135/537/139 134/538/139 119/539/139 120/540/139
f 128/541/140 324/542/140 113/543/140
f 142/544/141 127/545/141 263/546/141
f 136/547/142 135/548/142 120/549/142 121/550/142
f 129/551/143 128/552/143 113/553/143 114/554/143
f 137/555/144 136/556/144 121/557/144 122/558/144
f 149/559/145 148/560/145 133/561/145 134/562/145
f 157/563/146 156/564/146 141/565/146 142/566/146
f 150/567/147 149/568/147 134/569/147 135/570/147
f 143/571/148 324/572/148 128/573/148
f 157/574/149 142/575/149 263/576/149
f 151/577/150 150/578/150 135/579/150 136/580/150
f 144/581/151 143/582/151 128/583/151 129/584/151
f 152/585/152 151/586/152 136/587/152 137/588/152
f 145/589/153 144/590/153 129/591/153 130/592/153
f 153/593/154 152/594/154 137/595/154 138/596/154
f 146/597/155 145/598/155 130/599/155 131/600/155
f 154/601/156 153/602/156 138/603/156 139/604/156
f 147/605/157 146/606/157 131/607/157 132/608/157
f 155/609/158 154/610/158 139/611/158 140/612/158
f 148/613/159 147/614/159 132/615/159 133/616/159
f 156/617/160 155/618/160 140/619/160 141/620/160
f 168/621/161 167/622/161 152/623/161 153/624/161
f 161/625/162 160/626/162 145/627/162 146/628/162
f 169/629/163 168/630/163 153/631/163 154/632/163
f 162/633/164 161/634/164 146/635/164 147/636/164
f 170/637/165 169/638/165 154/639/165 155/640/165
f 163/641/166 162/642/166 147/643/166 148/644/166
f 171/645/167 170/646/167 155/647/167 156/648/167
f 164/649/168 163/650/168 148/651/168 149/652/168
f 172/653/169 171/654/169 156/655/169 157/656/169
f 165/657/170 164/658/170 149/659/170 150/660/170
f 158/661/171 324/662/171 143/663/171
f 172/664/172 157/665/172 263/666/172
f 166/667/173 165/668/173 150/669/173 151/670/173
f 159/671/174 158/672/174 143/673/174 144/674/174
f 167/675/175 166/676/175 151/677/175 152/678/175
f 160/679/176 159/680/176 144/681/176 145/682/176
f 187/683/177 186/684/177 171/685/177 172/686/177
f 180/687/178 179/688/178 164/689/178 165/690/178
f 173/691/179 324/692/179 158/693/179
f 187/694/180 172/695/180 263/696/180
f 181/697/181 180/698/181 165/699/181 166/700/181
f 174/701/182 173/702/182 158/703/182 159/704/182
f 182/705/183 181/706/183 166/707/183 167/708/183
f 175/709/184 174/710/184 159/711/184 160/712/184
f 183/713/185 182/714/185 167/715/185 168/716/185
f 176/717/186 175/718/186 160/719/186 161/720/186
f 184/721/187 183/722/187 168/723/187 169/724/187
f 177/725/188 176/726/188 161/727/188 162/728/188
f 185/729/189 184/730/189 169/731/189 170/732/189
f 178/733/190 177/734/190 162/735/190 163/736/190
f 186/737/191 185/738/191 170/739/191 171/740/191
f 179/741/192 178/742/192 163/743/192 164/744/192
f 199/745/193 198/746/193 183/747/193 184/748/193
f 192/749/194 191/750/194 176/751/194 177/752/194
f 200/753/195 199/754/195 184/755/195 185/756/195
f 193/757/196 192/758/196 177/759/196 178/760/196
f 201/761/197 200/762/197 185/763/197 186/764/197
f 194/765/198 193/766/198 178/767/198 179/768/198
f 202/769/199 201/770/199 186/771/199 187/772/199
f 195/773/200 194/774/200 179/775/200 180/776/200
f 188/777/201 324/778/201 173/779/201
f 202/780/202 187/781/202 263/782/202
f 196/783/203 195/784/203 180/785/203 181/786/203
f 189/787/204 188/788/204 173/789/204 174/790/204
f 197/791/205 196/792/205 181/793/205 182/794/205
f 190/795/206 189/796/206 174/797/206 175/798/206
f 198/799/207 197/800/207 182/801/207 183/802/207
f 191/803/208 190/804/208 175/805/208 176/806/208
f 203/807/209 324/808/209 188/809/209
f 217/810/210 202/811/210 263/812/210
f 211/813/211 210/814/211 195/815/211 196/816/211
f 204/817/212 203/818/212 188/819/212 189/820/212
f 212/821/213 211/822/213 196/823/213 197/824/213
f 205/825/214 204/826/214 189/827/214 190/828/214
f 213/829/215 212/830/215 197/831/215 198/832/215
f 206/833/216 205/834/216 190/835/216 191/836/216
f 214/837/217 213/838/217 198/839/217 199/840/217
f 207/841/218 206/842/218 191/843/218 192/844/218
f 215/845/219 214/846/219 199/847/219 200/848/219
f 208/849/220 207/850/220 192/851/220 193/852/220
f 216/853/221 215/854/221 200/855/221 201/856/221
f 209/857/222 208/858/222 193/859/222 194/860/222
f 217/861/223 216/862/223 201/863/223 202/864/223
f 210/865/224 209/866/224 194/867/224 195/868/224
f 222/869/225 221/870/225 206/871/225 207/872/225
f 230/873/226 229/874/226 214/875/226 215/876/226
f 223/877/227 222/878/227 207/879/227 208/880/227
f 231/881/228 230/882/228 215/883/228 216/884/228
f 224/885/229 223/886/229 208/887/229 209/888/229
f 232/889/230 231/890/230 216/891/230 217/892/230
f 225/893/231 224/894/231 209/895/231 210/896/231
f 218/897/232 324/898/232 203/899/232
f 232/900/233 217/901/233 263/902/233
f 226/903/234 225/904/234 210/905/234 211/906/234
f 219/907/235 218/908/235 203/909/235 204/910/235
f 227/911/236 226/912/236 211/913/236 212/914/236
f 220/915/237 219/916/237 204/917/237 205/918/237
f 228/919/238 227/920/238 212/921/238 213/922/238
f 221/923/239 220/924/239 205/925/239 206/926/239
f 229/927/240 228/928/240 213/929/240 214/930/240
f 241/931/241 240/932/241 225/933/241 226/934/241
f 234/935/242 233/936/242 218/937/242 219/938/242
f 242/939/243 241/940/243 226/941/243 227/942/243
f 235/943/244 234/944/244 219/945/244 220/946/244
f 243/947/245 242/948/245 227/949/245 228/950/245
f 236/951/246 235/952/246 220/953/246 221/954/246
f 244/955/247 243/956/247 228/957/247 229/958/247
f 237/959/248 236/960/248 221/961/248 222/962/248
f 245/963/249 244/964/249 229/965/249 230/966/249
f 238/967/250 237/968/250 222/969/250 223/970/250
f 246/971/251 245/972/251 230/973/251 231/974/251
f 239/975/252 238/976/252 223/977/252 224/978/252
f 247/979/253 246/980/253 231/981/253 232/982/253
f 240/983/254 239/984/254 224/985/254 225/986/254
f 233/987/255 324/988/255 218/989/255
f 247/990/256 232/991/256 263/992/256
f 260/993/257 259/994/257 244/995/257 245/996/257
f 253/997/258 252/998/258 237/999/258 238/1000/258
f 261/1001/259 260/1002/259 245/1003/259 246/1004/259
f 254/1005/260 253/1006/260 238/1007/260 239/1008/260
f 262/1009/261 261/1010/261 246/1011/261 247/1012/261
f 255/1013/262 254/1014/262 239/1015/262 240/1016/262
f 248/1017/263 324/1018/263 233/1019/263
f 262/1020/264 247/1021/264 263/1022/264
f 256/1023/265 255/1024/265 240/1025/265 241/1026/265
f 249/1027/266 248/1028/266 233/1029/266 234/1030/266
f 257/1031/267 256/1032/267 241/1033/267 242/1034/267
f 250/1035/268 249/1036/268 234/1037/268 235/1038/268
f 258/1039/269 257/1040/269 242/1041/269 243/1042/269
f 251/1043/270 250/1044/270 235/1045/270 236/1046/270
f 259/1047/271 258/1048/271 243/1049/271 244/1050/271
f 252/1051/272 251/1052/272 236/1053/272 237/1054/272
f 265/1055/273 264/1056/273 248/1057/273 249/1058/273
f 273/1059/274 272/1060/274 256/1061/274 257/1062/274
f 266/1063/275 265/1064/275 249/1065/275 250/1066/275
f 274/1067/276 273/1068/276 257/1069/276 258/1070/276
f 267/1071/277 266/1072/277 250/1073/277 251/1074/277
f 275/1075/278 274/1076/278 258/1077/278 259/1078/278
f 268/1079/279 267/1080/279 251/1081/279 252/1082/279
f 276/1083/280 275/1084/280 259/1085/280 260/1086/280
f 269/1087/281 268/1088/281 252/1089/281 253/1090/281
f 277/1091/282 276/1092/282 260/1093/282 261/1094/282
f 270/1095/283 269/1096/283 253/1097/283 254/1098/283
f 278/1099/284 277/1100/284 261/1101/284 262/1102/284
f 271/1103/285 270/1104/285 254/1105/285 255/1106/285
f 264/1107/286 324/1108/286 248/1109/286
f 278/1110/287 262/1111/287 263/1112/287
f 272/1113/288 271/1114/288 255/1115/288 256/1116/288
f 284/1117/289 283/1118/289 268/1119/289 269/1120/289
f 292/1121/290 291/1122/290 276/1123/290 277/1124/290
f 285/1125/291 284/1126/291 269/1127/291 270/1128/291
f 293/1129/292 292/1130/292 277/1131/292 278/1132/292
f 286/1133/293 285/1134/293 270/1135/293 271/1136/293
f 279/1137/294 324/1138/294 264/1139/294
f 293/1140/295 278/1141/295 263/1142/295
f 287/1143/296 286/1144/296 271/1145/296 272/1146/296
f 280/1147/297 279/1148/297 264/1149/297 265/1150/297
f 288/1151/298 287/1152/298 272/1153/298 273/1154/298
f 281/1155/299 280/1156/299 265/1157/299 266/1158/299
f 289/1159/300 288/1160/300 273/1161/300 274/1162/300
f 282/1163/301 281/1164/301 266/1165/301 267/1166/301
f 290/1167/302 289/1168/302 274/1169/302 275/1170/302
f 283/1171/303 282/1172/303 267/1173/303 268/1174/303
f 291/1175/304 290/1176/304 275/1177/304 276/1178/304
f 303/1179/305 302/1180/305 287/1181/305 288/1182/305
f 296/1183/306 295/1184/306 280/1185/306 281/1186/306
f 304/1187/307 303/1188/307 288/1189/307 289/1190/307
f 297/1191/308 296/1192/308 281/1193/308 282/1194/308
f 305/1195/309 304/1196/309 289/1197/309 290/1198/309
f 298/1199/310 297/1200/310 282/1201/310 283/1202/310
f 306/1203/311 305/1204/311 290/1205/311 291/1206/311
f 299/1207/312 298/1208/312 283/1209/312 284/1210/312
f 307/1211/313 306/1212/313 291/1213/313 292/1214/313
f 300/1215/314 299/1216/314 284/1217/314 285/1218/314
f 308/1219/315 307/1220/315 292/1221/315 293/1222/315
f 301/1223/316 300/1224/316 285/1225/316 286/1226/316
f 294/1227/317 324/1228/317 279/1229/317
f 308/1230/318 293/1231/318 263/1232/318
f 302/1233/319 301/1234/319 286/1235/319 287/1236/319
f 295/1237/320 294/1238/320 279/1239/320 280/1240/320
f 322/1241/321 321/1242/321 306/1243/321 307/1244/321
f 315/1245/322 314/1246/322 299/1247/322 300/1248/322
f 323/1249/323 322/1250/323 307/1251/323 308/1252/323
f 316/1253/324 315/1254/324 300/1255/324 301/1256/324
f 309/1257/325 324/1258/325 294/1259/325
f 323/1260/326 308/1261/326 263/1262/326
f 317/1263/327 316/1264/327 301/1265/327 302/1266/327
f 310/1267/328 309/1268/328 294/1269/328 295/1270/328
f 318/1271/329 317/1272/329 302/1273/329 303/1274/329
f 311/1275/330 310/1276/330 295/1277/330 296/1278/330
f 319/1279/331 318/1280/331 303/1281/331 304/1282/331
f 312/1283/332 311/1284/332 296/1285/332 297/1286/332
f 320/1287/333 319/1288/333 304/1289/333 305/1290/333
f 313/1291/334 312/1292/334 297/1293/334 298/1294/334
f 321/1295/335 320/1296/335 305/1297/335 306/1298/335
f 314/1299/336 313/1300/336 298/1301/336 299/1302/336
f 335/1303/337 334/1304/337 318/1305/337 319/1306/337
f 328/1307/338 327/1308/338 311/1309/338 312/1310/338
f 336/1311/339 335/1312/339 319/1313/339 320/1314/339
f 329/1315/340 328/1316/340 312/1317/340 313/1318/340
f 337/1319/341 336/1320/341 320/1321/341 321/1322/341
f 330/1323/342 329/1324/342 313/1325/342 314/1326/342
f 338/1327/343 337/1328/343 321/1329/343 322/1330/343
f 331/1331/344 330/1332/344 314/1333/344 315/1334/344
f 339/1335/345 338/1336/345 322/1337/345 323/1338/345
f 332/1339/346 331/1340/346 315/1341/346 316/1342/346
f 325/1343/347 324/1344/347 309/1345/347
f 339/1346/348 323/1347/348 263/1348/348
f 333/1349/349 332/1350/349 316/1351/349 317/1352/349
f 326/1353/350 325/1354/350 309/1355/350 310/1356/350
f 334/1357/351 333/1358/351 317/1359/351 318/1360/351
f 327/1361/352 326/1362/352 310/1363/352 311/1364/352
f 354/1365/353 353/1366/353 338/1367/353 339/1368/353
f 347/1369/354 346/1370/354 331/1371/354 332/1372/354
f 340/1373/355 324/1374/355 325/1375/355
f 354/1376/356 339/1377/356 263/1378/356
f 348/1379/357 347/1380/357 332/1381/357 333/1382/357
f 341/1383/358 340/1384/358 325/1385/358 326/1386/358
f 349/1387/359 348/1388/359 333/1389/359 334/1390/359
f 342/1391/360 341/1392/360 326/1393/360 327/1394/360
f 350/1395/361 349/1396/361 334/1397/361 335/1398/361
f 343/1399/362 342/1400/362 327/1401/362 328/1402/362
f 351/1403/363 350/1404/363 335/1405/363 336/1406/363
f 344/1407/364 343/1408/364 328/1409/364 329/1410/364
f 352/1411/365 351/1412/365 336/1413/365 337/1414/365
f 345/1415/366 344/1416/366 329/1417/366 330/1418/366
f 353/1419/367 352/1420/367 337/1421/367 338/1422/367
f 346/1423/368 345/1424/368 330/1425/368 331/1426/368
f 358/1427/369 357/1428/369 342/1429/369 343/1430/369
f 366/1431/370 365/1432/370 350/1433/370 351/1434/370
f 359/1435/371 358/1436/371 343/1437/371 344/1438/371
f 367/1439/372 366/1440/372 351/1441/372 352/1442/372
f 360/1443/373 359/1444/373 344/1445/373 345/1446/373
f 368/1447/374 367/1448/374 352/1449/374 353/1450/374
f 361/1451/375 360/1452/375 345/1453/375 346/1454/375
f 369/1455/376 368/1456/376 353/1457/376 354/1458/376
f 362/1459/377 361/1460/377 346/1461/377 347/1462/377
f 355/1463/378 324/1464/378 340/1465/378
f 369/1466/379 354/1467/379 263/1468/379
f 363/1469/380 362/1470/380 347/1471/380 348/1472/380
f 356/1473/381 355/1474/381 340/1475/381 341/1476/381
f 364/1477/382 363/1478/382 348/1479/382 349/1480/382
f 357/1481/383 356/1482/383 341/1483/383 342/1484/383
f 365/1485/384 364/1486/384 349/1487/384 350/1488/384
f 377/1489/385 376/1490/385 361/1491/385 362/1492/385
f 370/1493/386 324/1494/386 355/1495/386
f 384/1496/387 369/1497/387 263/1498/387
f 378/1499/388 377/1500/388 362/1501/388 363/1502/388
f 371/1503/389 370/1504/389 355/1505/389 356/1506/389
f 379/1507/390 378/1508/390 363/1509/390 364/1510/390
f 372/1511/391 371/1512/391 356/1513/391 357/1514/391
f 380/1515/392 379/1516/392 364/1517/392 365/1518/392
f 373/1519/393 372/1520/393 357/1521/393 358/1522/393
f 381/1523/394 380/1524/394 365/1525/394 366/1526/394
f 374/1527/395 373/1528/395 358/1529/395 359/1530/395
f 382/1531/396 381/1532/396 366/1533/396 367/1534/396
f 375/1535/397 374/1536/397 359/1537/397 360/1538/397
f 383/1539/398 382/1540/398 367/1541/398 368/1542/398
f 376/1543/399 375/1544/399 360/1545/399 361/1546/399
f 384/1547/400 383/1548/400 368/1549/400 369/1550/400
f 396/1551/401 395/1552/401 380/1553/401 381/1554/401
f 389/1555/402 388/1556/402 373/1557/402 374/1558/402
f 397/1559/403 396/1560/403 381/1561/403 382/1562/403
f 390/1563/404 389/1564/404 374/1565/404 375/1566/404
f 398/1567/405 397/1568/405 382/1569/405 383/1570/405
f 391/1571/406 390/1572/406 375/1573/406 376/1574/406
f 399/1575/407 398/1576/407 383/1577/407 384/1578/407
f 392/1579/408 391/1580/408 376/1581/408 377/1582/408
f 385/1583/409 324/1584/409 370/1585/409
f 399/1586/410 384/1587/410 263/1588/410
f 393/1589/411 392/1590/411 377/1591/411 378/1592/411
f 386/1593/412 385/1594/412 370/1595/412 371/1596/412
f 394/1597/413 393/1598/413 378/1599/413 379/1600/413
f 387/1601/414 386/1602/414 371/1603/414 372/1604/414
f 395/1605/415 394/1606/415 379/1607/415 380/1608/415
f 388/1609/416 387/1610/416 372/1611/416 373/1612/416
f 400/1613/417 324/1614/417 385/1615/417
f 414/1616/418 399/1617/418 263/1618/418
f 408/1619/419 407/1620/419 392/1621/419 393/1622/419
f 401/1623/420 400/1624/420 385/1625/420 386/1626/420
f 409/1627/421 408/1628/421 393/1629/421 394/1630/421
f 402/1631/422 401/1632/422 386/1633/422 387/1634/422
f 410/1635/423 409/1636/423 394/1637/423 395/1638/423
f 403/1639/424 402/1640/424 387/1641/424 388/1642/424
f 411/1643/425 410/1644/425 395/1645/425 396/1646/425
f 404/1647/426 403/1648/426 388/1649/426 389/1650/426
f 412/1651/427 411/1652/427 396/1653/427 397/1654/427
f 405/1655/428 404/1656/428 389/1657/428 390/1658/428
f 413/1659/429 412/1660/429 397/1661/429 398/1662/429
f 406/1663/430 405/1664/430 390/1665/430 391/1666/430
f 414/1667/431 413/1668/431 398/1669/431 399/1670/431
f 407/1671/432 406/1672/432 391/1673/432 392/1674/432
f 419/1675/433 418/1676/433 403/1677/433 404/1678/433
f 427/1679/434 426/1680/434 411/1681/434 412/1682/434
f 420/1683/435 419/1684/435 404/1685/435 405/1686/435
f 428/1687/436 427/1688/436 412/1689/436 413/1690/436
f 421/1691/437 420/1692/437 405/1693/437 406/1694/437
f 429/1695/438 428/1696/438 413/1697/438 414/1698/438
f 422/1699/439 421/1700/439 406/1701/439 407/1702/439
f 415/1703/440 324/1704/440 400/1705/440
f 429/1706/441 414/1707/441 263/1708/441
f 423/1709/442 422/1710/442 407/1711/442 408/1712/442
f 416/1713/443 415/1714/443 400/1715/443 401/1716/443
f 424/1717/444 423/1718/444 408/1719/444 409/1720/444
f 417/1721/445 416/1722/445 401/1723/445 402/1724/445
f 425/1725/446 424/1726/446 409/1727/446 410/1728/446
f 418/1729/447 417/1730/447 402/1731/447 403/1732/447
f 426/1733/448 425/1734/448 410/1735/448 411/1736/448
f 438/1737/449 437/1738/449 422/1739/449 423/1740/449
f 431/1741/450 430/1742/450 415/1743/450 416/1744/450
f 439/1745/451 438/1746/451 423/1747/451 424/1748/451
f 432/1749/452 431/1750/452 416/1751/452 417/1752/452
f 440/1753/453 439/1754/453 424/1755/453 425/1756/453
f 433/1757/454 432/1758/454 417/1759/454 418/1760/454
f 441/1761/455 440/1762/455 425/1763/455 426/1764/455
f 434/1765/456 433/1766/456 418/1767/456 419/1768/456
f 442/1769/457 441/1770/457 426/1771/457 427/1772/457
f 435/1773/458 434/1774/458 419/1775/458 420/1776/458
f 443/1777/459 442/1778/459 427/1779/459 428/1780/459
f 436/1781/460 435/1782/460 420/1783/460 421/1784/460
f 444/1785/461 443/1786/461 428/1787/461 429/1788/461
f 437/1789/462 436/1790/462 421/1791/462 422/1792/462
f 430/1793/463 324/1794/463 415/1795/463
f 444/1796/464 429/1797/464 263/1798/464
f 457/1799/465 456/1800/465 441/1801/465 442/1802/465
f 450/1803/466 449/1804/466 434/1805/466 435/1806/466
f 458/1807/467 457/1808/467 442/1809/467 443/1810/467
f 451/1811/468 450/1812/468 435/1813/468 436/1814/468
f 459/1815/469 458/1816/469 443/1817/469 444/1818/469
f 452/1819/470 451/1820/470 436/1821/470 437/1822/470
f 445/1823/471 324/1824/471 430/1825/471
f 459/1826/472 444/1827/472 263/1828/472
f 453/1829/473 452/1830/473 437/1831/473 438/1832/473
f 446/1833/474 445/1834/474 430/1835/474 431/1836/474
f 454/1837/475 453/1838/475 438/1839/475 439/1840/475
f 447/1841/476 446/1842/476 431/1843/476 432/1844/476
f 455/1845/477 454/1846/477 439/1847/477 440/1848/477
f 448/1849/478 447/1850/478 432/1851/478 433/1852/478
f 456/1853/479 455/1854/479 440/1855/479 441/1856/479
f 449/1857/480 448/1858/480 433/1859/480 434/1860/480
f 469/1861/481 468/1862/481 453/1863/481 454/1864/481
f 462/1865/482 461/1866/482 446/1867/482 447/1868/482
f 470/1869/483 469/1870/483 454/1871/483 455/1872/483
f 463/1873/484 462/1874/484 447/1875/484 448/1876/484
f 471/1877/485 470/1878/485 455/1879/485 456/1880/485
f 464/1881/486 463/1882/486 448/1883/486 449/1884/486
f 472/1885/487 471/1886/487 456/1887/487 457/1888/487
f 465/1889/488 464/1890/488 449/1891/488 450/1892/488
f 473/1893/489 472/1894/489 457/1895/489 458/1896/489
f 466/1897/490 465/1898/490 450/1899/490 451/1900/490
f 474/1901/491 473/1902/491 458/1903/491 459/1904/491
f 467/1905/492 466/1906/492 451/1907/492 452/1908/492
f 460/1909/493 324/1910/493 445/1911/493
f 474/1912/494 459/1913/494 263/1914/494
f 468/1915/495 467/1916/495 452/1917/495 453/1918/495
f 461/1919/496 460/1920/496 445/1921/496 446/1922/496
f 481/1923/497 7/1924/497 472/1925/497 473/1926/497
f 3/1927/498 478/1928/498 465/1929/498 466/1930/498
f 482/1931/499 481/1932/499 473/1933/499 474/1934/499
f 4/1935/500 3/1936/500 466/1937/500 467/1938/500
f 475/1939/501 324/1940/501 460/1941/501
f 482/1942/502 474/1943/502 263/1944/502
f 5/1945/503 4/1946/503 467/1947/503 468/1948/503
f 476/1949/504 475/1950/504 460/1951/504 461/1952/504
f 479/1953/505 5/1954/505 468/1955/505 469/1956/505
f 1/1957/506 476/1958/506 461/1959/506 462/1960/506
f 6/1961/507 479/1962/507 469/1963/507 470/1964/507
f 477/1965/508 1/1966/508 462/1967/508 463/1968/508
f 480/1969/509 6/1970/509 470/1971/509 471/1972/509
f 2/1973/510 477/1974/510 463/1975/510 464/1976/510
f 7/1977/511 480/1978/511 471/1979/511 472/1980/511
f 478/1981/512 2/1982/512 464/1983/512 465/1984/512
