# Exported from Blender by blender_stonefish_plugin
# Vertices: 64, Faces: 48

v 5.979000 -0.080000 1.240000
v 5.979000 -0.080000 1.160000
v 5.979000 0.080000 1.240000
v 5.979000 0.080000 1.160000
v 5.991000 -0.080000 1.240000
v 5.991000 -0.080000 1.160000
v 5.991000 0.080000 1.240000
v 5.991000 0.080000 1.160000
v -5.991000 -0.080000 1.240000
v -5.991000 -0.080000 1.160000
v -5.991000 0.080000 1.240000
v -5.991000 0.080000 1.160000
v -5.979000 -0.080000 1.240000
v -5.979000 -0.080000 1.160000
v -5.979000 0.080000 1.240000
v -5.979000 0.080000 1.160000
v 5.979000 6.920000 1.240000
v 5.979000 6.920000 1.160000
v 5.979000 7.080000 1.240000
v 5.979000 7.080000 1.160000
v 5.991000 6.920000 1.240000
v 5.991000 6.920000 1.160000
v 5.991000 7.080000 1.240000
v 5.991000 7.080000 1.160000
v -5.991000 6.920000 1.240000
v -5.991000 6.920000 1.160000
v -5.991000 7.080000 1.240000
v -5.991000 7.080000 1.160000
v -5.979000 6.920000 1.240000
v -5.979000 6.920000 1.160000
v -5.979000 7.080000 1.240000
v -5.979000 7.080000 1.160000
v 5.979000 13.920000 1.240000
v 5.979000 13.920000 1.160000
v 5.979000 14.080000 1.240000
v 5.979000 14.080000 1.160000
v 5.991000 13.920000 1.240000
v 5.991000 13.920000 1.160000
v 5.991000 14.080000 1.240000
v 5.991000 14.080000 1.160000
v -5.991000 13.920000 1.240000
v -5.991000 13.920000 1.160000
v -5.991000 14.080000 1.240000
v -5.991000 14.080000 1.160000
v -5.979000 13.920000 1.240000
v -5.979000 13.920000 1.160000
v -5.979000 14.080000 1.240000
v -5.979000 14.080000 1.160000
v 5.979000 20.920000 1.240000
v 5.979000 20.920000 1.160000
v 5.979000 21.080000 1.240000
v 5.979000 21.080000 1.160000
v 5.991000 20.920000 1.240000
v 5.991000 20.920000 1.160000
v 5.991000 21.080000 1.240000
v 5.991000 21.080000 1.160000
v -5.991000 20.920000 1.240000
v -5.991000 20.920000 1.160000
v -5.991000 21.080000 1.240000
v -5.991000 21.080000 1.160000
v -5.979000 20.920000 1.240000
v -5.979000 20.920000 1.160000
v -5.979000 21.080000 1.240000
v -5.979000 21.080000 1.160000

vt 0.400000 -6.200000
vt 0.400000 -5.800000
vt -0.400000 -5.800000
vt -0.400000 -6.200000
vt 29.955002 -6.200000
vt 29.955002 -5.800000
vt 29.895000 -5.800000
vt 29.895000 -6.200000
vt -0.400000 -6.200000
vt -0.400000 -5.800000
vt 0.400000 -5.800000
vt 0.400000 -6.200000
vt 29.895000 -6.200000
vt 29.895000 -5.800000
vt 29.955002 -5.800000
vt 29.955002 -6.200000
vt 29.895000 -0.400000
vt 29.955002 -0.400000
vt 29.955002 0.400000
vt 29.895000 0.400000
vt 29.955002 -0.400000
vt 29.895000 -0.400000
vt 29.895000 0.400000
vt 29.955002 0.400000
vt 0.400000 -6.200000
vt 0.400000 -5.800000
vt -0.400000 -5.800000
vt -0.400000 -6.200000
vt -29.895000 -6.200000
vt -29.895000 -5.800000
vt -29.955002 -5.800000
vt -29.955002 -6.200000
vt -0.400000 -6.200000
vt -0.400000 -5.800000
vt 0.400000 -5.800000
vt 0.400000 -6.200000
vt -29.955002 -6.200000
vt -29.955002 -5.800000
vt -29.895000 -5.800000
vt -29.895000 -6.200000
vt -29.955002 -0.400000
vt -29.895000 -0.400000
vt -29.895000 0.400000
vt -29.955002 0.400000
vt -29.895000 -0.400000
vt -29.955002 -0.400000
vt -29.955002 0.400000
vt -29.895000 0.400000
vt 35.400002 -6.200000
vt 35.400002 -5.800000
vt 34.599998 -5.800000
vt 34.599998 -6.200000
vt 29.955002 -6.200000
vt 29.955002 -5.800000
vt 29.895000 -5.800000
vt 29.895000 -6.200000
vt 34.599998 -6.200000
vt 34.599998 -5.800000
vt 35.400002 -5.800000
vt 35.400002 -6.200000
vt 29.895000 -6.200000
vt 29.895000 -5.800000
vt 29.955002 -5.800000
vt 29.955002 -6.200000
vt 29.895000 34.599998
vt 29.955002 34.599998
vt 29.955002 35.400002
vt 29.895000 35.400002
vt 29.955002 34.599998
vt 29.895000 34.599998
vt 29.895000 35.400002
vt 29.955002 35.400002
vt 35.400002 -6.200000
vt 35.400002 -5.800000
vt 34.599998 -5.800000
vt 34.599998 -6.200000
vt -29.895000 -6.200000
vt -29.895000 -5.800000
vt -29.955002 -5.800000
vt -29.955002 -6.200000
vt 34.599998 -6.200000
vt 34.599998 -5.800000
vt 35.400002 -5.800000
vt 35.400002 -6.200000
vt -29.955002 -6.200000
vt -29.955002 -5.800000
vt -29.895000 -5.800000
vt -29.895000 -6.200000
vt -29.955002 34.599998
vt -29.895000 34.599998
vt -29.895000 35.400002
vt -29.955002 35.400002
vt -29.895000 34.599998
vt -29.955002 34.599998
vt -29.955002 35.400002
vt -29.895000 35.400002
vt 70.400002 -6.200000
vt 70.400002 -5.800000
vt 69.599998 -5.800000
vt 69.599998 -6.200000
vt 29.955002 -6.200000
vt 29.955002 -5.800000
vt 29.895000 -5.800000
vt 29.895000 -6.200000
vt 69.599998 -6.200000
vt 69.599998 -5.800000
vt 70.400002 -5.800000
vt 70.400002 -6.200000
vt 29.895000 -6.200000
vt 29.895000 -5.800000
vt 29.955002 -5.800000
vt 29.955002 -6.200000
vt 29.895000 69.599998
vt 29.955002 69.599998
vt 29.955002 70.400002
vt 29.895000 70.400002
vt 29.955002 69.599998
vt 29.895000 69.599998
vt 29.895000 70.400002
vt 29.955002 70.400002
vt 70.400002 -6.200000
vt 70.400002 -5.800000
vt 69.599998 -5.800000
vt 69.599998 -6.200000
vt -29.895000 -6.200000
vt -29.895000 -5.800000
vt -29.955002 -5.800000
vt -29.955002 -6.200000
vt 69.599998 -6.200000
vt 69.599998 -5.800000
vt 70.400002 -5.800000
vt 70.400002 -6.200000
vt -29.955002 -6.200000
vt -29.955002 -5.800000
vt -29.895000 -5.800000
vt -29.895000 -6.200000
vt -29.955002 69.599998
vt -29.895000 69.599998
vt -29.895000 70.400002
vt -29.955002 70.400002
vt -29.895000 69.599998
vt -29.955002 69.599998
vt -29.955002 70.400002
vt -29.895000 70.400002
vt 105.400002 -6.200000
vt 105.400002 -5.800000
vt 104.599998 -5.800000
vt 104.599998 -6.200000
vt 29.955002 -6.200000
vt 29.955002 -5.800000
vt 29.895000 -5.800000
vt 29.895000 -6.200000
vt 104.599998 -6.200000
vt 104.599998 -5.800000
vt 105.400002 -5.800000
vt 105.400002 -6.200000
vt 29.895000 -6.200000
vt 29.895000 -5.800000
vt 29.955002 -5.800000
vt 29.955002 -6.200000
vt 29.895000 104.599998
vt 29.955002 104.599998
vt 29.955002 105.400002
vt 29.895000 105.400002
vt 29.955002 104.599998
vt 29.895000 104.599998
vt 29.895000 105.400002
vt 29.955002 105.400002
vt 105.400002 -6.200000
vt 105.400002 -5.800000
vt 104.599998 -5.800000
vt 104.599998 -6.200000
vt -29.895000 -6.200000
vt -29.895000 -5.800000
vt -29.955002 -5.800000
vt -29.955002 -6.200000
vt 104.599998 -6.200000
vt 104.599998 -5.800000
vt 105.400002 -5.800000
vt 105.400002 -6.200000
vt -29.955002 -6.200000
vt -29.955002 -5.800000
vt -29.895000 -5.800000
vt -29.895000 -6.200000
vt -29.955002 104.599998
vt -29.895000 104.599998
vt -29.895000 105.400002
vt -29.955002 105.400002
vt -29.895000 104.599998
vt -29.955002 104.599998
vt -29.955002 105.400002
vt -29.895000 105.400002

vn -1.000000 0.000000 -0.000000
vn 0.000000 1.000000 0.000000
vn 1.000000 0.000000 0.000000
vn 0.000000 -1.000000 0.000000
vn 0.000000 0.000000 1.000000
vn 0.000000 0.000000 -1.000000
vn -1.000000 0.000000 -0.000000
vn 0.000000 1.000000 0.000000
vn 1.000000 0.000000 0.000000
vn 0.000000 -1.000000 0.000000
vn 0.000000 0.000000 1.000000
vn 0.000000 0.000000 -1.000000
vn -1.000000 0.000000 -0.000000
vn 0.000000 1.000000 0.000000
vn 1.000000 0.000000 0.000000
vn 0.000000 -1.000000 0.000000
vn 0.000000 0.000000 1.000000
vn 0.000000 0.000000 -1.000000
vn -1.000000 0.000000 -0.000000
vn 0.000000 1.000000 0.000000
vn 1.000000 0.000000 0.000000
vn 0.000000 -1.000000 0.000000
vn 0.000000 0.000000 1.000000
vn 0.000000 0.000000 -1.000000
vn -1.000000 0.000000 -0.000000
vn 0.000000 1.000000 0.000000
vn 1.000000 0.000000 0.000000
vn 0.000000 -1.000000 0.000000
vn 0.000000 0.000000 1.000000
vn 0.000000 0.000000 -1.000000
vn -1.000000 0.000000 -0.000000
vn 0.000000 1.000000 0.000000
vn 1.000000 0.000000 0.000000
vn 0.000000 -1.000000 0.000000
vn 0.000000 0.000000 1.000000
vn 0.000000 0.000000 -1.000000
vn -1.000000 0.000000 -0.000000
vn 0.000000 1.000000 0.000000
vn 1.000000 0.000000 0.000000
vn 0.000000 -1.000000 0.000000
vn 0.000000 0.000000 1.000000
vn 0.000000 0.000000 -1.000000
vn -1.000000 0.000000 -0.000000
vn 0.000000 1.000000 0.000000
vn 1.000000 0.000000 0.000000
vn 0.000000 -1.000000 0.000000
vn 0.000000 0.000000 1.000000
vn 0.000000 0.000000 -1.000000

f 3/1/1 4/2/1 2/3/1 1/4/1
f 7/5/2 8/6/2 4/7/2 3/8/2
f 5/9/3 6/10/3 8/11/3 7/12/3
f 1/13/4 2/14/4 6/15/4 5/16/4
f 1/17/5 5/18/5 7/19/5 3/20/5
f 6/21/6 2/22/6 4/23/6 8/24/6
f 11/25/7 12/26/7 10/27/7 9/28/7
f 15/29/8 16/30/8 12/31/8 11/32/8
f 13/33/9 14/34/9 16/35/9 15/36/9
f 9/37/10 10/38/10 14/39/10 13/40/10
f 9/41/11 13/42/11 15/43/11 11/44/11
f 14/45/12 10/46/12 12/47/12 16/48/12
f 19/49/13 20/50/13 18/51/13 17/52/13
f 23/53/14 24/54/14 20/55/14 19/56/14
f 21/57/15 22/58/15 24/59/15 23/60/15
f 17/61/16 18/62/16 22/63/16 21/64/16
f 17/65/17 21/66/17 23/67/17 19/68/17
f 22/69/18 18/70/18 20/71/18 24/72/18
f 27/73/19 28/74/19 26/75/19 25/76/19
f 31/77/20 32/78/20 28/79/20 27/80/20
f 29/81/21 30/82/21 32/83/21 31/84/21
f 25/85/22 26/86/22 30/87/22 29/88/22
f 25/89/23 29/90/23 31/91/23 27/92/23
f 30/93/24 26/94/24 28/95/24 32/96/24
f 35/97/25 36/98/25 34/99/25 33/100/25
f 39/101/26 40/102/26 36/103/26 35/104/26
f 37/105/27 38/106/27 40/107/27 39/108/27
f 33/109/28 34/110/28 38/111/28 37/112/28
f 33/113/29 37/114/29 39/115/29 35/116/29
f 38/117/30 34/118/30 36/119/30 40/120/30
f 43/121/31 44/122/31 42/123/31 41/124/31
f 47/125/32 48/126/32 44/127/32 43/128/32
f 45/129/33 46/130/33 48/131/33 47/132/33
f 41/133/34 42/134/34 46/135/34 45/136/34
f 41/137/35 45/138/35 47/139/35 43/140/35
f 46/141/36 42/142/36 44/143/36 48/144/36
f 51/145/37 52/146/37 50/147/37 49/148/37
f 55/149/38 56/150/38 52/151/38 51/152/38
f 53/153/39 54/154/39 56/155/39 55/156/39
f 49/157/40 50/158/40 54/159/40 53/160/40
f 49/161/41 53/162/41 55/163/41 51/164/41
f 54/165/42 50/166/42 52/167/42 56/168/42
f 59/169/43 60/170/43 58/171/43 57/172/43
f 63/173/44 64/174/44 60/175/44 59/176/44
f 61/177/45 62/178/45 64/179/45 63/180/45
f 57/181/46 58/182/46 62/183/46 61/184/46
f 57/185/47 61/186/47 63/187/47 59/188/47
f 62/189/48 58/190/48 60/191/48 64/192/48
