# Blender 4.5.6 LTS
# www.blender.org
o pool_coping
v 5.940000 -4.350000 -0.130000
v 5.940000 -4.350000 -0.220000
v 5.940000 24.350000 -0.130000
v 5.940000 24.350000 -0.220000
v 6.300000 -4.350000 -0.130000
v 6.300000 -4.350000 -0.220000
v 6.300000 24.350000 -0.130000
v 6.300000 24.350000 -0.220000
v -6.300000 -4.350000 -0.130000
v -6.300000 -4.350000 -0.220000
v -6.300000 24.350000 -0.130000
v -6.300000 24.350000 -0.220000
v -5.940000 -4.350000 -0.130000
v -5.940000 -4.350000 -0.220000
v -5.940000 24.350000 -0.130000
v -5.940000 24.350000 -0.220000
v -6.040000 23.969999 -0.130000
v -6.040000 23.969999 -0.220000
v -6.040000 24.330000 -0.130000
v -6.040000 24.330000 -0.220000
v 6.040000 23.969999 -0.130000
v 6.040000 23.969999 -0.220000
v 6.040000 24.330000 -0.130000
v 6.040000 24.330000 -0.220000
v -6.040000 -4.330000 -0.130000
v -6.040000 -4.330000 -0.220000
v -6.040000 -3.970000 -0.130000
v -6.040000 -3.970000 -0.220000
v 6.040000 -4.330000 -0.130000
v 6.040000 -4.330000 -0.220000
v 6.040000 -3.970000 -0.130000
v 6.040000 -3.970000 -0.220000
vn -1.0000 -0.0000 -0.0000
vn -0.0000 1.0000 -0.0000
vn 1.0000 -0.0000 -0.0000
vn -0.0000 -1.0000 -0.0000
vn -0.0000 -0.0000 1.0000
vn -0.0000 -0.0000 -1.0000
vt 30.437500 0.162500
vt -5.437500 0.275000
vt -5.437500 0.162500
vt 7.875000 0.162500
vt 7.425000 0.275000
vt 7.425000 0.162500
vt 30.437500 0.275000
vt 7.875000 0.275000
vt 7.425000 -5.437500
vt 7.875000 30.437500
vt 7.425000 30.437500
vt 7.875000 -5.437500
vt -7.425000 0.162500
vt -7.875000 0.275000
vt -7.875000 0.162500
vt -7.425000 0.275000
vt -7.875000 -5.437500
vt -7.425000 30.437500
vt -7.875000 30.437500
vt -7.425000 -5.437500
vt 30.412500 0.162500
vt 29.962500 0.275000
vt 29.962500 0.162500
vt 7.550000 0.162500
vt -7.550000 0.275000
vt -7.550000 0.162500
vt 30.412500 0.275000
vt 7.550000 0.275000
vt -7.550000 29.962500
vt 7.550000 30.412500
vt -7.550000 30.412500
vt 7.550000 29.962500
vt -4.962500 0.162500
vt -5.412500 0.275000
vt -5.412500 0.162500
vt -4.962500 0.275000
vt -7.550000 -5.412500
vt 7.550000 -4.962500
vt -7.550000 -4.962500
vt 7.550000 -5.412500
s 0
f 3/1/1 2/2/1 1/3/1
f 7/4/2 4/5/2 3/6/2
f 5/3/3 8/7/3 7/1/3
f 1/6/4 6/8/4 5/4/4
f 1/9/5 7/10/5 3/11/5
f 6/12/6 4/11/6 8/10/6
f 11/1/1 10/2/1 9/3/1
f 15/13/2 12/14/2 11/15/2
f 13/3/3 16/7/3 15/1/3
f 9/15/4 14/16/4 13/13/4
f 9/17/5 15/18/5 11/19/5
f 14/20/6 12/19/6 16/18/6
f 19/21/1 18/22/1 17/23/1
f 23/24/2 20/25/2 19/26/2
f 21/23/3 24/27/3 23/21/3
f 17/26/4 22/28/4 21/24/4
f 17/29/5 23/30/5 19/31/5
f 22/32/6 20/31/6 24/30/6
f 27/33/1 26/34/1 25/35/1
f 31/24/2 28/25/2 27/26/2
f 29/35/3 32/36/3 31/33/3
f 25/26/4 30/28/4 29/24/4
f 25/37/5 31/38/5 27/39/5
f 30/40/6 28/39/6 32/38/6
f 3/1/1 4/7/1 2/2/1
f 7/4/2 8/8/2 4/5/2
f 5/3/3 6/2/3 8/7/3
f 1/6/4 2/5/4 6/8/4
f 1/9/5 5/12/5 7/10/5
f 6/12/6 2/9/6 4/11/6
f 11/1/1 12/7/1 10/2/1
f 15/13/2 16/16/2 12/14/2
f 13/3/3 14/2/3 16/7/3
f 9/15/4 10/14/4 14/16/4
f 9/17/5 13/20/5 15/18/5
f 14/20/6 10/17/6 12/19/6
f 19/21/1 20/27/1 18/22/1
f 23/24/2 24/28/2 20/25/2
f 21/23/3 22/22/3 24/27/3
f 17/26/4 18/25/4 22/28/4
f 17/29/5 21/32/5 23/30/5
f 22/32/6 18/29/6 20/31/6
f 27/33/1 28/36/1 26/34/1
f 31/24/2 32/28/2 28/25/2
f 29/35/3 30/34/3 32/36/3
f 25/26/4 26/25/4 30/28/4
f 25/37/5 29/40/5 31/38/5
f 30/40/6 26/37/6 28/39/6
