# Blender 4.5.6 LTS
# www.blender.org
o pool_tile
v -6.080000 -4.080000 3.280000
v -6.080000 -4.080000 3.000000
v -6.080000 24.080000 3.280000
v -6.080000 24.080000 3.000000
v 6.080000 -4.080000 3.280000
v 6.080000 -4.080000 3.000000
v 6.080000 24.080000 3.280000
v 6.080000 24.080000 3.000000
v 6.000000 -4.300000 3.000000
v 6.000000 -4.300000 -0.120000
v 6.000000 24.299999 3.000000
v 6.000000 24.299999 -0.120000
v 6.300000 -4.300000 3.000000
v 6.300000 -4.300000 -0.120000
v 6.300000 24.299999 3.000000
v 6.300000 24.299999 -0.120000
v -6.300000 -4.300000 3.000000
v -6.300000 -4.300000 -0.120000
v -6.300000 24.299999 3.000000
v -6.300000 24.299999 -0.120000
v -6.000000 -4.300000 3.000000
v -6.000000 -4.300000 -0.120000
v -6.000000 24.299999 3.000000
v -6.000000 24.299999 -0.120000
v -6.000000 24.000000 3.000000
v -6.000000 24.000000 -0.120000
v -6.000000 24.299999 3.000000
v -6.000000 24.299999 -0.120000
v 6.000000 24.000000 3.000000
v 6.000000 24.000000 -0.120000
v 6.000000 24.299999 3.000000
v 6.000000 24.299999 -0.120000
v -6.000000 -4.300000 3.000000
v -6.000000 -4.300000 -0.120000
v -6.000000 -4.000000 3.000000
v -6.000000 -4.000000 -0.120000
v 6.000000 -4.300000 3.000000
v 6.000000 -4.300000 -0.120000
v 6.000000 -4.000000 3.000000
v 6.000000 -4.000000 -0.120000
vn -1.0000 -0.0000 -0.0000
vn -0.0000 1.0000 -0.0000
vn 1.0000 -0.0000 -0.0000
vn -0.0000 -1.0000 -0.0000
vn -0.0000 -0.0000 1.0000
vn -0.0000 -0.0000 -1.0000
vt 40.133331 -5.466667
vt -6.800000 -5.000000
vt -6.800000 -5.466667
vt 10.133333 -5.466667
vt -10.133333 -5.000000
vt -10.133333 -5.466667
vt 40.133331 -5.000000
vt 10.133333 -5.000000
vt -10.133333 -6.800000
vt 10.133333 40.133331
vt -10.133333 40.133331
vt 10.133333 -6.800000
vt 40.500000 -5.000000
vt -7.166667 0.200000
vt -7.166667 -5.000000
vt 10.500000 -5.000000
vt 10.000000 0.200000
vt 10.000000 -5.000000
vt 40.500000 0.200000
vt 10.500000 0.200000
vt 10.000000 -7.166667
vt 10.500000 40.500000
vt 10.000000 40.500000
vt 10.500000 -7.166667
vt -10.000000 -5.000000
vt -10.500000 0.200000
vt -10.500000 -5.000000
vt -10.000000 0.200000
vt -10.500000 -7.166667
vt -10.000000 40.500000
vt -10.500000 40.500000
vt -10.000000 -7.166667
vt 40.000000 0.200000
vt 40.000000 -5.000000
vt -10.000000 40.000000
vt 10.000000 40.000000
vt -6.666667 -5.000000
vt -6.666667 0.200000
vt 10.000000 -6.666667
vt -10.000000 -6.666667
s 0
f 3/1/1 2/2/1 1/3/1
f 7/4/2 4/5/2 3/6/2
f 5/3/3 8/7/3 7/1/3
f 1/6/4 6/8/4 5/4/4
f 1/9/5 7/10/5 3/11/5
f 6/12/6 4/11/6 8/10/6
f 11/13/1 10/14/1 9/15/1
f 15/16/2 12/17/2 11/18/2
f 13/15/3 16/19/3 15/13/3
f 9/18/4 14/20/4 13/16/4
f 9/21/5 15/22/5 11/23/5
f 14/24/6 12/23/6 16/22/6
f 19/13/1 18/14/1 17/15/1
f 23/25/2 20/26/2 19/27/2
f 21/15/3 24/19/3 23/13/3
f 17/27/4 22/28/4 21/25/4
f 17/29/5 23/30/5 19/31/5
f 22/32/6 20/31/6 24/30/6
f 27/13/1 26/33/1 25/34/1
f 31/18/2 28/28/2 27/25/2
f 29/34/3 32/19/3 31/13/3
f 25/25/4 30/17/4 29/18/4
f 25/35/5 31/23/5 27/30/5
f 30/36/6 28/30/6 32/23/6
f 35/37/1 34/14/1 33/15/1
f 39/18/2 36/28/2 35/25/2
f 37/15/3 40/38/3 39/37/3
f 33/25/4 38/17/4 37/18/4
f 33/32/5 39/39/5 35/40/5
f 38/21/6 36/40/6 40/39/6
f 3/1/1 4/7/1 2/2/1
f 7/4/2 8/8/2 4/5/2
f 5/3/3 6/2/3 8/7/3
f 1/6/4 2/5/4 6/8/4
f 1/9/5 5/12/5 7/10/5
f 6/12/6 2/9/6 4/11/6
f 11/13/1 12/19/1 10/14/1
f 15/16/2 16/20/2 12/17/2
f 13/15/3 14/14/3 16/19/3
f 9/18/4 10/17/4 14/20/4
f 9/21/5 13/24/5 15/22/5
f 14/24/6 10/21/6 12/23/6
f 19/13/1 20/19/1 18/14/1
f 23/25/2 24/28/2 20/26/2
f 21/15/3 22/14/3 24/19/3
f 17/27/4 18/26/4 22/28/4
f 17/29/5 21/32/5 23/30/5
f 22/32/6 18/29/6 20/31/6
f 27/13/1 28/19/1 26/33/1
f 31/18/2 32/17/2 28/28/2
f 29/34/3 30/33/3 32/19/3
f 25/25/4 26/28/4 30/17/4
f 25/35/5 29/36/5 31/23/5
f 30/36/6 26/35/6 28/30/6
f 35/37/1 36/38/1 34/14/1
f 39/18/2 40/17/2 36/28/2
f 37/15/3 38/14/3 40/38/3
f 33/25/4 34/28/4 38/17/4
f 33/32/5 37/21/5 39/39/5
f 38/21/6 34/32/6 36/40/6
