# Blender 4.5.6 LTS
# www.blender.org
o pool_band.001
v 5.988000 -4.000000 0.310000
v 5.988000 -4.000000 -0.110000
v 5.988000 24.000000 0.310000
v 5.988000 24.000000 -0.110000
v 6.000000 -4.000000 0.310000
v 6.000000 -4.000000 -0.110000
v 6.000000 24.000000 0.310000
v 6.000000 24.000000 -0.110000
v -6.000000 -4.000000 0.310000
v -6.000000 -4.000000 -0.110000
v -6.000000 24.000000 0.310000
v -6.000000 24.000000 -0.110000
v -5.988000 -4.000000 0.310000
v -5.988000 -4.000000 -0.110000
v -5.988000 24.000000 0.310000
v -5.988000 24.000000 -0.110000
v -6.000000 23.987999 0.310000
v -6.000000 23.987999 -0.110000
v -6.000000 24.000000 0.310000
v -6.000000 24.000000 -0.110000
v 6.000000 23.987999 0.310000
v 6.000000 23.987999 -0.110000
v 6.000000 24.000000 0.310000
v 6.000000 24.000000 -0.110000
v -6.000000 -4.000000 0.310000
v -6.000000 -4.000000 -0.110000
v -6.000000 -3.988000 0.310000
v -6.000000 -3.988000 -0.110000
v 6.000000 -4.000000 0.310000
v 6.000000 -4.000000 -0.110000
v 6.000000 -3.988000 0.310000
v 6.000000 -3.988000 -0.110000
v 1.940000 -3.600000 2.990000
v 1.940000 -3.600000 2.982000
v 1.940000 23.600000 2.990000
v 1.940000 23.600000 2.982000
v 2.060000 -3.600000 2.990000
v 2.060000 -3.600000 2.982000
v 2.060000 23.600000 2.990000
v 2.060000 23.600000 2.982000
v -2.060000 -3.600000 2.990000
v -2.060000 -3.600000 2.982000
v -2.060000 23.600000 2.990000
v -2.060000 23.600000 2.982000
v -1.940000 -3.600000 2.990000
v -1.940000 -3.600000 2.982000
v -1.940000 23.600000 2.990000
v -1.940000 23.600000 2.982000
v 6.300000 -4.380000 0.100000
v 6.300000 -4.380000 0.020000
v 6.300000 24.380001 0.100000
v 6.300000 24.380001 0.020000
v 6.380000 -4.380000 0.100000
v 6.380000 -4.380000 0.020000
v 6.380000 24.380001 0.100000
v 6.380000 24.380001 0.020000
v -6.380000 -4.380000 0.100000
v -6.380000 -4.380000 0.020000
v -6.380000 24.380001 0.100000
v -6.380000 24.380001 0.020000
v -6.300000 -4.380000 0.100000
v -6.300000 -4.380000 0.020000
v -6.300000 24.380001 0.100000
v -6.300000 24.380001 0.020000
v -6.300000 24.299999 0.100000
v -6.300000 24.299999 0.020000
v -6.300000 24.380001 0.100000
v -6.300000 24.380001 0.020000
v 6.300000 24.299999 0.100000
v 6.300000 24.299999 0.020000
v 6.300000 24.380001 0.100000
v 6.300000 24.380001 0.020000
v -6.300000 -4.380000 0.100000
v -6.300000 -4.380000 0.020000
v -6.300000 -4.300000 0.100000
v -6.300000 -4.300000 0.020000
v 6.300000 -4.380000 0.100000
v 6.300000 -4.380000 0.020000
v 6.300000 -4.300000 0.100000
v 6.300000 -4.300000 0.020000
v -0.275000 4.725000 2.989000
v -0.275000 4.725000 2.979000
v -0.275000 5.275000 2.989000
v -0.275000 5.275000 2.979000
v 0.275000 4.725000 2.989000
v 0.275000 4.725000 2.979000
v 0.275000 5.275000 2.989000
v 0.275000 5.275000 2.979000
v -0.275000 17.725000 2.989000
v -0.275000 17.725000 2.979000
v -0.275000 18.275000 2.989000
v -0.275000 18.275000 2.979000
v 0.275000 17.725000 2.989000
v 0.275000 17.725000 2.979000
v 0.275000 18.275000 2.989000
v 0.275000 18.275000 2.979000
v 5.986000 2.725000 1.760000
v 5.986000 2.725000 1.440000
v 5.986000 3.275000 1.760000
v 5.986000 3.275000 1.440000
v 5.998000 2.725000 1.760000
v 5.998000 2.725000 1.440000
v 5.998000 3.275000 1.760000
v 5.998000 3.275000 1.440000
v -5.998000 2.725000 1.760000
v -5.998000 2.725000 1.440000
v -5.998000 3.275000 1.760000
v -5.998000 3.275000 1.440000
v -5.986000 2.725000 1.760000
v -5.986000 2.725000 1.440000
v -5.986000 3.275000 1.760000
v -5.986000 3.275000 1.440000
v 5.986000 16.725000 1.760000
v 5.986000 16.725000 1.440000
v 5.986000 17.275000 1.760000
v 5.986000 17.275000 1.440000
v 5.998000 16.725000 1.760000
v 5.998000 16.725000 1.440000
v 5.998000 17.275000 1.760000
v 5.998000 17.275000 1.440000
v -5.998000 16.725000 1.760000
v -5.998000 16.725000 1.440000
v -5.998000 17.275000 1.760000
v -5.998000 17.275000 1.440000
v -5.986000 16.725000 1.760000
v -5.986000 16.725000 1.440000
v -5.986000 17.275000 1.760000
v -5.986000 17.275000 1.440000
v 5.966000 5.060000 1.000000
v 5.966000 5.060000 0.870000
v 5.966000 5.100000 1.000000
v 5.966000 5.100000 0.870000
v 5.978000 5.060000 1.000000
v 5.978000 5.060000 0.870000
v 5.978000 5.100000 1.000000
v 5.978000 5.100000 0.870000
v 5.966000 5.060000 1.130000
v 5.966000 5.060000 1.000000
v 5.966000 5.100000 1.130000
v 5.966000 5.100000 1.000000
v 5.978000 5.060000 1.130000
v 5.978000 5.060000 1.000000
v 5.978000 5.100000 1.130000
v 5.978000 5.100000 1.000000
v -5.978000 4.900000 1.000000
v -5.978000 4.900000 0.870000
v -5.978000 4.940000 1.000000
v -5.978000 4.940000 0.870000
v -5.966000 4.900000 1.000000
v -5.966000 4.900000 0.870000
v -5.966000 4.940000 1.000000
v -5.966000 4.940000 0.870000
v -5.978000 4.900000 1.130000
v -5.978000 4.900000 1.000000
v -5.978000 4.940000 1.130000
v -5.978000 4.940000 1.000000
v -5.966000 4.900000 1.130000
v -5.966000 4.900000 1.000000
v -5.966000 4.940000 1.130000
v -5.966000 4.940000 1.000000
v 5.966000 4.900000 1.890000
v 5.966000 4.900000 1.850000
v 5.966000 5.100000 1.890000
v 5.966000 5.100000 1.850000
v 5.978000 4.900000 1.890000
v 5.978000 4.900000 1.850000
v 5.978000 5.100000 1.890000
v 5.978000 5.100000 1.850000
v 5.966000 5.060000 2.000000
v 5.966000 5.060000 1.870000
v 5.966000 5.100000 2.000000
v 5.966000 5.100000 1.870000
v 5.978000 5.060000 2.000000
v 5.978000 5.060000 1.870000
v 5.978000 5.100000 2.000000
v 5.978000 5.100000 1.870000
v 5.966000 4.900000 2.020000
v 5.966000 4.900000 1.980000
v 5.966000 5.100000 2.020000
v 5.966000 5.100000 1.980000
v 5.978000 4.900000 2.020000
v 5.978000 4.900000 1.980000
v 5.978000 5.100000 2.020000
v 5.978000 5.100000 1.980000
v 5.966000 4.900000 2.130000
v 5.966000 4.900000 2.000000
v 5.966000 4.940000 2.130000
v 5.966000 4.940000 2.000000
v 5.978000 4.900000 2.130000
v 5.978000 4.900000 2.000000
v 5.978000 4.940000 2.130000
v 5.978000 4.940000 2.000000
v 5.966000 4.900000 2.150000
v 5.966000 4.900000 2.110000
v 5.966000 5.100000 2.150000
v 5.966000 5.100000 2.110000
v 5.978000 4.900000 2.150000
v 5.978000 4.900000 2.110000
v 5.978000 5.100000 2.150000
v 5.978000 5.100000 2.110000
v -5.978000 4.900000 1.890000
v -5.978000 4.900000 1.850000
v -5.978000 5.100000 1.890000
v -5.978000 5.100000 1.850000
v -5.966000 4.900000 1.890000
v -5.966000 4.900000 1.850000
v -5.966000 5.100000 1.890000
v -5.966000 5.100000 1.850000
v -5.978000 4.900000 2.000000
v -5.978000 4.900000 1.870000
v -5.978000 4.940000 2.000000
v -5.978000 4.940000 1.870000
v -5.966000 4.900000 2.000000
v -5.966000 4.900000 1.870000
v -5.966000 4.940000 2.000000
v -5.966000 4.940000 1.870000
v -5.978000 4.900000 2.020000
v -5.978000 4.900000 1.980000
v -5.978000 5.100000 2.020000
v -5.978000 5.100000 1.980000
v -5.966000 4.900000 2.020000
v -5.966000 4.900000 1.980000
v -5.966000 5.100000 2.020000
v -5.966000 5.100000 1.980000
v -5.978000 5.060000 2.130000
v -5.978000 5.060000 2.000000
v -5.978000 5.100000 2.130000
v -5.978000 5.100000 2.000000
v -5.966000 5.060000 2.130000
v -5.966000 5.060000 2.000000
v -5.966000 5.100000 2.130000
v -5.966000 5.100000 2.000000
v -5.978000 4.900000 2.150000
v -5.978000 4.900000 2.110000
v -5.978000 5.100000 2.150000
v -5.978000 5.100000 2.110000
v -5.966000 4.900000 2.150000
v -5.966000 4.900000 2.110000
v -5.966000 5.100000 2.150000
v -5.966000 5.100000 2.110000
v 5.966000 4.900000 2.540000
v 5.966000 4.900000 2.500000
v 5.966000 5.100000 2.540000
v 5.966000 5.100000 2.500000
v 5.978000 4.900000 2.540000
v 5.978000 4.900000 2.500000
v 5.978000 5.100000 2.540000
v 5.978000 5.100000 2.500000
v 5.966000 5.060000 2.650000
v 5.966000 5.060000 2.520000
v 5.966000 5.100000 2.650000
v 5.966000 5.100000 2.520000
v 5.978000 5.060000 2.650000
v 5.978000 5.060000 2.520000
v 5.978000 5.100000 2.650000
v 5.978000 5.100000 2.520000
v 5.966000 4.900000 2.670000
v 5.966000 4.900000 2.630000
v 5.966000 5.100000 2.670000
v 5.966000 5.100000 2.630000
v 5.978000 4.900000 2.670000
v 5.978000 4.900000 2.630000
v 5.978000 5.100000 2.670000
v 5.978000 5.100000 2.630000
v 5.966000 5.060000 2.780000
v 5.966000 5.060000 2.650000
v 5.966000 5.100000 2.780000
v 5.966000 5.100000 2.650000
v 5.978000 5.060000 2.780000
v 5.978000 5.060000 2.650000
v 5.978000 5.100000 2.780000
v 5.978000 5.100000 2.650000
v 5.966000 4.900000 2.800000
v 5.966000 4.900000 2.760000
v 5.966000 5.100000 2.800000
v 5.966000 5.100000 2.760000
v 5.978000 4.900000 2.800000
v 5.978000 4.900000 2.760000
v 5.978000 5.100000 2.800000
v 5.978000 5.100000 2.760000
v -5.978000 4.900000 2.540000
v -5.978000 4.900000 2.500000
v -5.978000 5.100000 2.540000
v -5.978000 5.100000 2.500000
v -5.966000 4.900000 2.540000
v -5.966000 4.900000 2.500000
v -5.966000 5.100000 2.540000
v -5.966000 5.100000 2.500000
v -5.978000 4.900000 2.650000
v -5.978000 4.900000 2.520000
v -5.978000 4.940000 2.650000
v -5.978000 4.940000 2.520000
v -5.966000 4.900000 2.650000
v -5.966000 4.900000 2.520000
v -5.966000 4.940000 2.650000
v -5.966000 4.940000 2.520000
v -5.978000 4.900000 2.670000
v -5.978000 4.900000 2.630000
v -5.978000 5.100000 2.670000
v -5.978000 5.100000 2.630000
v -5.966000 4.900000 2.670000
v -5.966000 4.900000 2.630000
v -5.966000 5.100000 2.670000
v -5.966000 5.100000 2.630000
v -5.978000 4.900000 2.780000
v -5.978000 4.900000 2.650000
v -5.978000 4.940000 2.780000
v -5.978000 4.940000 2.650000
v -5.966000 4.900000 2.780000
v -5.966000 4.900000 2.650000
v -5.966000 4.940000 2.780000
v -5.966000 4.940000 2.650000
v -5.978000 4.900000 2.800000
v -5.978000 4.900000 2.760000
v -5.978000 5.100000 2.800000
v -5.978000 5.100000 2.760000
v -5.966000 4.900000 2.800000
v -5.966000 4.900000 2.760000
v -5.966000 5.100000 2.800000
v -5.966000 5.100000 2.760000
v 5.966000 15.059999 1.000000
v 5.966000 15.059999 0.870000
v 5.966000 15.100000 1.000000
v 5.966000 15.100000 0.870000
v 5.978000 15.059999 1.000000
v 5.978000 15.059999 0.870000
v 5.978000 15.100000 1.000000
v 5.978000 15.100000 0.870000
v 5.966000 15.059999 1.130000
v 5.966000 15.059999 1.000000
v 5.966000 15.100000 1.130000
v 5.966000 15.100000 1.000000
v 5.978000 15.059999 1.130000
v 5.978000 15.059999 1.000000
v 5.978000 15.100000 1.130000
v 5.978000 15.100000 1.000000
v -5.978000 14.900000 1.000000
v -5.978000 14.900000 0.870000
v -5.978000 14.940001 1.000000
v -5.978000 14.940001 0.870000
v -5.966000 14.900000 1.000000
v -5.966000 14.900000 0.870000
v -5.966000 14.940001 1.000000
v -5.966000 14.940001 0.870000
v -5.978000 14.900000 1.130000
v -5.978000 14.900000 1.000000
v -5.978000 14.940001 1.130000
v -5.978000 14.940001 1.000000
v -5.966000 14.900000 1.130000
v -5.966000 14.900000 1.000000
v -5.966000 14.940001 1.130000
v -5.966000 14.940001 1.000000
v 5.966000 14.900000 1.890000
v 5.966000 14.900000 1.850000
v 5.966000 15.100000 1.890000
v 5.966000 15.100000 1.850000
v 5.978000 14.900000 1.890000
v 5.978000 14.900000 1.850000
v 5.978000 15.100000 1.890000
v 5.978000 15.100000 1.850000
v 5.966000 15.059999 2.000000
v 5.966000 15.059999 1.870000
v 5.966000 15.100000 2.000000
v 5.966000 15.100000 1.870000
v 5.978000 15.059999 2.000000
v 5.978000 15.059999 1.870000
v 5.978000 15.100000 2.000000
v 5.978000 15.100000 1.870000
v 5.966000 14.900000 2.020000
v 5.966000 14.900000 1.980000
v 5.966000 15.100000 2.020000
v 5.966000 15.100000 1.980000
v 5.978000 14.900000 2.020000
v 5.978000 14.900000 1.980000
v 5.978000 15.100000 2.020000
v 5.978000 15.100000 1.980000
v 5.966000 14.900000 2.130000
v 5.966000 14.900000 2.000000
v 5.966000 14.940001 2.130000
v 5.966000 14.940001 2.000000
v 5.978000 14.900000 2.130000
v 5.978000 14.900000 2.000000
v 5.978000 14.940001 2.130000
v 5.978000 14.940001 2.000000
v 5.966000 14.900000 2.150000
v 5.966000 14.900000 2.110000
v 5.966000 15.100000 2.150000
v 5.966000 15.100000 2.110000
v 5.978000 14.900000 2.150000
v 5.978000 14.900000 2.110000
v 5.978000 15.100000 2.150000
v 5.978000 15.100000 2.110000
v -5.978000 14.900000 1.890000
v -5.978000 14.900000 1.850000
v -5.978000 15.100000 1.890000
v -5.978000 15.100000 1.850000
v -5.966000 14.900000 1.890000
v -5.966000 14.900000 1.850000
v -5.966000 15.100000 1.890000
v -5.966000 15.100000 1.850000
v -5.978000 14.900000 2.000000
v -5.978000 14.900000 1.870000
v -5.978000 14.940001 2.000000
v -5.978000 14.940001 1.870000
v -5.966000 14.900000 2.000000
v -5.966000 14.900000 1.870000
v -5.966000 14.940001 2.000000
v -5.966000 14.940001 1.870000
v -5.978000 14.900000 2.020000
v -5.978000 14.900000 1.980000
v -5.978000 15.100000 2.020000
v -5.978000 15.100000 1.980000
v -5.966000 14.900000 2.020000
v -5.966000 14.900000 1.980000
v -5.966000 15.100000 2.020000
v -5.966000 15.100000 1.980000
v -5.978000 15.059999 2.130000
v -5.978000 15.059999 2.000000
v -5.978000 15.100000 2.130000
v -5.978000 15.100000 2.000000
v -5.966000 15.059999 2.130000
v -5.966000 15.059999 2.000000
v -5.966000 15.100000 2.130000
v -5.966000 15.100000 2.000000
v -5.978000 14.900000 2.150000
v -5.978000 14.900000 2.110000
v -5.978000 15.100000 2.150000
v -5.978000 15.100000 2.110000
v -5.966000 14.900000 2.150000
v -5.966000 14.900000 2.110000
v -5.966000 15.100000 2.150000
v -5.966000 15.100000 2.110000
v 5.966000 14.900000 2.540000
v 5.966000 14.900000 2.500000
v 5.966000 15.100000 2.540000
v 5.966000 15.100000 2.500000
v 5.978000 14.900000 2.540000
v 5.978000 14.900000 2.500000
v 5.978000 15.100000 2.540000
v 5.978000 15.100000 2.500000
v 5.966000 15.059999 2.650000
v 5.966000 15.059999 2.520000
v 5.966000 15.100000 2.650000
v 5.966000 15.100000 2.520000
v 5.978000 15.059999 2.650000
v 5.978000 15.059999 2.520000
v 5.978000 15.100000 2.650000
v 5.978000 15.100000 2.520000
v 5.966000 14.900000 2.670000
v 5.966000 14.900000 2.630000
v 5.966000 15.100000 2.670000
v 5.966000 15.100000 2.630000
v 5.978000 14.900000 2.670000
v 5.978000 14.900000 2.630000
v 5.978000 15.100000 2.670000
v 5.978000 15.100000 2.630000
v 5.966000 15.059999 2.780000
v 5.966000 15.059999 2.650000
v 5.966000 15.100000 2.780000
v 5.966000 15.100000 2.650000
v 5.978000 15.059999 2.780000
v 5.978000 15.059999 2.650000
v 5.978000 15.100000 2.780000
v 5.978000 15.100000 2.650000
v 5.966000 14.900000 2.800000
v 5.966000 14.900000 2.760000
v 5.966000 15.100000 2.800000
v 5.966000 15.100000 2.760000
v 5.978000 14.900000 2.800000
v 5.978000 14.900000 2.760000
v 5.978000 15.100000 2.800000
v 5.978000 15.100000 2.760000
v -5.978000 14.900000 2.540000
v -5.978000 14.900000 2.500000
v -5.978000 15.100000 2.540000
v -5.978000 15.100000 2.500000
v -5.966000 14.900000 2.540000
v -5.966000 14.900000 2.500000
v -5.966000 15.100000 2.540000
v -5.966000 15.100000 2.500000
v -5.978000 14.900000 2.650000
v -5.978000 14.900000 2.520000
v -5.978000 14.940001 2.650000
v -5.978000 14.940001 2.520000
v -5.966000 14.900000 2.650000
v -5.966000 14.900000 2.520000
v -5.966000 14.940001 2.650000
v -5.966000 14.940001 2.520000
v -5.978000 14.900000 2.670000
v -5.978000 14.900000 2.630000
v -5.978000 15.100000 2.670000
v -5.978000 15.100000 2.630000
v -5.966000 14.900000 2.670000
v -5.966000 14.900000 2.630000
v -5.966000 15.100000 2.670000
v -5.966000 15.100000 2.630000
v -5.978000 14.900000 2.780000
v -5.978000 14.900000 2.650000
v -5.978000 14.940001 2.780000
v -5.978000 14.940001 2.650000
v -5.966000 14.900000 2.780000
v -5.966000 14.900000 2.650000
v -5.966000 14.940001 2.780000
v -5.966000 14.940001 2.650000
v -5.978000 14.900000 2.800000
v -5.978000 14.900000 2.760000
v -5.978000 15.100000 2.800000
v -5.978000 15.100000 2.760000
v -5.966000 14.900000 2.800000
v -5.966000 14.900000 2.760000
v -5.966000 15.100000 2.800000
v -5.966000 15.100000 2.760000
vn -1.0000 -0.0000 -0.0000
vn -0.0000 1.0000 -0.0000
vn 1.0000 -0.0000 -0.0000
vn -0.0000 -1.0000 -0.0000
vn -0.0000 -0.0000 1.0000
vn -0.0000 -0.0000 -1.0000
vt 40.000000 -0.516667
vt -6.666667 0.183333
vt -6.666667 -0.516667
vt 10.000000 -0.516667
vt 9.980000 0.183333
vt 9.980000 -0.516667
vt 40.000000 0.183333
vt 10.000000 0.183333
vt 9.980000 -6.666667
vt 10.000000 40.000000
vt 9.980000 40.000000
vt 10.000000 -6.666667
vt -9.980000 -0.516667
vt -10.000000 0.183333
vt -10.000000 -0.516667
vt -9.980000 0.183333
vt -10.000000 -6.666667
vt -9.980000 40.000000
vt -10.000000 40.000000
vt -9.980000 -6.666667
vt 39.980000 0.183333
vt 39.980000 -0.516667
vt -10.000000 39.980000
vt 10.000000 39.980000
vt -6.646667 -0.516667
vt -6.646667 0.183333
vt 10.000000 -6.646667
vt -10.000000 -6.646667
vt 39.333336 -4.996666
vt -6.000000 -4.983334
vt -6.000000 -4.996666
vt 3.433333 -4.996666
vt 3.233333 -4.983334
vt 3.233333 -4.996666
vt 39.333336 -4.983334
vt 3.433333 -4.983334
vt 3.233333 -6.000000
vt 3.433333 39.333336
vt 3.233333 39.333336
vt 3.433333 -6.000000
vt -3.233333 -4.996666
vt -3.433333 -4.983334
vt -3.433333 -4.996666
vt -3.233333 -4.983334
vt -3.433333 -6.000000
vt -3.233333 39.333336
vt -3.433333 39.333336
vt -3.233333 -6.000000
vt 40.633335 -0.166667
vt -7.300000 -0.033333
vt -7.300000 -0.166667
vt 10.633333 -0.166667
vt 10.500000 -0.033333
vt 10.500000 -0.166667
vt 40.633335 -0.033333
vt 10.633333 -0.033333
vt 10.500000 -7.300000
vt 10.633333 40.633335
vt 10.500000 40.633335
vt 10.633333 -7.300000
vt -10.500000 -0.166667
vt -10.633333 -0.033333
vt -10.633333 -0.166667
vt -10.500000 -0.033333
vt -10.633333 -7.300000
vt -10.500000 40.633335
vt -10.633333 40.633335
vt -10.500000 -7.300000
vt 40.500000 -0.033333
vt 40.500000 -0.166667
vt -10.500000 40.500000
vt 10.500000 40.500000
vt -7.166667 -0.166667
vt -7.166667 -0.033333
vt 10.500000 -7.166667
vt -10.500000 -7.166667
vt 8.791667 -4.995000
vt 7.875000 -4.978333
vt 7.875000 -4.995000
vt 0.458333 -4.995000
vt -0.458333 -4.978333
vt -0.458333 -4.995000
vt 8.791667 -4.978333
vt 0.458333 -4.978333
vt -0.458333 7.875000
vt 0.458333 8.791667
vt -0.458333 8.791667
vt 0.458333 7.875000
vt 30.458332 -4.995000
vt 29.541668 -4.978333
vt 29.541668 -4.995000
vt 30.458332 -4.978333
vt -0.458333 29.541668
vt 0.458333 30.458332
vt -0.458333 30.458332
vt 0.458333 29.541668
vt 5.458333 -2.933333
vt 4.541667 -2.400000
vt 4.541667 -2.933333
vt 9.996667 -2.933333
vt 9.976666 -2.400000
vt 9.976666 -2.933333
vt 5.458333 -2.400000
vt 9.996667 -2.400000
vt 9.976666 4.541667
vt 9.996667 5.458333
vt 9.976666 5.458333
vt 9.996667 4.541667
vt -9.976666 -2.933333
vt -9.996667 -2.400000
vt -9.996667 -2.933333
vt -9.976666 -2.400000
vt -9.996667 4.541667
vt -9.976666 5.458333
vt -9.996667 5.458333
vt -9.976666 4.541667
vt 28.791666 -2.933333
vt 27.875000 -2.400000
vt 27.875000 -2.933333
vt 28.791666 -2.400000
vt 9.976666 27.875000
vt 9.996667 28.791666
vt 9.976666 28.791666
vt 9.996667 27.875000
vt -9.996667 27.875000
vt -9.976666 28.791666
vt -9.996667 28.791666
vt -9.976666 27.875000
vt 0.125000 0.125000
s 0
f 3/1/1 2/2/1 1/3/1
f 7/4/2 4/5/2 3/6/2
f 5/3/3 8/7/3 7/1/3
f 1/6/4 6/8/4 5/4/4
f 1/9/5 7/10/5 3/11/5
f 6/12/6 4/11/6 8/10/6
f 11/1/1 10/2/1 9/3/1
f 15/13/2 12/14/2 11/15/2
f 13/3/3 16/7/3 15/1/3
f 9/15/4 14/16/4 13/13/4
f 9/17/5 15/18/5 11/19/5
f 14/20/6 12/19/6 16/18/6
f 19/1/1 18/21/1 17/22/1
f 23/4/2 20/14/2 19/15/2
f 21/22/3 24/7/3 23/1/3
f 17/15/4 22/8/4 21/4/4
f 17/23/5 23/10/5 19/19/5
f 22/24/6 20/19/6 24/10/6
f 27/25/1 26/2/1 25/3/1
f 31/4/2 28/14/2 27/15/2
f 29/3/3 32/26/3 31/25/3
f 25/15/4 30/8/4 29/4/4
f 25/17/5 31/27/5 27/28/5
f 30/12/6 28/28/6 32/27/6
f 35/29/1 34/30/1 33/31/1
f 39/32/2 36/33/2 35/34/2
f 37/31/3 40/35/3 39/29/3
f 33/34/4 38/36/4 37/32/4
f 33/37/5 39/38/5 35/39/5
f 38/40/6 36/39/6 40/38/6
f 43/29/1 42/30/1 41/31/1
f 47/41/2 44/42/2 43/43/2
f 45/31/3 48/35/3 47/29/3
f 41/43/4 46/44/4 45/41/4
f 41/45/5 47/46/5 43/47/5
f 46/48/6 44/47/6 48/46/6
f 51/49/1 50/50/1 49/51/1
f 55/52/2 52/53/2 51/54/2
f 53/51/3 56/55/3 55/49/3
f 49/54/4 54/56/4 53/52/4
f 49/57/5 55/58/5 51/59/5
f 54/60/6 52/59/6 56/58/6
f 59/49/1 58/50/1 57/51/1
f 63/61/2 60/62/2 59/63/2
f 61/51/3 64/55/3 63/49/3
f 57/63/4 62/64/4 61/61/4
f 57/65/5 63/66/5 59/67/5
f 62/68/6 60/67/6 64/66/6
f 67/49/1 66/69/1 65/70/1
f 71/54/2 68/64/2 67/61/2
f 69/70/3 72/55/3 71/49/3
f 65/61/4 70/53/4 69/54/4
f 65/71/5 71/59/5 67/66/5
f 70/72/6 68/66/6 72/59/6
f 75/73/1 74/50/1 73/51/1
f 79/54/2 76/64/2 75/61/2
f 77/51/3 80/74/3 79/73/3
f 73/61/4 78/53/4 77/54/4
f 73/68/5 79/75/5 75/76/5
f 78/57/6 76/76/6 80/75/6
f 83/77/1 82/78/1 81/79/1
f 87/80/2 84/81/2 83/82/2
f 85/79/3 88/83/3 87/77/3
f 81/82/4 86/84/4 85/80/4
f 81/85/5 87/86/5 83/87/5
f 86/88/6 84/87/6 88/86/6
f 91/89/1 90/90/1 89/91/1
f 95/80/2 92/81/2 91/82/2
f 93/91/3 96/92/3 95/89/3
f 89/82/4 94/84/4 93/80/4
f 89/93/5 95/94/5 91/95/5
f 94/96/6 92/95/6 96/94/6
f 99/97/1 98/98/1 97/99/1
f 103/100/2 100/101/2 99/102/2
f 101/99/3 104/103/3 103/97/3
f 97/102/4 102/104/4 101/100/4
f 97/105/5 103/106/5 99/107/5
f 102/108/6 100/107/6 104/106/6
f 107/97/1 106/98/1 105/99/1
f 111/109/2 108/110/2 107/111/2
f 109/99/3 112/103/3 111/97/3
f 105/111/4 110/112/4 109/109/4
f 105/113/5 111/114/5 107/115/5
f 110/116/6 108/115/6 112/114/6
f 115/117/1 114/118/1 113/119/1
f 119/100/2 116/101/2 115/102/2
f 117/119/3 120/120/3 119/117/3
f 113/102/4 118/104/4 117/100/4
f 113/121/5 119/122/5 115/123/5
f 118/124/6 116/123/6 120/122/6
f 123/117/1 122/118/1 121/119/1
f 127/109/2 124/110/2 123/111/2
f 125/119/3 128/120/3 127/117/3
f 121/111/4 126/112/4 125/109/4
f 121/125/5 127/126/5 123/127/5
f 126/128/6 124/127/6 128/126/6
f 131/129/1 130/129/1 129/129/1
f 135/129/2 132/129/2 131/129/2
f 133/129/3 136/129/3 135/129/3
f 129/129/4 134/129/4 133/129/4
f 129/129/5 135/129/5 131/129/5
f 134/129/6 132/129/6 136/129/6
f 139/129/1 138/129/1 137/129/1
f 143/129/2 140/129/2 139/129/2
f 141/129/3 144/129/3 143/129/3
f 137/129/4 142/129/4 141/129/4
f 137/129/5 143/129/5 139/129/5
f 142/129/6 140/129/6 144/129/6
f 147/129/1 146/129/1 145/129/1
f 151/129/2 148/129/2 147/129/2
f 149/129/3 152/129/3 151/129/3
f 145/129/4 150/129/4 149/129/4
f 145/129/5 151/129/5 147/129/5
f 150/129/6 148/129/6 152/129/6
f 155/129/1 154/129/1 153/129/1
f 159/129/2 156/129/2 155/129/2
f 157/129/3 160/129/3 159/129/3
f 153/129/4 158/129/4 157/129/4
f 153/129/5 159/129/5 155/129/5
f 158/129/6 156/129/6 160/129/6
f 163/129/1 162/129/1 161/129/1
f 167/129/2 164/129/2 163/129/2
f 165/129/3 168/129/3 167/129/3
f 161/129/4 166/129/4 165/129/4
f 161/129/5 167/129/5 163/129/5
f 166/129/6 164/129/6 168/129/6
f 171/129/1 170/129/1 169/129/1
f 175/129/2 172/129/2 171/129/2
f 173/129/3 176/129/3 175/129/3
f 169/129/4 174/129/4 173/129/4
f 169/129/5 175/129/5 171/129/5
f 174/129/6 172/129/6 176/129/6
f 179/129/1 178/129/1 177/129/1
f 183/129/2 180/129/2 179/129/2
f 181/129/3 184/129/3 183/129/3
f 177/129/4 182/129/4 181/129/4
f 177/129/5 183/129/5 179/129/5
f 182/129/6 180/129/6 184/129/6
f 187/129/1 186/129/1 185/129/1
f 191/129/2 188/129/2 187/129/2
f 189/129/3 192/129/3 191/129/3
f 185/129/4 190/129/4 189/129/4
f 185/129/5 191/129/5 187/129/5
f 190/129/6 188/129/6 192/129/6
f 195/129/1 194/129/1 193/129/1
f 199/129/2 196/129/2 195/129/2
f 197/129/3 200/129/3 199/129/3
f 193/129/4 198/129/4 197/129/4
f 193/129/5 199/129/5 195/129/5
f 198/129/6 196/129/6 200/129/6
f 203/129/1 202/129/1 201/129/1
f 207/129/2 204/129/2 203/129/2
f 205/129/3 208/129/3 207/129/3
f 201/129/4 206/129/4 205/129/4
f 201/129/5 207/129/5 203/129/5
f 206/129/6 204/129/6 208/129/6
f 211/129/1 210/129/1 209/129/1
f 215/129/2 212/129/2 211/129/2
f 213/129/3 216/129/3 215/129/3
f 209/129/4 214/129/4 213/129/4
f 209/129/5 215/129/5 211/129/5
f 214/129/6 212/129/6 216/129/6
f 219/129/1 218/129/1 217/129/1
f 223/129/2 220/129/2 219/129/2
f 221/129/3 224/129/3 223/129/3
f 217/129/4 222/129/4 221/129/4
f 217/129/5 223/129/5 219/129/5
f 222/129/6 220/129/6 224/129/6
f 227/129/1 226/129/1 225/129/1
f 231/129/2 228/129/2 227/129/2
f 229/129/3 232/129/3 231/129/3
f 225/129/4 230/129/4 229/129/4
f 225/129/5 231/129/5 227/129/5
f 230/129/6 228/129/6 232/129/6
f 235/129/1 234/129/1 233/129/1
f 239/129/2 236/129/2 235/129/2
f 237/129/3 240/129/3 239/129/3
f 233/129/4 238/129/4 237/129/4
f 233/129/5 239/129/5 235/129/5
f 238/129/6 236/129/6 240/129/6
f 243/129/1 242/129/1 241/129/1
f 247/129/2 244/129/2 243/129/2
f 245/129/3 248/129/3 247/129/3
f 241/129/4 246/129/4 245/129/4
f 241/129/5 247/129/5 243/129/5
f 246/129/6 244/129/6 248/129/6
f 251/129/1 250/129/1 249/129/1
f 255/129/2 252/129/2 251/129/2
f 253/129/3 256/129/3 255/129/3
f 249/129/4 254/129/4 253/129/4
f 249/129/5 255/129/5 251/129/5
f 254/129/6 252/129/6 256/129/6
f 259/129/1 258/129/1 257/129/1
f 263/129/2 260/129/2 259/129/2
f 261/129/3 264/129/3 263/129/3
f 257/129/4 262/129/4 261/129/4
f 257/129/5 263/129/5 259/129/5
f 262/129/6 260/129/6 264/129/6
f 267/129/1 266/129/1 265/129/1
f 271/129/2 268/129/2 267/129/2
f 269/129/3 272/129/3 271/129/3
f 265/129/4 270/129/4 269/129/4
f 265/129/5 271/129/5 267/129/5
f 270/129/6 268/129/6 272/129/6
f 275/129/1 274/129/1 273/129/1
f 279/129/2 276/129/2 275/129/2
f 277/129/3 280/129/3 279/129/3
f 273/129/4 278/129/4 277/129/4
f 273/129/5 279/129/5 275/129/5
f 278/129/6 276/129/6 280/129/6
f 283/129/1 282/129/1 281/129/1
f 287/129/2 284/129/2 283/129/2
f 285/129/3 288/129/3 287/129/3
f 281/129/4 286/129/4 285/129/4
f 281/129/5 287/129/5 283/129/5
f 286/129/6 284/129/6 288/129/6
f 291/129/1 290/129/1 289/129/1
f 295/129/2 292/129/2 291/129/2
f 293/129/3 296/129/3 295/129/3
f 289/129/4 294/129/4 293/129/4
f 289/129/5 295/129/5 291/129/5
f 294/129/6 292/129/6 296/129/6
f 299/129/1 298/129/1 297/129/1
f 303/129/2 300/129/2 299/129/2
f 301/129/3 304/129/3 303/129/3
f 297/129/4 302/129/4 301/129/4
f 297/129/5 303/129/5 299/129/5
f 302/129/6 300/129/6 304/129/6
f 307/129/1 306/129/1 305/129/1
f 311/129/2 308/129/2 307/129/2
f 309/129/3 312/129/3 311/129/3
f 305/129/4 310/129/4 309/129/4
f 305/129/5 311/129/5 307/129/5
f 310/129/6 308/129/6 312/129/6
f 315/129/1 314/129/1 313/129/1
f 319/129/2 316/129/2 315/129/2
f 317/129/3 320/129/3 319/129/3
f 313/129/4 318/129/4 317/129/4
f 313/129/5 319/129/5 315/129/5
f 318/129/6 316/129/6 320/129/6
f 323/129/1 322/129/1 321/129/1
f 327/129/2 324/129/2 323/129/2
f 325/129/3 328/129/3 327/129/3
f 321/129/4 326/129/4 325/129/4
f 321/129/5 327/129/5 323/129/5
f 326/129/6 324/129/6 328/129/6
f 331/129/1 330/129/1 329/129/1
f 335/129/2 332/129/2 331/129/2
f 333/129/3 336/129/3 335/129/3
f 329/129/4 334/129/4 333/129/4
f 329/129/5 335/129/5 331/129/5
f 334/129/6 332/129/6 336/129/6
f 339/129/1 338/129/1 337/129/1
f 343/129/2 340/129/2 339/129/2
f 341/129/3 344/129/3 343/129/3
f 337/129/4 342/129/4 341/129/4
f 337/129/5 343/129/5 339/129/5
f 342/129/6 340/129/6 344/129/6
f 347/129/1 346/129/1 345/129/1
f 351/129/2 348/129/2 347/129/2
f 349/129/3 352/129/3 351/129/3
f 345/129/4 350/129/4 349/129/4
f 345/129/5 351/129/5 347/129/5
f 350/129/6 348/129/6 352/129/6
f 355/129/1 354/129/1 353/129/1
f 359/129/2 356/129/2 355/129/2
f 357/129/3 360/129/3 359/129/3
f 353/129/4 358/129/4 357/129/4
f 353/129/5 359/129/5 355/129/5
f 358/129/6 356/129/6 360/129/6
f 363/129/1 362/129/1 361/129/1
f 367/129/2 364/129/2 363/129/2
f 365/129/3 368/129/3 367/129/3
f 361/129/4 366/129/4 365/129/4
f 361/129/5 367/129/5 363/129/5
f 366/129/6 364/129/6 368/129/6
f 371/129/1 370/129/1 369/129/1
f 375/129/2 372/129/2 371/129/2
f 373/129/3 376/129/3 375/129/3
f 369/129/4 374/129/4 373/129/4
f 369/129/5 375/129/5 371/129/5
f 374/129/6 372/129/6 376/129/6
f 379/129/1 378/129/1 377/129/1
f 383/129/2 380/129/2 379/129/2
f 381/129/3 384/129/3 383/129/3
f 377/129/4 382/129/4 381/129/4
f 377/129/5 383/129/5 379/129/5
f 382/129/6 380/129/6 384/129/6
f 387/129/1 386/129/1 385/129/1
f 391/129/2 388/129/2 387/129/2
f 389/129/3 392/129/3 391/129/3
f 385/129/4 390/129/4 389/129/4
f 385/129/5 391/129/5 387/129/5
f 390/129/6 388/129/6 392/129/6
f 395/129/1 394/129/1 393/129/1
f 399/129/2 396/129/2 395/129/2
f 397/129/3 400/129/3 399/129/3
f 393/129/4 398/129/4 397/129/4
f 393/129/5 399/129/5 395/129/5
f 398/129/6 396/129/6 400/129/6
f 403/129/1 402/129/1 401/129/1
f 407/129/2 404/129/2 403/129/2
f 405/129/3 408/129/3 407/129/3
f 401/129/4 406/129/4 405/129/4
f 401/129/5 407/129/5 403/129/5
f 406/129/6 404/129/6 408/129/6
f 411/129/1 410/129/1 409/129/1
f 415/129/2 412/129/2 411/129/2
f 413/129/3 416/129/3 415/129/3
f 409/129/4 414/129/4 413/129/4
f 409/129/5 415/129/5 411/129/5
f 414/129/6 412/129/6 416/129/6
f 419/129/1 418/129/1 417/129/1
f 423/129/2 420/129/2 419/129/2
f 421/129/3 424/129/3 423/129/3
f 417/129/4 422/129/4 421/129/4
f 417/129/5 423/129/5 419/129/5
f 422/129/6 420/129/6 424/129/6
f 427/129/1 426/129/1 425/129/1
f 431/129/2 428/129/2 427/129/2
f 429/129/3 432/129/3 431/129/3
f 425/129/4 430/129/4 429/129/4
f 425/129/5 431/129/5 427/129/5
f 430/129/6 428/129/6 432/129/6
f 435/129/1 434/129/1 433/129/1
f 439/129/2 436/129/2 435/129/2
f 437/129/3 440/129/3 439/129/3
f 433/129/4 438/129/4 437/129/4
f 433/129/5 439/129/5 435/129/5
f 438/129/6 436/129/6 440/129/6
f 443/129/1 442/129/1 441/129/1
f 447/129/2 444/129/2 443/129/2
f 445/129/3 448/129/3 447/129/3
f 441/129/4 446/129/4 445/129/4
f 441/129/5 447/129/5 443/129/5
f 446/129/6 444/129/6 448/129/6
f 451/129/1 450/129/1 449/129/1
f 455/129/2 452/129/2 451/129/2
f 453/129/3 456/129/3 455/129/3
f 449/129/4 454/129/4 453/129/4
f 449/129/5 455/129/5 451/129/5
f 454/129/6 452/129/6 456/129/6
f 459/129/1 458/129/1 457/129/1
f 463/129/2 460/129/2 459/129/2
f 461/129/3 464/129/3 463/129/3
f 457/129/4 462/129/4 461/129/4
f 457/129/5 463/129/5 459/129/5
f 462/129/6 460/129/6 464/129/6
f 467/129/1 466/129/1 465/129/1
f 471/129/2 468/129/2 467/129/2
f 469/129/3 472/129/3 471/129/3
f 465/129/4 470/129/4 469/129/4
f 465/129/5 471/129/5 467/129/5
f 470/129/6 468/129/6 472/129/6
f 475/129/1 474/129/1 473/129/1
f 479/129/2 476/129/2 475/129/2
f 477/129/3 480/129/3 479/129/3
f 473/129/4 478/129/4 477/129/4
f 473/129/5 479/129/5 475/129/5
f 478/129/6 476/129/6 480/129/6
f 483/129/1 482/129/1 481/129/1
f 487/129/2 484/129/2 483/129/2
f 485/129/3 488/129/3 487/129/3
f 481/129/4 486/129/4 485/129/4
f 481/129/5 487/129/5 483/129/5
f 486/129/6 484/129/6 488/129/6
f 491/129/1 490/129/1 489/129/1
f 495/129/2 492/129/2 491/129/2
f 493/129/3 496/129/3 495/129/3
f 489/129/4 494/129/4 493/129/4
f 489/129/5 495/129/5 491/129/5
f 494/129/6 492/129/6 496/129/6
f 499/129/1 498/129/1 497/129/1
f 503/129/2 500/129/2 499/129/2
f 501/129/3 504/129/3 503/129/3
f 497/129/4 502/129/4 501/129/4
f 497/129/5 503/129/5 499/129/5
f 502/129/6 500/129/6 504/129/6
f 507/129/1 506/129/1 505/129/1
f 511/129/2 508/129/2 507/129/2
f 509/129/3 512/129/3 511/129/3
f 505/129/4 510/129/4 509/129/4
f 505/129/5 511/129/5 507/129/5
f 510/129/6 508/129/6 512/129/6
f 3/1/1 4/7/1 2/2/1
f 7/4/2 8/8/2 4/5/2
f 5/3/3 6/2/3 8/7/3
f 1/6/4 2/5/4 6/8/4
f 1/9/5 5/12/5 7/10/5
f 6/12/6 2/9/6 4/11/6
f 11/1/1 12/7/1 10/2/1
f 15/13/2 16/16/2 12/14/2
f 13/3/3 14/2/3 16/7/3
f 9/15/4 10/14/4 14/16/4
f 9/17/5 13/20/5 15/18/5
f 14/20/6 10/17/6 12/19/6
f 19/1/1 20/7/1 18/21/1
f 23/4/2 24/8/2 20/14/2
f 21/22/3 22/21/3 24/7/3
f 17/15/4 18/14/4 22/8/4
f 17/23/5 21/24/5 23/10/5
f 22/24/6 18/23/6 20/19/6
f 27/25/1 28/26/1 26/2/1
f 31/4/2 32/8/2 28/14/2
f 29/3/3 30/2/3 32/26/3
f 25/15/4 26/14/4 30/8/4
f 25/17/5 29/12/5 31/27/5
f 30/12/6 26/17/6 28/28/6
f 35/29/1 36/35/1 34/30/1
f 39/32/2 40/36/2 36/33/2
f 37/31/3 38/30/3 40/35/3
f 33/34/4 34/33/4 38/36/4
f 33/37/5 37/40/5 39/38/5
f 38/40/6 34/37/6 36/39/6
f 43/29/1 44/35/1 42/30/1
f 47/41/2 48/44/2 44/42/2
f 45/31/3 46/30/3 48/35/3
f 41/43/4 42/42/4 46/44/4
f 41/45/5 45/48/5 47/46/5
f 46/48/6 42/45/6 44/47/6
f 51/49/1 52/55/1 50/50/1
f 55/52/2 56/56/2 52/53/2
f 53/51/3 54/50/3 56/55/3
f 49/54/4 50/53/4 54/56/4
f 49/57/5 53/60/5 55/58/5
f 54/60/6 50/57/6 52/59/6
f 59/49/1 60/55/1 58/50/1
f 63/61/2 64/64/2 60/62/2
f 61/51/3 62/50/3 64/55/3
f 57/63/4 58/62/4 62/64/4
f 57/65/5 61/68/5 63/66/5
f 62/68/6 58/65/6 60/67/6
f 67/49/1 68/55/1 66/69/1
f 71/54/2 72/53/2 68/64/2
f 69/70/3 70/69/3 72/55/3
f 65/61/4 66/64/4 70/53/4
f 65/71/5 69/72/5 71/59/5
f 70/72/6 66/71/6 68/66/6
f 75/73/1 76/74/1 74/50/1
f 79/54/2 80/53/2 76/64/2
f 77/51/3 78/50/3 80/74/3
f 73/61/4 74/64/4 78/53/4
f 73/68/5 77/57/5 79/75/5
f 78/57/6 74/68/6 76/76/6
f 83/77/1 84/83/1 82/78/1
f 87/80/2 88/84/2 84/81/2
f 85/79/3 86/78/3 88/83/3
f 81/82/4 82/81/4 86/84/4
f 81/85/5 85/88/5 87/86/5
f 86/88/6 82/85/6 84/87/6
f 91/89/1 92/92/1 90/90/1
f 95/80/2 96/84/2 92/81/2
f 93/91/3 94/90/3 96/92/3
f 89/82/4 90/81/4 94/84/4
f 89/93/5 93/96/5 95/94/5
f 94/96/6 90/93/6 92/95/6
f 99/97/1 100/103/1 98/98/1
f 103/100/2 104/104/2 100/101/2
f 101/99/3 102/98/3 104/103/3
f 97/102/4 98/101/4 102/104/4
f 97/105/5 101/108/5 103/106/5
f 102/108/6 98/105/6 100/107/6
f 107/97/1 108/103/1 106/98/1
f 111/109/2 112/112/2 108/110/2
f 109/99/3 110/98/3 112/103/3
f 105/111/4 106/110/4 110/112/4
f 105/113/5 109/116/5 111/114/5
f 110/116/6 106/113/6 108/115/6
f 115/117/1 116/120/1 114/118/1
f 119/100/2 120/104/2 116/101/2
f 117/119/3 118/118/3 120/120/3
f 113/102/4 114/101/4 118/104/4
f 113/121/5 117/124/5 119/122/5
f 118/124/6 114/121/6 116/123/6
f 123/117/1 124/120/1 122/118/1
f 127/109/2 128/112/2 124/110/2
f 125/119/3 126/118/3 128/120/3
f 121/111/4 122/110/4 126/112/4
f 121/125/5 125/128/5 127/126/5
f 126/128/6 122/125/6 124/127/6
f 131/129/1 132/129/1 130/129/1
f 135/129/2 136/129/2 132/129/2
f 133/129/3 134/129/3 136/129/3
f 129/129/4 130/129/4 134/129/4
f 129/129/5 133/129/5 135/129/5
f 134/129/6 130/129/6 132/129/6
f 139/129/1 140/129/1 138/129/1
f 143/129/2 144/129/2 140/129/2
f 141/129/3 142/129/3 144/129/3
f 137/129/4 138/129/4 142/129/4
f 137/129/5 141/129/5 143/129/5
f 142/129/6 138/129/6 140/129/6
f 147/129/1 148/129/1 146/129/1
f 151/129/2 152/129/2 148/129/2
f 149/129/3 150/129/3 152/129/3
f 145/129/4 146/129/4 150/129/4
f 145/129/5 149/129/5 151/129/5
f 150/129/6 146/129/6 148/129/6
f 155/129/1 156/129/1 154/129/1
f 159/129/2 160/129/2 156/129/2
f 157/129/3 158/129/3 160/129/3
f 153/129/4 154/129/4 158/129/4
f 153/129/5 157/129/5 159/129/5
f 158/129/6 154/129/6 156/129/6
f 163/129/1 164/129/1 162/129/1
f 167/129/2 168/129/2 164/129/2
f 165/129/3 166/129/3 168/129/3
f 161/129/4 162/129/4 166/129/4
f 161/129/5 165/129/5 167/129/5
f 166/129/6 162/129/6 164/129/6
f 171/129/1 172/129/1 170/129/1
f 175/129/2 176/129/2 172/129/2
f 173/129/3 174/129/3 176/129/3
f 169/129/4 170/129/4 174/129/4
f 169/129/5 173/129/5 175/129/5
f 174/129/6 170/129/6 172/129/6
f 179/129/1 180/129/1 178/129/1
f 183/129/2 184/129/2 180/129/2
f 181/129/3 182/129/3 184/129/3
f 177/129/4 178/129/4 182/129/4
f 177/129/5 181/129/5 183/129/5
f 182/129/6 178/129/6 180/129/6
f 187/129/1 188/129/1 186/129/1
f 191/129/2 192/129/2 188/129/2
f 189/129/3 190/129/3 192/129/3
f 185/129/4 186/129/4 190/129/4
f 185/129/5 189/129/5 191/129/5
f 190/129/6 186/129/6 188/129/6
f 195/129/1 196/129/1 194/129/1
f 199/129/2 200/129/2 196/129/2
f 197/129/3 198/129/3 200/129/3
f 193/129/4 194/129/4 198/129/4
f 193/129/5 197/129/5 199/129/5
f 198/129/6 194/129/6 196/129/6
f 203/129/1 204/129/1 202/129/1
f 207/129/2 208/129/2 204/129/2
f 205/129/3 206/129/3 208/129/3
f 201/129/4 202/129/4 206/129/4
f 201/129/5 205/129/5 207/129/5
f 206/129/6 202/129/6 204/129/6
f 211/129/1 212/129/1 210/129/1
f 215/129/2 216/129/2 212/129/2
f 213/129/3 214/129/3 216/129/3
f 209/129/4 210/129/4 214/129/4
f 209/129/5 213/129/5 215/129/5
f 214/129/6 210/129/6 212/129/6
f 219/129/1 220/129/1 218/129/1
f 223/129/2 224/129/2 220/129/2
f 221/129/3 222/129/3 224/129/3
f 217/129/4 218/129/4 222/129/4
f 217/129/5 221/129/5 223/129/5
f 222/129/6 218/129/6 220/129/6
f 227/129/1 228/129/1 226/129/1
f 231/129/2 232/129/2 228/129/2
f 229/129/3 230/129/3 232/129/3
f 225/129/4 226/129/4 230/129/4
f 225/129/5 229/129/5 231/129/5
f 230/129/6 226/129/6 228/129/6
f 235/129/1 236/129/1 234/129/1
f 239/129/2 240/129/2 236/129/2
f 237/129/3 238/129/3 240/129/3
f 233/129/4 234/129/4 238/129/4
f 233/129/5 237/129/5 239/129/5
f 238/129/6 234/129/6 236/129/6
f 243/129/1 244/129/1 242/129/1
f 247/129/2 248/129/2 244/129/2
f 245/129/3 246/129/3 248/129/3
f 241/129/4 242/129/4 246/129/4
f 241/129/5 245/129/5 247/129/5
f 246/129/6 242/129/6 244/129/6
f 251/129/1 252/129/1 250/129/1
f 255/129/2 256/129/2 252/129/2
f 253/129/3 254/129/3 256/129/3
f 249/129/4 250/129/4 254/129/4
f 249/129/5 253/129/5 255/129/5
f 254/129/6 250/129/6 252/129/6
f 259/129/1 260/129/1 258/129/1
f 263/129/2 264/129/2 260/129/2
f 261/129/3 262/129/3 264/129/3
f 257/129/4 258/129/4 262/129/4
f 257/129/5 261/129/5 263/129/5
f 262/129/6 258/129/6 260/129/6
f 267/129/1 268/129/1 266/129/1
f 271/129/2 272/129/2 268/129/2
f 269/129/3 270/129/3 272/129/3
f 265/129/4 266/129/4 270/129/4
f 265/129/5 269/129/5 271/129/5
f 270/129/6 266/129/6 268/129/6
f 275/129/1 276/129/1 274/129/1
f 279/129/2 280/129/2 276/129/2
f 277/129/3 278/129/3 280/129/3
f 273/129/4 274/129/4 278/129/4
f 273/129/5 277/129/5 279/129/5
f 278/129/6 274/129/6 276/129/6
f 283/129/1 284/129/1 282/129/1
f 287/129/2 288/129/2 284/129/2
f 285/129/3 286/129/3 288/129/3
f 281/129/4 282/129/4 286/129/4
f 281/129/5 285/129/5 287/129/5
f 286/129/6 282/129/6 284/129/6
f 291/129/1 292/129/1 290/129/1
f 295/129/2 296/129/2 292/129/2
f 293/129/3 294/129/3 296/129/3
f 289/129/4 290/129/4 294/129/4
f 289/129/5 293/129/5 295/129/5
f 294/129/6 290/129/6 292/129/6
f 299/129/1 300/129/1 298/129/1
f 303/129/2 304/129/2 300/129/2
f 301/129/3 302/129/3 304/129/3
f 297/129/4 298/129/4 302/129/4
f 297/129/5 301/129/5 303/129/5
f 302/129/6 298/129/6 300/129/6
f 307/129/1 308/129/1 306/129/1
f 311/129/2 312/129/2 308/129/2
f 309/129/3 310/129/3 312/129/3
f 305/129/4 306/129/4 310/129/4
f 305/129/5 309/129/5 311/129/5
f 310/129/6 306/129/6 308/129/6
f 315/129/1 316/129/1 314/129/1
f 319/129/2 320/129/2 316/129/2
f 317/129/3 318/129/3 320/129/3
f 313/129/4 314/129/4 318/129/4
f 313/129/5 317/129/5 319/129/5
f 318/129/6 314/129/6 316/129/6
f 323/129/1 324/129/1 322/129/1
f 327/129/2 328/129/2 324/129/2
f 325/129/3 326/129/3 328/129/3
f 321/129/4 322/129/4 326/129/4
f 321/129/5 325/129/5 327/129/5
f 326/129/6 322/129/6 324/129/6
f 331/129/1 332/129/1 330/129/1
f 335/129/2 336/129/2 332/129/2
f 333/129/3 334/129/3 336/129/3
f 329/129/4 330/129/4 334/129/4
f 329/129/5 333/129/5 335/129/5
f 334/129/6 330/129/6 332/129/6
f 339/129/1 340/129/1 338/129/1
f 343/129/2 344/129/2 340/129/2
f 341/129/3 342/129/3 344/129/3
f 337/129/4 338/129/4 342/129/4
f 337/129/5 341/129/5 343/129/5
f 342/129/6 338/129/6 340/129/6
f 347/129/1 348/129/1 346/129/1
f 351/129/2 352/129/2 348/129/2
f 349/129/3 350/129/3 352/129/3
f 345/129/4 346/129/4 350/129/4
f 345/129/5 349/129/5 351/129/5
f 350/129/6 346/129/6 348/129/6
f 355/129/1 356/129/1 354/129/1
f 359/129/2 360/129/2 356/129/2
f 357/129/3 358/129/3 360/129/3
f 353/129/4 354/129/4 358/129/4
f 353/129/5 357/129/5 359/129/5
f 358/129/6 354/129/6 356/129/6
f 363/129/1 364/129/1 362/129/1
f 367/129/2 368/129/2 364/129/2
f 365/129/3 366/129/3 368/129/3
f 361/129/4 362/129/4 366/129/4
f 361/129/5 365/129/5 367/129/5
f 366/129/6 362/129/6 364/129/6
f 371/129/1 372/129/1 370/129/1
f 375/129/2 376/129/2 372/129/2
f 373/129/3 374/129/3 376/129/3
f 369/129/4 370/129/4 374/129/4
f 369/129/5 373/129/5 375/129/5
f 374/129/6 370/129/6 372/129/6
f 379/129/1 380/129/1 378/129/1
f 383/129/2 384/129/2 380/129/2
f 381/129/3 382/129/3 384/129/3
f 377/129/4 378/129/4 382/129/4
f 377/129/5 381/129/5 383/129/5
f 382/129/6 378/129/6 380/129/6
f 387/129/1 388/129/1 386/129/1
f 391/129/2 392/129/2 388/129/2
f 389/129/3 390/129/3 392/129/3
f 385/129/4 386/129/4 390/129/4
f 385/129/5 389/129/5 391/129/5
f 390/129/6 386/129/6 388/129/6
f 395/129/1 396/129/1 394/129/1
f 399/129/2 400/129/2 396/129/2
f 397/129/3 398/129/3 400/129/3
f 393/129/4 394/129/4 398/129/4
f 393/129/5 397/129/5 399/129/5
f 398/129/6 394/129/6 396/129/6
f 403/129/1 404/129/1 402/129/1
f 407/129/2 408/129/2 404/129/2
f 405/129/3 406/129/3 408/129/3
f 401/129/4 402/129/4 406/129/4
f 401/129/5 405/129/5 407/129/5
f 406/129/6 402/129/6 404/129/6
f 411/129/1 412/129/1 410/129/1
f 415/129/2 416/129/2 412/129/2
f 413/129/3 414/129/3 416/129/3
f 409/129/4 410/129/4 414/129/4
f 409/129/5 413/129/5 415/129/5
f 414/129/6 410/129/6 412/129/6
f 419/129/1 420/129/1 418/129/1
f 423/129/2 424/129/2 420/129/2
f 421/129/3 422/129/3 424/129/3
f 417/129/4 418/129/4 422/129/4
f 417/129/5 421/129/5 423/129/5
f 422/129/6 418/129/6 420/129/6
f 427/129/1 428/129/1 426/129/1
f 431/129/2 432/129/2 428/129/2
f 429/129/3 430/129/3 432/129/3
f 425/129/4 426/129/4 430/129/4
f 425/129/5 429/129/5 431/129/5
f 430/129/6 426/129/6 428/129/6
f 435/129/1 436/129/1 434/129/1
f 439/129/2 440/129/2 436/129/2
f 437/129/3 438/129/3 440/129/3
f 433/129/4 434/129/4 438/129/4
f 433/129/5 437/129/5 439/129/5
f 438/129/6 434/129/6 436/129/6
f 443/129/1 444/129/1 442/129/1
f 447/129/2 448/129/2 444/129/2
f 445/129/3 446/129/3 448/129/3
f 441/129/4 442/129/4 446/129/4
f 441/129/5 445/129/5 447/129/5
f 446/129/6 442/129/6 444/129/6
f 451/129/1 452/129/1 450/129/1
f 455/129/2 456/129/2 452/129/2
f 453/129/3 454/129/3 456/129/3
f 449/129/4 450/129/4 454/129/4
f 449/129/5 453/129/5 455/129/5
f 454/129/6 450/129/6 452/129/6
f 459/129/1 460/129/1 458/129/1
f 463/129/2 464/129/2 460/129/2
f 461/129/3 462/129/3 464/129/3
f 457/129/4 458/129/4 462/129/4
f 457/129/5 461/129/5 463/129/5
f 462/129/6 458/129/6 460/129/6
f 467/129/1 468/129/1 466/129/1
f 471/129/2 472/129/2 468/129/2
f 469/129/3 470/129/3 472/129/3
f 465/129/4 466/129/4 470/129/4
f 465/129/5 469/129/5 471/129/5
f 470/129/6 466/129/6 468/129/6
f 475/129/1 476/129/1 474/129/1
f 479/129/2 480/129/2 476/129/2
f 477/129/3 478/129/3 480/129/3
f 473/129/4 474/129/4 478/129/4
f 473/129/5 477/129/5 479/129/5
f 478/129/6 474/129/6 476/129/6
f 483/129/1 484/129/1 482/129/1
f 487/129/2 488/129/2 484/129/2
f 485/129/3 486/129/3 488/129/3
f 481/129/4 482/129/4 486/129/4
f 481/129/5 485/129/5 487/129/5
f 486/129/6 482/129/6 484/129/6
f 491/129/1 492/129/1 490/129/1
f 495/129/2 496/129/2 492/129/2
f 493/129/3 494/129/3 496/129/3
f 489/129/4 490/129/4 494/129/4
f 489/129/5 493/129/5 495/129/5
f 494/129/6 490/129/6 492/129/6
f 499/129/1 500/129/1 498/129/1
f 503/129/2 504/129/2 500/129/2
f 501/129/3 502/129/3 504/129/3
f 497/129/4 498/129/4 502/129/4
f 497/129/5 501/129/5 503/129/5
f 502/129/6 498/129/6 500/129/6
f 507/129/1 508/129/1 506/129/1
f 511/129/2 512/129/2 508/129/2
f 509/129/3 510/129/3 512/129/3
f 505/129/4 506/129/4 510/129/4
f 505/129/5 509/129/5 511/129/5
f 510/129/6 506/129/6 508/129/6
