# Blender 4.5.6 LTS
# www.blender.org
o pool_deck
v 6.380000 -6.379999 0.200000
v 6.380000 -6.379999 -0.020000
v 6.380000 26.379999 0.200000
v 6.380000 26.379999 -0.020000
v 8.380000 -6.379999 0.200000
v 8.380000 -6.379999 -0.020000
v 8.380000 26.379999 0.200000
v 8.380000 26.379999 -0.020000
v -8.380000 -6.379999 0.200000
v -8.380000 -6.379999 -0.020000
v -8.380000 26.379999 0.200000
v -8.380000 26.379999 -0.020000
v -6.380000 -6.379999 0.200000
v -6.380000 -6.379999 -0.020000
v -6.380000 26.379999 0.200000
v -6.380000 26.379999 -0.020000
v -6.380000 24.379999 0.200000
v -6.380000 24.379999 -0.020000
v -6.380000 26.379999 0.200000
v -6.380000 26.379999 -0.020000
v 6.380000 24.379999 0.200000
v 6.380000 24.379999 -0.020000
v 6.380000 26.379999 0.200000
v 6.380000 26.379999 -0.020000
v -6.380000 -6.380000 0.200000
v -6.380000 -6.380000 -0.020000
v -6.380000 -4.380000 0.200000
v -6.380000 -4.380000 -0.020000
v 6.380000 -6.380000 0.200000
v 6.380000 -6.380000 -0.020000
v 6.380000 -4.380000 0.200000
v 6.380000 -4.380000 -0.020000
vn -1.0000 -0.0000 -0.0000
vn -0.0000 1.0000 -0.0000
vn 1.0000 -0.0000 -0.0000
vn -0.0000 -1.0000 -0.0000
vn -0.0000 -0.0000 1.0000
vn -0.0000 -0.0000 -1.0000
vt 17.586666 -0.133333
vt -4.253333 0.013333
vt -4.253333 -0.133333
vt 5.586667 -0.133333
vt 4.253334 0.013333
vt 4.253334 -0.133333
vt 17.586666 0.013333
vt 5.586667 0.013333
vt 4.253334 -4.253333
vt 5.586667 17.586666
vt 4.253334 17.586666
vt 5.586667 -4.253333
vt -4.253334 -0.133333
vt -5.586667 0.013333
vt -5.586667 -0.133333
vt -4.253334 0.013333
vt -5.586667 -4.253333
vt -4.253334 17.586666
vt -5.586667 17.586666
vt -4.253334 -4.253333
vt 16.253332 0.013333
vt 16.253332 -0.133333
vt -4.253334 16.253332
vt 4.253334 16.253332
vt -2.920000 -0.133333
vt -2.920000 0.013333
vt -4.253334 -4.253334
vt 4.253334 -2.920000
vt -4.253334 -2.920000
vt 4.253334 -4.253334
s 0
f 3/1/1 2/2/1 1/3/1
f 7/4/2 4/5/2 3/6/2
f 5/3/3 8/7/3 7/1/3
f 1/6/4 6/8/4 5/4/4
f 1/9/5 7/10/5 3/11/5
f 6/12/6 4/11/6 8/10/6
f 11/1/1 10/2/1 9/3/1
f 15/13/2 12/14/2 11/15/2
f 13/3/3 16/7/3 15/1/3
f 9/15/4 14/16/4 13/13/4
f 9/17/5 15/18/5 11/19/5
f 14/20/6 12/19/6 16/18/6
f 19/1/1 18/21/1 17/22/1
f 23/6/2 20/16/2 19/13/2
f 21/22/3 24/7/3 23/1/3
f 17/13/4 22/5/4 21/6/4
f 17/23/5 23/11/5 19/18/5
f 22/24/6 20/18/6 24/11/6
f 27/25/1 26/16/1 25/13/1
f 31/6/2 28/16/2 27/13/2
f 29/13/3 32/26/3 31/25/3
f 25/13/4 30/5/4 29/6/4
f 25/27/5 31/28/5 27/29/5
f 30/30/6 28/29/6 32/28/6
f 3/1/1 4/7/1 2/2/1
f 7/4/2 8/8/2 4/5/2
f 5/3/3 6/2/3 8/7/3
f 1/6/4 2/5/4 6/8/4
f 1/9/5 5/12/5 7/10/5
f 6/12/6 2/9/6 4/11/6
f 11/1/1 12/7/1 10/2/1
f 15/13/2 16/16/2 12/14/2
f 13/3/3 14/2/3 16/7/3
f 9/15/4 10/14/4 14/16/4
f 9/17/5 13/20/5 15/18/5
f 14/20/6 10/17/6 12/19/6
f 19/1/1 20/7/1 18/21/1
f 23/6/2 24/5/2 20/16/2
f 21/22/3 22/21/3 24/7/3
f 17/13/4 18/16/4 22/5/4
f 17/23/5 21/24/5 23/11/5
f 22/24/6 18/23/6 20/18/6
f 27/25/1 28/26/1 26/16/1
f 31/6/2 32/5/2 28/16/2
f 29/13/3 30/16/3 32/26/3
f 25/13/4 26/16/4 30/5/4
f 25/27/5 29/30/5 31/28/5
f 30/30/6 26/27/6 28/29/6
