# Blender 4.5.6 LTS
# www.blender.org
o pool_light
v 5.979000 -0.080000 1.240000
v 5.979000 -0.080000 1.160000
v 5.979000 0.080000 1.240000
v 5.979000 0.080000 1.160000
v 5.991000 -0.080000 1.240000
v 5.991000 -0.080000 1.160000
v 5.991000 0.080000 1.240000
v 5.991000 0.080000 1.160000
v -5.991000 -0.080000 1.240000
v -5.991000 -0.080000 1.160000
v -5.991000 0.080000 1.240000
v -5.991000 0.080000 1.160000
v -5.979000 -0.080000 1.240000
v -5.979000 -0.080000 1.160000
v -5.979000 0.080000 1.240000
v -5.979000 0.080000 1.160000
v 5.979000 6.920000 1.240000
v 5.979000 6.920000 1.160000
v 5.979000 7.080000 1.240000
v 5.979000 7.080000 1.160000
v 5.991000 6.920000 1.240000
v 5.991000 6.920000 1.160000
v 5.991000 7.080000 1.240000
v 5.991000 7.080000 1.160000
v -5.991000 6.920000 1.240000
v -5.991000 6.920000 1.160000
v -5.991000 7.080000 1.240000
v -5.991000 7.080000 1.160000
v -5.979000 6.920000 1.240000
v -5.979000 6.920000 1.160000
v -5.979000 7.080000 1.240000
v -5.979000 7.080000 1.160000
v 5.979000 13.920000 1.240000
v 5.979000 13.920000 1.160000
v 5.979000 14.080000 1.240000
v 5.979000 14.080000 1.160000
v 5.991000 13.920000 1.240000
v 5.991000 13.920000 1.160000
v 5.991000 14.080000 1.240000
v 5.991000 14.080000 1.160000
v -5.991000 13.920000 1.240000
v -5.991000 13.920000 1.160000
v -5.991000 14.080000 1.240000
v -5.991000 14.080000 1.160000
v -5.979000 13.920000 1.240000
v -5.979000 13.920000 1.160000
v -5.979000 14.080000 1.240000
v -5.979000 14.080000 1.160000
v 5.979000 20.920000 1.240000
v 5.979000 20.920000 1.160000
v 5.979000 21.080000 1.240000
v 5.979000 21.080000 1.160000
v 5.991000 20.920000 1.240000
v 5.991000 20.920000 1.160000
v 5.991000 21.080000 1.240000
v 5.991000 21.080000 1.160000
v -5.991000 20.920000 1.240000
v -5.991000 20.920000 1.160000
v -5.991000 21.080000 1.240000
v -5.991000 21.080000 1.160000
v -5.979000 20.920000 1.240000
v -5.979000 20.920000 1.160000
v -5.979000 21.080000 1.240000
v -5.979000 21.080000 1.160000
vn -1.0000 -0.0000 -0.0000
vn -0.0000 1.0000 -0.0000
vn 1.0000 -0.0000 -0.0000
vn -0.0000 -1.0000 -0.0000
vn -0.0000 -0.0000 1.0000
vn -0.0000 -0.0000 -1.0000
vt 0.400000 -6.200000
vt -0.400000 -5.800000
vt -0.400000 -6.200000
vt 29.955002 -6.200000
vt 29.895000 -5.800000
vt 29.895000 -6.200000
vt 0.400000 -5.800000
vt 29.955002 -5.800000
vt 29.895000 -0.400000
vt 29.955002 0.400000
vt 29.895000 0.400000
vt 29.955002 -0.400000
vt -29.895000 -6.200000
vt -29.955002 -5.800000
vt -29.955002 -6.200000
vt -29.895000 -5.800000
vt -29.955002 -0.400000
vt -29.895000 0.400000
vt -29.955002 0.400000
vt -29.895000 -0.400000
vt 35.400002 -6.200000
vt 34.599998 -5.800000
vt 34.599998 -6.200000
vt 35.400002 -5.800000
vt 29.895000 34.599998
vt 29.955002 35.400002
vt 29.895000 35.400002
vt 29.955002 34.599998
vt -29.955002 34.599998
vt -29.895000 35.400002
vt -29.955002 35.400002
vt -29.895000 34.599998
vt 70.400002 -6.200000
vt 69.599998 -5.800000
vt 69.599998 -6.200000
vt 70.400002 -5.800000
vt 29.895000 69.599998
vt 29.955002 70.400002
vt 29.895000 70.400002
vt 29.955002 69.599998
vt -29.955002 69.599998
vt -29.895000 70.400002
vt -29.955002 70.400002
vt -29.895000 69.599998
vt 105.400002 -6.200000
vt 104.599998 -5.800000
vt 104.599998 -6.200000
vt 105.400002 -5.800000
vt 29.895000 104.599998
vt 29.955002 105.400002
vt 29.895000 105.400002
vt 29.955002 104.599998
vt -29.955002 104.599998
vt -29.895000 105.400002
vt -29.955002 105.400002
vt -29.895000 104.599998
s 0
f 3/1/1 2/2/1 1/3/1
f 7/4/2 4/5/2 3/6/2
f 5/3/3 8/7/3 7/1/3
f 1/6/4 6/8/4 5/4/4
f 1/9/5 7/10/5 3/11/5
f 6/12/6 4/11/6 8/10/6
f 11/1/1 10/2/1 9/3/1
f 15/13/2 12/14/2 11/15/2
f 13/3/3 16/7/3 15/1/3
f 9/15/4 14/16/4 13/13/4
f 9/17/5 15/18/5 11/19/5
f 14/20/6 12/19/6 16/18/6
f 19/21/1 18/22/1 17/23/1
f 23/4/2 20/5/2 19/6/2
f 21/23/3 24/24/3 23/21/3
f 17/6/4 22/8/4 21/4/4
f 17/25/5 23/26/5 19/27/5
f 22/28/6 20/27/6 24/26/6
f 27/21/1 26/22/1 25/23/1
f 31/13/2 28/14/2 27/15/2
f 29/23/3 32/24/3 31/21/3
f 25/15/4 30/16/4 29/13/4
f 25/29/5 31/30/5 27/31/5
f 30/32/6 28/31/6 32/30/6
f 35/33/1 34/34/1 33/35/1
f 39/4/2 36/5/2 35/6/2
f 37/35/3 40/36/3 39/33/3
f 33/6/4 38/8/4 37/4/4
f 33/37/5 39/38/5 35/39/5
f 38/40/6 36/39/6 40/38/6
f 43/33/1 42/34/1 41/35/1
f 47/13/2 44/14/2 43/15/2
f 45/35/3 48/36/3 47/33/3
f 41/15/4 46/16/4 45/13/4
f 41/41/5 47/42/5 43/43/5
f 46/44/6 44/43/6 48/42/6
f 51/45/1 50/46/1 49/47/1
f 55/4/2 52/5/2 51/6/2
f 53/47/3 56/48/3 55/45/3
f 49/6/4 54/8/4 53/4/4
f 49/49/5 55/50/5 51/51/5
f 54/52/6 52/51/6 56/50/6
f 59/45/1 58/46/1 57/47/1
f 63/13/2 60/14/2 59/15/2
f 61/47/3 64/48/3 63/45/3
f 57/15/4 62/16/4 61/13/4
f 57/53/5 63/54/5 59/55/5
f 62/56/6 60/55/6 64/54/6
f 3/1/1 4/7/1 2/2/1
f 7/4/2 8/8/2 4/5/2
f 5/3/3 6/2/3 8/7/3
f 1/6/4 2/5/4 6/8/4
f 1/9/5 5/12/5 7/10/5
f 6/12/6 2/9/6 4/11/6
f 11/1/1 12/7/1 10/2/1
f 15/13/2 16/16/2 12/14/2
f 13/3/3 14/2/3 16/7/3
f 9/15/4 10/14/4 14/16/4
f 9/17/5 13/20/5 15/18/5
f 14/20/6 10/17/6 12/19/6
f 19/21/1 20/24/1 18/22/1
f 23/4/2 24/8/2 20/5/2
f 21/23/3 22/22/3 24/24/3
f 17/6/4 18/5/4 22/8/4
f 17/25/5 21/28/5 23/26/5
f 22/28/6 18/25/6 20/27/6
f 27/21/1 28/24/1 26/22/1
f 31/13/2 32/16/2 28/14/2
f 29/23/3 30/22/3 32/24/3
f 25/15/4 26/14/4 30/16/4
f 25/29/5 29/32/5 31/30/5
f 30/32/6 26/29/6 28/31/6
f 35/33/1 36/36/1 34/34/1
f 39/4/2 40/8/2 36/5/2
f 37/35/3 38/34/3 40/36/3
f 33/6/4 34/5/4 38/8/4
f 33/37/5 37/40/5 39/38/5
f 38/40/6 34/37/6 36/39/6
f 43/33/1 44/36/1 42/34/1
f 47/13/2 48/16/2 44/14/2
f 45/35/3 46/34/3 48/36/3
f 41/15/4 42/14/4 46/16/4
f 41/41/5 45/44/5 47/42/5
f 46/44/6 42/41/6 44/43/6
f 51/45/1 52/48/1 50/46/1
f 55/4/2 56/8/2 52/5/2
f 53/47/3 54/46/3 56/48/3
f 49/6/4 50/5/4 54/8/4
f 49/49/5 53/52/5 55/50/5
f 54/52/6 50/49/6 52/51/6
f 59/45/1 60/48/1 58/46/1
f 63/13/2 64/16/2 60/14/2
f 61/47/3 62/46/3 64/48/3
f 57/15/4 58/14/4 62/16/4
f 57/53/5 61/56/5 63/54/5
f 62/56/6 58/53/6 60/55/6
