# Blender 4.5.6 LTS
# www.blender.org
o pool_hall.003
v -9.000000 26.074999 0.000000
v -9.000000 26.074999 -6.800000
v -9.000000 26.324999 0.000000
v -9.000000 26.324999 -6.800000
v -3.200000 26.074999 0.000000
v -3.200000 26.074999 -6.800000
v -3.200000 26.324999 0.000000
v -3.200000 26.324999 -6.800000
v 3.200000 26.074999 0.000000
v 3.200000 26.074999 -6.800000
v 3.200000 26.324999 0.000000
v 3.200000 26.324999 -6.800000
v 9.000000 26.074999 0.000000
v 9.000000 26.074999 -6.800000
v 9.000000 26.324999 0.000000
v 9.000000 26.324999 -6.800000
v -3.200000 26.074999 0.000000
v -3.200000 26.074999 -1.300000
v -3.200000 26.324999 0.000000
v -3.200000 26.324999 -1.300000
v 3.200000 26.074999 0.000000
v 3.200000 26.074999 -1.300000
v 3.200000 26.324999 0.000000
v 3.200000 26.324999 -1.300000
v -3.200000 26.074999 -4.400000
v -3.200000 26.074999 -6.800000
v -3.200000 26.324999 -4.400000
v -3.200000 26.324999 -6.800000
v 3.200000 26.074999 -4.400000
v 3.200000 26.074999 -6.800000
v 3.200000 26.324999 -4.400000
v 3.200000 26.324999 -6.800000
v 3.400000 26.200001 -5.990000
v 3.400000 26.200001 -6.250000
v 3.600000 26.200001 -5.990000
v 3.600000 26.200001 -6.250000
v -3.600000 26.200001 -5.990000
v -3.600000 26.200001 -6.250000
v -3.400000 26.200001 -5.990000
v -3.400000 26.200001 -6.250000
v -2.900000 -5.590000 -0.440000
v -2.900000 -5.590000 -0.500000
v -2.900000 -5.170000 -0.440000
v -2.900000 -5.170000 -0.500000
v -1.500000 -5.590000 -0.440000
v -1.500000 -5.590000 -0.500000
v -1.500000 -5.170000 -0.440000
v -1.500000 -5.170000 -0.500000
v -2.780000 -5.550000 -0.020000
v -2.780000 -5.550000 -0.460000
v -2.780000 -5.490000 -0.020000
v -2.780000 -5.490000 -0.460000
v -2.720000 -5.550000 -0.020000
v -2.720000 -5.550000 -0.460000
v -2.720000 -5.490000 -0.020000
v -2.720000 -5.490000 -0.460000
v -1.680000 -5.550000 -0.020000
v -1.680000 -5.550000 -0.460000
v -1.680000 -5.490000 -0.020000
v -1.680000 -5.490000 -0.460000
v -1.620000 -5.550000 -0.020000
v -1.620000 -5.550000 -0.460000
v -1.620000 -5.490000 -0.020000
v -1.620000 -5.490000 -0.460000
v -2.780000 -5.270000 -0.020000
v -2.780000 -5.270000 -0.460000
v -2.780000 -5.210000 -0.020000
v -2.780000 -5.210000 -0.460000
v -2.720000 -5.270000 -0.020000
v -2.720000 -5.270000 -0.460000
v -2.720000 -5.210000 -0.020000
v -2.720000 -5.210000 -0.460000
v -1.680000 -5.270000 -0.020000
v -1.680000 -5.270000 -0.460000
v -1.680000 -5.210000 -0.020000
v -1.680000 -5.210000 -0.460000
v -1.620000 -5.270000 -0.020000
v -1.620000 -5.270000 -0.460000
v -1.620000 -5.210000 -0.020000
v -1.620000 -5.210000 -0.460000
vn -1.0000 -0.0000 -0.0000
vn -0.0000 1.0000 -0.0000
vn 1.0000 -0.0000 -0.0000
vn -0.0000 -1.0000 -0.0000
vn -0.0000 -0.0000 1.0000
vn -0.0000 -0.0000 -1.0000
vt 13.400000 0.000000
vt 13.275000 3.400000
vt 13.275000 0.000000
vt -1.600000 0.000000
vt -4.500000 3.400000
vt -4.500000 0.000000
vt 13.400000 3.400000
vt -1.600000 3.400000
vt -4.500000 13.275000
vt -1.600000 13.400000
vt -4.500000 13.400000
vt -1.600000 13.275000
vt 4.500000 0.000000
vt 1.600000 3.400000
vt 1.600000 0.000000
vt 4.500000 3.400000
vt 1.600000 13.275000
vt 4.500000 13.400000
vt 1.600000 13.400000
vt 4.500000 13.275000
vt 13.275000 0.650000
vt 1.600000 0.000000
vt -1.600000 0.650000
vt -1.600000 0.000000
vt 13.400000 0.650000
vt 1.600000 0.650000
vt -1.600000 13.275000
vt 1.600000 13.400000
vt -1.600000 13.400000
vt 1.600000 13.275000
vt 13.400000 2.200000
vt 13.275000 2.200000
vt 1.600000 2.200000
vt -1.600000 3.400000
vt -1.600000 2.200000
vt 1.600000 3.400000
vt 1.800000 2.995000
vt 1.700000 3.125000
vt 1.700000 2.995000
vt -1.700000 2.995000
vt -1.800000 3.125000
vt -1.800000 2.995000
vt -2.585000 0.220000
vt -2.795000 0.250000
vt -2.795000 0.220000
vt -0.750000 0.220000
vt -1.450000 0.250000
vt -1.450000 0.220000
vt -2.585000 0.250000
vt -0.750000 0.250000
vt -1.450000 -2.795000
vt -0.750000 -2.585000
vt -1.450000 -2.585000
vt -0.750000 -2.795000
vt -2.745000 0.010000
vt -2.775000 0.230000
vt -2.775000 0.010000
vt -1.360000 0.010000
vt -1.390000 0.230000
vt -1.390000 0.010000
vt -2.745000 0.230000
vt -1.360000 0.230000
vt -1.390000 -2.775000
vt -1.360000 -2.745000
vt -1.390000 -2.745000
vt -1.360000 -2.775000
vt -0.810000 0.010000
vt -0.840000 0.230000
vt -0.840000 0.010000
vt -0.810000 0.230000
vt -0.840000 -2.775000
vt -0.810000 -2.745000
vt -0.840000 -2.745000
vt -0.810000 -2.775000
vt -2.605000 0.010000
vt -2.635000 0.230000
vt -2.635000 0.010000
vt -2.605000 0.230000
vt -1.390000 -2.635000
vt -1.360000 -2.605000
vt -1.390000 -2.605000
vt -1.360000 -2.635000
vt -0.840000 -2.635000
vt -0.810000 -2.605000
vt -0.840000 -2.605000
vt -0.810000 -2.635000
vt 1.800000 3.125000
vt -1.700000 3.125000
s 0
f 3/1/1 2/2/1 1/3/1
f 7/4/2 4/5/2 3/6/2
f 5/3/3 8/7/3 7/1/3
f 1/6/4 6/8/4 5/4/4
f 1/9/5 7/10/5 3/11/5
f 6/12/6 4/11/6 8/10/6
f 11/1/1 10/2/1 9/3/1
f 15/13/2 12/14/2 11/15/2
f 13/3/3 16/7/3 15/1/3
f 9/15/4 14/16/4 13/13/4
f 9/17/5 15/18/5 11/19/5
f 14/20/6 12/19/6 16/18/6
f 19/1/1 18/21/1 17/3/1
f 23/22/2 20/23/2 19/24/2
f 21/3/3 24/25/3 23/1/3
f 17/24/4 22/26/4 21/22/4
f 17/27/5 23/28/5 19/29/5
f 22/30/6 20/29/6 24/28/6
f 27/31/1 26/2/1 25/32/1
f 31/33/2 28/34/2 27/35/2
f 29/32/3 32/7/3 31/31/3
f 25/35/4 30/36/4 29/33/4
f 25/27/5 31/28/5 27/29/5
f 30/30/6 28/29/6 32/28/6
f 35/37/2 34/38/2 33/39/2
f 39/40/2 38/41/2 37/42/2
f 43/43/1 42/44/1 41/45/1
f 47/46/2 44/47/2 43/48/2
f 45/45/3 48/49/3 47/43/3
f 41/48/4 46/50/4 45/46/4
f 41/51/5 47/52/5 43/53/5
f 46/54/6 44/53/6 48/52/6
f 51/55/1 50/56/1 49/57/1
f 55/58/2 52/59/2 51/60/2
f 53/57/3 56/61/3 55/55/3
f 49/60/4 54/62/4 53/58/4
f 49/63/5 55/64/5 51/65/5
f 54/66/6 52/65/6 56/64/6
f 59/55/1 58/56/1 57/57/1
f 63/67/2 60/68/2 59/69/2
f 61/57/3 64/61/3 63/55/3
f 57/69/4 62/70/4 61/67/4
f 57/71/5 63/72/5 59/73/5
f 62/74/6 60/73/6 64/72/6
f 67/75/1 66/76/1 65/77/1
f 71/58/2 68/59/2 67/60/2
f 69/77/3 72/78/3 71/75/3
f 65/60/4 70/62/4 69/58/4
f 65/79/5 71/80/5 67/81/5
f 70/82/6 68/81/6 72/80/6
f 75/75/1 74/76/1 73/77/1
f 79/67/2 76/68/2 75/69/2
f 77/77/3 80/78/3 79/75/3
f 73/69/4 78/70/4 77/67/4
f 73/83/5 79/84/5 75/85/5
f 78/86/6 76/85/6 80/84/6
f 3/1/1 4/7/1 2/2/1
f 7/4/2 8/8/2 4/5/2
f 5/3/3 6/2/3 8/7/3
f 1/6/4 2/5/4 6/8/4
f 1/9/5 5/12/5 7/10/5
f 6/12/6 2/9/6 4/11/6
f 11/1/1 12/7/1 10/2/1
f 15/13/2 16/16/2 12/14/2
f 13/3/3 14/2/3 16/7/3
f 9/15/4 10/14/4 14/16/4
f 9/17/5 13/20/5 15/18/5
f 14/20/6 10/17/6 12/19/6
f 19/1/1 20/25/1 18/21/1
f 23/22/2 24/26/2 20/23/2
f 21/3/3 22/21/3 24/25/3
f 17/24/4 18/23/4 22/26/4
f 17/27/5 21/30/5 23/28/5
f 22/30/6 18/27/6 20/29/6
f 27/31/1 28/7/1 26/2/1
f 31/33/2 32/36/2 28/34/2
f 29/32/3 30/2/3 32/7/3
f 25/35/4 26/34/4 30/36/4
f 25/27/5 29/30/5 31/28/5
f 30/30/6 26/27/6 28/29/6
f 35/37/2 36/87/2 34/38/2
f 39/40/2 40/88/2 38/41/2
f 43/43/1 44/49/1 42/44/1
f 47/46/2 48/50/2 44/47/2
f 45/45/3 46/44/3 48/49/3
f 41/48/4 42/47/4 46/50/4
f 41/51/5 45/54/5 47/52/5
f 46/54/6 42/51/6 44/53/6
f 51/55/1 52/61/1 50/56/1
f 55/58/2 56/62/2 52/59/2
f 53/57/3 54/56/3 56/61/3
f 49/60/4 50/59/4 54/62/4
f 49/63/5 53/66/5 55/64/5
f 54/66/6 50/63/6 52/65/6
f 59/55/1 60/61/1 58/56/1
f 63/67/2 64/70/2 60/68/2
f 61/57/3 62/56/3 64/61/3
f 57/69/4 58/68/4 62/70/4
f 57/71/5 61/74/5 63/72/5
f 62/74/6 58/71/6 60/73/6
f 67/75/1 68/78/1 66/76/1
f 71/58/2 72/62/2 68/59/2
f 69/77/3 70/76/3 72/78/3
f 65/60/4 66/59/4 70/62/4
f 65/79/5 69/82/5 71/80/5
f 70/82/6 66/79/6 68/81/6
f 75/75/1 76/78/1 74/76/1
f 79/67/2 80/70/2 76/68/2
f 77/77/3 78/76/3 80/78/3
f 73/69/4 74/68/4 78/70/4
f 73/83/5 77/86/5 79/84/5
f 78/86/6 74/83/6 76/85/6
