# Blender 4.5.6 LTS
# www.blender.org
o pool_glass
v -3.100000 26.189999 -1.375000
v -3.100000 26.189999 -4.325000
v -3.100000 26.209999 -1.375000
v -3.100000 26.209999 -4.325000
v 3.100000 26.189999 -1.375000
v 3.100000 26.189999 -4.325000
v 3.100000 26.209999 -1.375000
v 3.100000 26.209999 -4.325000
vn -1.0000 -0.0000 -0.0000
vn -0.0000 1.0000 -0.0000
vn 1.0000 -0.0000 -0.0000
vn -0.0000 -1.0000 -0.0000
vn -0.0000 -0.0000 1.0000
vn -0.0000 -0.0000 -1.0000
vt 13.342500 0.687500
vt 13.332500 2.162500
vt 13.332500 0.687500
vt 1.550000 0.687500
vt -1.550000 2.162500
vt -1.550000 0.687500
vt 13.342500 2.162500
vt 1.550000 2.162500
vt -1.550000 13.332500
vt 1.550000 13.342500
vt -1.550000 13.342500
vt 1.550000 13.332500
s 0
f 3/1/1 2/2/1 1/3/1
f 7/4/2 4/5/2 3/6/2
f 5/3/3 8/7/3 7/1/3
f 1/6/4 6/8/4 5/4/4
f 1/9/5 7/10/5 3/11/5
f 6/12/6 4/11/6 8/10/6
f 3/1/1 4/7/1 2/2/1
f 7/4/2 8/8/2 4/5/2
f 5/3/3 6/2/3 8/7/3
f 1/6/4 2/5/4 6/8/4
f 1/9/5 5/12/5 7/10/5
f 6/12/6 2/9/6 4/11/6
